<?xml version="1.0" encoding="UTF-8"?> <svg xmlns="http://www.w3.org/2000/svg" id="Layer_1" viewBox="0 0 764 246.82"><defs><style>.cls-1{stroke-width:0px;}</style></defs><path class="cls-1" d="m686.36,207.39c-4.63,7.42-19.31,16.17-38.72,18.52-13.39,1.62-38.74,1.04-58.1-21.12h0c-5.1-6.11-8.9-13.05-11.31-20.63-.22-.6-.46-1.23-.67-1.88-.2-.63-.43-1.46-.65-2.32-.1-.42-.18-.65-.24-.84-.06-.19-.12-.36-.17-.61-.23-.83-.46-1.73-.66-2.61l-.35-1.57c-.29-1.35-.57-2.86-.85-4.61,0-.36-.07-.66-.13-.98-.05-.23-.09-.47-.12-.71-.14-.91-.25-1.85-.35-2.76,0-.44-.06-.84-.11-1.26-.02-.17-.05-.35-.07-.52l-.25-2.73.42-.1,113.66-28.26c-.62-5.92-2.25-11.63-4.86-16.99-4.14-9.39-10.89-17.24-19.54-22.73-9.42-6.1-20.28-10.13-31.4-11.64l-1.91-.3c-6.73-.83-13.58-.88-20.35-.16-36.72,4.18-66.43,32.59-72.25,69.08v.63c-.19,1.17-.35,2.36-.5,3.7,0,.43-.06.92-.12,1.4-.04.29-.08.58-.1.88-.02.28-.03.52-.04.74-.01.39-.02.76-.12,1.2,0,.72-.05,1.45-.09,2.15-.03.4-.05.8-.07,1.18.01.18.01.42,0,.65v4.56c.34,9.61,2.36,19.01,6.02,27.92,12.78,31.2,43.23,52.15,75.78,52.15,27.79.55,53.87-12.72,69.72-35.57-.7-1.81-1.18-3.07-1.48-3.85Zm-112.86-55.81c0-2.13.14-4.23.3-6.19v-.72c0-.52.06-1.03.12-1.52.02-.18.04-.37.06-.55.05-.52.17-1.37.27-2.15l.08-.61c.63-4.39,1.6-8.76,2.88-12.99,2.3-7.85,5.83-15.25,10.48-21.99,4.19-6.08,9.49-11.15,15.76-15.05,6.02-3.73,12.93-5.67,20.03-5.62,9.82,0,17.12,2.92,21.71,8.67,1.6,2.03,2.93,4.25,3.94,6.63,3.13,7.82,4.27,20.07.4,28.39-1.76,3.78-4.33,6.25-7.66,7.34h-.04s-68.36,17-68.36,17v-.64Z"></path><path class="cls-1" d="m348.24,225.81c-13.48,1.7-38.99,1.22-58.45-21.03-5.49-6.62-9.48-14.15-11.89-22.39-2.88-9.31-4.28-18.99-4.17-28.74-.06-9.09,1.23-18.13,3.85-26.85,2.3-7.85,5.83-15.26,10.48-21.99,4.18-6.08,9.47-11.14,15.74-15.04,5.95-3.68,12.79-5.63,19.78-5.63.09,0,.17,0,.26,0,9.83,0,17.14,2.92,21.71,8.67,4.72,6.2,7.16,13.9,6.87,21.68.09,3.74-.41,7.47-1.48,11.07l33.13-8.03c-5.32-13.91-16.17-24.33-32.27-30.98-15.03-6.21-28.42-6.52-28.98-6.53-.53,0-1.06-.01-1.58-.01-29,0-54.52,13.07-70.19,36.03-15.98,23.4-19.21,52.77-8.63,78.54,12.8,31.2,43.26,52.15,75.78,52.15,27.86.58,53.88-12.71,69.72-35.57l-1.42-3.83c-4.53,7.35-19.01,16.05-38.26,18.47Z"></path><path class="cls-1" d="m498.38,225.81c-13.47,1.7-38.99,1.22-58.45-21.03-5.5-6.61-9.49-14.14-11.89-22.39-2.88-9.31-4.29-18.98-4.19-28.74-.07-9.1,1.22-18.13,3.85-26.85,2.29-7.85,5.81-15.25,10.45-21.99,4.2-6.08,9.5-11.14,15.76-15.05,6.02-3.73,12.96-5.66,20.03-5.62,9.8,0,17.11,2.92,21.71,8.67,4.76,6.19,7.24,13.88,6.99,21.68.09,3.74-.41,7.47-1.5,11.08l33.12-8.03c-11.51-30.06-47.98-37.27-61.14-37.51-.53,0-1.06-.01-1.58-.01-29.01,0-54.52,13.07-70.19,36.02-15.98,23.4-19.2,52.77-8.63,78.55,12.8,31.2,43.26,52.15,75.78,52.15,27.81.56,53.86-12.72,69.72-35.56l-1.57-3.88c-4.51,7.36-19,16.08-38.28,18.51Z"></path><path class="cls-1" d="m737.66,213.63V.02l-48.12,12.1v3.91c3.28.53,16.49,5.25,16.49,15.15v181.77c0,25.17-19.27,26.99-26.32,27.46v2.84h84.3v-3.02c-6.96-.42-25.94-2.1-26.35-26.6Z"></path><path class="cls-1" d="m147.64,0l-47.85,12.06v2.98c2.19.41,8.46,3,11.27,7.25,1.68,2.54,1.91,5.26.71,8.08-7.4,17.07-21.43,49.85-36.28,84.55-21,49.06-42.72,99.79-44.58,103.51-9.77,19.74-23.37,21.06-29.91,21.7-.35.03-.68.07-1,.1v2.86h74.67v-2.88c-3.03-.02-18.23-.49-25.24-7.42-2.32-2.29-3.49-5.07-3.49-8.26,0-6.33,6.55-25.95,18.93-56.73l.09-.24.25-.06,99.03-24.94.33.85c4.45,11.22,26.62,67.86,26.62,80.71,0,14.4-20.75,15.93-24.26,16.08v2.85h97.6v-2.8c-5.82-.24-23.04-1.08-33.22-22.09-2.85-5.82-78.59-204.81-83.67-218.15Zm-78.96,158.21l.36-.91c.35-.88,49.91-120.84,51.4-124.08l.49-1.07.43,1.1c1.97,5.05,39.25,100.16,39.62,101.12l.21.53-92.51,23.31Z"></path></svg> 