<?xml version="1.0" encoding="UTF-8"?> <svg xmlns="http://www.w3.org/2000/svg" width="56" height="56" viewBox="0 0 56 56" fill="none"><rect width="56" height="56" rx="12" fill="#00473C"></rect><path fill-rule="evenodd" clip-rule="evenodd" d="M34.9524 27.3673H32.7166L30.062 20.3006V27.3673H27.5215V17.8181H31.6048L33.8703 23.9022L36.1215 17.8181H40.162V27.3673H37.6226V20.3006L34.9524 27.3673ZM28.871 29.6347V31.7764H23.2151V33.3319H28.7413V35.4183H23.2151V37.0423H28.871V39.184H20.646V29.6347H28.871ZM40.199 39.1842H36.9812L34.586 36.2231L32.2051 39.1842H29.0741L33.0992 34.4225L29.0598 29.6349H32.2766L34.6575 32.5678L37.0383 29.6349H40.1705L36.13 34.3685L40.199 39.1842ZM24.362 27.3676H27.2476L22.9332 17.8184H19.5999L15.2715 27.3676H18.1L18.9369 25.4171H23.525L24.362 27.3676ZM21.217 20.069L19.817 23.343H22.6312L21.217 20.069Z" fill="white"></path></svg> 