<?xml version="1.0" encoding="UTF-8"?> <svg xmlns="http://www.w3.org/2000/svg" id="Layer_1" viewBox="0 0 869.54 246.18"><defs><style>.cls-1{stroke-width:0px;}</style></defs><path class="cls-1" d="m848.34,245.56c11.5,0,21.2-8.46,21.2-19.96s-9.7-19.96-21.2-19.96-20.87,8.46-20.87,19.96,9.7,19.96,20.87,19.96m-47.44-144.31v-40.69h-29.66v40.69h-25.43v24.81h25.43v116.51h29.66v-116.51h30.28v-24.81s-30.28,0-30.28,0Zm-125.25-3.66c-15.12,0-37.84,7.84-46.01,25.43v-21.77h-29.66v141.32h29.66v-75.96c0-29.33,22.39-39.93,40.83-39.93s32.09,13.93,32.09,36.93v78.95h29.66v-80.81c.29-40.26-20.87-64.17-56.57-64.17m-208.2,62.32c4.23-23.62,20.58-34.79,42.35-34.79s37.84,12.69,40.83,34.79h-83.18Zm112.89,11.22c0-44.49-30.56-73.54-70.78-73.54s-72.92,29.04-72.92,73.82,32.09,74.72,72.92,74.72c26.9,0,52.33-12.69,64.74-36.32l-23.58-11.79c-7.84,13.02-23.29,20.58-39.93,20.58-22.67,0-39.64-11.79-43.59-34.79h112.56c.24-4.52.57-8.75.57-12.69m-238.29,47.2c-24.19,0-43.87-20.58-43.87-46.92s19.68-46.01,43.87-46.01c21.77,0,45.06,17.54,45.06,46.01.05,28.47-21.15,46.92-45.06,46.92m45.4-96.21c-9.36-16.02-29.04-24.53-49.01-24.53-38.12,0-69.88,29.04-69.88,74.15s31.75,74.44,70.21,74.44c19.06,0,39.36-8.79,48.72-24.81v21.2h29.66V0h-29.66v122.12h-.05Zm-144.31-24.53c-18.16,0-32.37,10.6-39.64,35.41v-31.75h-29.95v141.32h29.95v-50.86c0-38.12,12.12-65.64,37.84-65.64,5.75,0,13.02,1.19,20.87,4.85l5.13-28.14c-4.56-2.76-14.55-5.18-24.19-5.18m-169.32,120.74c-24.81,0-43.87-21.2-43.87-46.58s19.06-46.3,43.26-46.3c22.67,0,45.4,19.06,45.4,46.3,0,26.62-21.2,46.58-44.78,46.58m45.06-95.92c-9.08-16.02-28.43-24.81-49.01-24.81C29.95,97.59,0,129.67,0,171.74s31.75,74.44,68.69,74.44c21.77,0,41.16-11.22,50.24-27.52v23.91h29.66V101.25h-29.66v21.15h-.05Z"></path></svg> 