<?xml version="1.0" encoding="UTF-8"?> <svg xmlns="http://www.w3.org/2000/svg" width="222" height="73" viewBox="0 0 222 73" fill="none"><rect width="222" height="73" rx="8" fill="white"></rect><path d="M19.527 25H20.827L17.2 15.9H15.887L12.247 25H13.547L14.366 22.868H18.708L19.527 25ZM14.769 21.841L16.537 17.252L18.305 21.841H14.769ZM25.1851 18.357C24.4701 18.357 23.8851 18.708 23.5211 19.579V18.474H22.3511V25H23.5211V22.205C23.5211 20.177 24.0931 19.423 25.0551 19.423C25.2891 19.423 25.4841 19.475 25.6401 19.553L26.0431 18.578C25.8221 18.448 25.5231 18.357 25.1851 18.357ZM27.5536 25H28.7236V15.9H27.5536V25ZM33.7728 18.318C31.9268 18.318 30.5878 19.722 30.5878 21.75C30.5878 23.817 32.0438 25.13 33.8508 25.13C35.1118 25.13 36.0738 24.467 36.5938 23.518L35.8008 23.024C35.4108 23.713 34.7348 24.168 33.8768 24.168C32.7718 24.168 31.8098 23.427 31.7318 21.997H36.6718C36.8668 19.956 35.7618 18.318 33.7728 18.318ZM33.7468 19.254C34.7998 19.254 35.4888 20.008 35.5798 21.087H31.7708C31.8878 19.995 32.6938 19.254 33.7468 19.254ZM41.8686 18.318C40.8936 18.318 40.1396 18.773 39.6716 19.644V18.474H38.5016V25H39.6716V21.906C39.6716 20.177 40.5296 19.306 41.5956 19.306C42.5316 19.306 43.1036 19.956 43.1036 21.022V25H44.2736V20.879C44.2736 19.293 43.3116 18.318 41.8686 18.318ZM49.1778 18.318C47.3318 18.318 45.9928 19.722 45.9928 21.75C45.9928 23.817 47.4488 25.13 49.2558 25.13C50.5168 25.13 51.4788 24.467 51.9988 23.518L51.2058 23.024C50.8158 23.713 50.1398 24.168 49.2818 24.168C48.1768 24.168 47.2148 23.427 47.1368 21.997H52.0768C52.2718 19.956 51.1668 18.318 49.1778 18.318ZM49.1518 19.254C50.2048 19.254 50.8938 20.008 50.9848 21.087H47.1758C47.2928 19.995 48.0988 19.254 49.1518 19.254ZM64.6459 15.9L61.7599 23.713L58.8869 15.9H57.0929V25H58.2889V17.369L61.1099 25H62.3969L65.2439 17.304V25H66.4269V15.9H64.6459ZM71.6003 25.13C72.9913 25.13 74.0313 24.35 74.4733 23.154L73.5373 22.803C73.1603 23.674 72.5493 24.142 71.6133 24.142C70.4303 24.142 69.5593 23.154 69.5593 21.724C69.5593 20.281 70.4303 19.306 71.6003 19.306C72.5103 19.306 73.1083 19.787 73.3943 20.671L74.4083 20.359C74.0313 19.098 73.0563 18.318 71.6133 18.318C69.7543 18.318 68.3893 19.748 68.3893 21.789C68.3893 23.791 69.6893 25.13 71.6003 25.13ZM80.3873 25.13C82.3243 25.13 83.7413 24.077 84.3133 22.335L83.2993 21.971C82.8443 23.284 81.8303 24.051 80.4263 24.051C78.5023 24.051 77.1633 22.569 77.1633 20.463C77.1633 18.318 78.5153 16.823 80.3353 16.823C81.6873 16.823 82.6623 17.538 83.1173 18.799L84.1703 18.435C83.5853 16.732 82.2073 15.744 80.3483 15.744C77.8263 15.744 75.9283 17.707 75.9283 20.463C75.9283 23.219 77.7483 25.13 80.3873 25.13ZM88.9743 25.13C90.8593 25.13 92.2503 23.7 92.2503 21.711C92.2503 19.722 90.8593 18.318 88.9873 18.318C87.1023 18.318 85.7113 19.748 85.7113 21.737C85.7113 23.726 87.1023 25.13 88.9743 25.13ZM88.9873 24.142C87.7653 24.142 86.8813 23.154 86.8813 21.724C86.8813 20.294 87.7523 19.306 88.9743 19.306C90.1963 19.306 91.0803 20.294 91.0803 21.724C91.0803 23.154 90.2093 24.142 88.9873 24.142ZM98.0684 18.474L96.2224 23.622L94.2464 18.474H93.0244L95.6374 25.013L94.5844 27.6H95.7674L99.2774 18.474H98.0684Z" fill="#1F1E1D"></path><path d="M154.455 22.374C154.455 20.424 152.908 20.086 151.478 19.813V16.94C152.219 17.109 152.726 17.616 152.973 18.357L154.208 18.006C153.831 16.758 152.895 15.913 151.478 15.757V14.626H150.529V15.757C148.904 15.926 147.799 16.953 147.799 18.422C147.799 20.268 149.177 20.671 150.529 20.931V23.973C149.541 23.83 148.891 23.219 148.644 22.166L147.409 22.517C147.708 24.051 148.787 25 150.529 25.117V26.261H151.478V25.104C153.272 24.922 154.455 23.921 154.455 22.374ZM149.086 18.292C149.086 17.577 149.632 17.018 150.529 16.901V19.618C149.71 19.423 149.086 19.111 149.086 18.292ZM151.478 23.973V21.126C152.401 21.334 153.142 21.633 153.142 22.556C153.142 23.31 152.492 23.843 151.478 23.973ZM159.107 15.731C157.261 15.731 155.935 16.992 155.935 18.799C155.935 20.554 157.157 21.763 158.899 21.763C159.939 21.763 160.758 21.321 161.226 20.554C161.213 22.725 160.368 23.947 159.042 23.947C158.171 23.947 157.612 23.388 157.287 22.374L156.169 22.764C156.598 24.324 157.56 25.13 159.068 25.13C161.187 25.13 162.565 23.323 162.565 20.333C162.565 17.395 161.278 15.731 159.107 15.731ZM159.133 20.658C158.08 20.658 157.313 19.891 157.313 18.786C157.313 17.668 158.041 16.927 159.12 16.927C160.173 16.927 160.927 17.694 160.927 18.786C160.927 19.891 160.173 20.658 159.133 20.658ZM164.431 23.505V25H165.315V25.468C165.315 25.819 165.12 26.04 164.808 26.04C164.613 26.04 164.431 26.014 164.275 25.91L164.002 26.365C164.223 26.521 164.496 26.599 164.808 26.599C165.51 26.599 165.965 26.118 165.965 25.377V23.505H164.431ZM171.351 25.13C173.613 25.13 174.861 23.453 174.861 20.437C174.861 17.421 173.613 15.731 171.351 15.731C169.089 15.731 167.841 17.421 167.841 20.437C167.841 23.453 169.089 25.13 171.351 25.13ZM171.351 23.908C169.986 23.908 169.219 22.673 169.219 20.437C169.219 18.201 169.986 16.953 171.351 16.953C172.716 16.953 173.483 18.201 173.483 20.437C173.483 22.673 172.716 23.908 171.351 23.908ZM180.196 25.13C182.458 25.13 183.706 23.453 183.706 20.437C183.706 17.421 182.458 15.731 180.196 15.731C177.934 15.731 176.686 17.421 176.686 20.437C176.686 23.453 177.934 25.13 180.196 25.13ZM180.196 23.908C178.831 23.908 178.064 22.673 178.064 20.437C178.064 18.201 178.831 16.953 180.196 16.953C181.561 16.953 182.328 18.201 182.328 20.437C182.328 22.673 181.561 23.908 180.196 23.908ZM189.041 25.13C191.303 25.13 192.551 23.453 192.551 20.437C192.551 17.421 191.303 15.731 189.041 15.731C186.779 15.731 185.531 17.421 185.531 20.437C185.531 23.453 186.779 25.13 189.041 25.13ZM189.041 23.908C187.676 23.908 186.909 22.673 186.909 20.437C186.909 18.201 187.676 16.953 189.041 16.953C190.406 16.953 191.173 18.201 191.173 20.437C191.173 22.673 190.406 23.908 189.041 23.908ZM194.277 25H195.685V23.625H194.277V25ZM199.904 25.1C201.654 25.1 202.634 23.81 202.634 21.49C202.634 19.16 201.654 17.87 199.904 17.87C198.144 17.87 197.164 19.16 197.164 21.49C197.164 23.81 198.144 25.1 199.904 25.1ZM199.904 24.04C198.914 24.04 198.364 23.13 198.364 21.49C198.364 19.85 198.914 18.93 199.904 18.93C200.884 18.93 201.434 19.85 201.434 21.49C201.434 23.13 200.884 24.04 199.904 24.04ZM206.737 25.1C208.487 25.1 209.467 23.81 209.467 21.49C209.467 19.16 208.487 17.87 206.737 17.87C204.977 17.87 203.997 19.16 203.997 21.49C203.997 23.81 204.977 25.1 206.737 25.1ZM206.737 24.04C205.747 24.04 205.197 23.13 205.197 21.49C205.197 19.85 205.747 18.93 206.737 18.93C207.717 18.93 208.267 19.85 208.267 21.49C208.267 23.13 207.717 24.04 206.737 24.04Z" fill="#00473C"></path><rect x="12" y="37" width="42.4615" height="24" rx="1.84615" fill="#ECEBE3" fill-opacity="0.5"></rect><g clip-path="url(#clip0_1142_17434)"><path fill-rule="evenodd" clip-rule="evenodd" d="M32.5486 43.226C32.732 43.1131 32.9633 43.1131 33.1467 43.226L38.7106 46.6499C38.928 46.7837 39.0301 47.0457 38.9606 47.2913C38.8911 47.537 38.6668 47.7066 38.4115 47.7066H37.2702V50.8452H37.9835C38.2987 50.8452 38.5542 51.1007 38.5542 51.4158C38.5542 51.731 38.2987 51.9865 37.9835 51.9865H36.6996H34.1316H31.5637H28.9958H27.7118C27.3966 51.9865 27.1411 51.731 27.1411 51.4158C27.1411 51.1007 27.3966 50.8452 27.7118 50.8452H28.4251V47.7066H27.2838C27.0285 47.7066 26.8042 47.537 26.7347 47.2913C26.6652 47.0457 26.7673 46.7837 26.9847 46.6499L32.5486 43.226ZM36.1289 47.7066V50.8452H34.7023V47.7066H36.1289ZM33.561 47.7066V50.8452H32.1343V47.7066H33.561ZM30.993 47.7066V50.8452H29.5664V47.7066H30.993ZM36.3954 46.5653H34.1316H31.5637H29.2999L32.8477 44.3821L36.3954 46.5653ZM26.8558 52.5571C26.5406 52.5571 26.2852 52.8126 26.2852 53.1278C26.2852 53.4429 26.5406 53.6984 26.8558 53.6984H38.8395C39.1547 53.6984 39.4102 53.4429 39.4102 53.1278C39.4102 52.8126 39.1547 52.5571 38.8395 52.5571H26.8558Z" fill="#00473C"></path></g><path d="M63.2429 48.452C64.0459 48.188 64.4969 47.594 64.4969 46.736C64.4969 45.482 63.5619 44.668 62.1209 44.668C60.7019 44.668 59.7449 45.46 59.6129 46.758L60.5479 46.912C60.7019 46.076 61.2299 45.548 62.0659 45.548C62.9129 45.548 63.4629 46.043 63.4629 46.824C63.4629 47.627 62.8799 48.056 61.8239 48.056H61.4169V48.936H61.8899C63.0559 48.936 63.7379 49.431 63.7379 50.344C63.7379 51.18 63.0999 51.719 62.1209 51.719C61.1309 51.719 60.5479 51.235 60.3499 50.399L59.3929 50.564C59.6019 51.862 60.5809 52.61 62.0989 52.61C63.7159 52.61 64.7719 51.741 64.7719 50.41C64.7719 49.409 64.2219 48.738 63.2429 48.452ZM67.6796 51.587L69.0106 50.641C70.7266 49.431 71.3646 48.287 71.3646 47.11C71.3646 45.625 70.3636 44.668 68.8236 44.668C67.2506 44.668 66.2276 45.625 66.2276 47.099C66.2276 47.517 66.3046 47.902 66.4366 48.232L67.3606 47.924C67.2726 47.682 67.2176 47.407 67.2176 47.121C67.2176 46.186 67.8336 45.581 68.7796 45.581C69.7146 45.581 70.3196 46.197 70.3196 47.165C70.3196 48.111 69.8026 49.057 68.2846 50.146L66.2166 51.642V52.5H71.4306V51.587H67.6796ZM76.8892 48.485C77.6372 48.188 78.0882 47.583 78.0882 46.769C78.0882 45.548 77.1092 44.668 75.6242 44.668C74.1502 44.668 73.1602 45.548 73.1602 46.769C73.1602 47.583 73.6112 48.188 74.3592 48.485C73.4572 48.804 72.9072 49.497 72.9072 50.41C72.9072 51.686 73.9962 52.61 75.6242 52.61C77.2632 52.61 78.3412 51.686 78.3412 50.41C78.3412 49.497 77.7912 48.804 76.8892 48.485ZM75.6352 45.559C76.5042 45.559 77.0762 46.065 77.0762 46.846C77.0762 47.605 76.5042 48.067 75.6352 48.067C74.7442 48.067 74.1722 47.605 74.1722 46.846C74.1722 46.065 74.7442 45.559 75.6352 45.559ZM75.6242 51.719C74.6122 51.719 73.9412 51.169 73.9412 50.344C73.9412 49.508 74.6122 48.925 75.6242 48.925C76.6362 48.925 77.3072 49.508 77.3072 50.344C77.3072 51.169 76.6362 51.719 75.6242 51.719ZM82.3571 44.668C80.8061 44.668 79.7061 45.746 79.7061 47.242C79.7061 48.727 80.7511 49.772 82.2251 49.772C83.1381 49.772 83.8641 49.365 84.2601 48.639C84.2711 50.619 83.5121 51.719 82.3241 51.719C81.5431 51.719 81.0371 51.224 80.7511 50.333L79.9151 50.619C80.2671 51.939 81.0921 52.61 82.3351 52.61C84.1171 52.61 85.2611 51.103 85.2611 48.573C85.2611 46.087 84.1721 44.668 82.3571 44.668ZM82.3901 48.936C81.4441 48.936 80.7401 48.243 80.7401 47.253C80.7401 46.241 81.4001 45.559 82.3681 45.559C83.3251 45.559 83.9961 46.252 83.9961 47.253C83.9961 48.243 83.3141 48.936 82.3901 48.936ZM92.373 49.948H91.372V44.8H90.316L86.609 49.959V50.839H90.36V52.5H91.372V50.839H92.373V49.948ZM90.382 46.219V49.948H87.72L90.382 46.219ZM95.0919 51.587L96.4229 50.641C98.1389 49.431 98.7769 48.287 98.7769 47.11C98.7769 45.625 97.7759 44.668 96.2359 44.668C94.6629 44.668 93.6399 45.625 93.6399 47.099C93.6399 47.517 93.7169 47.902 93.8489 48.232L94.7729 47.924C94.6849 47.682 94.6299 47.407 94.6299 47.121C94.6299 46.186 95.2459 45.581 96.1919 45.581C97.1269 45.581 97.7319 46.197 97.7319 47.165C97.7319 48.111 97.2149 49.057 95.6969 50.146L93.6289 51.642V52.5H98.8429V51.587H95.0919ZM103.499 47.506C102.586 47.506 101.849 47.924 101.464 48.65V48.639C101.453 46.659 102.223 45.559 103.411 45.559C104.181 45.559 104.687 46.043 104.973 46.923L105.82 46.659C105.457 45.339 104.643 44.668 103.4 44.668C101.618 44.668 100.463 46.175 100.463 48.683C100.463 51.224 101.585 52.61 103.378 52.61C104.962 52.61 106.018 51.532 106.018 50.025C106.018 48.562 104.973 47.506 103.499 47.506ZM103.367 51.719C102.41 51.719 101.728 51.026 101.728 50.025C101.728 49.035 102.41 48.342 103.345 48.342C104.291 48.342 104.984 49.035 104.984 50.025C104.984 51.037 104.346 51.719 103.367 51.719ZM107.222 44.8V46.571H108.267V45.702H111.314C109.664 47.66 108.872 49.508 108.872 51.961V52.5H109.906V51.95C109.906 49.277 110.654 47.737 112.436 45.614V44.8H107.222ZM117.455 48.452C118.258 48.188 118.709 47.594 118.709 46.736C118.709 45.482 117.774 44.668 116.333 44.668C114.914 44.668 113.957 45.46 113.825 46.758L114.76 46.912C114.914 46.076 115.442 45.548 116.278 45.548C117.125 45.548 117.675 46.043 117.675 46.824C117.675 47.627 117.092 48.056 116.036 48.056H115.629V48.936H116.102C117.268 48.936 117.95 49.431 117.95 50.344C117.95 51.18 117.312 51.719 116.333 51.719C115.343 51.719 114.76 51.235 114.562 50.399L113.605 50.564C113.814 51.862 114.793 52.61 116.311 52.61C117.928 52.61 118.984 51.741 118.984 50.41C118.984 49.409 118.434 48.738 117.455 48.452Z" fill="#897E7A"></path><rect x="134" y="37" width="76" height="24" rx="4" fill="#E9F7EF"></rect><path d="M145.322 52.61C147.115 52.61 148.336 51.73 148.336 50.278C148.336 47.154 143.815 48.826 143.815 46.824C143.815 46.153 144.398 45.658 145.344 45.658C146.213 45.658 146.818 46.131 147.071 46.879L148.127 46.582C147.775 45.416 146.84 44.657 145.41 44.657C143.815 44.657 142.704 45.581 142.704 46.934C142.704 50.058 147.192 48.364 147.192 50.432C147.192 51.136 146.466 51.609 145.399 51.609C144.354 51.609 143.672 51.092 143.397 50.102L142.374 50.41C142.682 51.774 143.727 52.61 145.322 52.61ZM153.466 46.967V49.442C153.466 50.905 152.784 51.653 151.904 51.653C151.167 51.653 150.738 51.136 150.738 50.333V46.967H149.616V50.465C149.616 51.785 150.43 52.61 151.618 52.61C152.443 52.61 153.081 52.214 153.466 51.499V52.5H154.588V46.967H153.466ZM158.837 52.61C160.036 52.61 160.916 51.939 161.29 50.938L160.399 50.608C160.08 51.29 159.607 51.653 158.848 51.653C157.913 51.653 157.22 50.861 157.22 49.717C157.22 48.573 157.913 47.781 158.837 47.781C159.563 47.781 160.025 48.155 160.267 48.848L161.235 48.562C160.916 47.495 160.091 46.835 158.848 46.835C157.253 46.835 156.098 48.045 156.098 49.794C156.098 51.466 157.187 52.61 158.837 52.61ZM165.183 52.61C166.382 52.61 167.262 51.939 167.636 50.938L166.745 50.608C166.426 51.29 165.953 51.653 165.194 51.653C164.259 51.653 163.566 50.861 163.566 49.717C163.566 48.573 164.259 47.781 165.183 47.781C165.909 47.781 166.371 48.155 166.613 48.848L167.581 48.562C167.262 47.495 166.437 46.835 165.194 46.835C163.599 46.835 162.444 48.045 162.444 49.794C162.444 51.466 163.533 52.61 165.183 52.61ZM171.495 46.835C169.922 46.835 168.789 48.034 168.789 49.75C168.789 51.499 170.021 52.61 171.561 52.61C172.628 52.61 173.442 52.071 173.893 51.279L173.156 50.784C172.826 51.334 172.276 51.686 171.583 51.686C170.692 51.686 169.933 51.103 169.878 50.003H173.97C174.179 48.287 173.2 46.835 171.495 46.835ZM171.473 47.715C172.298 47.715 172.859 48.298 172.936 49.156H169.911C169.999 48.287 170.648 47.715 171.473 47.715ZM177.895 46.835C176.322 46.835 175.189 48.034 175.189 49.75C175.189 51.499 176.421 52.61 177.961 52.61C179.028 52.61 179.842 52.071 180.293 51.279L179.556 50.784C179.226 51.334 178.676 51.686 177.983 51.686C177.092 51.686 176.333 51.103 176.278 50.003H180.37C180.579 48.287 179.6 46.835 177.895 46.835ZM177.873 47.715C178.698 47.715 179.259 48.298 179.336 49.156H176.311C176.399 48.287 177.048 47.715 177.873 47.715ZM185.955 44.8V47.737C185.581 47.165 184.976 46.835 184.173 46.835C182.611 46.835 181.588 48.023 181.588 49.717C181.588 51.422 182.611 52.61 184.173 52.61C184.987 52.61 185.581 52.28 185.955 51.708V52.5H187.077V44.8H185.955ZM184.338 51.653C183.359 51.653 182.71 50.861 182.71 49.717C182.71 48.573 183.359 47.781 184.338 47.781C185.317 47.781 185.955 48.573 185.955 49.717C185.955 50.861 185.317 51.653 184.338 51.653ZM191.327 46.835C189.754 46.835 188.621 48.034 188.621 49.75C188.621 51.499 189.853 52.61 191.393 52.61C192.46 52.61 193.274 52.071 193.725 51.279L192.988 50.784C192.658 51.334 192.108 51.686 191.415 51.686C190.524 51.686 189.765 51.103 189.71 50.003H193.802C194.011 48.287 193.032 46.835 191.327 46.835ZM191.305 47.715C192.13 47.715 192.691 48.298 192.768 49.156H189.743C189.831 48.287 190.48 47.715 191.305 47.715ZM199.387 44.8V47.737C199.013 47.165 198.408 46.835 197.605 46.835C196.043 46.835 195.02 48.023 195.02 49.717C195.02 51.422 196.043 52.61 197.605 52.61C198.419 52.61 199.013 52.28 199.387 51.708V52.5H200.509V44.8H199.387ZM197.77 51.653C196.791 51.653 196.142 50.861 196.142 49.717C196.142 48.573 196.791 47.781 197.77 47.781C198.749 47.781 199.387 48.573 199.387 49.717C199.387 50.861 198.749 51.653 197.77 51.653Z" fill="#239754"></path><defs><clipPath id="clip0_1142_17434"><rect width="13.6957" height="13.6957" fill="white" transform="translate(26 42)"></rect></clipPath></defs></svg> 