<?xml version="1.0" encoding="UTF-8"?> <svg xmlns="http://www.w3.org/2000/svg" id="Layer_1" viewBox="0 0 872.89 337.25"><defs><style>.cls-1{stroke-width:0px;}</style></defs><path class="cls-1" d="m86.82,101.97c1.38-.69,2.49-1.65,3.33-2.87.84-1.3,1.26-2.95,1.26-4.93,0-3.37-1.26-5.7-3.79-7-2.52-1.3-5.89-1.95-10.1-1.95h-10.9v18.59h11.02c1.53,0,3.1-.11,4.7-.34,1.68-.31,3.18-.8,4.48-1.49Z"></path><path class="cls-1" d="m0,158.71h158.71V0H0v158.71ZM47.68,38.39h32.36c3.14,0,6.35.34,9.64,1.03,3.29.61,6.27,1.72,8.95,3.33,2.68,1.53,4.86,3.63,6.54,6.31,1.68,2.68,2.52,6.08,2.52,10.21,0,4.51-1.22,8.26-3.67,11.25-2.45,2.91-5.66,5.01-9.64,6.31v.23c2.3.38,4.44,1.11,6.43,2.18,2.07.99,3.83,2.3,5.28,3.9,1.53,1.61,2.72,3.48,3.56,5.62.92,2.14,1.38,4.55,1.38,7.23,0,4.44-.88,8.19-2.64,11.25-1.76,2.98-4.09,5.39-7,7.23-2.91,1.84-6.24,3.17-9.98,4.02-3.67.76-7.46,1.15-11.36,1.15h-32.36V38.39Z"></path><path class="cls-1" d="m85.67,68.57c2.07-1.53,3.1-3.75,3.1-6.66,0-2.75-1.07-4.74-3.21-5.97-2.07-1.3-5.16-1.95-9.3-1.95h-9.64v16.75h10.56c3.67,0,6.5-.73,8.49-2.18Z"></path><path class="cls-1" d="m242.65,96.81c2.07,2.22,4.51,3.98,7.34,5.28,2.83,1.22,5.97,1.84,9.41,1.84s6.58-.61,9.41-1.84c2.83-1.3,5.28-3.06,7.34-5.28,2.07-2.22,3.67-4.86,4.82-7.92,1.15-3.14,1.72-6.54,1.72-10.21s-.57-6.81-1.72-9.87c-1.15-3.06-2.75-5.66-4.82-7.8-1.99-2.22-4.44-3.94-7.34-5.16-2.83-1.3-5.97-1.95-9.41-1.95s-6.58.65-9.41,1.95c-2.83,1.22-5.28,2.95-7.34,5.16-2.07,2.14-3.67,4.74-4.82,7.8-1.07,3.06-1.61,6.35-1.61,9.87s.57,7.08,1.72,10.21c1.15,3.06,2.72,5.7,4.7,7.92Z"></path><path class="cls-1" d="m178.55,158.71h158.71V0h-158.71v158.71Zm40.01-97.59c2.22-5.28,5.28-9.75,9.18-13.43,3.98-3.67,8.65-6.5,14-8.49,5.43-1.99,11.32-2.98,17.67-2.98s12.24.99,17.67,2.98c5.43,1.99,10.1,4.82,14,8.49,3.98,3.67,7.08,8.15,9.3,13.43,2.22,5.2,3.33,11.06,3.33,17.56s-1.11,12.32-3.33,17.67c-2.22,5.28-5.32,9.83-9.3,13.66-3.9,3.75-8.57,6.66-14,8.72-5.43,2.07-11.32,3.1-17.67,3.1s-12.24-1.03-17.67-3.1c-5.36-2.07-10.02-4.97-14-8.72-3.9-3.83-6.96-8.38-9.18-13.66-2.22-5.35-3.33-11.25-3.33-17.67s1.11-12.36,3.33-17.56Z"></path><path class="cls-1" d="m357.09,158.71h158.71V0h-158.71v158.71Zm38.98-120.31h23.64l15.15,25.25,14.92-25.25h22.84l-25.71,38.33,29.38,42.92h-24.21l-17.79-28.69-17.1,28.69h-23.41l28.46-42.92-26.16-38.33Z"></path><path class="cls-1" d="m0,337.25h158.71v-158.71H0v158.71Zm43.68-97.47c2.3-5.28,5.43-9.75,9.41-13.43,3.98-3.75,8.64-6.62,14-8.61,5.36-1.99,11.13-2.98,17.33-2.98s12.39.99,17.9,2.98c5.51,1.91,9.98,4.51,13.43,7.8l-12.39,14.12c-1.91-2.22-4.44-4.02-7.57-5.39-3.14-1.45-6.69-2.18-10.67-2.18-3.44,0-6.62.65-9.52,1.95-2.91,1.22-5.43,2.98-7.57,5.28-2.14,2.22-3.83,4.9-5.05,8.03-1.15,3.06-1.72,6.43-1.72,10.1s.54,7.19,1.61,10.33c1.07,3.14,2.64,5.85,4.71,8.15,2.14,2.22,4.74,3.98,7.8,5.28,3.14,1.22,6.69,1.84,10.67,1.84,2.3,0,4.48-.15,6.54-.46,2.07-.38,3.98-.96,5.74-1.72v-14.8h-15.49v-15.84h33.51v43.03c-3.98,2.07-8.65,3.75-14,5.05-5.28,1.3-11.05,1.95-17.33,1.95s-12.51-1.03-18.02-3.1c-5.43-2.07-10.14-4.97-14.12-8.72-3.9-3.75-6.96-8.22-9.18-13.43-2.22-5.28-3.33-11.13-3.33-17.56s1.11-12.39,3.33-17.67Z"></path><path class="cls-1" d="m178.55,337.25h158.71v-158.71h-158.71v158.71Zm47.68-120.32h30.98c3.9,0,7.69.42,11.36,1.26,3.75.76,7.08,2.1,9.98,4.02,2.98,1.91,5.35,4.44,7.11,7.57,1.76,3.14,2.64,7.04,2.64,11.71,0,5.51-1.49,10.14-4.48,13.89-2.98,3.75-7.11,6.43-12.39,8.03l21.23,34.77h-22.95l-17.56-32.25h-6.66v32.25h-19.28v-81.25Z"></path><path class="cls-1" d="m259.62,251.36c1.68-.31,3.21-.8,4.59-1.49,1.38-.69,2.49-1.68,3.33-2.98.92-1.3,1.38-2.98,1.38-5.05,0-1.91-.42-3.44-1.26-4.59-.77-1.22-1.8-2.14-3.1-2.75-1.22-.69-2.64-1.15-4.25-1.38-1.53-.23-3.02-.34-4.48-.34h-10.44v18.93h9.3c1.61,0,3.25-.11,4.93-.34Z"></path><path class="cls-1" d="m357.09,337.25h158.71v-158.71h-158.71v158.71Zm40.01-97.59c2.22-5.28,5.28-9.75,9.18-13.43,3.98-3.67,8.65-6.5,14-8.49,5.43-1.99,11.32-2.98,17.67-2.98s12.24.99,17.67,2.98c5.43,1.99,10.1,4.82,14,8.49,3.98,3.67,7.08,8.15,9.3,13.43,2.22,5.2,3.33,11.05,3.33,17.56s-1.11,12.32-3.33,17.67c-2.22,5.28-5.32,9.83-9.3,13.66-3.9,3.75-8.57,6.66-14,8.72-5.43,2.07-11.32,3.1-17.67,3.1s-12.24-1.03-17.67-3.1c-5.36-2.07-10.02-4.97-14-8.72-3.9-3.83-6.96-8.38-9.18-13.66-2.22-5.36-3.33-11.25-3.33-17.67s1.11-12.36,3.33-17.56Z"></path><path class="cls-1" d="m421.2,275.36c2.07,2.22,4.51,3.98,7.34,5.28,2.83,1.22,5.97,1.84,9.41,1.84s6.58-.61,9.41-1.84c2.83-1.3,5.28-3.06,7.34-5.28,2.07-2.22,3.67-4.86,4.82-7.92,1.15-3.14,1.72-6.54,1.72-10.21s-.57-6.81-1.72-9.87c-1.15-3.06-2.75-5.66-4.82-7.8-1.99-2.22-4.44-3.94-7.34-5.16-2.83-1.3-5.97-1.95-9.41-1.95s-6.58.65-9.41,1.95c-2.83,1.22-5.28,2.94-7.34,5.16-2.07,2.14-3.67,4.74-4.82,7.8-1.07,3.06-1.61,6.35-1.61,9.87s.57,7.08,1.72,10.21c1.15,3.06,2.72,5.7,4.7,7.92Z"></path><path class="cls-1" d="m535.64,337.25h158.71v-158.71h-158.71v158.71Zm44.02-120.32h19.51v49c0,2.22.27,4.32.8,6.31.61,1.99,1.49,3.79,2.64,5.39,1.22,1.53,2.79,2.75,4.7,3.67,1.99.92,4.36,1.38,7.12,1.38s5.08-.46,7-1.38c1.99-.92,3.6-2.14,4.82-3.67,1.23-1.61,2.11-3.4,2.64-5.39.54-1.99.8-4.09.8-6.31v-49h19.62v50.61c0,4.9-.84,9.37-2.52,13.43-1.61,3.98-3.94,7.42-7,10.33-3.06,2.83-6.77,5.05-11.13,6.66-4.29,1.61-9.07,2.41-14.35,2.41s-10.18-.8-14.46-2.41c-4.28-1.61-7.92-3.83-10.9-6.66-2.98-2.91-5.28-6.35-6.89-10.33-1.61-4.05-2.41-8.53-2.41-13.43v-50.61Z"></path><path class="cls-1" d="m799.62,234.49c-1.3-.69-2.79-1.15-4.47-1.38-1.61-.23-3.29-.34-5.05-.34h-8.61v19.16h8.26c1.84,0,3.6-.15,5.28-.46,1.68-.31,3.17-.84,4.47-1.61,1.38-.76,2.45-1.76,3.22-2.98.76-1.3,1.14-2.91,1.14-4.82s-.38-3.48-1.14-4.7c-.76-1.22-1.8-2.18-3.1-2.87Z"></path><path class="cls-1" d="m714.18,178.55v158.71h158.71v-158.71h-158.71Zm106.67,75.45c-1.76,3.21-4.13,5.81-7.11,7.8-2.98,1.99-6.43,3.44-10.33,4.36-3.9.92-7.96,1.38-12.17,1.38h-9.76v30.64h-19.62v-81.25h29.83c4.44,0,8.57.46,12.39,1.38,3.9.84,7.27,2.26,10.1,4.25,2.91,1.91,5.17,4.48,6.77,7.69,1.69,3.14,2.53,7.04,2.53,11.71s-.88,8.76-2.64,12.05Z"></path></svg> 