<?xml version="1.0" encoding="UTF-8"?> <svg xmlns="http://www.w3.org/2000/svg" id="Layer_1" viewBox="0 0 929.43 185.07"><defs><style>.cls-1{opacity:.65;}.cls-1,.cls-2{stroke-width:0px;}</style></defs><path class="cls-2" d="m92.53,0C41.43,0,0,41.43,0,92.53s41.43,92.53,92.53,92.53,92.53-41.43,92.53-92.53S143.64,0,92.53,0Zm0,140.73c-26.62,0-48.2-21.58-48.2-48.2s21.58-48.2,48.2-48.2,48.2,21.58,48.2,48.2-21.58,48.2-48.2,48.2Z"></path><polygon class="cls-2" points="851.67 67.42 851.67 47.48 791.37 47.48 771.41 47.48 771.41 67.42 771.41 92.03 771.41 111.04 771.41 135.18 771.41 154.29 771.41 155.11 851.67 155.11 851.67 135.18 791.37 135.18 791.37 111.04 849.6 111.04 849.6 92.03 791.37 92.03 791.37 67.42 851.67 67.42"></polygon><path class="cls-2" d="m691.17,47.57h-22.12l-48.19,107.36h22.03l9.31-20.15h55.8l9.31,20.15h22.03l-48.19-107.36Zm-30.87,68.35h0s19.77-45.57,19.77-45.57l.04-.33.04.33,19.77,45.56h0s-39.63.01-39.63.01Z"></path><path class="cls-2" d="m560.97,116.84c15.34-1.95,27.19-15.04,27.19-30.91v-4.32c0-16.78-14.45-34.05-37.73-34.05v-.08h-51.79v107.63h20.08v-35.9h19.52l31.38,35.9h23.73v-1.64l-32.38-36.63Zm-42.25-50.07h31.71s.97,0,.97,0c9.12,0,16.51,7.32,16.51,16.43v1.15c0,9.12-7.39,16.51-16.51,16.51h-32.68v-34.09Z"></path><path class="cls-2" d="m303.41,135.26c-4.41,2.01-9.28,3.13-14.41,3.13-.03,0-.07,0-.1,0-.03,0-.07,0-.1,0-.49,0-.98-.02-1.47-.04-.48.02-.96.04-1.44.04-1.81,0-3.57-.18-5.28-.51-2.79-.27-5.45-.95-7.94-1.97-1.59-.55-3.11-1.24-4.55-2.05-2.53-1.35-4.82-3.07-6.8-5.1-5.16-5.05-9.2-14.01-9.76-20.82-.26-3.09-.34-3.87-.34-5.49-.04-.69-.05-2.49,0-3.19.73-11.99,6.44-23.13,16.58-29.24,5.72-3.45,12.05-5.2,20.17-5.2.13,0,.8,0,1.39,0,.13,0,.45,0,.58,0,7.86.38,17.11,3.23,24.2,10.14l13.33-12.92c-5.87-6.13-13.09-10.77-21.14-13.35-5.52-1.88-12.02-2.97-18.99-2.97-5.74,0-11.16.7-15.98,1.97-22.93,5.27-40.07,26.43-40.07,53.9,0,29.72,17.3,49.39,40.39,54.09.96.22,1.92.43,2.89.61h0s9.06,2.32,22.86.45c.23-.03.45-.06.68-.09.22-.03.44-.06.66-.09.38-.06.73-.12,1.07-.18,11.52-1.97,21.66-7.3,29.05-14.76l-13.74-14.06c-3.33,3.31-7.3,5.96-11.74,7.72Z"></path><polygon class="cls-1" points="434.01 110.82 433.98 110.82 433.98 110.82 434.01 110.82"></polygon><path class="cls-2" d="m434.01,47.48v63.33h0s-.48,12.19-5.75,18.72c-4.68,5.8-9.32,8.39-16.5,9.18-.93.14-2.52.22-3.48.22h-1.66c-2.11,0-4.64-.37-7.74-1.06-5.29-1.38-9.38-3.97-13.27-8.8-5.27-6.53-5.69-18.26-5.69-18.26h0v-63.33h-20.08v63.33s.08,2.45.27,4.53c2.42,26.54,21.41,41.92,45.73,41.92h3.12c26.2,0,43.18-17.31,44.92-42.35.08-1.15.2-4.1.2-4.1v-63.33h-20.08Z"></path><path class="cls-1" d="m380,110.82h-.07.07s0,0,0,0Z"></path><polygon class="cls-2" points="902.56 27.72 882.74 27.72 882.74 33.37 889.29 33.37 889.29 48.02 896 48.02 896 33.37 902.56 33.37 902.56 27.72"></polygon><polygon class="cls-2" points="922.91 27.72 922.73 27.72 922.48 27.72 917.17 34.28 917.06 34.4 916.95 34.28 911.64 27.72 911.39 27.72 911.21 27.72 904.69 27.72 904.69 48.02 911.39 48.02 911.39 36.77 916.26 43.44 916.95 43.44 917.17 43.44 917.86 43.44 922.73 36.77 922.73 48.02 929.43 48.02 929.43 27.72 922.91 27.72"></polygon></svg> 