<?xml version="1.0" encoding="UTF-8"?> <svg xmlns="http://www.w3.org/2000/svg" width="220" height="176" viewBox="0 0 220 176" fill="none"><rect width="220" height="176" rx="8" fill="white"></rect><path d="M25.11 22.2H21.05V32H22.716V28.346H25.012C27.14 28.346 28.442 27.114 28.442 25.21C28.442 23.376 27.182 22.2 25.11 22.2ZM25.054 26.848H22.716V23.684H25.012C26.132 23.684 26.762 24.3 26.762 25.266C26.762 26.246 26.146 26.848 25.054 26.848ZM32.486 24.762C30.862 24.762 29.7 25.756 29.434 27.184L30.708 27.562C30.988 26.652 31.492 26.162 32.416 26.162C33.284 26.162 33.858 26.736 33.9 27.66L32.038 27.982C30.442 28.262 29.672 28.934 29.672 30.068C29.672 31.314 30.596 32.14 31.926 32.14C32.878 32.14 33.606 31.706 34.026 30.922V32H35.496V27.632C35.496 25.924 34.362 24.762 32.486 24.762ZM32.29 31.006C31.702 31.006 31.282 30.67 31.282 30.11C31.282 29.508 31.744 29.214 32.556 29.06L33.9 28.794V29.032C33.9 30.152 33.228 31.006 32.29 31.006ZM41.5948 24.958L39.8028 30.012L37.8848 24.958H36.2188L39.0188 31.874L37.8008 34.8H39.4248L43.2328 24.958H41.5948ZM52.6603 24.762C51.6103 24.762 50.7982 25.252 50.3223 26.134C49.9163 25.238 49.1323 24.762 48.0683 24.762C47.0463 24.762 46.3323 25.238 45.9263 26.12V24.958H44.3163V32H45.9263V28.752C45.9263 26.946 46.6963 26.134 47.6623 26.134C48.5163 26.134 48.9783 26.764 48.9783 27.702V32H50.5883V28.752C50.5883 26.946 51.3583 26.134 52.3243 26.134C53.1783 26.134 53.6403 26.764 53.6403 27.702V32H55.2503V27.534C55.2503 25.812 54.2703 24.762 52.6603 24.762ZM60.0704 24.762C58.0544 24.762 56.5984 26.302 56.5984 28.5C56.5984 30.726 58.1804 32.14 60.1684 32.14C61.5124 32.14 62.5624 31.482 63.1364 30.488L62.1144 29.774C61.6944 30.404 61.0224 30.824 60.1964 30.824C59.1324 30.824 58.2224 30.124 58.1524 28.878H63.2624C63.5844 26.694 62.2824 24.762 60.0704 24.762ZM60.0424 26.022C61.0084 26.022 61.6804 26.708 61.7784 27.73H58.2084C58.3064 26.694 59.0624 26.022 60.0424 26.022ZM68.606 24.762C67.626 24.762 66.842 25.196 66.352 26.05V24.958H64.742V32H66.352V28.556C66.352 26.904 67.206 26.134 68.186 26.134C69.068 26.134 69.6 26.75 69.6 27.744V32H71.21V27.534C71.21 25.826 70.16 24.762 68.606 24.762ZM76.3892 30.488C76.1932 30.67 75.9552 30.796 75.6472 30.796C75.1992 30.796 74.9472 30.474 74.9472 29.9V26.33H76.7952V24.958H74.9472V22.69L73.3372 23.39V24.958H72.2172V26.33H73.3372V30.068C73.3372 31.398 74.0512 32.14 75.3392 32.14C76.2072 32.14 76.8232 31.832 77.2292 31.37L76.3892 30.488ZM89.4923 24.762C88.4423 24.762 87.6303 25.252 87.1543 26.134C86.7483 25.238 85.9643 24.762 84.9003 24.762C83.8783 24.762 83.1643 25.238 82.7583 26.12V24.958H81.1483V32H82.7583V28.752C82.7583 26.946 83.5283 26.134 84.4943 26.134C85.3483 26.134 85.8103 26.764 85.8103 27.702V32H87.4203V28.752C87.4203 26.946 88.1903 26.134 89.1563 26.134C90.0103 26.134 90.4723 26.764 90.4723 27.702V32H92.0823V27.534C92.0823 25.812 91.1023 24.762 89.4923 24.762ZM96.9024 24.762C94.8864 24.762 93.4304 26.302 93.4304 28.5C93.4304 30.726 95.0124 32.14 97.0004 32.14C98.3444 32.14 99.3944 31.482 99.9684 30.488L98.9464 29.774C98.5264 30.404 97.8544 30.824 97.0284 30.824C95.9644 30.824 95.0544 30.124 94.9844 28.878H100.094C100.416 26.694 99.1144 24.762 96.9024 24.762ZM96.8744 26.022C97.8404 26.022 98.5124 26.708 98.6104 27.73H95.0404C95.1384 26.694 95.8944 26.022 96.8744 26.022ZM105.018 30.488C104.822 30.67 104.584 30.796 104.276 30.796C103.828 30.796 103.576 30.474 103.576 29.9V26.33H105.424V24.958H103.576V22.69L101.966 23.39V24.958H100.846V26.33H101.966V30.068C101.966 31.398 102.68 32.14 103.968 32.14C104.836 32.14 105.452 31.832 105.858 31.37L105.018 30.488ZM110.813 24.762C109.833 24.762 109.035 25.21 108.531 26.092V22.2H106.921V32H108.531V28.556C108.531 26.904 109.385 26.134 110.365 26.134C111.247 26.134 111.779 26.75 111.779 27.744V32H113.389V27.534C113.389 25.91 112.423 24.762 110.813 24.762ZM118.329 32.14C120.401 32.14 121.941 30.558 121.941 28.43C121.941 26.302 120.401 24.762 118.357 24.762C116.285 24.762 114.745 26.344 114.745 28.472C114.745 30.6 116.285 32.14 118.329 32.14ZM118.357 30.768C117.195 30.768 116.355 29.83 116.355 28.444C116.355 27.072 117.167 26.134 118.329 26.134C119.491 26.134 120.331 27.072 120.331 28.458C120.331 29.83 119.519 30.768 118.357 30.768ZM128.491 22.2V25.826C128.029 25.14 127.301 24.762 126.321 24.762C124.319 24.762 123.003 26.288 123.003 28.458C123.003 30.628 124.319 32.14 126.321 32.14C127.315 32.14 128.029 31.762 128.491 31.076V32H130.101V22.2H128.491ZM126.559 30.768C125.397 30.768 124.613 29.816 124.613 28.458C124.613 27.086 125.397 26.134 126.559 26.134C127.721 26.134 128.491 27.086 128.491 28.458C128.491 29.816 127.721 30.768 126.559 30.768ZM134.36 32.14C136.082 32.14 137.286 31.272 137.286 29.9C137.286 26.96 133.268 28.36 133.268 26.778C133.268 26.288 133.744 25.966 134.43 25.966C135.158 25.966 135.634 26.386 135.858 26.988L137.09 26.582C136.796 25.476 135.872 24.762 134.556 24.762C132.946 24.762 131.812 25.588 131.812 26.932C131.812 29.928 135.788 28.556 135.788 30.082C135.788 30.586 135.284 30.908 134.472 30.908C133.562 30.908 132.96 30.432 132.722 29.662L131.504 30.068C131.798 31.398 132.862 32.14 134.36 32.14Z" fill="#00473C"></path><rect x="20" y="60" width="20" height="20" rx="4" fill="#009D10"></rect><path d="M36.1875 66.0625L28.3125 73.9375L24.375 70" stroke="white" stroke-width="1.5" stroke-linecap="round" stroke-linejoin="round"></path><rect x="56" y="60" width="35.3846" height="20" rx="3.07692" fill="#FAF9F6"></rect><path fill-rule="evenodd" clip-rule="evenodd" d="M79.277 66.5456C78.8823 66.398 78.2638 66.2393 77.491 66.2393C75.5219 66.2393 74.1344 67.2278 74.1228 68.6436C74.112 69.6913 75.113 70.2747 75.8692 70.6239C76.6446 70.9804 76.9057 71.2084 76.9016 71.5272C76.8966 72.0156 76.2825 72.2387 75.7097 72.2387C74.9119 72.2387 74.4884 72.1287 73.8338 71.8567L73.5767 71.7406L73.297 73.372C73.763 73.575 74.6231 73.7516 75.517 73.7606C77.6121 73.7606 78.9722 72.7837 78.9874 71.2713C78.9946 70.4423 78.464 69.8114 77.3146 69.2919C76.6175 68.9546 76.1911 68.7292 76.1958 68.3881C76.1958 68.0858 76.5564 67.7613 77.3364 67.7613C77.989 67.7511 78.4605 67.8929 78.8281 68.0409L79.0072 68.1244L79.277 66.5456ZM70.0571 73.6525L71.3031 66.3664H73.2958L72.0491 73.6525H70.0571ZM82.8475 66.3735H84.3875L86.0003 73.6544H84.1509C84.1509 73.6544 83.9684 72.8178 83.9087 72.5628C83.7548 72.5628 83.1121 72.562 82.5076 72.5613L82.5062 72.5613H82.5059C81.9696 72.5606 81.4637 72.5599 81.3564 72.5599C81.279 72.7569 80.937 73.6544 80.937 73.6544H78.8439L81.8035 66.9777C82.0136 66.5028 82.3702 66.3735 82.8475 66.3735ZM81.9297 71.0696C82.0947 70.6499 82.724 69.0325 82.724 69.0325C82.7182 69.042 82.7569 68.9418 82.8097 68.805L82.8099 68.8047C82.8654 68.661 82.9365 68.4771 82.988 68.3372L83.1225 68.9655C83.1225 68.9655 83.5044 70.7044 83.5844 71.0696H81.9297ZM66.4348 71.3402L68.3855 66.3717H70.4963L67.3592 73.6436L65.2504 73.6465L63.4668 67.2738C64.7318 67.9049 65.8637 69.1661 66.2267 70.3305L66.4348 71.3402Z" fill="#1A1F71"></path><path fill-rule="evenodd" clip-rule="evenodd" d="M64.624 66.3669H61.4101L61.3848 66.5183C63.885 67.1219 65.5394 68.5792 66.2261 70.3306L65.5272 66.9818C65.4067 66.5203 65.0566 66.3828 64.624 66.3669Z" fill="#F9A51A"></path><path d="M111.127 65.2L108.215 73.334L105.205 65.2H103.581L107.375 75H109.027L112.695 65.2H111.127ZM113.782 66.628H115.308V65.116H113.782V66.628ZM113.838 75H115.266V67.958H113.838V75ZM119.471 75.14C121.179 75.14 122.355 74.286 122.355 72.956C122.355 70.002 118.267 71.5 118.267 69.778C118.267 69.232 118.771 68.868 119.541 68.868C120.311 68.868 120.815 69.288 121.039 69.932L122.145 69.554C121.851 68.476 120.941 67.79 119.653 67.79C118.057 67.79 116.951 68.588 116.951 69.904C116.951 72.9 121.025 71.43 121.025 73.096C121.025 73.67 120.465 74.034 119.569 74.034C118.617 74.034 117.987 73.53 117.735 72.718L116.657 73.082C116.951 74.398 118.001 75.14 119.471 75.14ZM126.521 67.79C124.925 67.79 123.763 68.756 123.497 70.184L124.645 70.52C124.925 69.568 125.471 69.036 126.451 69.036C127.403 69.036 128.019 69.652 128.061 70.66L126.171 70.996C124.505 71.304 123.749 71.976 123.749 73.11C123.749 74.342 124.659 75.14 125.989 75.14C126.983 75.14 127.725 74.678 128.159 73.852V75H129.475V70.632C129.475 68.924 128.341 67.79 126.521 67.79ZM126.283 74.104C125.639 74.104 125.177 73.754 125.177 73.138C125.177 72.48 125.667 72.158 126.661 71.976L128.061 71.71V71.934C128.061 73.194 127.319 74.104 126.283 74.104Z" fill="#00473C"></path><rect x="20.5" y="96.5" width="19" height="19" rx="3.5" fill="white"></rect><rect x="20.5" y="96.5" width="19" height="19" rx="3.5" stroke="#E1DCD4"></rect><rect x="56" y="96" width="35.3846" height="20" rx="3.07692" fill="#FAF9F6"></rect><path fill-rule="evenodd" clip-rule="evenodd" d="M77.265 111.538C80.3895 111.538 82.9225 109.059 82.9225 106C82.9225 102.941 80.3895 100.462 77.265 100.462C74.1404 100.462 71.6074 102.941 71.6074 106C71.6074 109.059 74.1404 111.538 77.265 111.538Z" fill="#F79E1B"></path><path fill-rule="evenodd" clip-rule="evenodd" d="M70.1185 111.538C73.243 111.538 75.776 109.059 75.776 106C75.776 102.941 73.243 100.462 70.1185 100.462C66.9939 100.462 64.4609 102.941 64.4609 106C64.4609 109.059 66.9939 111.538 70.1185 111.538Z" fill="#EB001B"></path><path fill-rule="evenodd" clip-rule="evenodd" d="M73.6915 101.706C72.4196 102.722 71.6074 104.268 71.6074 106C71.6074 107.732 72.4196 109.278 73.6915 110.294C74.9634 109.278 75.7755 107.732 75.7755 106C75.7755 104.268 74.9634 102.722 73.6915 101.706Z" fill="#FF5F00"></path><path d="M112.485 101.2L109.545 109.46L106.633 101.2H104.463V111H105.905V102.922L108.775 111H110.301L113.213 102.852V111H114.655V101.2H112.485ZM119.356 103.79C117.76 103.79 116.598 104.756 116.332 106.184L117.48 106.52C117.76 105.568 118.306 105.036 119.286 105.036C120.238 105.036 120.854 105.652 120.896 106.66L119.006 106.996C117.34 107.304 116.584 107.976 116.584 109.11C116.584 110.342 117.494 111.14 118.824 111.14C119.818 111.14 120.56 110.678 120.994 109.852V111H122.31V106.632C122.31 104.924 121.176 103.79 119.356 103.79ZM119.118 110.104C118.474 110.104 118.012 109.754 118.012 109.138C118.012 108.48 118.502 108.158 119.496 107.976L120.896 107.71V107.934C120.896 109.194 120.154 110.104 119.118 110.104ZM126.416 111.14C128.124 111.14 129.3 110.286 129.3 108.956C129.3 106.002 125.212 107.5 125.212 105.778C125.212 105.232 125.716 104.868 126.486 104.868C127.256 104.868 127.76 105.288 127.984 105.932L129.09 105.554C128.796 104.476 127.886 103.79 126.598 103.79C125.002 103.79 123.896 104.588 123.896 105.904C123.896 108.9 127.97 107.43 127.97 109.096C127.97 109.67 127.41 110.034 126.514 110.034C125.562 110.034 124.932 109.53 124.68 108.718L123.602 109.082C123.896 110.398 124.946 111.14 126.416 111.14ZM134.082 109.6C133.886 109.81 133.634 109.95 133.312 109.95C132.836 109.95 132.57 109.614 132.57 108.984V105.176H134.418V103.958H132.57V101.802L131.142 102.418V103.958H130.022V105.176H131.142V109.138C131.142 110.426 131.828 111.14 133.06 111.14C133.886 111.14 134.474 110.832 134.838 110.37L134.082 109.6ZM138.793 103.79C136.791 103.79 135.349 105.316 135.349 107.5C135.349 109.726 136.917 111.14 138.877 111.14C140.235 111.14 141.271 110.454 141.845 109.446L140.907 108.816C140.487 109.516 139.787 109.964 138.905 109.964C137.771 109.964 136.805 109.222 136.735 107.822H141.943C142.209 105.638 140.963 103.79 138.793 103.79ZM138.765 104.91C139.815 104.91 140.529 105.652 140.627 106.744H136.777C136.889 105.638 137.715 104.91 138.765 104.91ZM146.658 103.818C145.902 103.818 145.272 104.182 144.88 105.106V103.958H143.452V111H144.88V107.934C144.88 105.904 145.468 105.12 146.49 105.12C146.742 105.12 146.952 105.176 147.12 105.26L147.61 104.084C147.358 103.93 147.036 103.818 146.658 103.818ZM151.427 111.14C152.953 111.14 154.073 110.286 154.549 109.012L153.415 108.592C153.009 109.46 152.407 109.922 151.441 109.922C150.251 109.922 149.369 108.914 149.369 107.458C149.369 106.002 150.251 104.994 151.427 104.994C152.351 104.994 152.939 105.47 153.247 106.352L154.479 105.988C154.073 104.63 153.023 103.79 151.441 103.79C149.411 103.79 147.941 105.33 147.941 107.556C147.941 109.684 149.327 111.14 151.427 111.14ZM158.663 103.79C157.067 103.79 155.905 104.756 155.639 106.184L156.787 106.52C157.067 105.568 157.613 105.036 158.593 105.036C159.545 105.036 160.161 105.652 160.203 106.66L158.313 106.996C156.647 107.304 155.891 107.976 155.891 109.11C155.891 110.342 156.801 111.14 158.131 111.14C159.125 111.14 159.867 110.678 160.301 109.852V111H161.617V106.632C161.617 104.924 160.483 103.79 158.663 103.79ZM158.425 110.104C157.781 110.104 157.319 109.754 157.319 109.138C157.319 108.48 157.809 108.158 158.803 107.976L160.203 107.71V107.934C160.203 109.194 159.461 110.104 158.425 110.104ZM166.605 103.818C165.849 103.818 165.219 104.182 164.827 105.106V103.958H163.399V111H164.827V107.934C164.827 105.904 165.415 105.12 166.437 105.12C166.689 105.12 166.899 105.176 167.067 105.26L167.557 104.084C167.305 103.93 166.983 103.818 166.605 103.818ZM173.446 101.2V104.938C172.97 104.21 172.2 103.79 171.178 103.79C169.19 103.79 167.888 105.302 167.888 107.458C167.888 109.628 169.19 111.14 171.178 111.14C172.214 111.14 172.97 110.72 173.446 109.992V111H174.874V101.2H173.446ZM171.388 109.922C170.142 109.922 169.316 108.914 169.316 107.458C169.316 106.002 170.142 104.994 171.388 104.994C172.634 104.994 173.446 106.002 173.446 107.458C173.446 108.914 172.634 109.922 171.388 109.922Z" fill="#00473C"></path><rect x="20" y="132" width="20" height="20" rx="4" fill="#009D10"></rect><path d="M36.1875 138.062L28.3125 145.937L24.375 142" stroke="white" stroke-width="1.5" stroke-linecap="round" stroke-linejoin="round"></path><rect x="56" y="132" width="35.3846" height="20" rx="3.07692" fill="#FAF9F6"></rect><path fill-rule="evenodd" clip-rule="evenodd" d="M71.5063 141.265H73.3763L70.5804 135.077H68.4203L65.6152 141.265H67.4482L67.9906 140.001H70.9639L71.5063 141.265ZM78.3689 141.265H76.92L75.1997 136.686V141.265H73.5533V135.077H76.1995L77.6677 139.02L79.1266 135.077H81.745V141.265H80.0993V136.686L78.3689 141.265ZM74.4289 142.735V144.123H70.7636V145.131H74.3448V146.483H70.7636V147.535H74.4289V148.923H69.0987V142.735H74.4289ZM81.7697 148.923H79.6844L78.1322 147.004L76.5893 148.923H74.5603L77.1687 145.837L74.551 142.735H76.6356L78.1785 144.635L79.7214 142.735H81.7512L79.1328 145.802L81.7697 148.923ZM69.4681 136.536L68.5608 138.657H70.3846L69.4681 136.536Z" fill="#006FAC"></path><path d="M111.393 147H112.975L109.111 137.2H107.529L103.651 147H105.219L106.059 144.802H110.553L111.393 147ZM106.535 143.57L108.313 138.894L110.091 143.57H106.535ZM122.454 139.79C121.376 139.79 120.55 140.308 120.074 141.232C119.682 140.294 118.884 139.79 117.792 139.79C116.756 139.79 116.014 140.28 115.608 141.204V139.958H114.18V147H115.608V143.836C115.608 141.932 116.392 140.994 117.47 140.994C118.394 140.994 118.884 141.666 118.884 142.688V147H120.312V143.836C120.312 141.932 121.096 140.994 122.174 140.994C123.084 140.994 123.588 141.666 123.588 142.688V147H125.016V142.534C125.016 140.826 124.036 139.79 122.454 139.79ZM129.865 139.79C127.863 139.79 126.421 141.316 126.421 143.5C126.421 145.726 127.989 147.14 129.949 147.14C131.307 147.14 132.343 146.454 132.917 145.446L131.979 144.816C131.559 145.516 130.859 145.964 129.977 145.964C128.843 145.964 127.877 145.222 127.807 143.822H133.015C133.281 141.638 132.035 139.79 129.865 139.79ZM129.837 140.91C130.887 140.91 131.601 141.652 131.699 142.744H127.849C127.961 141.638 128.787 140.91 129.837 140.91ZM140.022 147L137.53 143.444L139.896 139.958H138.356L136.76 142.338L135.094 139.958H133.512L135.878 143.332L133.386 147H134.926L136.648 144.438L138.44 147H140.022Z" fill="#00473C"></path></svg> 