<?xml version="1.0" encoding="UTF-8"?> <svg xmlns="http://www.w3.org/2000/svg" width="300" height="316" viewBox="0 0 300 316" fill="none"><rect width="300" height="316" rx="8" fill="white"></rect><path d="M22.012 32.668C22.72 32.308 23.14 31.672 23.14 30.832C23.14 29.488 22.072 28.6 20.476 28.6H16.9V37H20.632C22.264 37 23.356 36.064 23.356 34.672C23.356 33.724 22.852 33.016 22.012 32.668ZM21.7 30.976C21.7 31.672 21.208 32.128 20.428 32.128H18.328V29.836H20.428C21.208 29.836 21.7 30.292 21.7 30.976ZM20.572 35.752H18.328V33.328H20.56C21.388 33.328 21.916 33.796 21.916 34.528C21.916 35.26 21.388 35.752 20.572 35.752ZM27.2236 30.796C25.8316 30.796 24.8356 31.648 24.6076 32.872L25.6996 33.196C25.9396 32.416 26.3716 31.996 27.1636 31.996C27.9076 31.996 28.3996 32.488 28.4356 33.28L26.8396 33.556C25.4716 33.796 24.8116 34.372 24.8116 35.344C24.8116 36.412 25.6036 37.12 26.7436 37.12C27.5596 37.12 28.1836 36.748 28.5436 36.076V37H29.8036V33.256C29.8036 31.792 28.8316 30.796 27.2236 30.796ZM27.0556 36.148C26.5516 36.148 26.1916 35.86 26.1916 35.38C26.1916 34.864 26.5876 34.612 27.2836 34.48L28.4356 34.252V34.456C28.4356 35.416 27.8596 36.148 27.0556 36.148ZM34.8454 30.796C34.0054 30.796 33.3334 31.168 32.9134 31.9V30.964H31.5334V37H32.9134V34.048C32.9134 32.632 33.6454 31.972 34.4854 31.972C35.2414 31.972 35.6974 32.5 35.6974 33.352V37H37.0774V33.172C37.0774 31.708 36.1774 30.796 34.8454 30.796ZM42.9327 37H44.5407L42.2007 33.244L44.3367 30.964H42.6447L40.2207 33.592V28.6H38.8407V37H40.2207V35.344L41.2647 34.24L42.9327 37ZM55.0496 28.6H47.8376V29.872H50.7176V37H52.1576V29.872H55.0496V28.6ZM58.7526 30.832C58.1166 30.832 57.5766 31.144 57.2406 31.912V30.964H55.8606V37H57.2406V34.324C57.2406 32.728 57.7326 32.08 58.5846 32.08C58.8126 32.08 58.9926 32.128 59.1366 32.2L59.6046 31.06C59.3766 30.916 59.0886 30.832 58.7526 30.832ZM62.8003 30.796C61.4083 30.796 60.4123 31.648 60.1843 32.872L61.2763 33.196C61.5163 32.416 61.9483 31.996 62.7403 31.996C63.4843 31.996 63.9763 32.488 64.0123 33.28L62.4163 33.556C61.0483 33.796 60.3883 34.372 60.3883 35.344C60.3883 36.412 61.1803 37.12 62.3203 37.12C63.1363 37.12 63.7603 36.748 64.1203 36.076V37H65.3803V33.256C65.3803 31.792 64.4083 30.796 62.8003 30.796ZM62.6323 36.148C62.1283 36.148 61.7683 35.86 61.7683 35.38C61.7683 34.864 62.1643 34.612 62.8603 34.48L64.0123 34.252V34.456C64.0123 35.416 63.4363 36.148 62.6323 36.148ZM70.4222 30.796C69.5822 30.796 68.9102 31.168 68.4902 31.9V30.964H67.1102V37H68.4902V34.048C68.4902 32.632 69.2222 31.972 70.0622 31.972C70.8182 31.972 71.2742 32.5 71.2742 33.352V37H72.6542V33.172C72.6542 31.708 71.7542 30.796 70.4222 30.796ZM76.4214 37.12C77.8974 37.12 78.9294 36.376 78.9294 35.2C78.9294 32.68 75.4854 33.88 75.4854 32.524C75.4854 32.104 75.8934 31.828 76.4814 31.828C77.1054 31.828 77.5134 32.188 77.7054 32.704L78.7614 32.356C78.5094 31.408 77.7174 30.796 76.5894 30.796C75.2094 30.796 74.2374 31.504 74.2374 32.656C74.2374 35.224 77.6454 34.048 77.6454 35.356C77.6454 35.788 77.2134 36.064 76.5174 36.064C75.7374 36.064 75.2214 35.656 75.0174 34.996L73.9734 35.344C74.2254 36.484 75.1374 37.12 76.4214 37.12ZM82.1742 30.34C82.1742 29.908 82.4262 29.632 82.7982 29.632C83.0262 29.632 83.2062 29.74 83.3502 29.92L84.2502 29.344C83.9622 28.792 83.4222 28.48 82.7502 28.48C81.5982 28.48 80.7942 29.26 80.7942 30.388V30.964H79.8582V32.14H80.7942V37H82.1742V32.14H83.6142V30.964H82.1742V30.34ZM87.4743 30.796C85.7463 30.796 84.4983 32.116 84.4983 34C84.4983 35.908 85.8543 37.12 87.5583 37.12C88.7103 37.12 89.6103 36.556 90.1023 35.704L89.2263 35.092C88.8663 35.632 88.2903 35.992 87.5823 35.992C86.6703 35.992 85.8903 35.392 85.8303 34.324H90.2103C90.4863 32.452 89.3703 30.796 87.4743 30.796ZM87.4503 31.876C88.2783 31.876 88.8543 32.464 88.9383 33.34H85.8783C85.9623 32.452 86.6103 31.876 87.4503 31.876ZM94.6106 30.832C93.9746 30.832 93.4346 31.144 93.0986 31.912V30.964H91.7186V37H93.0986V34.324C93.0986 32.728 93.5906 32.08 94.4426 32.08C94.6706 32.08 94.8506 32.128 94.9946 32.2L95.4626 31.06C95.2346 30.916 94.9466 30.832 94.6106 30.832Z" fill="#00473C"></path><path d="M112.68 37.12C114.492 37.12 115.824 36.112 116.34 34.48L115.272 34.108C114.864 35.308 113.976 35.992 112.704 35.992C110.988 35.992 109.812 34.672 109.812 32.812C109.812 30.904 111.012 29.572 112.632 29.572C113.844 29.572 114.708 30.208 115.104 31.372L116.208 30.988C115.68 29.38 114.384 28.444 112.632 28.444C110.292 28.444 108.54 30.256 108.54 32.8C108.54 35.344 110.208 37.12 112.68 37.12ZM120.558 30.844C119.91 30.844 119.37 31.156 119.034 31.948V30.964H117.81V37H119.034V34.372C119.034 32.632 119.538 31.96 120.414 31.96C120.63 31.96 120.81 32.008 120.954 32.08L121.374 31.072C121.158 30.94 120.882 30.844 120.558 30.844ZM124.849 30.82C123.133 30.82 121.897 32.128 121.897 34C121.897 35.908 123.241 37.12 124.921 37.12C126.085 37.12 126.973 36.532 127.465 35.668L126.661 35.128C126.301 35.728 125.701 36.112 124.945 36.112C123.973 36.112 123.145 35.476 123.085 34.276H127.549C127.777 32.404 126.709 30.82 124.849 30.82ZM124.825 31.78C125.725 31.78 126.337 32.416 126.421 33.352H123.121C123.217 32.404 123.925 31.78 124.825 31.78ZM133.523 28.6V31.804C133.115 31.18 132.455 30.82 131.579 30.82C129.875 30.82 128.759 32.116 128.759 33.964C128.759 35.824 129.875 37.12 131.579 37.12C132.467 37.12 133.115 36.76 133.523 36.136V37H134.747V28.6H133.523ZM131.759 36.076C130.691 36.076 129.983 35.212 129.983 33.964C129.983 32.716 130.691 31.852 131.759 31.852C132.827 31.852 133.523 32.716 133.523 33.964C133.523 35.212 132.827 36.076 131.759 36.076ZM136.587 29.824H137.895V28.528H136.587V29.824ZM136.635 37H137.859V30.964H136.635V37ZM142.543 35.8C142.375 35.98 142.159 36.1 141.883 36.1C141.475 36.1 141.247 35.812 141.247 35.272V32.008H142.831V30.964H141.247V29.116L140.023 29.644V30.964H139.063V32.008H140.023V35.404C140.023 36.508 140.611 37.12 141.667 37.12C142.375 37.12 142.879 36.856 143.191 36.46L142.543 35.8ZM150.899 37.12C152.711 37.12 154.043 36.112 154.559 34.48L153.491 34.108C153.083 35.308 152.195 35.992 150.923 35.992C149.207 35.992 148.031 34.672 148.031 32.812C148.031 30.904 149.231 29.572 150.851 29.572C152.063 29.572 152.927 30.208 153.323 31.372L154.427 30.988C153.899 29.38 152.603 28.444 150.851 28.444C148.511 28.444 146.759 30.256 146.759 32.8C146.759 35.344 148.427 37.12 150.899 37.12ZM158.333 30.82C156.965 30.82 155.969 31.648 155.741 32.872L156.725 33.16C156.965 32.344 157.433 31.888 158.273 31.888C159.089 31.888 159.617 32.416 159.653 33.28L158.033 33.568C156.605 33.832 155.957 34.408 155.957 35.38C155.957 36.436 156.737 37.12 157.877 37.12C158.729 37.12 159.365 36.724 159.737 36.016V37H160.865V33.256C160.865 31.792 159.893 30.82 158.333 30.82ZM158.129 36.232C157.577 36.232 157.181 35.932 157.181 35.404C157.181 34.84 157.601 34.564 158.453 34.408L159.653 34.18V34.372C159.653 35.452 159.017 36.232 158.129 36.232ZM165.38 30.844C164.732 30.844 164.192 31.156 163.856 31.948V30.964H162.632V37H163.856V34.372C163.856 32.632 164.36 31.96 165.236 31.96C165.452 31.96 165.632 32.008 165.776 32.08L166.196 31.072C165.98 30.94 165.704 30.844 165.38 30.844ZM171.484 28.6V31.804C171.076 31.18 170.416 30.82 169.54 30.82C167.836 30.82 166.72 32.116 166.72 33.964C166.72 35.824 167.836 37.12 169.54 37.12C170.428 37.12 171.076 36.76 171.484 36.136V37H172.708V28.6H171.484ZM169.72 36.076C168.652 36.076 167.944 35.212 167.944 33.964C167.944 32.716 168.652 31.852 169.72 31.852C170.788 31.852 171.484 32.716 171.484 33.964C171.484 35.212 170.788 36.076 169.72 36.076Z" fill="#00473C"></path><rect x="16" y="45" width="80" height="1" fill="#00473C"></rect><path d="M35.826 92.424C35.616 91.444 35.154 90.828 34.37 90.506C35.518 90.114 36.204 89.204 36.204 87.958C36.204 86.278 34.972 85.2 33.04 85.2H29.106V95H30.436V90.912H32.354C33.614 90.912 34.272 91.43 34.552 92.676L35.056 95H36.386L35.826 92.424ZM30.436 89.778V86.348H33.012C34.146 86.348 34.888 87.034 34.888 88.07C34.888 89.092 34.146 89.778 32.998 89.778H30.436ZM41.4188 95.14C43.4488 95.14 44.9468 93.6 44.9468 91.458C44.9468 89.316 43.4488 87.804 41.4328 87.804C39.4028 87.804 37.9048 89.344 37.9048 91.486C37.9048 93.628 39.4028 95.14 41.4188 95.14ZM41.4328 94.076C40.1168 94.076 39.1648 93.012 39.1648 91.472C39.1648 89.932 40.1028 88.868 41.4188 88.868C42.7348 88.868 43.6868 89.932 43.6868 91.472C43.6868 93.012 42.7488 94.076 41.4328 94.076ZM51.4842 87.972V91.052C51.4842 93.026 50.6022 94.076 49.3842 94.076C48.3902 94.076 47.8022 93.376 47.8022 92.284V87.972H46.5422V92.41C46.5422 94.104 47.5642 95.14 49.0902 95.14C50.1682 95.14 50.9942 94.622 51.4842 93.656V95H52.7442V87.972H51.4842ZM58.1266 93.712C57.9166 93.936 57.6646 94.09 57.3286 94.09C56.8246 94.09 56.5306 93.726 56.5306 93.054V89.036H58.4066V87.972H56.5306V85.9L55.2706 86.432V87.972H54.1506V89.036H55.2706V93.194C55.2706 94.44 55.9426 95.14 57.1326 95.14C57.9026 95.14 58.4766 94.846 58.8126 94.37L58.1266 93.712ZM60.0808 86.53H61.4248V85.144H60.0808V86.53ZM60.1228 95H61.3828V87.972H60.1228V95ZM67.2007 87.804C66.1507 87.804 65.3387 88.294 64.8347 89.232V87.972H63.5747V95H64.8347V91.668C64.8347 89.806 65.7587 88.868 66.9067 88.868C67.9147 88.868 68.5307 89.568 68.5307 90.716V95H69.7907V90.562C69.7907 88.854 68.7547 87.804 67.2007 87.804ZM77.214 87.972V88.98C76.696 88.238 75.884 87.804 74.876 87.804C72.958 87.804 71.516 89.302 71.516 91.374C71.516 93.418 72.944 94.902 74.848 94.902C75.884 94.902 76.696 94.468 77.214 93.74V94.314C77.214 95.924 76.346 96.862 74.89 96.862C73.63 96.862 72.804 96.26 72.398 95.154L71.39 95.532C71.852 97.044 73.112 97.94 74.848 97.94C77.074 97.94 78.474 96.47 78.474 94.146V87.972H77.214ZM75.002 93.838C73.7 93.838 72.79 92.802 72.79 91.36C72.79 89.904 73.7 88.868 75.002 88.868C76.29 88.868 77.214 89.904 77.214 91.36C77.214 92.802 76.29 93.838 75.002 93.838ZM87.441 87.804C86.391 87.804 85.579 88.294 85.075 89.232V87.972H83.815V95H85.075V91.668C85.075 89.806 85.999 88.868 87.147 88.868C88.155 88.868 88.771 89.568 88.771 90.716V95H90.031V90.562C90.031 88.854 88.995 87.804 87.441 87.804ZM96.8524 87.972V91.052C96.8524 93.026 95.9704 94.076 94.7524 94.076C93.7584 94.076 93.1704 93.376 93.1704 92.284V87.972H91.9104V92.41C91.9104 94.104 92.9324 95.14 94.4584 95.14C95.5364 95.14 96.3624 94.622 96.8524 93.656V95H98.1124V87.972H96.8524ZM108.507 87.804C107.415 87.804 106.589 88.336 106.099 89.316C105.721 88.336 104.909 87.804 103.803 87.804C102.753 87.804 101.983 88.308 101.563 89.274V87.972H100.303V95H101.563V91.906C101.563 89.904 102.389 88.868 103.565 88.868C104.531 88.868 105.049 89.568 105.049 90.66V95H106.309V91.906C106.309 89.904 107.135 88.868 108.297 88.868C109.263 88.868 109.795 89.568 109.795 90.66V95H111.055V90.548C111.055 88.84 110.089 87.804 108.507 87.804ZM116.871 87.804C115.779 87.804 114.953 88.28 114.449 89.12V85.2H113.189V95H114.449V93.824C114.953 94.664 115.779 95.14 116.871 95.14C118.775 95.14 120.063 93.642 120.063 91.472C120.063 89.316 118.775 87.804 116.871 87.804ZM116.633 94.076C115.317 94.076 114.449 93.012 114.449 91.472C114.449 89.932 115.317 88.868 116.633 88.868C117.935 88.868 118.803 89.932 118.803 91.472C118.803 93.012 117.935 94.076 116.633 94.076ZM124.915 87.804C122.927 87.804 121.485 89.316 121.485 91.5C121.485 93.726 123.053 95.14 124.999 95.14C126.357 95.14 127.393 94.426 127.953 93.404L127.099 92.872C126.679 93.614 125.951 94.104 125.027 94.104C123.837 94.104 122.801 93.306 122.717 91.766H128.037C128.247 89.568 127.057 87.804 124.915 87.804ZM124.887 88.812C126.021 88.812 126.763 89.624 126.861 90.786H122.759C122.885 89.61 123.753 88.812 124.887 88.812ZM132.919 87.846C132.149 87.846 131.519 88.224 131.127 89.162V87.972H129.867V95H131.127V91.99C131.127 89.806 131.743 88.994 132.779 88.994C133.031 88.994 133.241 89.05 133.409 89.134L133.843 88.084C133.605 87.944 133.283 87.846 132.919 87.846Z" fill="#00473C"></path><g opacity="0.65"><path fill-rule="evenodd" clip-rule="evenodd" d="M264 83.504C260.965 83.504 258.504 85.9646 258.504 89C258.504 92.0354 260.965 94.496 264 94.496C267.035 94.496 269.496 92.0354 269.496 89C269.496 85.9646 267.035 83.504 264 83.504ZM257.496 89C257.496 85.4079 260.408 82.496 264 82.496C267.592 82.496 270.504 85.4079 270.504 89C270.504 92.5921 267.592 95.504 264 95.504C260.408 95.504 257.496 92.5921 257.496 89ZM264 93C264.414 93 264.75 92.6642 264.75 92.25C264.75 91.8358 264.414 91.5 264 91.5C263.586 91.5 263.25 91.8358 263.25 92.25C263.25 92.6642 263.586 93 264 93ZM264.439 85.5432C264.003 85.4564 263.55 85.501 263.139 85.6713C262.728 85.8416 262.377 86.13 262.129 86.5C261.882 86.87 261.75 87.305 261.75 87.75C261.75 88.0261 261.974 88.25 262.25 88.25C262.526 88.25 262.75 88.0261 262.75 87.75C262.75 87.5028 262.823 87.2611 262.961 87.0555C263.098 86.85 263.293 86.6898 263.522 86.5952C263.75 86.5005 264.001 86.4758 264.244 86.524C264.486 86.5723 264.709 86.6913 264.884 86.8661C265.059 87.0409 265.178 87.2637 265.226 87.5061C265.274 87.7486 265.25 87.9999 265.155 88.2284C265.06 88.4568 264.9 88.652 264.695 88.7893C264.489 88.9267 264.247 89 264 89C263.867 89 263.74 89.0527 263.647 89.1464C263.553 89.2402 263.5 89.3674 263.5 89.5V90C263.5 90.2761 263.724 90.5 264 90.5C264.276 90.5 264.5 90.2761 264.5 90V89.9437C264.766 89.8831 265.021 89.7741 265.25 89.6208C265.62 89.3736 265.909 89.0222 266.079 88.611C266.249 88.1999 266.294 87.7475 266.207 87.311C266.12 86.8746 265.906 86.4737 265.591 86.159C265.276 85.8443 264.876 85.6301 264.439 85.5432Z" fill="#00473C"></path></g><path d="M16 73C16 70.7909 17.7909 69 20 69H280C282.209 69 284 70.7909 284 73V109H16V73Z" stroke="#E6E6E6"></path><path d="M36.106 135H37.506L33.6 125.2H32.186L28.266 135H29.666L30.548 132.704H35.224L36.106 135ZM30.982 131.598L32.886 126.656L34.79 131.598H30.982ZM41.978 135.14C43.476 135.14 44.596 134.3 45.072 133.012L44.064 132.634C43.658 133.572 43 134.076 41.992 134.076C40.718 134.076 39.78 133.012 39.78 131.472C39.78 129.918 40.718 128.868 41.978 128.868C42.958 128.868 43.602 129.386 43.91 130.338L45.002 130.002C44.596 128.644 43.546 127.804 41.992 127.804C39.99 127.804 38.52 129.344 38.52 131.542C38.52 133.698 39.92 135.14 41.978 135.14ZM49.8869 135.14C51.3849 135.14 52.5049 134.3 52.9809 133.012L51.9729 132.634C51.5669 133.572 50.9089 134.076 49.9009 134.076C48.6269 134.076 47.6889 133.012 47.6889 131.472C47.6889 129.918 48.6269 128.868 49.8869 128.868C50.8669 128.868 51.5109 129.386 51.8189 130.338L52.9109 130.002C52.5049 128.644 51.4549 127.804 49.9009 127.804C47.8989 127.804 46.4289 129.344 46.4289 131.542C46.4289 133.698 47.8289 135.14 49.8869 135.14ZM57.8518 135.14C59.8818 135.14 61.3798 133.6 61.3798 131.458C61.3798 129.316 59.8818 127.804 57.8658 127.804C55.8358 127.804 54.3378 129.344 54.3378 131.486C54.3378 133.628 55.8358 135.14 57.8518 135.14ZM57.8658 134.076C56.5498 134.076 55.5978 133.012 55.5978 131.472C55.5978 129.932 56.5358 128.868 57.8518 128.868C59.1678 128.868 60.1198 129.932 60.1198 131.472C60.1198 133.012 59.1818 134.076 57.8658 134.076ZM67.9173 127.972V131.052C67.9173 133.026 67.0353 134.076 65.8173 134.076C64.8233 134.076 64.2353 133.376 64.2353 132.284V127.972H62.9753V132.41C62.9753 134.104 63.9973 135.14 65.5233 135.14C66.6013 135.14 67.4273 134.622 67.9173 133.656V135H69.1773V127.972H67.9173ZM74.9936 127.804C73.9436 127.804 73.1316 128.294 72.6276 129.232V127.972H71.3676V135H72.6276V131.668C72.6276 129.806 73.5516 128.868 74.6996 128.868C75.7076 128.868 76.3236 129.568 76.3236 130.716V135H77.5836V130.562C77.5836 128.854 76.5476 127.804 74.9936 127.804ZM82.865 133.712C82.655 133.936 82.403 134.09 82.067 134.09C81.563 134.09 81.269 133.726 81.269 133.054V129.036H83.145V127.972H81.269V125.9L80.009 126.432V127.972H78.889V129.036H80.009V133.194C80.009 134.44 80.681 135.14 81.871 135.14C82.641 135.14 83.215 134.846 83.551 134.37L82.865 133.712ZM91.6246 127.804C90.5746 127.804 89.7626 128.294 89.2586 129.232V127.972H87.9986V135H89.2586V131.668C89.2586 129.806 90.1826 128.868 91.3306 128.868C92.3386 128.868 92.9546 129.568 92.9546 130.716V135H94.2146V130.562C94.2146 128.854 93.1786 127.804 91.6246 127.804ZM101.036 127.972V131.052C101.036 133.026 100.154 134.076 98.936 134.076C97.942 134.076 97.354 133.376 97.354 132.284V127.972H96.094V132.41C96.094 134.104 97.116 135.14 98.642 135.14C99.72 135.14 100.546 134.622 101.036 133.656V135H102.296V127.972H101.036ZM112.69 127.804C111.598 127.804 110.772 128.336 110.282 129.316C109.904 128.336 109.092 127.804 107.986 127.804C106.936 127.804 106.166 128.308 105.746 129.274V127.972H104.486V135H105.746V131.906C105.746 129.904 106.572 128.868 107.748 128.868C108.714 128.868 109.232 129.568 109.232 130.66V135H110.492V131.906C110.492 129.904 111.318 128.868 112.48 128.868C113.446 128.868 113.978 129.568 113.978 130.66V135H115.238V130.548C115.238 128.84 114.272 127.804 112.69 127.804ZM121.055 127.804C119.963 127.804 119.137 128.28 118.633 129.12V125.2H117.373V135H118.633V133.824C119.137 134.664 119.963 135.14 121.055 135.14C122.959 135.14 124.247 133.642 124.247 131.472C124.247 129.316 122.959 127.804 121.055 127.804ZM120.817 134.076C119.501 134.076 118.633 133.012 118.633 131.472C118.633 129.932 119.501 128.868 120.817 128.868C122.119 128.868 122.987 129.932 122.987 131.472C122.987 133.012 122.119 134.076 120.817 134.076ZM129.098 127.804C127.11 127.804 125.668 129.316 125.668 131.5C125.668 133.726 127.236 135.14 129.182 135.14C130.54 135.14 131.576 134.426 132.136 133.404L131.282 132.872C130.862 133.614 130.134 134.104 129.21 134.104C128.02 134.104 126.984 133.306 126.9 131.766H132.22C132.43 129.568 131.24 127.804 129.098 127.804ZM129.07 128.812C130.204 128.812 130.946 129.624 131.044 130.786H126.942C127.068 129.61 127.936 128.812 129.07 128.812ZM137.103 127.846C136.333 127.846 135.703 128.224 135.311 129.162V127.972H134.051V135H135.311V131.99C135.311 129.806 135.927 128.994 136.963 128.994C137.215 128.994 137.425 129.05 137.593 129.134L138.027 128.084C137.789 127.944 137.467 127.846 137.103 127.846Z" fill="#00473C"></path><g opacity="0.65"><path fill-rule="evenodd" clip-rule="evenodd" d="M264 123.504C260.965 123.504 258.504 125.965 258.504 129C258.504 132.035 260.965 134.496 264 134.496C267.035 134.496 269.496 132.035 269.496 129C269.496 125.965 267.035 123.504 264 123.504ZM257.496 129C257.496 125.408 260.408 122.496 264 122.496C267.592 122.496 270.504 125.408 270.504 129C270.504 132.592 267.592 135.504 264 135.504C260.408 135.504 257.496 132.592 257.496 129ZM264 133C264.414 133 264.75 132.664 264.75 132.25C264.75 131.836 264.414 131.5 264 131.5C263.586 131.5 263.25 131.836 263.25 132.25C263.25 132.664 263.586 133 264 133ZM264.439 125.543C264.003 125.456 263.55 125.501 263.139 125.671C262.728 125.842 262.377 126.13 262.129 126.5C261.882 126.87 261.75 127.305 261.75 127.75C261.75 128.026 261.974 128.25 262.25 128.25C262.526 128.25 262.75 128.026 262.75 127.75C262.75 127.503 262.823 127.261 262.961 127.056C263.098 126.85 263.293 126.69 263.522 126.595C263.75 126.501 264.001 126.476 264.244 126.524C264.486 126.572 264.709 126.691 264.884 126.866C265.059 127.041 265.178 127.264 265.226 127.506C265.274 127.749 265.25 128 265.155 128.228C265.06 128.457 264.9 128.652 264.695 128.789C264.489 128.927 264.247 129 264 129C263.867 129 263.74 129.053 263.647 129.146C263.553 129.24 263.5 129.367 263.5 129.5V130C263.5 130.276 263.724 130.5 264 130.5C264.276 130.5 264.5 130.276 264.5 130V129.944C264.766 129.883 265.021 129.774 265.25 129.621C265.62 129.374 265.909 129.022 266.079 128.611C266.249 128.2 266.294 127.748 266.207 127.311C266.12 126.875 265.906 126.474 265.591 126.159C265.276 125.844 264.876 125.63 264.439 125.543Z" fill="#00473C"></path></g><path d="M16 109H284V149H16V109Z" stroke="#E6E6E6"></path><path d="M35.826 172.424C35.616 171.444 35.154 170.828 34.37 170.506C35.518 170.114 36.204 169.204 36.204 167.958C36.204 166.278 34.972 165.2 33.04 165.2H29.106V175H30.436V170.912H32.354C33.614 170.912 34.272 171.43 34.552 172.676L35.056 175H36.386L35.826 172.424ZM30.436 169.778V166.348H33.012C34.146 166.348 34.888 167.034 34.888 168.07C34.888 169.092 34.146 169.778 32.998 169.778H30.436ZM41.3348 167.804C39.3468 167.804 37.9048 169.316 37.9048 171.5C37.9048 173.726 39.4728 175.14 41.4188 175.14C42.7768 175.14 43.8128 174.426 44.3728 173.404L43.5188 172.872C43.0988 173.614 42.3708 174.104 41.4468 174.104C40.2568 174.104 39.2208 173.306 39.1368 171.766H44.4568C44.6668 169.568 43.4768 167.804 41.3348 167.804ZM41.3068 168.812C42.4408 168.812 43.1828 169.624 43.2808 170.786H39.1788C39.3048 169.61 40.1728 168.812 41.3068 168.812ZM49.9414 167.804C48.8634 167.804 48.0514 168.28 47.5474 169.106V167.972H46.2874V177.8H47.5474V173.866C48.0514 174.678 48.8634 175.14 49.9414 175.14C51.8594 175.14 53.1614 173.656 53.1614 171.458C53.1614 169.302 51.8454 167.804 49.9414 167.804ZM49.7314 174.076C48.4154 174.076 47.5474 173.012 47.5474 171.472C47.5474 169.932 48.4154 168.868 49.7314 168.868C51.0474 168.868 51.9154 169.932 51.9154 171.472C51.9154 173.012 51.0474 174.076 49.7314 174.076ZM58.0139 167.804C56.0259 167.804 54.5839 169.316 54.5839 171.5C54.5839 173.726 56.1519 175.14 58.0979 175.14C59.4559 175.14 60.4919 174.426 61.0519 173.404L60.1979 172.872C59.7779 173.614 59.0499 174.104 58.1259 174.104C56.9359 174.104 55.8999 173.306 55.8159 171.766H61.1359C61.3459 169.568 60.1559 167.804 58.0139 167.804ZM57.9859 168.812C59.1199 168.812 59.8619 169.624 59.9599 170.786H55.8579C55.9839 169.61 56.8519 168.812 57.9859 168.812ZM65.6125 167.804C64.0305 167.804 62.8965 168.77 62.6305 170.184L63.6525 170.492C63.9325 169.47 64.5205 168.924 65.5565 168.924C66.5785 168.924 67.2365 169.568 67.2785 170.646L65.3605 171.01C63.6245 171.332 62.8825 172.018 62.8825 173.138C62.8825 174.356 63.7925 175.14 65.0945 175.14C66.1305 175.14 66.9005 174.65 67.3485 173.768V175H68.5245V170.632C68.5245 168.938 67.3905 167.804 65.6125 167.804ZM65.3325 174.202C64.6465 174.202 64.1425 173.824 64.1425 173.152C64.1425 172.466 64.6605 172.116 65.8085 171.892L67.2785 171.626V171.836C67.2785 173.222 66.4665 174.202 65.3325 174.202ZM73.8077 173.712C73.5977 173.936 73.3457 174.09 73.0097 174.09C72.5057 174.09 72.2117 173.726 72.2117 173.054V169.036H74.0877V167.972H72.2117V165.9L70.9517 166.432V167.972H69.8317V169.036H70.9517V173.194C70.9517 174.44 71.6237 175.14 72.8137 175.14C73.5837 175.14 74.1577 174.846 74.4937 174.37L73.8077 173.712ZM81.5873 167.804C80.0053 167.804 78.8713 168.77 78.6053 170.184L79.6273 170.492C79.9073 169.47 80.4953 168.924 81.5313 168.924C82.5533 168.924 83.2113 169.568 83.2533 170.646L81.3353 171.01C79.5993 171.332 78.8573 172.018 78.8573 173.138C78.8573 174.356 79.7673 175.14 81.0693 175.14C82.1053 175.14 82.8753 174.65 83.3233 173.768V175H84.4993V170.632C84.4993 168.938 83.3653 167.804 81.5873 167.804ZM81.3073 174.202C80.6213 174.202 80.1173 173.824 80.1173 173.152C80.1173 172.466 80.6353 172.116 81.7833 171.892L83.2533 171.626V171.836C83.2533 173.222 82.4413 174.202 81.3073 174.202ZM89.6704 175.14C91.1684 175.14 92.2884 174.3 92.7644 173.012L91.7564 172.634C91.3504 173.572 90.6924 174.076 89.6844 174.076C88.4104 174.076 87.4724 173.012 87.4724 171.472C87.4724 169.918 88.4104 168.868 89.6704 168.868C90.6504 168.868 91.2944 169.386 91.6024 170.338L92.6944 170.002C92.2884 168.644 91.2384 167.804 89.6844 167.804C87.6824 167.804 86.2124 169.344 86.2124 171.542C86.2124 173.698 87.6124 175.14 89.6704 175.14ZM97.5793 175.14C99.0773 175.14 100.197 174.3 100.673 173.012L99.6653 172.634C99.2593 173.572 98.6013 174.076 97.5933 174.076C96.3193 174.076 95.3813 173.012 95.3813 171.472C95.3813 169.918 96.3193 168.868 97.5793 168.868C98.5593 168.868 99.2033 169.386 99.5113 170.338L100.603 170.002C100.197 168.644 99.1473 167.804 97.5933 167.804C95.5913 167.804 94.1213 169.344 94.1213 171.542C94.1213 173.698 95.5213 175.14 97.5793 175.14ZM105.544 175.14C107.574 175.14 109.072 173.6 109.072 171.458C109.072 169.316 107.574 167.804 105.558 167.804C103.528 167.804 102.03 169.344 102.03 171.486C102.03 173.628 103.528 175.14 105.544 175.14ZM105.558 174.076C104.242 174.076 103.29 173.012 103.29 171.472C103.29 169.932 104.228 168.868 105.544 168.868C106.86 168.868 107.812 169.932 107.812 171.472C107.812 173.012 106.874 174.076 105.558 174.076ZM115.61 167.972V171.052C115.61 173.026 114.728 174.076 113.51 174.076C112.516 174.076 111.928 173.376 111.928 172.284V167.972H110.668V172.41C110.668 174.104 111.69 175.14 113.216 175.14C114.294 175.14 115.12 174.622 115.61 173.656V175H116.87V167.972H115.61ZM122.686 167.804C121.636 167.804 120.824 168.294 120.32 169.232V167.972H119.06V175H120.32V171.668C120.32 169.806 121.244 168.868 122.392 168.868C123.4 168.868 124.016 169.568 124.016 170.716V175H125.276V170.562C125.276 168.854 124.24 167.804 122.686 167.804ZM130.557 173.712C130.347 173.936 130.095 174.09 129.759 174.09C129.255 174.09 128.961 173.726 128.961 173.054V169.036H130.837V167.972H128.961V165.9L127.701 166.432V167.972H126.581V169.036H127.701V173.194C127.701 174.44 128.373 175.14 129.563 175.14C130.333 175.14 130.907 174.846 131.243 174.37L130.557 173.712ZM139.317 167.804C138.267 167.804 137.455 168.294 136.951 169.232V167.972H135.691V175H136.951V171.668C136.951 169.806 137.875 168.868 139.023 168.868C140.031 168.868 140.647 169.568 140.647 170.716V175H141.907V170.562C141.907 168.854 140.871 167.804 139.317 167.804ZM148.728 167.972V171.052C148.728 173.026 147.846 174.076 146.628 174.076C145.634 174.076 145.046 173.376 145.046 172.284V167.972H143.786V172.41C143.786 174.104 144.808 175.14 146.334 175.14C147.412 175.14 148.238 174.622 148.728 173.656V175H149.988V167.972H148.728ZM160.383 167.804C159.291 167.804 158.465 168.336 157.975 169.316C157.597 168.336 156.785 167.804 155.679 167.804C154.629 167.804 153.859 168.308 153.439 169.274V167.972H152.179V175H153.439V171.906C153.439 169.904 154.265 168.868 155.441 168.868C156.407 168.868 156.925 169.568 156.925 170.66V175H158.185V171.906C158.185 169.904 159.011 168.868 160.173 168.868C161.139 168.868 161.671 169.568 161.671 170.66V175H162.931V170.548C162.931 168.84 161.965 167.804 160.383 167.804ZM168.747 167.804C167.655 167.804 166.829 168.28 166.325 169.12V165.2H165.065V175H166.325V173.824C166.829 174.664 167.655 175.14 168.747 175.14C170.651 175.14 171.939 173.642 171.939 171.472C171.939 169.316 170.651 167.804 168.747 167.804ZM168.509 174.076C167.193 174.076 166.325 173.012 166.325 171.472C166.325 169.932 167.193 168.868 168.509 168.868C169.811 168.868 170.679 169.932 170.679 171.472C170.679 173.012 169.811 174.076 168.509 174.076ZM176.791 167.804C174.803 167.804 173.361 169.316 173.361 171.5C173.361 173.726 174.929 175.14 176.875 175.14C178.233 175.14 179.269 174.426 179.829 173.404L178.975 172.872C178.555 173.614 177.827 174.104 176.903 174.104C175.713 174.104 174.677 173.306 174.593 171.766H179.913C180.123 169.568 178.933 167.804 176.791 167.804ZM176.763 168.812C177.897 168.812 178.639 169.624 178.737 170.786H174.635C174.761 169.61 175.629 168.812 176.763 168.812ZM184.795 167.846C184.025 167.846 183.395 168.224 183.003 169.162V167.972H181.743V175H183.003V171.99C183.003 169.806 183.619 168.994 184.655 168.994C184.907 168.994 185.117 169.05 185.285 169.134L185.719 168.084C185.481 167.944 185.159 167.846 184.795 167.846Z" fill="#00473C"></path><path d="M16 149H284V189H16V149Z" stroke="#E6E6E6"></path><path d="M36.106 215H37.506L33.6 205.2H32.186L28.266 215H29.666L30.548 212.704H35.224L36.106 215ZM30.982 211.598L32.886 206.656L34.79 211.598H30.982ZM41.978 215.14C43.476 215.14 44.596 214.3 45.072 213.012L44.064 212.634C43.658 213.572 43 214.076 41.992 214.076C40.718 214.076 39.78 213.012 39.78 211.472C39.78 209.918 40.718 208.868 41.978 208.868C42.958 208.868 43.602 209.386 43.91 210.338L45.002 210.002C44.596 208.644 43.546 207.804 41.992 207.804C39.99 207.804 38.52 209.344 38.52 211.542C38.52 213.698 39.92 215.14 41.978 215.14ZM49.8869 215.14C51.3849 215.14 52.5049 214.3 52.9809 213.012L51.9729 212.634C51.5669 213.572 50.9089 214.076 49.9009 214.076C48.6269 214.076 47.6889 213.012 47.6889 211.472C47.6889 209.918 48.6269 208.868 49.8869 208.868C50.8669 208.868 51.5109 209.386 51.8189 210.338L52.9109 210.002C52.5049 208.644 51.4549 207.804 49.9009 207.804C47.8989 207.804 46.4289 209.344 46.4289 211.542C46.4289 213.698 47.8289 215.14 49.8869 215.14ZM57.8518 215.14C59.8818 215.14 61.3798 213.6 61.3798 211.458C61.3798 209.316 59.8818 207.804 57.8658 207.804C55.8358 207.804 54.3378 209.344 54.3378 211.486C54.3378 213.628 55.8358 215.14 57.8518 215.14ZM57.8658 214.076C56.5498 214.076 55.5978 213.012 55.5978 211.472C55.5978 209.932 56.5358 208.868 57.8518 208.868C59.1678 208.868 60.1198 209.932 60.1198 211.472C60.1198 213.012 59.1818 214.076 57.8658 214.076ZM67.9173 207.972V211.052C67.9173 213.026 67.0353 214.076 65.8173 214.076C64.8233 214.076 64.2353 213.376 64.2353 212.284V207.972H62.9753V212.41C62.9753 214.104 63.9973 215.14 65.5233 215.14C66.6013 215.14 67.4273 214.622 67.9173 213.656V215H69.1773V207.972H67.9173ZM74.9936 207.804C73.9436 207.804 73.1316 208.294 72.6276 209.232V207.972H71.3676V215H72.6276V211.668C72.6276 209.806 73.5516 208.868 74.6996 208.868C75.7076 208.868 76.3236 209.568 76.3236 210.716V215H77.5836V210.562C77.5836 208.854 76.5476 207.804 74.9936 207.804ZM82.865 213.712C82.655 213.936 82.403 214.09 82.067 214.09C81.563 214.09 81.269 213.726 81.269 213.054V209.036H83.145V207.972H81.269V205.9L80.009 206.432V207.972H78.889V209.036H80.009V213.194C80.009 214.44 80.681 215.14 81.871 215.14C82.641 215.14 83.215 214.846 83.551 214.37L82.865 213.712ZM91.6806 207.804C90.6306 207.804 89.8046 208.294 89.3006 209.246V205.2H88.0406V215H89.3006V211.668C89.3006 209.82 90.2246 208.868 91.3726 208.868C92.3806 208.868 92.9966 209.568 92.9966 210.716V215H94.2566V210.562C94.2566 208.91 93.2626 207.804 91.6806 207.804ZM99.481 215.14C101.511 215.14 103.009 213.6 103.009 211.458C103.009 209.316 101.511 207.804 99.495 207.804C97.465 207.804 95.967 209.344 95.967 211.486C95.967 213.628 97.465 215.14 99.481 215.14ZM99.495 214.076C98.179 214.076 97.227 213.012 97.227 211.472C97.227 209.932 98.165 208.868 99.481 208.868C100.797 208.868 101.749 209.932 101.749 211.472C101.749 213.012 100.811 214.076 99.495 214.076ZM104.857 215H106.117V205.2H104.857V215ZM113.626 205.2V209.05C113.136 208.252 112.338 207.804 111.274 207.804C109.286 207.804 107.984 209.316 107.984 211.472C107.984 213.642 109.286 215.14 111.274 215.14C112.338 215.14 113.136 214.678 113.626 213.894V215H114.886V205.2H113.626ZM111.442 214.076C110.126 214.076 109.244 213.012 109.244 211.472C109.244 209.932 110.126 208.868 111.442 208.868C112.772 208.868 113.626 209.932 113.626 211.472C113.626 213.012 112.772 214.076 111.442 214.076ZM120.171 207.804C118.183 207.804 116.741 209.316 116.741 211.5C116.741 213.726 118.309 215.14 120.255 215.14C121.613 215.14 122.649 214.426 123.209 213.404L122.355 212.872C121.935 213.614 121.207 214.104 120.283 214.104C119.093 214.104 118.057 213.306 117.973 211.766H123.293C123.503 209.568 122.313 207.804 120.171 207.804ZM120.143 208.812C121.277 208.812 122.019 209.624 122.117 210.786H118.015C118.141 209.61 119.009 208.812 120.143 208.812ZM128.175 207.846C127.405 207.846 126.775 208.224 126.383 209.162V207.972H125.123V215H126.383V211.99C126.383 209.806 126.999 208.994 128.035 208.994C128.287 208.994 128.497 209.05 128.665 209.134L129.099 208.084C128.861 207.944 128.539 207.846 128.175 207.846ZM137.307 207.804C136.257 207.804 135.445 208.294 134.941 209.232V207.972H133.681V215H134.941V211.668C134.941 209.806 135.865 208.868 137.013 208.868C138.021 208.868 138.637 209.568 138.637 210.716V215H139.897V210.562C139.897 208.854 138.861 207.804 137.307 207.804ZM144.633 207.804C143.051 207.804 141.917 208.77 141.651 210.184L142.673 210.492C142.953 209.47 143.541 208.924 144.577 208.924C145.599 208.924 146.257 209.568 146.299 210.646L144.381 211.01C142.645 211.332 141.903 212.018 141.903 213.138C141.903 214.356 142.813 215.14 144.115 215.14C145.151 215.14 145.921 214.65 146.369 213.768V215H147.545V210.632C147.545 208.938 146.411 207.804 144.633 207.804ZM144.353 214.202C143.667 214.202 143.163 213.824 143.163 213.152C143.163 212.466 143.681 212.116 144.829 211.892L146.299 211.626V211.836C146.299 213.222 145.487 214.202 144.353 214.202ZM157.84 207.804C156.748 207.804 155.922 208.336 155.432 209.316C155.054 208.336 154.242 207.804 153.136 207.804C152.086 207.804 151.316 208.308 150.896 209.274V207.972H149.636V215H150.896V211.906C150.896 209.904 151.722 208.868 152.898 208.868C153.864 208.868 154.382 209.568 154.382 210.66V215H155.642V211.906C155.642 209.904 156.468 208.868 157.63 208.868C158.596 208.868 159.128 209.568 159.128 210.66V215H160.388V210.548C160.388 208.84 159.422 207.804 157.84 207.804ZM165.532 207.804C163.544 207.804 162.102 209.316 162.102 211.5C162.102 213.726 163.67 215.14 165.616 215.14C166.974 215.14 168.01 214.426 168.57 213.404L167.716 212.872C167.296 213.614 166.568 214.104 165.644 214.104C164.454 214.104 163.418 213.306 163.334 211.766H168.654C168.864 209.568 167.674 207.804 165.532 207.804ZM165.504 208.812C166.638 208.812 167.38 209.624 167.478 210.786H163.376C163.502 209.61 164.37 208.812 165.504 208.812Z" fill="#00473C"></path><path d="M16 189H284V225C284 227.209 282.209 229 280 229H20C17.7909 229 16 227.209 16 225V189Z" stroke="#E6E6E6"></path><rect x="16" y="247" width="268" height="40" rx="5" fill="#00473C"></rect><path fill-rule="evenodd" clip-rule="evenodd" d="M98.8184 264.5C98.8184 263.188 99.8817 262.125 101.193 262.125C102.505 262.125 103.568 263.188 103.568 264.5V265.5H98.8184V264.5ZM98.0684 265.5V264.5C98.0684 262.774 99.4675 261.375 101.193 261.375C102.919 261.375 104.318 262.774 104.318 264.5V265.5H105.193C105.47 265.5 105.693 265.724 105.693 266V271C105.693 271.276 105.47 271.5 105.193 271.5H97.1934C96.9172 271.5 96.6934 271.276 96.6934 271V266C96.6934 265.724 96.9172 265.5 97.1934 265.5H98.0684Z" fill="white"></path><path d="M118.917 262.2H114.857V272H116.523V268.346H118.819C120.947 268.346 122.249 267.114 122.249 265.21C122.249 263.376 120.989 262.2 118.917 262.2ZM118.861 266.848H116.523V263.684H118.819C119.939 263.684 120.569 264.3 120.569 265.266C120.569 266.246 119.953 266.848 118.861 266.848ZM126.573 264.762C124.949 264.762 123.787 265.756 123.521 267.184L124.795 267.562C125.075 266.652 125.579 266.162 126.503 266.162C127.371 266.162 127.945 266.736 127.987 267.66L126.125 267.982C124.529 268.262 123.759 268.934 123.759 270.068C123.759 271.314 124.683 272.14 126.013 272.14C126.965 272.14 127.693 271.706 128.113 270.922V272H129.583V267.632C129.583 265.924 128.449 264.762 126.573 264.762ZM126.377 271.006C125.789 271.006 125.369 270.67 125.369 270.11C125.369 269.508 125.831 269.214 126.643 269.06L127.987 268.794V269.032C127.987 270.152 127.315 271.006 126.377 271.006ZM135.961 264.958L134.169 270.012L132.251 264.958H130.585L133.385 271.874L132.167 274.8H133.791L137.599 264.958H135.961ZM149.491 269.116C149.491 267.002 147.811 266.624 146.285 266.344V263.474C147.013 263.67 147.503 264.188 147.741 264.93L149.225 264.51C148.833 263.166 147.825 262.228 146.285 262.046V260.8H145.207V262.046C143.443 262.228 142.253 263.362 142.253 264.986C142.253 266.988 143.751 267.422 145.207 267.716V270.726C144.213 270.586 143.569 269.97 143.289 268.864L141.805 269.284C142.141 270.964 143.303 272 145.207 272.126V273.358H146.285V272.112C148.217 271.916 149.491 270.838 149.491 269.116ZM143.793 264.804C143.793 264.09 144.325 263.544 145.207 263.418V266.12C144.395 265.91 143.793 265.588 143.793 264.804ZM146.285 270.726V267.94C147.195 268.15 147.909 268.472 147.909 269.354C147.909 270.082 147.265 270.586 146.285 270.726ZM153.087 262.2C152.681 263.32 151.883 263.894 150.581 264.006V265.588C151.547 265.518 152.261 265.238 152.779 264.706V272H154.459V262.2H153.087ZM156.712 270.278V272H157.734V272.504C157.734 272.882 157.496 273.148 157.16 273.148C156.936 273.148 156.726 273.106 156.544 272.994L156.236 273.526C156.488 273.708 156.796 273.792 157.16 273.792C157.972 273.792 158.49 273.246 158.49 272.406V270.278H156.712ZM161.878 262.2C161.472 263.32 160.674 263.894 159.372 264.006V265.588C160.338 265.518 161.052 265.238 161.57 264.706V272H163.25V262.2H161.878ZM168.709 262.018C166.707 262.018 165.237 263.362 165.237 265.336C165.237 267.212 166.539 268.486 168.429 268.486C169.493 268.486 170.333 268.052 170.837 267.324C170.809 269.494 169.969 270.698 168.611 270.698C167.743 270.698 167.183 270.138 166.833 269.116L165.489 269.578C165.951 271.258 166.987 272.14 168.653 272.14C170.963 272.14 172.447 270.166 172.447 266.946C172.447 263.796 171.075 262.018 168.709 262.018ZM168.737 267.17C167.673 267.17 166.917 266.4 166.917 265.308C166.917 264.188 167.631 263.446 168.723 263.446C169.787 263.446 170.529 264.216 170.529 265.308C170.529 266.4 169.773 267.17 168.737 267.17ZM177.479 262.018C175.477 262.018 174.007 263.362 174.007 265.336C174.007 267.212 175.309 268.486 177.199 268.486C178.263 268.486 179.103 268.052 179.607 267.324C179.579 269.494 178.739 270.698 177.381 270.698C176.513 270.698 175.953 270.138 175.603 269.116L174.259 269.578C174.721 271.258 175.757 272.14 177.423 272.14C179.733 272.14 181.217 270.166 181.217 266.946C181.217 263.796 179.845 262.018 177.479 262.018ZM177.507 267.17C176.443 267.17 175.687 266.4 175.687 265.308C175.687 264.188 176.401 263.446 177.493 263.446C178.557 263.446 179.299 264.216 179.299 265.308C179.299 266.4 178.543 267.17 177.507 267.17ZM183.029 272H184.821V270.25H183.029V272ZM190.467 272.14C192.917 272.14 194.289 270.334 194.289 267.086C194.289 263.824 192.917 262.018 190.467 262.018C188.003 262.018 186.631 263.824 186.631 267.086C186.631 270.334 188.003 272.14 190.467 272.14ZM190.467 270.656C189.081 270.656 188.311 269.382 188.311 267.086C188.311 264.79 189.081 263.502 190.467 263.502C191.839 263.502 192.609 264.79 192.609 267.086C192.609 269.382 191.839 270.656 190.467 270.656ZM199.893 272.14C202.343 272.14 203.715 270.334 203.715 267.086C203.715 263.824 202.343 262.018 199.893 262.018C197.429 262.018 196.057 263.824 196.057 267.086C196.057 270.334 197.429 272.14 199.893 272.14ZM199.893 270.656C198.507 270.656 197.737 269.382 197.737 267.086C197.737 264.79 198.507 263.502 199.893 263.502C201.265 263.502 202.035 264.79 202.035 267.086C202.035 269.382 201.265 270.656 199.893 270.656Z" fill="white"></path></svg> 