<?xml version="1.0" encoding="UTF-8"?> <svg xmlns="http://www.w3.org/2000/svg" width="300" height="312" viewBox="0 0 300 312" fill="none"><g clip-path="url(#clip0_1329_24713)"><rect width="300" height="312" rx="8" fill="#222020"></rect><path d="M21.11 22.2H17.05V32H18.716V28.346H21.012C23.14 28.346 24.442 27.114 24.442 25.21C24.442 23.376 23.182 22.2 21.11 22.2ZM21.054 26.848H18.716V23.684H21.012C22.132 23.684 22.762 24.3 22.762 25.266C22.762 26.246 22.146 26.848 21.054 26.848ZM28.486 24.762C26.862 24.762 25.7 25.756 25.434 27.184L26.708 27.562C26.988 26.652 27.492 26.162 28.416 26.162C29.284 26.162 29.858 26.736 29.9 27.66L28.038 27.982C26.442 28.262 25.672 28.934 25.672 30.068C25.672 31.314 26.596 32.14 27.926 32.14C28.878 32.14 29.606 31.706 30.026 30.922V32H31.496V27.632C31.496 25.924 30.362 24.762 28.486 24.762ZM28.29 31.006C27.702 31.006 27.282 30.67 27.282 30.11C27.282 29.508 27.744 29.214 28.556 29.06L29.9 28.794V29.032C29.9 30.152 29.228 31.006 28.29 31.006ZM37.5948 24.958L35.8028 30.012L33.8848 24.958H32.2188L35.0188 31.874L33.8008 34.8H35.4248L39.2328 24.958H37.5948ZM48.6603 24.762C47.6103 24.762 46.7982 25.252 46.3223 26.134C45.9163 25.238 45.1323 24.762 44.0683 24.762C43.0463 24.762 42.3323 25.238 41.9263 26.12V24.958H40.3163V32H41.9263V28.752C41.9263 26.946 42.6963 26.134 43.6623 26.134C44.5163 26.134 44.9783 26.764 44.9783 27.702V32H46.5883V28.752C46.5883 26.946 47.3583 26.134 48.3243 26.134C49.1783 26.134 49.6403 26.764 49.6403 27.702V32H51.2503V27.534C51.2503 25.812 50.2703 24.762 48.6603 24.762ZM56.0704 24.762C54.0544 24.762 52.5984 26.302 52.5984 28.5C52.5984 30.726 54.1804 32.14 56.1684 32.14C57.5124 32.14 58.5624 31.482 59.1364 30.488L58.1144 29.774C57.6944 30.404 57.0224 30.824 56.1964 30.824C55.1324 30.824 54.2224 30.124 54.1524 28.878H59.2624C59.5844 26.694 58.2824 24.762 56.0704 24.762ZM56.0424 26.022C57.0084 26.022 57.6804 26.708 57.7784 27.73H54.2084C54.3064 26.694 55.0624 26.022 56.0424 26.022ZM64.606 24.762C63.626 24.762 62.842 25.196 62.352 26.05V24.958H60.742V32H62.352V28.556C62.352 26.904 63.206 26.134 64.186 26.134C65.068 26.134 65.6 26.75 65.6 27.744V32H67.21V27.534C67.21 25.826 66.16 24.762 64.606 24.762ZM72.3892 30.488C72.1932 30.67 71.9552 30.796 71.6472 30.796C71.1992 30.796 70.9472 30.474 70.9472 29.9V26.33H72.7952V24.958H70.9472V22.69L69.3372 23.39V24.958H68.2172V26.33H69.3372V30.068C69.3372 31.398 70.0512 32.14 71.3392 32.14C72.2072 32.14 72.8232 31.832 73.2292 31.37L72.3892 30.488ZM81.7823 24.958L79.9343 30.18L78.0863 24.958H76.4063L79.1223 32H80.7043L83.4203 24.958H81.7823ZM87.3269 32.14C89.3989 32.14 90.9389 30.558 90.9389 28.43C90.9389 26.302 89.3989 24.762 87.3549 24.762C85.2829 24.762 83.7429 26.344 83.7429 28.472C83.7429 30.6 85.2829 32.14 87.3269 32.14ZM87.3549 30.768C86.1929 30.768 85.3529 29.83 85.3529 28.444C85.3529 27.072 86.1649 26.134 87.3269 26.134C88.4889 26.134 89.3289 27.072 89.3289 28.458C89.3289 29.83 88.5169 30.768 87.3549 30.768ZM92.4208 32H94.0308V22.2H92.4208V32ZM100.54 24.958V28.164C100.54 29.928 99.7004 30.768 98.6924 30.768C97.8244 30.768 97.3204 30.152 97.3204 29.2V24.958H95.7104V29.396C95.7104 31.09 96.7464 32.14 98.2444 32.14C99.2664 32.14 100.05 31.664 100.54 30.782V32H102.15V24.958H100.54ZM112.33 24.762C111.28 24.762 110.468 25.252 109.992 26.134C109.586 25.238 108.802 24.762 107.738 24.762C106.716 24.762 106.002 25.238 105.596 26.12V24.958H103.986V32H105.596V28.752C105.596 26.946 106.366 26.134 107.332 26.134C108.186 26.134 108.648 26.764 108.648 27.702V32H110.258V28.752C110.258 26.946 111.028 26.134 111.994 26.134C112.848 26.134 113.31 26.764 113.31 27.702V32H114.92V27.534C114.92 25.812 113.94 24.762 112.33 24.762ZM119.74 24.762C117.724 24.762 116.268 26.302 116.268 28.5C116.268 30.726 117.85 32.14 119.838 32.14C121.182 32.14 122.232 31.482 122.806 30.488L121.784 29.774C121.364 30.404 120.692 30.824 119.866 30.824C118.802 30.824 117.892 30.124 117.822 28.878H122.932C123.254 26.694 121.952 24.762 119.74 24.762ZM119.712 26.022C120.678 26.022 121.35 26.708 121.448 27.73H117.878C117.976 26.694 118.732 26.022 119.712 26.022Z" fill="white"></path><path d="M34.496 67.792C34.496 63.024 30.72 62.224 27.168 61.584V53.488C29.248 53.872 30.816 55.248 31.488 57.296L33.856 56.592C32.928 53.584 30.56 51.6 27.168 51.28V48.528H25.056V51.312C21.088 51.696 18.464 54.128 18.464 57.552C18.464 61.968 21.728 62.928 25.056 63.568V72.112C22.336 71.792 20.544 70.096 19.968 67.376L17.568 68.048C18.272 71.696 20.896 74 25.056 74.288V77.072H27.168V74.256C31.616 73.904 34.496 71.472 34.496 67.792ZM20.896 57.328C20.896 55.344 22.496 53.776 25.056 53.456V61.168C22.72 60.624 20.896 59.792 20.896 57.328ZM27.168 72.112V63.984C29.792 64.528 32 65.296 32 68.048C32 70.224 30.112 71.824 27.168 72.112ZM46.2385 59.088C44.2225 59.088 42.4305 59.824 41.1825 61.104L42.2385 53.872H52.4145V51.6H40.1905L38.3665 64.176L40.6705 64.72C41.3425 62.768 43.1665 61.264 45.7265 61.264C48.8305 61.264 50.9105 63.472 50.9105 66.704C50.9105 69.904 48.8625 72.048 45.7905 72.048C43.2305 72.048 41.5345 70.736 40.6065 68.56L38.3665 69.552C39.4545 72.4 42.1105 74.32 45.6945 74.32C50.3345 74.32 53.5345 71.184 53.5345 66.64C53.5345 62.192 50.4945 59.088 46.2385 59.088ZM65.836 74.32C71.276 74.32 74.284 70.192 74.284 62.8C74.284 55.376 71.276 51.248 65.836 51.248C60.364 51.248 57.356 55.376 57.356 62.8C57.356 70.192 60.364 74.32 65.836 74.32ZM65.836 72.048C62.092 72.048 59.98 68.752 59.98 62.8C59.98 56.816 62.092 53.52 65.836 53.52C69.548 53.52 71.66 56.816 71.66 62.8C71.66 68.752 69.548 72.048 65.836 72.048ZM78.269 70.832V74H80.093V75.184C80.093 75.952 79.677 76.464 79.005 76.464C78.557 76.464 78.141 76.4 77.821 76.176L77.213 77.168C77.693 77.488 78.301 77.648 79.005 77.648C80.477 77.648 81.469 76.624 81.469 74.992V70.832H78.269ZM88.7465 71.728L93.1305 68.592C98.0585 65.072 99.9145 61.712 99.9145 58.32C99.9145 54 97.0345 51.248 92.5865 51.248C88.0745 51.248 85.1305 54 85.1305 58.256C85.1305 59.44 85.3545 60.528 85.7065 61.456L88.0425 60.688C87.7865 59.984 87.6265 59.152 87.6265 58.288C87.6265 55.408 89.5465 53.52 92.4905 53.52C95.4025 53.52 97.2585 55.44 97.2585 58.448C97.2585 61.232 95.8185 63.984 91.4345 67.152L85.0665 71.824V74H100.107V71.728H88.7465ZM119.254 66.832H116.278V51.6H113.59L102.646 66.832V69.072H113.686V74H116.278V69.072H119.254V66.832ZM113.718 55.28V66.832H105.43L113.718 55.28ZM130.461 74.32C135.901 74.32 138.909 70.192 138.909 62.8C138.909 55.376 135.901 51.248 130.461 51.248C124.989 51.248 121.981 55.376 121.981 62.8C121.981 70.192 124.989 74.32 130.461 74.32ZM130.461 72.048C126.717 72.048 124.605 68.752 124.605 62.8C124.605 56.816 126.717 53.52 130.461 53.52C134.173 53.52 136.285 56.816 136.285 62.8C136.285 68.752 134.173 72.048 130.461 72.048ZM149.551 74.16C152.287 74.16 153.999 72.416 153.999 69.552V62.8H152.287V69.488C152.287 71.456 151.247 72.656 149.583 72.656C147.903 72.656 146.847 71.456 146.847 69.488V62.8H145.151V69.552C145.151 72.416 146.831 74.16 149.551 74.16ZM159.941 74.16C162.549 74.16 164.325 72.88 164.325 70.768C164.325 66.224 157.749 68.656 157.749 65.744C157.749 64.768 158.597 64.048 159.973 64.048C161.237 64.048 162.117 64.736 162.485 65.824L164.021 65.392C163.509 63.696 162.149 62.592 160.069 62.592C157.749 62.592 156.133 63.936 156.133 65.904C156.133 70.448 162.661 67.984 162.661 70.992C162.661 72.016 161.605 72.704 160.053 72.704C158.533 72.704 157.541 71.952 157.141 70.512L155.653 70.96C156.101 72.944 157.621 74.16 159.941 74.16ZM170.251 62.8H166.107V74H170.251C173.579 74 175.691 71.872 175.691 68.4C175.691 64.928 173.595 62.8 170.251 62.8ZM170.203 72.496H167.819V64.304H170.203C172.491 64.304 173.979 65.904 173.979 68.4C173.979 70.912 172.491 72.496 170.203 72.496Z" fill="white"></path><path d="M191 74.125V65.875" stroke="#C1D3FF" stroke-width="0.75" stroke-linecap="round" stroke-linejoin="round"></path><path d="M187.625 69.25L191 65.875L194.375 69.25" stroke="#C1D3FF" stroke-width="0.75" stroke-linecap="round" stroke-linejoin="round"></path><path d="M203.548 65.9C203.171 66.94 202.43 67.473 201.221 67.577V69.046C202.118 68.981 202.781 68.721 203.262 68.227V75H204.822V65.9H203.548ZM210.164 75.13C212.439 75.13 213.713 73.453 213.713 70.437C213.713 67.408 212.439 65.731 210.164 65.731C207.876 65.731 206.602 67.408 206.602 70.437C206.602 73.453 207.876 75.13 210.164 75.13ZM210.164 73.752C208.877 73.752 208.162 72.569 208.162 70.437C208.162 68.305 208.877 67.109 210.164 67.109C211.438 67.109 212.153 68.305 212.153 70.437C212.153 72.569 211.438 73.752 210.164 73.752ZM216.915 70.697C218.111 70.697 218.904 69.761 218.904 68.24C218.904 66.706 218.111 65.77 216.915 65.77C215.719 65.77 214.926 66.706 214.926 68.24C214.926 69.774 215.719 70.697 216.915 70.697ZM217.006 74.987H218.254L222.674 65.9H221.439L217.006 74.987ZM216.915 69.774C216.33 69.774 216.018 69.228 216.018 68.24C216.018 67.239 216.33 66.693 216.915 66.693C217.487 66.693 217.812 67.239 217.812 68.24C217.812 69.228 217.487 69.774 216.915 69.774ZM222.804 75.156C224 75.156 224.793 74.22 224.793 72.699C224.793 71.165 224 70.229 222.804 70.229C221.595 70.229 220.815 71.165 220.815 72.699C220.815 74.233 221.595 75.156 222.804 75.156ZM222.804 74.233C222.219 74.233 221.907 73.687 221.907 72.699C221.907 71.698 222.219 71.152 222.804 71.152C223.376 71.152 223.701 71.698 223.701 72.699C223.701 73.687 223.376 74.233 222.804 74.233Z" fill="#C1D3FF"></path><path d="M20.644 195.584C21.52 195.296 22.012 194.648 22.012 193.712C22.012 192.344 20.992 191.456 19.42 191.456C17.872 191.456 16.828 192.32 16.684 193.736L17.704 193.904C17.872 192.992 18.448 192.416 19.36 192.416C20.284 192.416 20.884 192.956 20.884 193.808C20.884 194.684 20.248 195.152 19.096 195.152H18.652V196.112H19.168C20.44 196.112 21.184 196.652 21.184 197.648C21.184 198.56 20.488 199.148 19.42 199.148C18.34 199.148 17.704 198.62 17.488 197.708L16.444 197.888C16.672 199.304 17.74 200.12 19.396 200.12C21.16 200.12 22.312 199.172 22.312 197.72C22.312 196.628 21.712 195.896 20.644 195.584ZM27.08 200.12C29.144 200.12 30.284 198.572 30.284 195.8C30.284 193.004 29.144 191.456 27.08 191.456C25.016 191.456 23.864 193.004 23.864 195.8C23.864 198.572 25.016 200.12 27.08 200.12ZM27.08 199.124C25.748 199.124 25.004 197.936 25.004 195.8C25.004 193.64 25.748 192.452 27.08 192.452C28.4 192.452 29.156 193.64 29.156 195.8C29.156 197.936 28.4 199.124 27.08 199.124ZM35.2096 200.12C37.2736 200.12 38.4136 198.572 38.4136 195.8C38.4136 193.004 37.2736 191.456 35.2096 191.456C33.1456 191.456 31.9936 193.004 31.9936 195.8C31.9936 198.572 33.1456 200.12 35.2096 200.12ZM35.2096 199.124C33.8776 199.124 33.1336 197.936 33.1336 195.8C33.1336 193.64 33.8776 192.452 35.2096 192.452C36.5296 192.452 37.2856 193.64 37.2856 195.8C37.2856 197.936 36.5296 199.124 35.2096 199.124Z" fill="white"></path><line x1="53" y1="195.5" x2="284" y2="195.5" stroke="white" stroke-opacity="0.2"></line><path d="M19.984 126.552C18.988 126.552 18.184 127.008 17.764 127.8V127.788C17.752 125.628 18.592 124.428 19.888 124.428C20.728 124.428 21.28 124.956 21.592 125.916L22.516 125.628C22.12 124.188 21.232 123.456 19.876 123.456C17.932 123.456 16.672 125.1 16.672 127.836C16.672 130.608 17.896 132.12 19.852 132.12C21.58 132.12 22.732 130.944 22.732 129.3C22.732 127.704 21.592 126.552 19.984 126.552ZM19.84 131.148C18.796 131.148 18.052 130.392 18.052 129.3C18.052 128.22 18.796 127.464 19.816 127.464C20.848 127.464 21.604 128.22 21.604 129.3C21.604 130.404 20.908 131.148 19.84 131.148ZM27.4785 132.12C29.5425 132.12 30.6825 130.572 30.6825 127.8C30.6825 125.004 29.5425 123.456 27.4785 123.456C25.4145 123.456 24.2625 125.004 24.2625 127.8C24.2625 130.572 25.4145 132.12 27.4785 132.12ZM27.4785 131.124C26.1465 131.124 25.4025 129.936 25.4025 127.8C25.4025 125.64 26.1465 124.452 27.4785 124.452C28.7985 124.452 29.5545 125.64 29.5545 127.8C29.5545 129.936 28.7985 131.124 27.4785 131.124ZM35.608 132.12C37.672 132.12 38.812 130.572 38.812 127.8C38.812 125.004 37.672 123.456 35.608 123.456C33.544 123.456 32.392 125.004 32.392 127.8C32.392 130.572 33.544 132.12 35.608 132.12ZM35.608 131.124C34.276 131.124 33.532 129.936 33.532 127.8C33.532 125.64 34.276 124.452 35.608 124.452C36.928 124.452 37.684 125.64 37.684 127.8C37.684 129.936 36.928 131.124 35.608 131.124Z" fill="white"></path><line x1="53" y1="127.5" x2="284" y2="127.5" stroke="white" stroke-opacity="0.2"></line><path d="M35.888 268.12C37.952 268.12 39.092 266.572 39.092 263.8C39.092 261.004 37.952 259.456 35.888 259.456C33.824 259.456 32.672 261.004 32.672 263.8C32.672 266.572 33.824 268.12 35.888 268.12ZM35.888 267.124C34.556 267.124 33.812 265.936 33.812 263.8C33.812 261.64 34.556 260.452 35.888 260.452C37.208 260.452 37.964 261.64 37.964 263.8C37.964 265.936 37.208 267.124 35.888 267.124Z" fill="white"></path><line x1="53" y1="263.5" x2="284" y2="263.5" stroke="white" stroke-opacity="0.2"></line><path d="M52.9435 275.6C52.5955 276.572 51.9235 277.088 50.8795 277.172V278.24C51.7195 278.168 52.3435 277.892 52.7635 277.388V284H53.8915V275.6H52.9435ZM60.196 279.62C61.012 279.296 61.504 278.636 61.504 277.748C61.504 276.416 60.436 275.456 58.816 275.456C57.208 275.456 56.128 276.416 56.128 277.748C56.128 278.636 56.62 279.296 57.436 279.62C56.452 279.968 55.852 280.724 55.852 281.72C55.852 283.112 57.04 284.12 58.816 284.12C60.604 284.12 61.78 283.112 61.78 281.72C61.78 280.724 61.18 279.968 60.196 279.62ZM58.828 276.428C59.776 276.428 60.4 276.98 60.4 277.832C60.4 278.66 59.776 279.164 58.828 279.164C57.856 279.164 57.232 278.66 57.232 277.832C57.232 276.98 57.856 276.428 58.828 276.428ZM58.816 283.148C57.712 283.148 56.98 282.548 56.98 281.648C56.98 280.736 57.712 280.1 58.816 280.1C59.92 280.1 60.652 280.736 60.652 281.648C60.652 282.548 59.92 283.148 58.816 283.148Z" fill="white"></path><path d="M108.258 275.6C107.91 276.572 107.238 277.088 106.194 277.172V278.24C107.034 278.168 107.658 277.892 108.078 277.388V284H109.206V275.6H108.258ZM114.034 275.456C112.342 275.456 111.142 276.632 111.142 278.264C111.142 279.884 112.282 281.024 113.89 281.024C114.886 281.024 115.678 280.58 116.11 279.788C116.122 281.948 115.294 283.148 113.998 283.148C113.146 283.148 112.594 282.608 112.282 281.636L111.37 281.948C111.754 283.388 112.654 284.12 114.01 284.12C115.954 284.12 117.202 282.476 117.202 279.716C117.202 277.004 116.014 275.456 114.034 275.456ZM114.07 280.112C113.038 280.112 112.27 279.356 112.27 278.276C112.27 277.172 112.99 276.428 114.046 276.428C115.09 276.428 115.822 277.184 115.822 278.276C115.822 279.356 115.078 280.112 114.07 280.112Z" fill="white"></path><path d="M162.044 283.004L163.496 281.972C165.368 280.652 166.064 279.404 166.064 278.12C166.064 276.5 164.972 275.456 163.292 275.456C161.576 275.456 160.46 276.5 160.46 278.108C160.46 278.564 160.544 278.984 160.688 279.344L161.696 279.008C161.6 278.744 161.54 278.444 161.54 278.132C161.54 277.112 162.212 276.452 163.244 276.452C164.264 276.452 164.924 277.124 164.924 278.18C164.924 279.212 164.36 280.244 162.704 281.432L160.448 283.064V284H166.136V283.004H162.044ZM170.999 284.12C173.063 284.12 174.203 282.572 174.203 279.8C174.203 277.004 173.063 275.456 170.999 275.456C168.935 275.456 167.783 277.004 167.783 279.8C167.783 282.572 168.935 284.12 170.999 284.12ZM170.999 283.124C169.667 283.124 168.923 281.936 168.923 279.8C168.923 277.64 169.667 276.452 170.999 276.452C172.319 276.452 173.075 277.64 173.075 279.8C173.075 281.936 172.319 283.124 170.999 283.124Z" fill="white"></path><path d="M219.222 283.004L220.674 281.972C222.546 280.652 223.242 279.404 223.242 278.12C223.242 276.5 222.15 275.456 220.47 275.456C218.754 275.456 217.638 276.5 217.638 278.108C217.638 278.564 217.722 278.984 217.866 279.344L218.874 279.008C218.778 278.744 218.718 278.444 218.718 278.132C218.718 277.112 219.39 276.452 220.422 276.452C221.442 276.452 222.102 277.124 222.102 278.18C222.102 279.212 221.538 280.244 219.882 281.432L217.626 283.064V284H223.314V283.004H219.222ZM226.569 275.6C226.221 276.572 225.549 277.088 224.505 277.172V278.24C225.345 278.168 225.969 277.892 226.389 277.388V284H227.517V275.6H226.569Z" fill="white"></path><path d="M273.388 283.004L274.84 281.972C276.712 280.652 277.408 279.404 277.408 278.12C277.408 276.5 276.316 275.456 274.636 275.456C272.92 275.456 271.804 276.5 271.804 278.108C271.804 278.564 271.888 278.984 272.032 279.344L273.04 279.008C272.944 278.744 272.884 278.444 272.884 278.132C272.884 277.112 273.556 276.452 274.588 276.452C275.608 276.452 276.268 277.124 276.268 278.18C276.268 279.212 275.704 280.244 274.048 281.432L271.792 283.064V284H277.48V283.004H273.388ZM280.627 283.004L282.079 281.972C283.951 280.652 284.647 279.404 284.647 278.12C284.647 276.5 283.555 275.456 281.875 275.456C280.159 275.456 279.043 276.5 279.043 278.108C279.043 278.564 279.127 278.984 279.271 279.344L280.279 279.008C280.183 278.744 280.123 278.444 280.123 278.132C280.123 277.112 280.795 276.452 281.827 276.452C282.847 276.452 283.507 277.124 283.507 278.18C283.507 279.212 282.943 280.244 281.287 281.432L279.031 283.064V284H284.719V283.004H280.627Z" fill="white"></path><path d="M53 167L69.6689 156H102.652L135.635 130L152.068 161.667L168.855 193.333H201.72L234.703 151.333H284" stroke="#C1D3FF" stroke-width="2"></path><path d="M69.5507 156L53 167V264H284V151.333H234.23L201.601 192.667H168.736L153.132 163.667L135.635 130L102.652 156H69.5507Z" fill="url(#paint0_linear_1329_24713)"></path><line opacity="0.3" x1="202.5" y1="128" x2="202.5" y2="264" stroke="#C1D3FF" stroke-dasharray="4 4"></line><circle cx="202.5" cy="192.5" r="3.5" fill="#C1D3FF"></circle></g><defs><linearGradient id="paint0_linear_1329_24713" x1="124.168" y1="130" x2="124.168" y2="252" gradientUnits="userSpaceOnUse"><stop stop-color="#C1D3FF" stop-opacity="0.4"></stop><stop offset="0.666667" stop-color="#C1D3FF" stop-opacity="0"></stop></linearGradient><clipPath id="clip0_1329_24713"><rect width="300" height="312" rx="8" fill="white"></rect></clipPath></defs></svg> 