<?xml version="1.0" encoding="UTF-8"?> <svg xmlns="http://www.w3.org/2000/svg" width="320" height="72" viewBox="0 0 320 72" fill="none"><rect width="320" height="72" rx="8" fill="#222020"></rect><path d="M75.64 29.126C77.628 29.126 78.818 27.922 78.818 25.864V19.2H77.334V25.99C77.334 27.124 76.704 27.81 75.696 27.81C74.618 27.81 73.974 27.11 73.974 25.738V25.15H72.56V25.948C72.56 27.95 73.722 29.126 75.64 29.126ZM84.315 29.14C86.359 29.14 87.885 27.586 87.885 25.444C87.885 23.316 86.359 21.79 84.329 21.79C82.285 21.79 80.773 23.344 80.773 25.472C80.773 27.614 82.285 29.14 84.315 29.14ZM84.343 27.922C83.097 27.922 82.201 26.928 82.201 25.458C82.201 24.002 83.069 22.994 84.315 22.994C85.561 22.994 86.457 24.002 86.457 25.472C86.457 26.928 85.575 27.922 84.343 27.922ZM93.5818 21.79C92.5738 21.79 91.7618 22.252 91.2578 23.162V19.2H89.8298V29H91.2578V25.612C91.2578 23.862 92.1398 22.994 93.2038 22.994C94.1558 22.994 94.7298 23.666 94.7298 24.73V29H96.1578V24.548C96.1578 22.91 95.1778 21.79 93.5818 21.79ZM102.094 21.79C101.086 21.79 100.274 22.238 99.7842 23.134V21.958H98.3562V29H99.7842V25.612C99.7842 23.848 100.666 22.994 101.73 22.994C102.682 22.994 103.256 23.666 103.256 24.73V29H104.684V24.548C104.684 22.84 103.648 21.79 102.094 21.79ZM116.797 19.2V26.914L112.247 19.2H110.315V29H111.771V21.048L116.447 29H118.253V19.2H116.797ZM123.751 21.79C121.749 21.79 120.307 23.316 120.307 25.5C120.307 27.726 121.875 29.14 123.835 29.14C125.193 29.14 126.229 28.454 126.803 27.446L125.865 26.816C125.445 27.516 124.745 27.964 123.863 27.964C122.729 27.964 121.763 27.222 121.693 25.822H126.901C127.167 23.638 125.921 21.79 123.751 21.79ZM123.723 22.91C124.773 22.91 125.487 23.652 125.585 24.744H121.735C121.847 23.638 122.673 22.91 123.723 22.91ZM137.061 21.958L135.633 27.306L134.023 21.958H132.553L130.985 27.306L129.515 21.958H128.059L130.145 29H131.643L133.253 23.61L134.919 29H136.417L138.489 21.958H137.061ZM148.283 21.79C147.205 21.79 146.379 22.308 145.903 23.232C145.511 22.294 144.713 21.79 143.621 21.79C142.585 21.79 141.843 22.28 141.437 23.204V21.958H140.009V29H141.437V25.836C141.437 23.932 142.221 22.994 143.299 22.994C144.223 22.994 144.713 23.666 144.713 24.688V29H146.141V25.836C146.141 23.932 146.925 22.994 148.003 22.994C148.913 22.994 149.417 23.666 149.417 24.688V29H150.845V24.534C150.845 22.826 149.865 21.79 148.283 21.79ZM155.736 21.79C154.14 21.79 152.978 22.756 152.712 24.184L153.86 24.52C154.14 23.568 154.686 23.036 155.666 23.036C156.618 23.036 157.234 23.652 157.276 24.66L155.386 24.996C153.72 25.304 152.964 25.976 152.964 27.11C152.964 28.342 153.874 29.14 155.204 29.14C156.198 29.14 156.94 28.678 157.374 27.852V29H158.69V24.632C158.69 22.924 157.556 21.79 155.736 21.79ZM155.498 28.104C154.854 28.104 154.392 27.754 154.392 27.138C154.392 26.48 154.882 26.158 155.876 25.976L157.276 25.71V25.934C157.276 27.194 156.534 28.104 155.498 28.104ZM164.63 21.79C163.622 21.79 162.81 22.238 162.32 23.134V21.958H160.892V29H162.32V25.612C162.32 23.848 163.202 22.994 164.266 22.994C165.218 22.994 165.792 23.666 165.792 24.73V29H167.22V24.548C167.22 22.84 166.184 21.79 164.63 21.79Z" fill="white"></path><path d="M76.716 51.12C79.128 51.12 80.868 49.308 80.868 46.8C80.868 44.268 79.128 42.456 76.716 42.456C74.292 42.456 72.552 44.268 72.552 46.8C72.552 49.308 74.292 51.12 76.716 51.12ZM76.716 50.124C74.928 50.124 73.692 48.732 73.692 46.8C73.692 44.844 74.928 43.452 76.716 43.452C78.492 43.452 79.74 44.844 79.74 46.8C79.74 48.732 78.492 50.124 76.716 50.124ZM85.3579 51.12C86.6419 51.12 87.6019 50.4 88.0099 49.296L87.1459 48.972C86.7979 49.776 86.2339 50.208 85.3699 50.208C84.2779 50.208 83.4739 49.296 83.4739 47.976C83.4739 46.644 84.2779 45.744 85.3579 45.744C86.1979 45.744 86.7499 46.188 87.0139 47.004L87.9499 46.716C87.6019 45.552 86.7019 44.832 85.3699 44.832C83.6539 44.832 82.3939 46.152 82.3939 48.036C82.3939 49.884 83.5939 51.12 85.3579 51.12ZM92.4729 49.896C92.2929 50.088 92.0769 50.22 91.7889 50.22C91.3569 50.22 91.1049 49.908 91.1049 49.332V45.888H92.7129V44.976H91.1049V43.2L90.0249 43.656V44.976H89.0649V45.888H90.0249V49.452C90.0249 50.52 90.6009 51.12 91.6209 51.12C92.2809 51.12 92.7729 50.868 93.0609 50.46L92.4729 49.896ZM98.7092 50.004L100.161 48.972C102.033 47.652 102.729 46.404 102.729 45.12C102.729 43.5 101.637 42.456 99.9572 42.456C98.2412 42.456 97.1252 43.5 97.1252 45.108C97.1252 45.564 97.2092 45.984 97.3532 46.344L98.3612 46.008C98.2652 45.744 98.2052 45.444 98.2052 45.132C98.2052 44.112 98.8772 43.452 99.9092 43.452C100.929 43.452 101.589 44.124 101.589 45.18C101.589 46.212 101.025 47.244 99.3692 48.432L97.1132 50.064V51H102.801V50.004H98.7092ZM108.54 46.584C109.416 46.296 109.908 45.648 109.908 44.712C109.908 43.344 108.888 42.456 107.316 42.456C105.768 42.456 104.724 43.32 104.58 44.736L105.6 44.904C105.768 43.992 106.344 43.416 107.256 43.416C108.18 43.416 108.78 43.956 108.78 44.808C108.78 45.684 108.144 46.152 106.992 46.152H106.548V47.112H107.064C108.336 47.112 109.08 47.652 109.08 48.648C109.08 49.56 108.384 50.148 107.316 50.148C106.236 50.148 105.6 49.62 105.384 48.708L104.34 48.888C104.568 50.304 105.636 51.12 107.292 51.12C109.056 51.12 110.208 50.172 110.208 48.72C110.208 47.628 109.608 46.896 108.54 46.584ZM111.976 49.716V51H112.72V51.444C112.72 51.744 112.552 51.948 112.288 51.948C112.108 51.948 111.94 51.912 111.808 51.828L111.568 52.224C111.76 52.356 112 52.416 112.276 52.416C112.888 52.416 113.272 52.008 113.272 51.36V49.716H111.976ZM121.33 51.12C123.394 51.12 124.534 49.572 124.534 46.8C124.534 44.004 123.394 42.456 121.33 42.456C119.266 42.456 118.114 44.004 118.114 46.8C118.114 49.572 119.266 51.12 121.33 51.12ZM121.33 50.124C119.998 50.124 119.254 48.936 119.254 46.8C119.254 44.64 119.998 43.452 121.33 43.452C122.65 43.452 123.406 44.64 123.406 46.8C123.406 48.936 122.65 50.124 121.33 50.124ZM129.675 45.552C128.679 45.552 127.875 46.008 127.455 46.8V46.788C127.443 44.628 128.283 43.428 129.579 43.428C130.419 43.428 130.971 43.956 131.283 44.916L132.207 44.628C131.811 43.188 130.923 42.456 129.567 42.456C127.623 42.456 126.363 44.1 126.363 46.836C126.363 49.608 127.587 51.12 129.543 51.12C131.271 51.12 132.423 49.944 132.423 48.3C132.423 46.704 131.283 45.552 129.675 45.552ZM129.531 50.148C128.487 50.148 127.743 49.392 127.743 48.3C127.743 47.22 128.487 46.464 129.507 46.464C130.539 46.464 131.295 47.22 131.295 48.3C131.295 49.404 130.599 50.148 129.531 50.148ZM134.158 46.26H135.454V44.976H134.158V46.26ZM134.158 51H135.454V49.716H134.158V51ZM138.866 50.004L140.318 48.972C142.19 47.652 142.886 46.404 142.886 45.12C142.886 43.5 141.794 42.456 140.114 42.456C138.398 42.456 137.282 43.5 137.282 45.108C137.282 45.564 137.366 45.984 137.51 46.344L138.518 46.008C138.422 45.744 138.362 45.444 138.362 45.132C138.362 44.112 139.034 43.452 140.066 43.452C141.086 43.452 141.746 44.124 141.746 45.18C141.746 46.212 141.182 47.244 139.526 48.432L137.27 50.064V51H142.958V50.004H138.866ZM144.389 42.6V44.532H145.529V43.584H148.853C147.053 45.72 146.189 47.736 146.189 50.412V51H147.317V50.4C147.317 47.484 148.133 45.804 150.077 43.488V42.6H144.389ZM158.013 42.6H154.785V51H155.925V47.724H157.965C159.777 47.724 160.833 46.728 160.833 45.132C160.833 43.572 159.789 42.6 158.013 42.6ZM158.013 46.74H155.925V43.584H157.929C159.081 43.584 159.705 44.184 159.705 45.168C159.705 46.152 159.105 46.74 158.013 46.74ZM169.608 42.6L166.944 49.812L164.292 42.6H162.636V51H163.74V43.956L166.344 51H167.532L170.16 43.896V51H171.252V42.6H169.608Z" fill="#C1D3FF"></path><path d="M236.38 26.172C236.38 24.072 234.714 23.708 233.174 23.414V20.32C233.972 20.502 234.518 21.048 234.784 21.846L236.114 21.468C235.708 20.124 234.7 19.214 233.174 19.046V17.828H232.152V19.046C230.402 19.228 229.212 20.334 229.212 21.916C229.212 23.904 230.696 24.338 232.152 24.618V27.894C231.088 27.74 230.388 27.082 230.122 25.948L228.792 26.326C229.114 27.978 230.276 29 232.152 29.126V30.358H233.174V29.112C235.106 28.916 236.38 27.838 236.38 26.172ZM230.598 21.776C230.598 21.006 231.186 20.404 232.152 20.278V23.204C231.27 22.994 230.598 22.658 230.598 21.776ZM233.174 27.894V24.828C234.168 25.052 234.966 25.374 234.966 26.368C234.966 27.18 234.266 27.754 233.174 27.894ZM245.156 25.64H243.91V19.2H242.398L237.764 25.668V26.928H242.454V29H243.91V26.928H245.156V25.64ZM242.496 21.244V25.64H239.346L242.496 21.244ZM250.506 22.448C249.694 22.448 248.952 22.742 248.434 23.26L248.826 20.516H253.166V19.2H247.65L246.894 24.716L248.21 25.01C248.49 24.282 249.176 23.666 250.17 23.666C251.388 23.666 252.2 24.506 252.2 25.766C252.2 26.998 251.402 27.824 250.198 27.824C249.204 27.824 248.546 27.306 248.182 26.452L246.88 26.956C247.342 28.272 248.504 29.14 250.128 29.14C252.242 29.14 253.67 27.782 253.67 25.752C253.67 23.792 252.382 22.448 250.506 22.448ZM259.429 29.14C261.865 29.14 263.209 27.334 263.209 24.086C263.209 20.838 261.865 19.018 259.429 19.018C256.993 19.018 255.649 20.838 255.649 24.086C255.649 27.334 256.993 29.14 259.429 29.14ZM259.429 27.824C257.959 27.824 257.133 26.494 257.133 24.086C257.133 21.678 257.959 20.334 259.429 20.334C260.899 20.334 261.725 21.678 261.725 24.086C261.725 26.494 260.899 27.824 259.429 27.824ZM265.021 29H266.429V27.625H265.021V29ZM270.974 29.11C272.899 29.11 273.977 27.691 273.977 25.139C273.977 22.576 272.899 21.157 270.974 21.157C269.038 21.157 267.96 22.576 267.96 25.139C267.96 27.691 269.038 29.11 270.974 29.11ZM270.974 27.944C269.885 27.944 269.28 26.943 269.28 25.139C269.28 23.335 269.885 22.323 270.974 22.323C272.052 22.323 272.657 23.335 272.657 25.139C272.657 26.943 272.052 27.944 270.974 27.944ZM278.491 29.11C280.416 29.11 281.494 27.691 281.494 25.139C281.494 22.576 280.416 21.157 278.491 21.157C276.555 21.157 275.477 22.576 275.477 25.139C275.477 27.691 276.555 29.11 278.491 29.11ZM278.491 27.944C277.402 27.944 276.797 26.943 276.797 25.139C276.797 23.335 277.402 22.323 278.491 22.323C279.569 22.323 280.174 23.335 280.174 25.139C280.174 26.943 279.569 27.944 278.491 27.944ZM288.835 29.11C290.738 29.11 291.926 27.889 291.926 25.909V21.3H290.606V25.865C290.606 27.152 289.924 27.933 288.846 27.933C287.757 27.933 287.064 27.152 287.064 25.865V21.3H285.744V25.909C285.744 27.889 286.932 29.11 288.835 29.11ZM296.329 29.11C298.133 29.11 299.365 28.23 299.365 26.734C299.365 23.621 294.921 25.216 294.921 23.346C294.921 22.73 295.449 22.279 296.329 22.279C297.187 22.279 297.748 22.73 297.99 23.445L299.156 23.115C298.815 21.938 297.869 21.157 296.406 21.157C294.8 21.157 293.678 22.092 293.678 23.489C293.678 26.602 298.089 24.985 298.089 26.921C298.089 27.57 297.407 27.988 296.406 27.988C295.405 27.988 294.756 27.515 294.481 26.525L293.337 26.877C293.634 28.274 294.701 29.11 296.329 29.11ZM303.747 21.3H300.876V29H303.747C306.09 29 307.531 27.537 307.531 25.15C307.531 22.763 306.09 21.3 303.747 21.3ZM303.714 27.834H302.185V22.466H303.714C305.243 22.466 306.222 23.511 306.222 25.15C306.222 26.789 305.243 27.834 303.714 27.834Z" fill="white"></path><rect x="276" y="38" width="32" height="18.087" rx="1.4449" fill="#FAF9F6"></rect><path fill-rule="evenodd" clip-rule="evenodd" d="M297.049 43.9195C296.692 43.786 296.133 43.6425 295.434 43.6425C293.653 43.6425 292.399 44.5365 292.388 45.8168C292.378 46.7643 293.283 47.2919 293.967 47.6077C294.669 47.9301 294.905 48.1363 294.901 48.4246C294.897 48.8663 294.341 49.068 293.823 49.068C293.102 49.068 292.719 48.9686 292.127 48.7225L291.894 48.6176L291.641 50.0929C292.063 50.2765 292.84 50.4363 293.649 50.4444C295.544 50.4444 296.774 49.5609 296.787 48.1932C296.794 47.4435 296.314 46.8729 295.275 46.4031C294.644 46.098 294.258 45.8942 294.263 45.5857C294.263 45.3124 294.589 45.0189 295.294 45.0189C295.884 45.0097 296.311 45.138 296.643 45.2717L296.805 45.3473L297.049 43.9195ZM288.711 50.3466L289.838 43.7574H291.64L290.513 50.3466H288.711ZM300.278 43.7638H301.671L303.129 50.3483H301.457C301.457 50.3483 301.292 49.5918 301.238 49.3612C301.098 49.3612 300.516 49.3604 299.969 49.3598L299.968 49.3598C299.484 49.3591 299.027 49.3586 298.93 49.3586C298.86 49.5367 298.55 50.3483 298.55 50.3483H296.657L299.334 44.3102C299.524 43.8808 299.846 43.7638 300.278 43.7638ZM299.448 48.0108C299.598 47.6312 300.167 46.1685 300.167 46.1685C300.161 46.1771 300.196 46.0864 300.244 45.9625C300.294 45.8326 300.359 45.6662 300.405 45.5398L300.527 46.1079C300.527 46.1079 300.872 47.6805 300.945 48.0108H299.448ZM285.436 48.2555L287.2 43.7622H289.109L286.272 50.3385L284.365 50.3412L282.752 44.578C283.896 45.1488 284.92 46.2894 285.248 47.3423L285.436 48.2555Z" fill="#1A1F71"></path><path fill-rule="evenodd" clip-rule="evenodd" d="M283.799 43.7579H280.892L280.869 43.8948C283.13 44.4407 284.626 45.7586 285.247 47.3425L284.615 44.314C284.506 43.8966 284.19 43.7723 283.799 43.7579Z" fill="#F9A51A"></path><rect x="16" y="16" width="40" height="40" rx="4" fill="#322E2E"></rect><path d="M36 29.125V42.875" stroke="#C1D3FF" stroke-width="1.5" stroke-linecap="round" stroke-linejoin="round"></path><path d="M30.375 37.25L36 42.875L41.625 37.25" stroke="#C1D3FF" stroke-width="1.5" stroke-linecap="round" stroke-linejoin="round"></path></svg> 