<?xml version="1.0" encoding="UTF-8"?> <svg xmlns="http://www.w3.org/2000/svg" width="260" height="208" viewBox="0 0 260 208" fill="none"><path d="M0 8.00001C0 3.58173 3.58172 0 8 0H252C256.418 0 260 3.58172 260 8V200C260 204.418 256.418 208 252 208H8C3.58172 208 0 204.418 0 200V8.00001Z" fill="white"></path><rect width="227" height="64" transform="translate(16 48)" fill="#FAF9F6"></rect><path d="M36.228 74.14C38.51 74.14 40.064 73.02 40.064 71.172C40.064 67.196 34.31 69.324 34.31 66.776C34.31 65.922 35.052 65.292 36.256 65.292C37.362 65.292 38.132 65.894 38.454 66.846L39.798 66.468C39.35 64.984 38.16 64.018 36.34 64.018C34.31 64.018 32.896 65.194 32.896 66.916C32.896 70.892 38.608 68.736 38.608 71.368C38.608 72.264 37.684 72.866 36.326 72.866C34.996 72.866 34.128 72.208 33.778 70.948L32.476 71.34C32.868 73.076 34.198 74.14 36.228 74.14ZM44.5909 66.79C42.9949 66.79 41.8329 67.756 41.5669 69.184L42.7149 69.52C42.9949 68.568 43.5409 68.036 44.5209 68.036C45.4729 68.036 46.0889 68.652 46.1309 69.66L44.2409 69.996C42.5749 70.304 41.8189 70.976 41.8189 72.11C41.8189 73.342 42.7289 74.14 44.0589 74.14C45.0529 74.14 45.7949 73.678 46.2289 72.852V74H47.5449V69.632C47.5449 67.924 46.4109 66.79 44.5909 66.79ZM44.3529 73.104C43.7089 73.104 43.2469 72.754 43.2469 72.138C43.2469 71.48 43.7369 71.158 44.7309 70.976L46.1309 70.71V70.934C46.1309 72.194 45.3889 73.104 44.3529 73.104ZM53.4848 66.79C52.4768 66.79 51.6648 67.238 51.1748 68.134V66.958H49.7468V74H51.1748V70.612C51.1748 68.848 52.0568 67.994 53.1208 67.994C54.0728 67.994 54.6468 68.666 54.6468 69.73V74H56.0748V69.548C56.0748 67.84 55.0388 66.79 53.4848 66.79ZM63.4542 64.2V67.938C62.9782 67.21 62.2082 66.79 61.1862 66.79C59.1982 66.79 57.8962 68.302 57.8962 70.458C57.8962 72.628 59.1982 74.14 61.1862 74.14C62.2222 74.14 62.9782 73.72 63.4542 72.992V74H64.8822V64.2H63.4542ZM61.3962 72.922C60.1502 72.922 59.3242 71.914 59.3242 70.458C59.3242 69.002 60.1502 67.994 61.3962 67.994C62.6422 67.994 63.4542 69.002 63.4542 70.458C63.4542 71.914 62.6422 72.922 61.3962 72.922ZM71.0194 66.79C69.9834 66.79 69.1854 67.238 68.6954 68.008V64.2H67.2674V74H68.6954V72.908C69.1854 73.692 69.9834 74.14 71.0194 74.14C72.9234 74.14 74.2394 72.628 74.2394 70.458C74.2394 68.302 72.9374 66.79 71.0194 66.79ZM70.7534 72.922C69.5074 72.922 68.6954 71.914 68.6954 70.458C68.6954 69.002 69.5074 67.994 70.7534 67.994C71.9854 67.994 72.8114 69.002 72.8114 70.458C72.8114 71.914 71.9854 72.922 70.7534 72.922ZM79.327 74.14C81.371 74.14 82.897 72.586 82.897 70.444C82.897 68.316 81.371 66.79 79.341 66.79C77.297 66.79 75.785 68.344 75.785 70.472C75.785 72.614 77.297 74.14 79.327 74.14ZM79.355 72.922C78.109 72.922 77.213 71.928 77.213 70.458C77.213 69.002 78.081 67.994 79.327 67.994C80.573 67.994 81.469 69.002 81.469 70.472C81.469 71.928 80.587 72.922 79.355 72.922ZM90.3663 74L87.8743 70.444L90.2403 66.958H88.7003L87.1043 69.338L85.4383 66.958H83.8563L86.2223 70.332L83.7303 74H85.2703L86.9923 71.438L88.7843 74H90.3663Z" fill="#00473C"></path><path d="M39.8 85.6L37.28 92.68L34.784 85.6H32.924V94H34.16V87.076L36.62 94H37.928L40.424 87.016V94H41.66V85.6H39.8ZM46.17 87.82C44.802 87.82 43.806 88.648 43.578 89.872L44.562 90.16C44.802 89.344 45.27 88.888 46.11 88.888C46.926 88.888 47.454 89.416 47.49 90.28L45.87 90.568C44.442 90.832 43.794 91.408 43.794 92.38C43.794 93.436 44.574 94.12 45.714 94.12C46.566 94.12 47.202 93.724 47.574 93.016V94H48.702V90.256C48.702 88.792 47.73 87.82 46.17 87.82ZM45.966 93.232C45.414 93.232 45.018 92.932 45.018 92.404C45.018 91.84 45.438 91.564 46.29 91.408L47.49 91.18V91.372C47.49 92.452 46.854 93.232 45.966 93.232ZM54.4589 87.964L52.8389 92.524L51.0869 87.964H49.8149L52.2269 93.952L51.2189 96.4H52.4549L55.7069 87.964H54.4589ZM61.5837 85.6C61.2357 86.56 60.5517 87.064 59.4717 87.16V88.36C60.3117 88.3 60.9237 88.048 61.3557 87.568V94H62.6397V85.6H61.5837ZM64.4896 85.6V87.604H65.7736V86.728H68.8816C67.0576 88.864 66.2776 90.76 66.2776 93.496V94H67.5496V93.496C67.5496 90.508 68.2336 88.996 70.2856 86.608V85.6H64.4896ZM70.9086 92.62V94H71.7246V94.432C71.7246 94.756 71.5446 94.96 71.2566 94.96C71.0766 94.96 70.9086 94.936 70.7646 94.84L70.5126 95.26C70.7166 95.404 70.9686 95.476 71.2566 95.476C71.9046 95.476 72.3246 95.032 72.3246 94.348V92.62H70.9086ZM78.7732 85.6C78.4252 86.56 77.7412 87.064 76.6612 87.16V88.36C77.5012 88.3 78.1132 88.048 78.5452 87.568V94H79.8292V85.6H78.7732ZM85.2552 94.12C87.3432 94.12 88.4952 92.572 88.4952 89.788C88.4952 87.004 87.3432 85.444 85.2552 85.444C83.1672 85.444 82.0152 87.004 82.0152 89.788C82.0152 92.572 83.1672 94.12 85.2552 94.12ZM85.2552 92.992C83.9952 92.992 83.2872 91.852 83.2872 89.788C83.2872 87.724 83.9952 86.572 85.2552 86.572C86.5152 86.572 87.2232 87.724 87.2232 89.788C87.2232 91.852 86.5152 92.992 85.2552 92.992ZM90.3598 89.344H91.7638V87.964H90.3598V89.344ZM90.3598 94H91.7638V92.62H90.3598V94ZM95.3555 92.872L96.6275 91.984C98.5235 90.652 99.2195 89.416 99.2195 88.108C99.2195 86.488 98.1155 85.444 96.4235 85.444C94.6835 85.444 93.5435 86.5 93.5435 88.132C93.5435 88.588 93.6395 89.02 93.7955 89.38L94.9235 89.008C94.8275 88.756 94.7675 88.456 94.7675 88.156C94.7675 87.196 95.3915 86.572 96.3635 86.572C97.3235 86.572 97.9355 87.208 97.9355 88.192C97.9355 89.2 97.3475 90.232 95.6795 91.42L93.5435 92.944V94H99.2795V92.872H95.3555ZM102.689 85.6C102.341 86.56 101.657 87.064 100.577 87.16V88.36C101.417 88.3 102.029 88.048 102.461 87.568V94H103.745V85.6H102.689Z" fill="#897E7A"></path><rect x="183" y="68" width="44" height="24" rx="12" fill="#00B011"></rect><rect x="205" y="70" width="20" height="20" rx="10" fill="white"></rect><rect width="227" height="64" transform="translate(16 120)" fill="#FAF9F6"></rect><path d="M36.984 136.2H33.078V146H34.576V142.262H36.914C39.028 142.262 40.302 141.058 40.302 139.182C40.302 137.348 39.056 136.2 36.984 136.2ZM36.956 140.946H34.576V137.516H36.886C38.132 137.516 38.804 138.16 38.804 139.224C38.804 140.288 38.146 140.946 36.956 140.946ZM45.273 138.818C44.517 138.818 43.887 139.182 43.495 140.106V138.958H42.067V146H43.495V142.934C43.495 140.904 44.083 140.12 45.105 140.12C45.357 140.12 45.567 140.176 45.735 140.26L46.225 139.084C45.973 138.93 45.651 138.818 45.273 138.818ZM50.5182 146.14C52.5622 146.14 54.0882 144.586 54.0882 142.444C54.0882 140.316 52.5622 138.79 50.5322 138.79C48.4882 138.79 46.9762 140.344 46.9762 142.472C46.9762 144.614 48.4882 146.14 50.5182 146.14ZM50.5462 144.922C49.3002 144.922 48.4042 143.928 48.4042 142.458C48.4042 141.002 49.2722 139.994 50.5182 139.994C51.7642 139.994 52.6602 141.002 52.6602 142.472C52.6602 143.928 51.7782 144.922 50.5462 144.922ZM61.171 136.2V139.938C60.695 139.21 59.925 138.79 58.903 138.79C56.915 138.79 55.613 140.302 55.613 142.458C55.613 144.628 56.915 146.14 58.903 146.14C59.939 146.14 60.695 145.72 61.171 144.992V146H62.599V136.2H61.171ZM59.113 144.922C57.867 144.922 57.041 143.914 57.041 142.458C57.041 141.002 57.867 139.994 59.113 139.994C60.359 139.994 61.171 141.002 61.171 142.458C61.171 143.914 60.359 144.922 59.113 144.922ZM69.6322 138.958V142.108C69.6322 143.97 68.7642 144.922 67.6442 144.922C66.7062 144.922 66.1602 144.264 66.1602 143.242V138.958H64.7322V143.41C64.7322 145.09 65.7682 146.14 67.2802 146.14C68.3302 146.14 69.1422 145.636 69.6322 144.726V146H71.0602V138.958H69.6322ZM76.4683 146.14C77.9943 146.14 79.1143 145.286 79.5903 144.012L78.4563 143.592C78.0503 144.46 77.4483 144.922 76.4823 144.922C75.2923 144.922 74.4103 143.914 74.4103 142.458C74.4103 141.002 75.2923 139.994 76.4683 139.994C77.3923 139.994 77.9803 140.47 78.2883 141.352L79.5203 140.988C79.1143 139.63 78.0643 138.79 76.4823 138.79C74.4523 138.79 72.9823 140.33 72.9823 142.556C72.9823 144.684 74.3683 146.14 76.4683 146.14ZM84.7405 144.6C84.5445 144.81 84.2925 144.95 83.9705 144.95C83.4945 144.95 83.2285 144.614 83.2285 143.984V140.176H85.0765V138.958H83.2285V136.802L81.8005 137.418V138.958H80.6805V140.176H81.8005V144.138C81.8005 145.426 82.4865 146.14 83.7185 146.14C84.5445 146.14 85.1325 145.832 85.4965 145.37L84.7405 144.6ZM86.9001 137.628H88.4261V136.116H86.9001V137.628ZM86.9561 146H88.3841V138.958H86.9561V146ZM93.8487 146.14C95.8927 146.14 97.4187 144.586 97.4187 142.444C97.4187 140.316 95.8927 138.79 93.8627 138.79C91.8187 138.79 90.3067 140.344 90.3067 142.472C90.3067 144.614 91.8187 146.14 93.8487 146.14ZM93.8767 144.922C92.6307 144.922 91.7347 143.928 91.7347 142.458C91.7347 141.002 92.6027 139.994 93.8487 139.994C95.0947 139.994 95.9907 141.002 95.9907 142.472C95.9907 143.928 95.1087 144.922 93.8767 144.922ZM103.06 138.79C102.052 138.79 101.24 139.238 100.75 140.134V138.958H99.3215V146H100.75V142.612C100.75 140.848 101.632 139.994 102.696 139.994C103.648 139.994 104.222 140.666 104.222 141.73V146H105.65V141.548C105.65 139.84 104.614 138.79 103.06 138.79Z" fill="#00473C"></path><path d="M38.864 166H40.22L36.908 157.6H35.552L32.228 166H33.572L34.292 164.116H38.144L38.864 166ZM34.7 163.06L36.224 159.052L37.748 163.06H34.7ZM44.9492 159.82C44.0492 159.82 43.3772 160.192 42.9572 160.852V159.964H41.7332V168.4H42.9572V165.088C43.3772 165.748 44.0492 166.12 44.9492 166.12C46.5812 166.12 47.7092 164.848 47.7092 162.952C47.7092 161.092 46.5692 159.82 44.9492 159.82ZM44.7212 165.076C43.6652 165.076 42.9572 164.212 42.9572 162.964C42.9572 161.716 43.6652 160.852 44.7212 160.852C45.7892 160.852 46.4972 161.716 46.4972 162.964C46.4972 164.212 45.7892 165.076 44.7212 165.076ZM52.2268 159.844C51.5788 159.844 51.0388 160.156 50.7028 160.948V159.964H49.4788V166H50.7028V163.372C50.7028 161.632 51.2068 160.96 52.0828 160.96C52.2988 160.96 52.4788 161.008 52.6228 161.08L53.0428 160.072C52.8268 159.94 52.5508 159.844 52.2268 159.844ZM59.0189 164.872L60.2909 163.984C62.1869 162.652 62.8829 161.416 62.8829 160.108C62.8829 158.488 61.7789 157.444 60.0869 157.444C58.3469 157.444 57.2069 158.5 57.2069 160.132C57.2069 160.588 57.3029 161.02 57.4589 161.38L58.5869 161.008C58.4909 160.756 58.4309 160.456 58.4309 160.156C58.4309 159.196 59.0549 158.572 60.0269 158.572C60.9869 158.572 61.5989 159.208 61.5989 160.192C61.5989 161.2 61.0109 162.232 59.3429 163.42L57.2069 164.944V166H62.9429V164.872H59.0189ZM68.9567 161.608C69.7607 161.284 70.2527 160.636 70.2527 159.748C70.2527 158.404 69.1727 157.444 67.5407 157.444C65.9087 157.444 64.8167 158.404 64.8167 159.748C64.8167 160.636 65.3087 161.284 66.1247 161.608C65.1407 161.968 64.5407 162.724 64.5407 163.708C64.5407 165.112 65.7407 166.12 67.5407 166.12C69.3407 166.12 70.5287 165.112 70.5287 163.708C70.5287 162.724 69.9287 161.968 68.9567 161.608ZM67.5407 158.548C68.4287 158.548 69.0167 159.064 69.0167 159.856C69.0167 160.624 68.4287 161.104 67.5407 161.104C66.6407 161.104 66.0647 160.624 66.0647 159.856C66.0647 159.064 66.6407 158.548 67.5407 158.548ZM67.5407 165.028C66.5087 165.028 65.8127 164.464 65.8127 163.6C65.8127 162.748 66.5087 162.148 67.5407 162.148C68.5727 162.148 69.2687 162.748 69.2687 163.6C69.2687 164.464 68.5727 165.028 67.5407 165.028ZM72.2328 164.62V166H73.0488V166.432C73.0488 166.756 72.8688 166.96 72.5808 166.96C72.4008 166.96 72.2328 166.936 72.0888 166.84L71.8368 167.26C72.0408 167.404 72.2928 167.476 72.5808 167.476C73.2288 167.476 73.6488 167.032 73.6488 166.348V164.62H72.2328ZM80.0974 157.6C79.7494 158.56 79.0654 159.064 77.9854 159.16V160.36C78.8254 160.3 79.4374 160.048 79.8694 159.568V166H81.1534V157.6H80.0974ZM84.9954 157.6C84.6474 158.56 83.9634 159.064 82.8834 159.16V160.36C83.7234 160.3 84.3354 160.048 84.7674 159.568V166H86.0514V157.6H84.9954ZM88.2973 161.344H89.7013V159.964H88.2973V161.344ZM88.2973 166H89.7013V164.62H88.2973V166ZM97.541 163.12H96.473V157.6H95.177L91.205 163.144V164.224H95.225V166H96.473V164.224H97.541V163.12ZM95.261 159.352V163.12H92.561L95.261 159.352ZM101.731 157.444C100.027 157.444 98.8025 158.608 98.8025 160.276C98.8025 161.896 99.9305 163.012 101.539 163.012C102.499 163.012 103.255 162.604 103.687 161.896C103.675 163.9 102.895 165.028 101.671 165.028C100.867 165.028 100.351 164.512 100.051 163.576L99.0185 163.936C99.4145 165.376 100.303 166.12 101.695 166.12C103.651 166.12 104.923 164.452 104.923 161.692C104.923 158.98 103.735 157.444 101.731 157.444ZM101.755 161.992C100.783 161.992 100.075 161.284 100.075 160.264C100.075 159.232 100.747 158.548 101.743 158.548C102.715 158.548 103.411 159.256 103.411 160.264C103.411 161.284 102.715 161.992 101.755 161.992Z" fill="#897E7A"></path><rect x="183" y="140" width="44" height="24" rx="12" fill="#E1DCD4"></rect><rect x="185" y="142" width="20" height="20" rx="10" fill="white"></rect><path d="M23.91 32H25.688L21.852 22.2H20.088L16.266 32H18.016L18.8 29.914H23.126L23.91 32ZM19.332 28.528L20.984 24.146L22.622 28.528H19.332ZM31.0631 22.2H27.0031V32H28.6691V28.346H30.9651C33.0931 28.346 34.3951 27.114 34.3951 25.21C34.3951 23.376 33.1351 22.2 31.0631 22.2ZM31.0071 26.848H28.6691V23.684H30.9651C32.0851 23.684 32.7151 24.3 32.7151 25.266C32.7151 26.246 32.0991 26.848 31.0071 26.848ZM35.8352 32H37.5012V22.2H35.8352V32ZM47.1694 32H49.0454L46.3154 27.618L48.8074 24.958H46.8334L44.0054 28.024V22.2H42.3954V32H44.0054V30.068L45.2234 28.78L47.1694 32ZM53.0079 24.762C50.9919 24.762 49.5359 26.302 49.5359 28.5C49.5359 30.726 51.1179 32.14 53.1059 32.14C54.4499 32.14 55.4999 31.482 56.0739 30.488L55.0519 29.774C54.6319 30.404 53.9599 30.824 53.1339 30.824C52.0699 30.824 51.1599 30.124 51.0899 28.878H56.1999C56.5219 26.694 55.2199 24.762 53.0079 24.762ZM52.9799 26.022C53.9459 26.022 54.6179 26.708 54.7159 27.73H51.1459C51.2439 26.694 51.9999 26.022 52.9799 26.022ZM62.0401 24.958L60.2481 30.012L58.3301 24.958H56.6641L59.4641 31.874L58.2461 34.8H59.8701L63.6781 24.958H62.0401ZM66.9502 32.14C68.6722 32.14 69.8762 31.272 69.8762 29.9C69.8762 26.96 65.8582 28.36 65.8582 26.778C65.8582 26.288 66.3342 25.966 67.0202 25.966C67.7482 25.966 68.2242 26.386 68.4482 26.988L69.6802 26.582C69.3862 25.476 68.4622 24.762 67.1462 24.762C65.5362 24.762 64.4022 25.588 64.4022 26.932C64.4022 29.928 68.3782 28.556 68.3782 30.082C68.3782 30.586 67.8742 30.908 67.0622 30.908C66.1522 30.908 65.5502 30.432 65.3122 29.662L64.0942 30.068C64.3882 31.398 65.4522 32.14 66.9502 32.14Z" fill="#00473C"></path></svg> 