<?xml version="1.0" encoding="UTF-8"?> <svg xmlns="http://www.w3.org/2000/svg" width="468" height="208" viewBox="0 0 468 208" fill="none"><rect width="468" height="208" rx="8" fill="white"></rect><circle cx="84" cy="116" r="57" stroke="#00473C" stroke-width="6"></circle><mask id="path-3-inside-1_1329_24793" fill="white"><path d="M84 56C96.6708 56 109.016 60.0113 119.267 67.459C129.518 74.9067 137.148 85.4084 141.063 97.459C144.979 109.51 144.979 122.49 141.063 134.541C137.148 146.592 129.518 157.093 119.267 164.541C109.016 171.989 96.6707 176 84 176C71.3292 176 58.9837 171.989 48.7329 164.541C38.482 157.093 30.8521 146.592 26.9366 134.541C23.0211 122.49 23.0211 109.51 26.9366 97.459L32.643 99.3131C29.119 110.159 29.119 121.841 32.6429 132.687C36.1669 143.532 43.0338 152.984 52.2596 159.687C61.4854 166.39 72.5963 170 84 170C95.4037 170 106.515 166.39 115.74 159.687C124.966 152.984 131.833 143.532 135.357 132.687C138.881 121.841 138.881 110.159 135.357 99.3131C131.833 88.4675 124.966 79.016 115.74 72.3131C106.515 65.6102 95.4037 62 84 62V56Z"></path></mask><path d="M84 56C96.6708 56 109.016 60.0113 119.267 67.459C129.518 74.9067 137.148 85.4084 141.063 97.459C144.979 109.51 144.979 122.49 141.063 134.541C137.148 146.592 129.518 157.093 119.267 164.541C109.016 171.989 96.6707 176 84 176C71.3292 176 58.9837 171.989 48.7329 164.541C38.482 157.093 30.8521 146.592 26.9366 134.541C23.0211 122.49 23.0211 109.51 26.9366 97.459L32.643 99.3131C29.119 110.159 29.119 121.841 32.6429 132.687C36.1669 143.532 43.0338 152.984 52.2596 159.687C61.4854 166.39 72.5963 170 84 170C95.4037 170 106.515 166.39 115.74 159.687C124.966 152.984 131.833 143.532 135.357 132.687C138.881 121.841 138.881 110.159 135.357 99.3131C131.833 88.4675 124.966 79.016 115.74 72.3131C106.515 65.6102 95.4037 62 84 62V56Z" stroke="#F96D39" stroke-width="24" mask="url(#path-3-inside-1_1329_24793)"></path><path d="M29.7937 98.3739C33.516 86.9266 40.7667 76.9516 50.5066 69.8785" stroke="#800219" stroke-width="6"></path><path d="M50.4565 69.9149C55.2925 66.395 60.6523 63.6582 66.3393 61.805" stroke="#C1D3FF" stroke-width="6"></path><path d="M71.2998 115.192C72.9078 114.52 73.8678 113.224 73.8678 111.496C73.8678 108.808 71.6838 106.888 68.3958 106.888C65.0838 106.888 62.8998 108.808 62.8998 111.496C62.8998 113.224 63.8598 114.52 65.4678 115.192C63.5238 115.912 62.3478 117.424 62.3478 119.392C62.3478 122.224 64.7478 124.24 68.3958 124.24C72.0198 124.24 74.4198 122.224 74.4198 119.392C74.4198 117.424 73.2438 115.912 71.2998 115.192ZM68.3958 109.336C70.0518 109.336 71.1078 110.32 71.1078 111.76C71.1078 113.176 70.0518 114.064 68.3958 114.064C66.7398 114.064 65.6838 113.176 65.6838 111.76C65.6838 110.32 66.7398 109.336 68.3958 109.336ZM68.3958 121.768C66.4758 121.768 65.1798 120.712 65.1798 119.104C65.1798 117.52 66.4758 116.416 68.3958 116.416C70.3158 116.416 71.6118 117.52 71.6118 119.104C71.6118 120.712 70.3158 121.768 68.3958 121.768ZM83.5858 113.128C81.7618 113.128 80.3218 113.896 79.4578 115.144C79.5298 111.4 80.9458 109.336 83.2738 109.336C84.7618 109.336 85.7218 110.296 86.3218 112.072L88.6498 111.304C87.8578 108.4 86.0818 106.888 83.2018 106.888C79.2418 106.888 76.6978 110.248 76.6978 115.696C76.6978 121.288 79.1698 124.24 83.1298 124.24C86.6578 124.24 89.0578 121.936 89.0578 118.528C89.0578 115.36 86.8258 113.128 83.5858 113.128ZM83.1058 121.768C81.2818 121.768 80.0098 120.448 80.0098 118.576C80.0098 116.704 81.2818 115.384 83.0578 115.384C84.8818 115.384 86.1778 116.704 86.1778 118.576C86.1778 120.496 84.9538 121.768 83.1058 121.768ZM97.8285 124.24C102.028 124.24 104.38 121.144 104.38 115.576C104.38 109.984 102.028 106.888 97.8285 106.888C93.6045 106.888 91.2525 109.984 91.2525 115.576C91.2525 121.144 93.6045 124.24 97.8285 124.24ZM97.8285 121.696C95.4525 121.696 94.1325 119.512 94.1325 115.576C94.1325 111.64 95.4525 109.432 97.8285 109.432C100.18 109.432 101.5 111.64 101.5 115.576C101.5 119.512 100.18 121.696 97.8285 121.696Z" fill="#00473C"></path><rect x="176" y="62.5" width="10" height="10" rx="3" fill="#F96D39"></rect><path d="M204.228 72.14C206.51 72.14 208.064 71.02 208.064 69.172C208.064 65.196 202.31 67.324 202.31 64.776C202.31 63.922 203.052 63.292 204.256 63.292C205.362 63.292 206.132 63.894 206.454 64.846L207.798 64.468C207.35 62.984 206.16 62.018 204.34 62.018C202.31 62.018 200.896 63.194 200.896 64.916C200.896 68.892 206.608 66.736 206.608 69.368C206.608 70.264 205.684 70.866 204.326 70.866C202.996 70.866 202.128 70.208 201.778 68.948L200.476 69.34C200.868 71.076 202.198 72.14 204.228 72.14ZM214.173 64.958V68.108C214.173 69.97 213.305 70.922 212.185 70.922C211.247 70.922 210.701 70.264 210.701 69.242V64.958H209.273V69.41C209.273 71.09 210.309 72.14 211.821 72.14C212.871 72.14 213.683 71.636 214.173 70.726V72H215.601V64.958H214.173ZM220.589 72.14C222.115 72.14 223.235 71.286 223.711 70.012L222.577 69.592C222.171 70.46 221.569 70.922 220.603 70.922C219.413 70.922 218.531 69.914 218.531 68.458C218.531 67.002 219.413 65.994 220.589 65.994C221.513 65.994 222.101 66.47 222.409 67.352L223.641 66.988C223.235 65.63 222.185 64.79 220.603 64.79C218.573 64.79 217.103 66.33 217.103 68.556C217.103 70.684 218.489 72.14 220.589 72.14ZM228.245 72.14C229.771 72.14 230.891 71.286 231.367 70.012L230.233 69.592C229.827 70.46 229.225 70.922 228.259 70.922C227.069 70.922 226.187 69.914 226.187 68.458C226.187 67.002 227.069 65.994 228.245 65.994C229.169 65.994 229.757 66.47 230.065 67.352L231.297 66.988C230.891 65.63 229.841 64.79 228.259 64.79C226.229 64.79 224.759 66.33 224.759 68.556C224.759 70.684 226.145 72.14 228.245 72.14ZM235.859 64.79C233.857 64.79 232.415 66.316 232.415 68.5C232.415 70.726 233.983 72.14 235.943 72.14C237.301 72.14 238.337 71.454 238.911 70.446L237.973 69.816C237.553 70.516 236.853 70.964 235.971 70.964C234.837 70.964 233.871 70.222 233.801 68.822H239.009C239.275 66.638 238.029 64.79 235.859 64.79ZM235.831 65.91C236.881 65.91 237.595 66.652 237.693 67.744H233.843C233.955 66.638 234.781 65.91 235.831 65.91ZM243.584 64.79C241.582 64.79 240.14 66.316 240.14 68.5C240.14 70.726 241.708 72.14 243.668 72.14C245.026 72.14 246.062 71.454 246.636 70.446L245.698 69.816C245.278 70.516 244.578 70.964 243.696 70.964C242.562 70.964 241.596 70.222 241.526 68.822H246.734C247 66.638 245.754 64.79 243.584 64.79ZM243.556 65.91C244.606 65.91 245.32 66.652 245.418 67.744H241.568C241.68 66.638 242.506 65.91 243.556 65.91ZM253.423 62.2V65.938C252.947 65.21 252.177 64.79 251.155 64.79C249.167 64.79 247.865 66.302 247.865 68.458C247.865 70.628 249.167 72.14 251.155 72.14C252.191 72.14 252.947 71.72 253.423 70.992V72H254.851V62.2H253.423ZM251.365 70.922C250.119 70.922 249.293 69.914 249.293 68.458C249.293 67.002 250.119 65.994 251.365 65.994C252.611 65.994 253.423 67.002 253.423 68.458C253.423 69.914 252.611 70.922 251.365 70.922ZM259.84 64.79C257.838 64.79 256.396 66.316 256.396 68.5C256.396 70.726 257.964 72.14 259.924 72.14C261.282 72.14 262.318 71.454 262.892 70.446L261.954 69.816C261.534 70.516 260.834 70.964 259.952 70.964C258.818 70.964 257.852 70.222 257.782 68.822H262.99C263.256 66.638 262.01 64.79 259.84 64.79ZM259.812 65.91C260.862 65.91 261.576 66.652 261.674 67.744H257.824C257.936 66.638 258.762 65.91 259.812 65.91ZM269.679 62.2V65.938C269.203 65.21 268.433 64.79 267.411 64.79C265.423 64.79 264.121 66.302 264.121 68.458C264.121 70.628 265.423 72.14 267.411 72.14C268.447 72.14 269.203 71.72 269.679 70.992V72H271.107V62.2H269.679ZM267.621 70.922C266.375 70.922 265.549 69.914 265.549 68.458C265.549 67.002 266.375 65.994 267.621 65.994C268.867 65.994 269.679 67.002 269.679 68.458C269.679 69.914 268.867 70.922 267.621 70.922Z" fill="#00473C"></path><path d="M303.617 66.876C304.555 66.498 305.129 65.742 305.129 64.706C305.129 63.138 303.869 62.018 301.965 62.018C300.061 62.018 298.787 63.138 298.787 64.706C298.787 65.742 299.361 66.498 300.313 66.876C299.165 67.296 298.465 68.178 298.465 69.326C298.465 70.964 299.865 72.14 301.965 72.14C304.065 72.14 305.451 70.964 305.451 69.326C305.451 68.178 304.751 67.296 303.617 66.876ZM301.965 63.306C303.001 63.306 303.687 63.908 303.687 64.832C303.687 65.728 303.001 66.288 301.965 66.288C300.915 66.288 300.243 65.728 300.243 64.832C300.243 63.908 300.915 63.306 301.965 63.306ZM301.965 70.866C300.761 70.866 299.949 70.208 299.949 69.2C299.949 68.206 300.761 67.506 301.965 67.506C303.169 67.506 303.981 68.206 303.981 69.2C303.981 70.208 303.169 70.866 301.965 70.866ZM310.589 72.14C313.025 72.14 314.369 70.334 314.369 67.086C314.369 63.838 313.025 62.018 310.589 62.018C308.153 62.018 306.809 63.838 306.809 67.086C306.809 70.334 308.153 72.14 310.589 72.14ZM310.589 70.824C309.119 70.824 308.293 69.494 308.293 67.086C308.293 64.678 309.119 63.334 310.589 63.334C312.059 63.334 312.885 64.678 312.885 67.086C312.885 69.494 312.059 70.824 310.589 70.824ZM317.833 67.352C319.107 67.352 319.933 66.344 319.933 64.72C319.933 63.068 319.107 62.06 317.833 62.06C316.559 62.06 315.733 63.068 315.733 64.72C315.733 66.358 316.559 67.352 317.833 67.352ZM317.903 71.986H319.135L323.937 62.2H322.719L317.903 71.986ZM317.833 66.428C317.175 66.428 316.811 65.812 316.811 64.72C316.811 63.6 317.175 62.984 317.833 62.984C318.477 62.984 318.855 63.6 318.855 64.72C318.855 65.812 318.477 66.428 317.833 66.428ZM324.077 72.168C325.351 72.168 326.177 71.16 326.177 69.522C326.177 67.87 325.351 66.862 324.077 66.862C322.803 66.862 321.977 67.87 321.977 69.522C321.977 71.174 322.803 72.168 324.077 72.168ZM324.077 71.244C323.433 71.244 323.055 70.614 323.055 69.522C323.055 68.416 323.433 67.786 324.077 67.786C324.721 67.786 325.099 68.416 325.099 69.522C325.099 70.614 324.721 71.244 324.077 71.244Z" fill="#00473C"></path><path d="M333.151 75.514L334.103 74.8C332.647 73.092 331.849 70.796 331.849 68.5C331.849 66.204 332.647 64.286 334.103 62.2L333.151 61.486C331.387 63.726 330.407 65.924 330.407 68.5C330.407 71.104 331.387 73.652 333.151 75.514ZM342.776 69.172C342.776 67.072 341.11 66.708 339.57 66.414V63.32C340.368 63.502 340.914 64.048 341.18 64.846L342.51 64.468C342.104 63.124 341.096 62.214 339.57 62.046V60.828H338.548V62.046C336.798 62.228 335.608 63.334 335.608 64.916C335.608 66.904 337.092 67.338 338.548 67.618V70.894C337.484 70.74 336.784 70.082 336.518 68.948L335.188 69.326C335.51 70.978 336.672 72 338.548 72.126V73.358H339.57V72.112C341.502 71.916 342.776 70.838 342.776 69.172ZM336.994 64.776C336.994 64.006 337.582 63.404 338.548 63.278V66.204C337.666 65.994 336.994 65.658 336.994 64.776ZM339.57 70.894V67.828C340.564 68.052 341.362 68.374 341.362 69.368C341.362 70.18 340.662 70.754 339.57 70.894ZM347.969 65.448C347.157 65.448 346.415 65.742 345.897 66.26L346.289 63.516H350.629V62.2H345.113L344.357 67.716L345.673 68.01C345.953 67.282 346.639 66.666 347.633 66.666C348.851 66.666 349.663 67.506 349.663 68.766C349.663 69.998 348.865 70.824 347.661 70.824C346.667 70.824 346.009 70.306 345.645 69.452L344.343 69.956C344.805 71.272 345.967 72.14 347.591 72.14C349.705 72.14 351.133 70.782 351.133 68.752C351.133 66.792 349.845 65.448 347.969 65.448ZM356.472 72.14C358.908 72.14 360.252 70.334 360.252 67.086C360.252 63.838 358.908 62.018 356.472 62.018C354.036 62.018 352.692 63.838 352.692 67.086C352.692 70.334 354.036 72.14 356.472 72.14ZM356.472 70.824C355.002 70.824 354.176 69.494 354.176 67.086C354.176 64.678 355.002 63.334 356.472 63.334C357.942 63.334 358.768 64.678 358.768 67.086C358.768 69.494 357.942 70.824 356.472 70.824ZM361.867 70.39V72H362.819V72.504C362.819 72.882 362.609 73.12 362.273 73.12C362.063 73.12 361.867 73.092 361.699 72.98L361.405 73.47C361.643 73.638 361.937 73.722 362.273 73.722C363.029 73.722 363.519 73.204 363.519 72.406V70.39H361.867ZM367.136 70.684L368.62 69.648C370.832 68.094 371.644 66.652 371.644 65.126C371.644 63.236 370.356 62.018 368.382 62.018C366.352 62.018 365.022 63.25 365.022 65.154C365.022 65.686 365.134 66.19 365.316 66.61L366.632 66.176C366.52 65.882 366.45 65.532 366.45 65.182C366.45 64.062 367.178 63.334 368.312 63.334C369.432 63.334 370.146 64.076 370.146 65.224C370.146 66.4 369.46 67.604 367.514 68.99L365.022 70.768V72H371.714V70.684H367.136ZM380.172 68.64H378.926V62.2H377.414L372.78 68.668V69.928H377.47V72H378.926V69.928H380.172V68.64ZM377.512 64.244V68.64H374.362L377.512 64.244ZM385.073 72.14C387.509 72.14 388.853 70.334 388.853 67.086C388.853 63.838 387.509 62.018 385.073 62.018C382.637 62.018 381.293 63.838 381.293 67.086C381.293 70.334 382.637 72.14 385.073 72.14ZM385.073 70.824C383.603 70.824 382.777 69.494 382.777 67.086C382.777 64.678 383.603 63.334 385.073 63.334C386.543 63.334 387.369 64.678 387.369 67.086C387.369 69.494 386.543 70.824 385.073 70.824ZM390.289 72H391.576V70.724H390.289V72ZM395.814 72.11C397.728 72.11 398.784 70.691 398.784 68.139C398.784 65.587 397.728 64.157 395.814 64.157C393.9 64.157 392.844 65.587 392.844 68.139C392.844 70.691 393.9 72.11 395.814 72.11ZM395.814 71.076C394.659 71.076 394.01 70.031 394.01 68.139C394.01 66.247 394.659 65.191 395.814 65.191C396.969 65.191 397.618 66.247 397.618 68.139C397.618 70.031 396.969 71.076 395.814 71.076ZM402.969 72.11C404.883 72.11 405.939 70.691 405.939 68.139C405.939 65.587 404.883 64.157 402.969 64.157C401.055 64.157 399.999 65.587 399.999 68.139C399.999 70.691 401.055 72.11 402.969 72.11ZM402.969 71.076C401.814 71.076 401.165 70.031 401.165 68.139C401.165 66.247 401.814 65.191 402.969 65.191C404.124 65.191 404.773 66.247 404.773 68.139C404.773 70.031 404.124 71.076 402.969 71.076ZM412.599 72.11C414.48 72.11 415.657 70.911 415.657 68.942V64.3H414.48V68.898C414.48 70.251 413.765 71.076 412.621 71.076C411.466 71.076 410.74 70.251 410.74 68.898V64.3H409.574V68.942C409.574 70.911 410.729 72.11 412.599 72.11ZM419.742 72.11C421.535 72.11 422.756 71.23 422.756 69.778C422.756 66.654 418.235 68.326 418.235 66.324C418.235 65.653 418.818 65.158 419.764 65.158C420.633 65.158 421.238 65.631 421.491 66.379L422.547 66.082C422.195 64.916 421.26 64.157 419.83 64.157C418.235 64.157 417.124 65.081 417.124 66.434C417.124 69.558 421.612 67.864 421.612 69.932C421.612 70.636 420.886 71.109 419.819 71.109C418.774 71.109 418.092 70.592 417.817 69.602L416.794 69.91C417.102 71.274 418.147 72.11 419.742 72.11ZM426.83 64.3H423.981V72H426.83C429.118 72 430.57 70.537 430.57 68.15C430.57 65.763 429.129 64.3 426.83 64.3ZM426.797 70.966H425.158V65.334H426.797C428.37 65.334 429.393 66.434 429.393 68.15C429.393 69.877 428.37 70.966 426.797 70.966ZM432.479 75.514C434.257 73.652 435.237 71.104 435.237 68.5C435.237 65.924 434.257 63.726 432.479 61.486L431.527 62.2C432.983 64.286 433.781 66.204 433.781 68.5C433.781 70.796 432.983 73.092 431.527 74.8L432.479 75.514Z" fill="#897E7A"></path><rect x="176" y="94.5" width="10" height="10" rx="3" fill="#800219"></rect><path d="M207.448 95.516V94.2H201.078V104H202.576V100.08H206.874V98.764H202.576V95.516H207.448ZM211.597 96.79C210.001 96.79 208.839 97.756 208.573 99.184L209.721 99.52C210.001 98.568 210.547 98.036 211.527 98.036C212.479 98.036 213.095 98.652 213.137 99.66L211.247 99.996C209.581 100.304 208.825 100.976 208.825 102.11C208.825 103.342 209.735 104.14 211.065 104.14C212.059 104.14 212.801 103.678 213.235 102.852V104H214.551V99.632C214.551 97.924 213.417 96.79 211.597 96.79ZM211.359 103.104C210.715 103.104 210.253 102.754 210.253 102.138C210.253 101.48 210.743 101.158 211.737 100.976L213.137 100.71V100.934C213.137 102.194 212.395 103.104 211.359 103.104ZM216.277 95.628H217.803V94.116H216.277V95.628ZM216.333 104H217.761V96.958H216.333V104ZM219.683 104H221.111V94.2H219.683V104ZM226.098 96.79C224.096 96.79 222.654 98.316 222.654 100.5C222.654 102.726 224.222 104.14 226.182 104.14C227.54 104.14 228.576 103.454 229.15 102.446L228.212 101.816C227.792 102.516 227.092 102.964 226.21 102.964C225.076 102.964 224.11 102.222 224.04 100.822H229.248C229.514 98.638 228.268 96.79 226.098 96.79ZM226.07 97.91C227.12 97.91 227.834 98.652 227.932 99.744H224.082C224.194 98.638 225.02 97.91 226.07 97.91ZM235.936 94.2V97.938C235.46 97.21 234.69 96.79 233.668 96.79C231.68 96.79 230.378 98.302 230.378 100.458C230.378 102.628 231.68 104.14 233.668 104.14C234.704 104.14 235.46 103.72 235.936 102.992V104H237.364V94.2H235.936ZM233.878 102.922C232.632 102.922 231.806 101.914 231.806 100.458C231.806 99.002 232.632 97.994 233.878 97.994C235.124 97.994 235.936 99.002 235.936 100.458C235.936 101.914 235.124 102.922 233.878 102.922Z" fill="#00473C"></path><path d="M312.569 94.2C312.163 95.32 311.365 95.908 310.105 96.02V97.42C311.085 97.35 311.799 97.056 312.303 96.496V104H313.801V94.2H312.569ZM319.571 104.14C322.007 104.14 323.351 102.334 323.351 99.086C323.351 95.838 322.007 94.018 319.571 94.018C317.135 94.018 315.791 95.838 315.791 99.086C315.791 102.334 317.135 104.14 319.571 104.14ZM319.571 102.824C318.101 102.824 317.275 101.494 317.275 99.086C317.275 96.678 318.101 95.334 319.571 95.334C321.041 95.334 321.867 96.678 321.867 99.086C321.867 101.494 321.041 102.824 319.571 102.824ZM326.815 99.352C328.089 99.352 328.915 98.344 328.915 96.72C328.915 95.068 328.089 94.06 326.815 94.06C325.541 94.06 324.715 95.068 324.715 96.72C324.715 98.358 325.541 99.352 326.815 99.352ZM326.885 103.986H328.117L332.919 94.2H331.701L326.885 103.986ZM326.815 98.428C326.157 98.428 325.793 97.812 325.793 96.72C325.793 95.6 326.157 94.984 326.815 94.984C327.459 94.984 327.837 95.6 327.837 96.72C327.837 97.812 327.459 98.428 326.815 98.428ZM333.059 104.168C334.333 104.168 335.159 103.16 335.159 101.522C335.159 99.87 334.333 98.862 333.059 98.862C331.785 98.862 330.959 99.87 330.959 101.522C330.959 103.174 331.785 104.168 333.059 104.168ZM333.059 103.244C332.415 103.244 332.037 102.614 332.037 101.522C332.037 100.416 332.415 99.786 333.059 99.786C333.703 99.786 334.081 100.416 334.081 101.522C334.081 102.614 333.703 103.244 333.059 103.244Z" fill="#00473C"></path><path d="M342.133 107.514L343.085 106.8C341.629 105.092 340.831 102.796 340.831 100.5C340.831 98.204 341.629 96.286 343.085 94.2L342.133 93.486C340.369 95.726 339.389 97.924 339.389 100.5C339.389 103.104 340.369 105.652 342.133 107.514ZM351.759 101.172C351.759 99.072 350.093 98.708 348.553 98.414V95.32C349.351 95.502 349.897 96.048 350.163 96.846L351.493 96.468C351.087 95.124 350.079 94.214 348.553 94.046V92.828H347.531V94.046C345.781 94.228 344.591 95.334 344.591 96.916C344.591 98.904 346.075 99.338 347.531 99.618V102.894C346.467 102.74 345.767 102.082 345.501 100.948L344.171 101.326C344.493 102.978 345.655 104 347.531 104.126V105.358H348.553V104.112C350.485 103.916 351.759 102.838 351.759 101.172ZM345.977 96.776C345.977 96.006 346.565 95.404 347.531 95.278V98.204C346.649 97.994 345.977 97.658 345.977 96.776ZM348.553 102.894V99.828C349.547 100.052 350.345 100.374 350.345 101.368C350.345 102.18 349.645 102.754 348.553 102.894ZM360.115 100.64H358.869V94.2H357.357L352.723 100.668V101.928H357.413V104H358.869V101.928H360.115V100.64ZM357.455 96.244V100.64H354.305L357.455 96.244ZM361.307 102.39V104H362.259V104.504C362.259 104.882 362.049 105.12 361.713 105.12C361.503 105.12 361.307 105.092 361.139 104.98L360.845 105.47C361.083 105.638 361.377 105.722 361.713 105.722C362.469 105.722 362.959 105.204 362.959 104.406V102.39H361.307ZM366.575 102.684L368.059 101.648C370.271 100.094 371.083 98.652 371.083 97.126C371.083 95.236 369.795 94.018 367.821 94.018C365.791 94.018 364.461 95.25 364.461 97.154C364.461 97.686 364.573 98.19 364.755 98.61L366.071 98.176C365.959 97.882 365.889 97.532 365.889 97.182C365.889 96.062 366.617 95.334 367.751 95.334C368.871 95.334 369.585 96.076 369.585 97.224C369.585 98.4 368.899 99.604 366.953 100.99L364.461 102.768V104H371.153V102.684H366.575ZM376.419 104.14C378.855 104.14 380.199 102.334 380.199 99.086C380.199 95.838 378.855 94.018 376.419 94.018C373.983 94.018 372.639 95.838 372.639 99.086C372.639 102.334 373.983 104.14 376.419 104.14ZM376.419 102.824C374.949 102.824 374.123 101.494 374.123 99.086C374.123 96.678 374.949 95.334 376.419 95.334C377.889 95.334 378.715 96.678 378.715 99.086C378.715 101.494 377.889 102.824 376.419 102.824ZM385.525 104.14C387.961 104.14 389.305 102.334 389.305 99.086C389.305 95.838 387.961 94.018 385.525 94.018C383.089 94.018 381.745 95.838 381.745 99.086C381.745 102.334 383.089 104.14 385.525 104.14ZM385.525 102.824C384.055 102.824 383.229 101.494 383.229 99.086C383.229 96.678 384.055 95.334 385.525 95.334C386.995 95.334 387.821 96.678 387.821 99.086C387.821 101.494 386.995 102.824 385.525 102.824ZM390.74 104H392.027V102.724H390.74V104ZM396.287 98.852C395.649 98.852 395.066 99.083 394.659 99.49L394.967 97.334H398.377V96.3H394.043L393.449 100.634L394.483 100.865C394.703 100.293 395.242 99.809 396.023 99.809C396.98 99.809 397.618 100.469 397.618 101.459C397.618 102.427 396.991 103.076 396.045 103.076C395.264 103.076 394.747 102.669 394.461 101.998L393.438 102.394C393.801 103.428 394.714 104.11 395.99 104.11C397.651 104.11 398.773 103.043 398.773 101.448C398.773 99.908 397.761 98.852 396.287 98.852ZM402.969 104.11C404.883 104.11 405.939 102.691 405.939 100.139C405.939 97.587 404.883 96.157 402.969 96.157C401.055 96.157 399.999 97.587 399.999 100.139C399.999 102.691 401.055 104.11 402.969 104.11ZM402.969 103.076C401.814 103.076 401.165 102.031 401.165 100.139C401.165 98.247 401.814 97.191 402.969 97.191C404.124 97.191 404.773 98.247 404.773 100.139C404.773 102.031 404.124 103.076 402.969 103.076ZM412.599 104.11C414.48 104.11 415.657 102.911 415.657 100.942V96.3H414.48V100.898C414.48 102.251 413.765 103.076 412.621 103.076C411.466 103.076 410.74 102.251 410.74 100.898V96.3H409.574V100.942C409.574 102.911 410.729 104.11 412.599 104.11ZM419.742 104.11C421.535 104.11 422.756 103.23 422.756 101.778C422.756 98.654 418.235 100.326 418.235 98.324C418.235 97.653 418.818 97.158 419.764 97.158C420.633 97.158 421.238 97.631 421.491 98.379L422.547 98.082C422.195 96.916 421.26 96.157 419.83 96.157C418.235 96.157 417.124 97.081 417.124 98.434C417.124 101.558 421.612 99.864 421.612 101.932C421.612 102.636 420.886 103.109 419.819 103.109C418.774 103.109 418.092 102.592 417.817 101.602L416.794 101.91C417.102 103.274 418.147 104.11 419.742 104.11ZM426.83 96.3H423.981V104H426.83C429.118 104 430.57 102.537 430.57 100.15C430.57 97.763 429.129 96.3 426.83 96.3ZM426.797 102.966H425.158V97.334H426.797C428.37 97.334 429.393 98.434 429.393 100.15C429.393 101.877 428.37 102.966 426.797 102.966ZM432.479 107.514C434.257 105.652 435.237 103.104 435.237 100.5C435.237 97.924 434.257 95.726 432.479 93.486L431.527 94.2C432.983 96.286 433.781 98.204 433.781 100.5C433.781 102.796 432.983 105.092 431.527 106.8L432.479 107.514Z" fill="#897E7A"></path><rect x="176" y="126.5" width="10" height="10" rx="3" fill="#C1D3FF"></rect><path d="M207.924 133.41C207.714 132.444 207.252 131.856 206.454 131.548C207.616 131.156 208.302 130.232 208.302 128.986C208.302 127.292 207.042 126.2 205.096 126.2H201.078V136H202.576V132.01H204.34C205.586 132.01 206.23 132.514 206.496 133.746L206.986 136H208.484L207.924 133.41ZM202.576 130.722V127.516H205.068C206.118 127.516 206.804 128.174 206.804 129.126C206.804 130.078 206.118 130.722 205.054 130.722H202.576ZM213.123 128.79C211.121 128.79 209.679 130.316 209.679 132.5C209.679 134.726 211.247 136.14 213.207 136.14C214.565 136.14 215.601 135.454 216.175 134.446L215.237 133.816C214.817 134.516 214.117 134.964 213.235 134.964C212.101 134.964 211.135 134.222 211.065 132.822H216.273C216.539 130.638 215.293 128.79 213.123 128.79ZM213.095 129.91C214.145 129.91 214.859 130.652 214.957 131.744H211.107C211.219 130.638 212.045 129.91 213.095 129.91ZM219.616 128.132C219.616 127.586 219.924 127.25 220.386 127.25C220.666 127.25 220.876 127.39 221.044 127.6L221.982 127.012C221.674 126.41 221.086 126.06 220.344 126.06C219.07 126.06 218.188 126.928 218.188 128.188V128.958H217.096V130.176H218.188V136H219.616V130.176H221.31V128.958H219.616V128.132ZM227.312 128.958V132.108C227.312 133.97 226.444 134.922 225.324 134.922C224.386 134.922 223.84 134.264 223.84 133.242V128.958H222.412V133.41C222.412 135.09 223.448 136.14 224.96 136.14C226.01 136.14 226.822 135.636 227.312 134.726V136H228.74V128.958H227.312ZM234.358 128.79C233.35 128.79 232.538 129.238 232.048 130.134V128.958H230.62V136H232.048V132.612C232.048 130.848 232.93 129.994 233.994 129.994C234.946 129.994 235.52 130.666 235.52 131.73V136H236.948V131.548C236.948 129.84 235.912 128.79 234.358 128.79ZM243.907 126.2V129.938C243.431 129.21 242.661 128.79 241.639 128.79C239.651 128.79 238.349 130.302 238.349 132.458C238.349 134.628 239.651 136.14 241.639 136.14C242.675 136.14 243.431 135.72 243.907 134.992V136H245.335V126.2H243.907ZM241.849 134.922C240.603 134.922 239.777 133.914 239.777 132.458C239.777 131.002 240.603 129.994 241.849 129.994C243.095 129.994 243.907 131.002 243.907 132.458C243.907 133.914 243.095 134.922 241.849 134.922ZM250.324 128.79C248.322 128.79 246.88 130.316 246.88 132.5C246.88 134.726 248.448 136.14 250.408 136.14C251.766 136.14 252.802 135.454 253.376 134.446L252.438 133.816C252.018 134.516 251.318 134.964 250.436 134.964C249.302 134.964 248.336 134.222 248.266 132.822H253.474C253.74 130.638 252.494 128.79 250.324 128.79ZM250.296 129.91C251.346 129.91 252.06 130.652 252.158 131.744H248.308C248.42 130.638 249.246 129.91 250.296 129.91ZM260.163 126.2V129.938C259.687 129.21 258.917 128.79 257.895 128.79C255.907 128.79 254.605 130.302 254.605 132.458C254.605 134.628 255.907 136.14 257.895 136.14C258.931 136.14 259.687 135.72 260.163 134.992V136H261.591V126.2H260.163ZM258.105 134.922C256.859 134.922 256.033 133.914 256.033 132.458C256.033 131.002 256.859 129.994 258.105 129.994C259.351 129.994 260.163 131.002 260.163 132.458C260.163 133.914 259.351 134.922 258.105 134.922Z" fill="#00473C"></path><path d="M323.403 129.448C322.591 129.448 321.849 129.742 321.331 130.26L321.723 127.516H326.063V126.2H320.547L319.791 131.716L321.107 132.01C321.387 131.282 322.073 130.666 323.067 130.666C324.285 130.666 325.097 131.506 325.097 132.766C325.097 133.998 324.299 134.824 323.095 134.824C322.101 134.824 321.443 134.306 321.079 133.452L319.777 133.956C320.239 135.272 321.401 136.14 323.025 136.14C325.139 136.14 326.567 134.782 326.567 132.752C326.567 130.792 325.279 129.448 323.403 129.448ZM330.044 131.352C331.318 131.352 332.144 130.344 332.144 128.72C332.144 127.068 331.318 126.06 330.044 126.06C328.77 126.06 327.944 127.068 327.944 128.72C327.944 130.358 328.77 131.352 330.044 131.352ZM330.114 135.986H331.346L336.148 126.2H334.93L330.114 135.986ZM330.044 130.428C329.386 130.428 329.022 129.812 329.022 128.72C329.022 127.6 329.386 126.984 330.044 126.984C330.688 126.984 331.066 127.6 331.066 128.72C331.066 129.812 330.688 130.428 330.044 130.428ZM336.288 136.168C337.562 136.168 338.388 135.16 338.388 133.522C338.388 131.87 337.562 130.862 336.288 130.862C335.014 130.862 334.188 131.87 334.188 133.522C334.188 135.174 335.014 136.168 336.288 136.168ZM336.288 135.244C335.644 135.244 335.266 134.614 335.266 133.522C335.266 132.416 335.644 131.786 336.288 131.786C336.932 131.786 337.31 132.416 337.31 133.522C337.31 134.614 336.932 135.244 336.288 135.244Z" fill="#00473C"></path><path d="M345.363 139.514L346.315 138.8C344.859 137.092 344.061 134.796 344.061 132.5C344.061 130.204 344.859 128.286 346.315 126.2L345.363 125.486C343.599 127.726 342.619 129.924 342.619 132.5C342.619 135.104 343.599 137.652 345.363 139.514ZM354.988 133.172C354.988 131.072 353.322 130.708 351.782 130.414V127.32C352.58 127.502 353.126 128.048 353.392 128.846L354.722 128.468C354.316 127.124 353.308 126.214 351.782 126.046V124.828H350.76V126.046C349.01 126.228 347.82 127.334 347.82 128.916C347.82 130.904 349.304 131.338 350.76 131.618V134.894C349.696 134.74 348.996 134.082 348.73 132.948L347.4 133.326C347.722 134.978 348.884 136 350.76 136.126V137.358H351.782V136.112C353.714 135.916 354.988 134.838 354.988 133.172ZM349.206 128.776C349.206 128.006 349.794 127.404 350.76 127.278V130.204C349.878 129.994 349.206 129.658 349.206 128.776ZM351.782 134.894V131.828C352.776 132.052 353.574 132.374 353.574 133.368C353.574 134.18 352.874 134.754 351.782 134.894ZM358.389 134.684L359.873 133.648C362.085 132.094 362.897 130.652 362.897 129.126C362.897 127.236 361.609 126.018 359.635 126.018C357.605 126.018 356.275 127.25 356.275 129.154C356.275 129.686 356.387 130.19 356.569 130.61L357.885 130.176C357.773 129.882 357.703 129.532 357.703 129.182C357.703 128.062 358.431 127.334 359.565 127.334C360.685 127.334 361.399 128.076 361.399 129.224C361.399 130.4 360.713 131.604 358.767 132.99L356.275 134.768V136H362.967V134.684H358.389ZM364.523 134.39V136H365.475V136.504C365.475 136.882 365.265 137.12 364.929 137.12C364.719 137.12 364.523 137.092 364.355 136.98L364.061 137.47C364.299 137.638 364.593 137.722 364.929 137.722C365.685 137.722 366.175 137.204 366.175 136.406V134.39H364.523ZM371.555 136.14C373.991 136.14 375.335 134.334 375.335 131.086C375.335 127.838 373.991 126.018 371.555 126.018C369.119 126.018 367.775 127.838 367.775 131.086C367.775 134.334 369.119 136.14 371.555 136.14ZM371.555 134.824C370.085 134.824 369.259 133.494 369.259 131.086C369.259 128.678 370.085 127.334 371.555 127.334C373.025 127.334 373.851 128.678 373.851 131.086C373.851 133.494 373.025 134.824 371.555 134.824ZM378.812 126.2C378.406 127.32 377.608 127.908 376.348 128.02V129.42C377.328 129.35 378.042 129.056 378.546 128.496V136H380.044V126.2H378.812ZM385.815 136.14C388.251 136.14 389.595 134.334 389.595 131.086C389.595 127.838 388.251 126.018 385.815 126.018C383.379 126.018 382.035 127.838 382.035 131.086C382.035 134.334 383.379 136.14 385.815 136.14ZM385.815 134.824C384.345 134.824 383.519 133.494 383.519 131.086C383.519 128.678 384.345 127.334 385.815 127.334C387.285 127.334 388.111 128.678 388.111 131.086C388.111 133.494 387.285 134.824 385.815 134.824ZM391.03 136H392.317V134.724H391.03V136ZM397.49 131.974C398.227 131.677 398.678 131.083 398.678 130.269C398.678 129.037 397.688 128.157 396.192 128.157C394.696 128.157 393.695 129.037 393.695 130.269C393.695 131.083 394.146 131.677 394.894 131.974C393.992 132.304 393.442 132.997 393.442 133.899C393.442 135.186 394.542 136.11 396.192 136.11C397.842 136.11 398.931 135.186 398.931 133.899C398.931 132.997 398.381 132.304 397.49 131.974ZM396.192 129.169C397.006 129.169 397.545 129.642 397.545 130.368C397.545 131.072 397.006 131.512 396.192 131.512C395.367 131.512 394.839 131.072 394.839 130.368C394.839 129.642 395.367 129.169 396.192 129.169ZM396.192 135.109C395.246 135.109 394.608 134.592 394.608 133.8C394.608 133.019 395.246 132.469 396.192 132.469C397.138 132.469 397.776 133.019 397.776 133.8C397.776 134.592 397.138 135.109 396.192 135.109ZM402.969 136.11C404.883 136.11 405.939 134.691 405.939 132.139C405.939 129.587 404.883 128.157 402.969 128.157C401.055 128.157 399.999 129.587 399.999 132.139C399.999 134.691 401.055 136.11 402.969 136.11ZM402.969 135.076C401.814 135.076 401.165 134.031 401.165 132.139C401.165 130.247 401.814 129.191 402.969 129.191C404.124 129.191 404.773 130.247 404.773 132.139C404.773 134.031 404.124 135.076 402.969 135.076ZM412.599 136.11C414.48 136.11 415.657 134.911 415.657 132.942V128.3H414.48V132.898C414.48 134.251 413.765 135.076 412.621 135.076C411.466 135.076 410.74 134.251 410.74 132.898V128.3H409.574V132.942C409.574 134.911 410.729 136.11 412.599 136.11ZM419.742 136.11C421.535 136.11 422.756 135.23 422.756 133.778C422.756 130.654 418.235 132.326 418.235 130.324C418.235 129.653 418.818 129.158 419.764 129.158C420.633 129.158 421.238 129.631 421.491 130.379L422.547 130.082C422.195 128.916 421.26 128.157 419.83 128.157C418.235 128.157 417.124 129.081 417.124 130.434C417.124 133.558 421.612 131.864 421.612 133.932C421.612 134.636 420.886 135.109 419.819 135.109C418.774 135.109 418.092 134.592 417.817 133.602L416.794 133.91C417.102 135.274 418.147 136.11 419.742 136.11ZM426.83 128.3H423.981V136H426.83C429.118 136 430.57 134.537 430.57 132.15C430.57 129.763 429.129 128.3 426.83 128.3ZM426.797 134.966H425.158V129.334H426.797C428.37 129.334 429.393 130.434 429.393 132.15C429.393 133.877 428.37 134.966 426.797 134.966ZM432.479 139.514C434.257 137.652 435.237 135.104 435.237 132.5C435.237 129.924 434.257 127.726 432.479 125.486L431.527 126.2C432.983 128.286 433.781 130.204 433.781 132.5C433.781 134.796 432.983 137.092 431.527 138.8L432.479 139.514Z" fill="#897E7A"></path><rect x="176" y="158.5" width="10" height="10" rx="3" fill="#00473C"></rect><path d="M205.516 168.14C208.358 168.14 210.402 166.04 210.402 163.086C210.402 160.132 208.358 158.018 205.516 158.018C202.66 158.018 200.63 160.132 200.63 163.086C200.63 166.04 202.66 168.14 205.516 168.14ZM205.516 166.824C203.5 166.824 202.114 165.27 202.114 163.086C202.114 160.888 203.5 159.334 205.516 159.334C207.518 159.334 208.904 160.888 208.904 163.086C208.904 165.27 207.518 166.824 205.516 166.824ZM215.262 166.6C215.066 166.81 214.814 166.95 214.492 166.95C214.016 166.95 213.75 166.614 213.75 165.984V162.176H215.598V160.958H213.75V158.802L212.322 159.418V160.958H211.202V162.176H212.322V166.138C212.322 167.426 213.008 168.14 214.24 168.14C215.066 168.14 215.654 167.832 216.018 167.37L215.262 166.6ZM220.851 160.79C219.843 160.79 219.031 161.252 218.527 162.162V158.2H217.099V168H218.527V164.612C218.527 162.862 219.409 161.994 220.473 161.994C221.425 161.994 221.999 162.666 221.999 163.73V168H223.427V163.548C223.427 161.91 222.447 160.79 220.851 160.79ZM228.272 160.79C226.27 160.79 224.828 162.316 224.828 164.5C224.828 166.726 226.396 168.14 228.356 168.14C229.714 168.14 230.75 167.454 231.324 166.446L230.386 165.816C229.966 166.516 229.266 166.964 228.384 166.964C227.25 166.964 226.284 166.222 226.214 164.822H231.422C231.688 162.638 230.442 160.79 228.272 160.79ZM228.244 161.91C229.294 161.91 230.008 162.652 230.106 163.744H226.256C226.368 162.638 227.194 161.91 228.244 161.91ZM236.136 160.818C235.38 160.818 234.75 161.182 234.358 162.106V160.958H232.93V168H234.358V164.934C234.358 162.904 234.946 162.12 235.968 162.12C236.22 162.12 236.43 162.176 236.598 162.26L237.088 161.084C236.836 160.93 236.514 160.818 236.136 160.818Z" fill="#00473C"></path><path d="M322.662 161.448C321.85 161.448 321.108 161.742 320.59 162.26L320.982 159.516H325.322V158.2H319.806L319.05 163.716L320.366 164.01C320.646 163.282 321.332 162.666 322.326 162.666C323.544 162.666 324.356 163.506 324.356 164.766C324.356 165.998 323.558 166.824 322.354 166.824C321.36 166.824 320.702 166.306 320.338 165.452L319.036 165.956C319.498 167.272 320.66 168.14 322.284 168.14C324.398 168.14 325.826 166.782 325.826 164.752C325.826 162.792 324.538 161.448 322.662 161.448ZM329.303 163.352C330.577 163.352 331.403 162.344 331.403 160.72C331.403 159.068 330.577 158.06 329.303 158.06C328.029 158.06 327.203 159.068 327.203 160.72C327.203 162.358 328.029 163.352 329.303 163.352ZM329.373 167.986H330.605L335.407 158.2H334.189L329.373 167.986ZM329.303 162.428C328.645 162.428 328.281 161.812 328.281 160.72C328.281 159.6 328.645 158.984 329.303 158.984C329.947 158.984 330.325 159.6 330.325 160.72C330.325 161.812 329.947 162.428 329.303 162.428ZM335.547 168.168C336.821 168.168 337.647 167.16 337.647 165.522C337.647 163.87 336.821 162.862 335.547 162.862C334.273 162.862 333.447 163.87 333.447 165.522C333.447 167.174 334.273 168.168 335.547 168.168ZM335.547 167.244C334.903 167.244 334.525 166.614 334.525 165.522C334.525 164.416 334.903 163.786 335.547 163.786C336.191 163.786 336.569 164.416 336.569 165.522C336.569 166.614 336.191 167.244 335.547 167.244Z" fill="#00473C"></path><path d="M344.621 171.514L345.573 170.8C344.117 169.092 343.319 166.796 343.319 164.5C343.319 162.204 344.117 160.286 345.573 158.2L344.621 157.486C342.857 159.726 341.877 161.924 341.877 164.5C341.877 167.104 342.857 169.652 344.621 171.514ZM354.247 165.172C354.247 163.072 352.581 162.708 351.041 162.414V159.32C351.839 159.502 352.385 160.048 352.651 160.846L353.981 160.468C353.575 159.124 352.567 158.214 351.041 158.046V156.828H350.019V158.046C348.269 158.228 347.079 159.334 347.079 160.916C347.079 162.904 348.563 163.338 350.019 163.618V166.894C348.955 166.74 348.255 166.082 347.989 164.948L346.659 165.326C346.981 166.978 348.143 168 350.019 168.126V169.358H351.041V168.112C352.973 167.916 354.247 166.838 354.247 165.172ZM348.465 160.776C348.465 160.006 349.053 159.404 350.019 159.278V162.204C349.137 161.994 348.465 161.658 348.465 160.776ZM351.041 166.894V163.828C352.035 164.052 352.833 164.374 352.833 165.368C352.833 166.18 352.133 166.754 351.041 166.894ZM357.647 166.684L359.131 165.648C361.343 164.094 362.155 162.652 362.155 161.126C362.155 159.236 360.867 158.018 358.893 158.018C356.863 158.018 355.533 159.25 355.533 161.154C355.533 161.686 355.645 162.19 355.827 162.61L357.143 162.176C357.031 161.882 356.961 161.532 356.961 161.182C356.961 160.062 357.689 159.334 358.823 159.334C359.943 159.334 360.657 160.076 360.657 161.224C360.657 162.4 359.971 163.604 358.025 164.99L355.533 166.768V168H362.225V166.684H357.647ZM363.781 166.39V168H364.733V168.504C364.733 168.882 364.523 169.12 364.187 169.12C363.977 169.12 363.781 169.092 363.613 168.98L363.319 169.47C363.557 169.638 363.851 169.722 364.187 169.722C364.943 169.722 365.433 169.204 365.433 168.406V166.39H363.781ZM370.814 168.14C373.25 168.14 374.594 166.334 374.594 163.086C374.594 159.838 373.25 158.018 370.814 158.018C368.378 158.018 367.034 159.838 367.034 163.086C367.034 166.334 368.378 168.14 370.814 168.14ZM370.814 166.824C369.344 166.824 368.518 165.494 368.518 163.086C368.518 160.678 369.344 159.334 370.814 159.334C372.284 159.334 373.11 160.678 373.11 163.086C373.11 165.494 372.284 166.824 370.814 166.824ZM378.071 158.2C377.665 159.32 376.867 159.908 375.607 160.02V161.42C376.587 161.35 377.301 161.056 377.805 160.496V168H379.303V158.2H378.071ZM385.073 168.14C387.509 168.14 388.853 166.334 388.853 163.086C388.853 159.838 387.509 158.018 385.073 158.018C382.637 158.018 381.293 159.838 381.293 163.086C381.293 166.334 382.637 168.14 385.073 168.14ZM385.073 166.824C383.603 166.824 382.777 165.494 382.777 163.086C382.777 160.678 383.603 159.334 385.073 159.334C386.543 159.334 387.369 160.678 387.369 163.086C387.369 165.494 386.543 166.824 385.073 166.824ZM390.289 168H391.576V166.724H390.289V168ZM395.814 168.11C397.728 168.11 398.784 166.691 398.784 164.139C398.784 161.587 397.728 160.157 395.814 160.157C393.9 160.157 392.844 161.587 392.844 164.139C392.844 166.691 393.9 168.11 395.814 168.11ZM395.814 167.076C394.659 167.076 394.01 166.031 394.01 164.139C394.01 162.247 394.659 161.191 395.814 161.191C396.969 161.191 397.618 162.247 397.618 164.139C397.618 166.031 396.969 167.076 395.814 167.076ZM402.969 168.11C404.883 168.11 405.939 166.691 405.939 164.139C405.939 161.587 404.883 160.157 402.969 160.157C401.055 160.157 399.999 161.587 399.999 164.139C399.999 166.691 401.055 168.11 402.969 168.11ZM402.969 167.076C401.814 167.076 401.165 166.031 401.165 164.139C401.165 162.247 401.814 161.191 402.969 161.191C404.124 161.191 404.773 162.247 404.773 164.139C404.773 166.031 404.124 167.076 402.969 167.076ZM412.599 168.11C414.48 168.11 415.657 166.911 415.657 164.942V160.3H414.48V164.898C414.48 166.251 413.765 167.076 412.621 167.076C411.466 167.076 410.74 166.251 410.74 164.898V160.3H409.574V164.942C409.574 166.911 410.729 168.11 412.599 168.11ZM419.742 168.11C421.535 168.11 422.756 167.23 422.756 165.778C422.756 162.654 418.235 164.326 418.235 162.324C418.235 161.653 418.818 161.158 419.764 161.158C420.633 161.158 421.238 161.631 421.491 162.379L422.547 162.082C422.195 160.916 421.26 160.157 419.83 160.157C418.235 160.157 417.124 161.081 417.124 162.434C417.124 165.558 421.612 163.864 421.612 165.932C421.612 166.636 420.886 167.109 419.819 167.109C418.774 167.109 418.092 166.592 417.817 165.602L416.794 165.91C417.102 167.274 418.147 168.11 419.742 168.11ZM426.83 160.3H423.981V168H426.83C429.118 168 430.57 166.537 430.57 164.15C430.57 161.763 429.129 160.3 426.83 160.3ZM426.797 166.966H425.158V161.334H426.797C428.37 161.334 429.393 162.434 429.393 164.15C429.393 165.877 428.37 166.966 426.797 166.966ZM432.479 171.514C434.257 169.652 435.237 167.104 435.237 164.5C435.237 161.924 434.257 159.726 432.479 157.486L431.527 158.2C432.983 160.286 433.781 162.204 433.781 164.5C433.781 166.796 432.983 169.092 431.527 170.8L432.479 171.514Z" fill="#897E7A"></path><path d="M29.5133 22.2H25.4533V32H27.1193V28.346H29.4153C31.5433 28.346 32.8453 27.114 32.8453 25.21C32.8453 23.376 31.5853 22.2 29.5133 22.2ZM29.4573 26.848H27.1193V23.684H29.4153C30.5353 23.684 31.1653 24.3 31.1653 25.266C31.1653 26.246 30.5493 26.848 29.4573 26.848ZM36.8894 24.762C35.2654 24.762 34.1034 25.756 33.8374 27.184L35.1114 27.562C35.3914 26.652 35.8954 26.162 36.8194 26.162C37.6874 26.162 38.2614 26.736 38.3034 27.66L36.4414 27.982C34.8454 28.262 34.0754 28.934 34.0754 30.068C34.0754 31.314 34.9994 32.14 36.3294 32.14C37.2814 32.14 38.0094 31.706 38.4294 30.922V32H39.8994V27.632C39.8994 25.924 38.7654 24.762 36.8894 24.762ZM36.6934 31.006C36.1054 31.006 35.6854 30.67 35.6854 30.11C35.6854 29.508 36.1474 29.214 36.9594 29.06L38.3034 28.794V29.032C38.3034 30.152 37.6314 31.006 36.6934 31.006ZM45.9981 24.958L44.2061 30.012L42.2881 24.958H40.6221L43.4221 31.874L42.2041 34.8H43.8281L47.6361 24.958H45.9981ZM57.0636 24.762C56.0136 24.762 55.2016 25.252 54.7256 26.134C54.3196 25.238 53.5356 24.762 52.4716 24.762C51.4496 24.762 50.7356 25.238 50.3296 26.12V24.958H48.7196V32H50.3296V28.752C50.3296 26.946 51.0996 26.134 52.0656 26.134C52.9196 26.134 53.3816 26.764 53.3816 27.702V32H54.9916V28.752C54.9916 26.946 55.7616 26.134 56.7276 26.134C57.5816 26.134 58.0436 26.764 58.0436 27.702V32H59.6536V27.534C59.6536 25.812 58.6736 24.762 57.0636 24.762ZM64.4737 24.762C62.4577 24.762 61.0017 26.302 61.0017 28.5C61.0017 30.726 62.5837 32.14 64.5717 32.14C65.9157 32.14 66.9657 31.482 67.5397 30.488L66.5177 29.774C66.0977 30.404 65.4257 30.824 64.5997 30.824C63.5357 30.824 62.6257 30.124 62.5557 28.878H67.6657C67.9877 26.694 66.6857 24.762 64.4737 24.762ZM64.4457 26.022C65.4117 26.022 66.0837 26.708 66.1817 27.73H62.6117C62.7097 26.694 63.4657 26.022 64.4457 26.022ZM73.0094 24.762C72.0294 24.762 71.2454 25.196 70.7554 26.05V24.958H69.1454V32H70.7554V28.556C70.7554 26.904 71.6094 26.134 72.5894 26.134C73.4714 26.134 74.0034 26.75 74.0034 27.744V32H75.6134V27.534C75.6134 25.826 74.5634 24.762 73.0094 24.762ZM80.7925 30.488C80.5965 30.67 80.3585 30.796 80.0505 30.796C79.6025 30.796 79.3505 30.474 79.3505 29.9V26.33H81.1985V24.958H79.3505V22.69L77.7405 23.39V24.958H76.6205V26.33H77.7405V30.068C77.7405 31.398 78.4545 32.14 79.7425 32.14C80.6105 32.14 81.2265 31.832 81.6325 31.37L80.7925 30.488ZM85.0332 32.14C86.7552 32.14 87.9592 31.272 87.9592 29.9C87.9592 26.96 83.9412 28.36 83.9412 26.778C83.9412 26.288 84.4172 25.966 85.1032 25.966C85.8312 25.966 86.3072 26.386 86.5312 26.988L87.7632 26.582C87.4692 25.476 86.5452 24.762 85.2292 24.762C83.6192 24.762 82.4852 25.588 82.4852 26.932C82.4852 29.928 86.4612 28.556 86.4612 30.082C86.4612 30.586 85.9572 30.908 85.1452 30.908C84.2352 30.908 83.6332 30.432 83.3952 29.662L82.1772 30.068C82.4712 31.398 83.5352 32.14 85.0332 32.14ZM96.2112 24.762C95.2172 24.762 94.4612 25.168 93.9712 25.91V22.2H92.3612V32H93.9712V30.992C94.4612 31.72 95.2032 32.14 96.2112 32.14C98.1152 32.14 99.4592 30.628 99.4592 28.458C99.4592 26.288 98.1292 24.762 96.2112 24.762ZM95.9032 30.768C94.7552 30.768 93.9712 29.816 93.9712 28.458C93.9712 27.086 94.7552 26.134 95.9032 26.134C97.0652 26.134 97.8492 27.086 97.8492 28.458C97.8492 29.816 97.0652 30.768 95.9032 30.768ZM105.156 24.958L103.364 30.012L101.446 24.958H99.7803L102.58 31.874L101.362 34.8H102.986L106.794 24.958H105.156ZM113.156 32.14C114.878 32.14 116.082 31.272 116.082 29.9C116.082 26.96 112.064 28.36 112.064 26.778C112.064 26.288 112.54 25.966 113.226 25.966C113.954 25.966 114.43 26.386 114.654 26.988L115.886 26.582C115.592 25.476 114.668 24.762 113.352 24.762C111.742 24.762 110.608 25.588 110.608 26.932C110.608 29.928 114.584 28.556 114.584 30.082C114.584 30.586 114.08 30.908 113.268 30.908C112.358 30.908 111.756 30.432 111.518 29.662L110.3 30.068C110.594 31.398 111.658 32.14 113.156 32.14ZM120.988 30.488C120.792 30.67 120.554 30.796 120.246 30.796C119.798 30.796 119.546 30.474 119.546 29.9V26.33H121.394V24.958H119.546V22.69L117.936 23.39V24.958H116.816V26.33H117.936V30.068C117.936 31.398 118.65 32.14 119.938 32.14C120.806 32.14 121.422 31.832 121.828 31.37L120.988 30.488ZM125.592 24.762C123.968 24.762 122.806 25.756 122.54 27.184L123.814 27.562C124.094 26.652 124.598 26.162 125.522 26.162C126.39 26.162 126.964 26.736 127.006 27.66L125.144 27.982C123.548 28.262 122.778 28.934 122.778 30.068C122.778 31.314 123.702 32.14 125.032 32.14C125.984 32.14 126.712 31.706 127.132 30.922V32H128.602V27.632C128.602 25.924 127.468 24.762 125.592 24.762ZM125.396 31.006C124.808 31.006 124.388 30.67 124.388 30.11C124.388 29.508 124.85 29.214 125.662 29.06L127.006 28.794V29.032C127.006 30.152 126.334 31.006 125.396 31.006ZM133.785 30.488C133.589 30.67 133.351 30.796 133.043 30.796C132.595 30.796 132.343 30.474 132.343 29.9V26.33H134.191V24.958H132.343V22.69L130.733 23.39V24.958H129.613V26.33H130.733V30.068C130.733 31.398 131.447 32.14 132.735 32.14C133.603 32.14 134.219 31.832 134.625 31.37L133.785 30.488ZM140.293 24.958V28.164C140.293 29.928 139.453 30.768 138.445 30.768C137.577 30.768 137.073 30.152 137.073 29.2V24.958H135.463V29.396C135.463 31.09 136.499 32.14 137.997 32.14C139.019 32.14 139.803 31.664 140.293 30.782V32H141.903V24.958H140.293ZM146.119 32.14C147.841 32.14 149.045 31.272 149.045 29.9C149.045 26.96 145.027 28.36 145.027 26.778C145.027 26.288 145.503 25.966 146.189 25.966C146.917 25.966 147.393 26.386 147.617 26.988L148.849 26.582C148.555 25.476 147.631 24.762 146.315 24.762C144.705 24.762 143.571 25.588 143.571 26.932C143.571 29.928 147.547 28.556 147.547 30.082C147.547 30.586 147.043 30.908 146.231 30.908C145.321 30.908 144.719 30.432 144.481 29.662L143.263 30.068C143.557 31.398 144.621 32.14 146.119 32.14Z" fill="#00473C"></path></svg> 