<?xml version="1.0" encoding="UTF-8"?> <svg xmlns="http://www.w3.org/2000/svg" id="Layer_1" viewBox="0 0 807.91 312.58"><defs><style>.cls-1,.cls-2{stroke-width:0px;}.cls-2{fill-rule:evenodd;}</style></defs><path id="logotype" class="cls-2" d="m0,257v54.66h9.53v-54.66H0Zm62.35,37.79l-29.25-37.79h-8.87v54.66h9.53v-38.84l30.11,38.85h8.02v-54.66h-9.53v37.79Zm64.2-37.79h-40.54v54.66h9.43v-22.2h27.56v-8.68h-27.56v-15.12h31.1v-8.66Zm11.1,0v54.66h9.53v-54.66h-9.53Zm62.4,37.79l-29.22-37.79h-8.9v54.66h9.53v-38.84l30.08,38.85h8.05v-54.66h-9.53v37.79Zm24.14-37.79v54.66h9.53v-54.66h-9.53Zm47.38,8.88h17.32v-8.88h-44.39v8.88h17.32v45.78h9.74v-45.78Zm53.27,24l21.7-32.88h-11.12l-15.45,24.19-15.31-24.19h-11.32l21.72,33.1v21.56h9.68v-21.78h.1Zm75.91,14.21l-19.42-47.17h-6.76l23.5,55.05h5.55l23.53-55.05h-6.66l-19.43,47.15h-.32Zm76.5-47.17h-39.54v54.66h39.92v-5.55h-33.69v-19.14h29.85v-5.55h-29.85v-18.73h33.29v-5.69Zm53.02,43.81l-34.43-43.74h-5.8v54.66h6.02v-44.82l35.32,44.84h4.91v-54.66h-6.02v43.81-.08Zm42.12-38.11h18.37v-5.56h-42.88v5.55h18.34v48.97h6.19v-48.89l-.02-.07Zm74.69-5.56h-6.13v31.77c.38,4.92-1.22,9.78-4.44,13.51-3.21,3.12-7.57,4.77-12.04,4.55-4.59.27-9.08-1.47-12.29-4.76-3.25-3.86-4.87-8.83-4.52-13.86v-31.27h-6.16v31.77c-.06,3.48.5,6.95,1.64,10.24.99,2.8,2.58,5.35,4.66,7.46,2.03,2.03,4.48,3.57,7.19,4.52,2.96,1.05,6.09,1.57,9.24,1.52,3.18.05,6.35-.47,9.35-1.52,2.71-.96,5.16-2.51,7.19-4.55,2.07-2.16,3.65-4.75,4.63-7.58,1.17-3.39,1.73-6.96,1.66-10.54v-31.32l.03.06Zm59.82,54.66l-16.79-22.2c2.05-.36,4.03-1,5.91-1.91,1.74-.84,3.34-1.97,4.72-3.33,1.34-1.34,2.38-2.93,3.08-4.69.78-1.95,1.15-4.03,1.11-6.13.03-2.31-.45-4.59-1.42-6.69-.94-1.99-2.3-3.75-3.99-5.16-1.83-1.49-3.93-2.61-6.19-3.3-2.65-.81-5.41-1.2-8.19-1.17h-23.5v54.66h6.16v-21.22h15.66l15.84,21.22,7.6-.09Zm-8.13-38.07c.03,1.65-.33,3.28-1.05,4.76-.68,1.41-1.69,2.63-2.94,3.58-1.34,1.01-2.85,1.76-4.47,2.22-1.8.53-3.67.79-5.55.78h-16.84v-22.18h16.93c3.66-.24,7.3.74,10.35,2.78,2.45,1.93,3.82,4.93,3.66,8.05l-.09.03Zm58.9-16.65h-39.51v54.66h39.9v-5.55h-33.74v-19.14h29.85v-5.55h-29.85v-18.81h33.29v-5.55l.06-.06Zm17.59,13.6c0-1.22.27-2.43.81-3.53.57-1.09,1.38-2.04,2.36-2.78,1.11-.83,2.34-1.45,3.66-1.86,1.55-.49,3.17-.74,4.8-.72,2.76-.01,5.51.47,8.1,1.42,2.79,1.07,5.39,2.6,7.68,4.52l3.58-4.76c-2.62-2.11-5.56-3.8-8.71-4.99-3.37-1.17-6.92-1.74-10.49-1.66-2.44-.02-4.87.37-7.19,1.14-2.09.69-4.04,1.75-5.74,3.14-1.58,1.3-2.86,2.92-3.75,4.76-.9,1.88-1.36,3.94-1.33,6.02-.05,2.04.33,4.06,1.11,5.94.76,1.7,1.91,3.21,3.36,4.38,1.74,1.37,3.69,2.44,5.77,3.19,2.65,1,5.38,1.79,8.16,2.36,2.41.5,4.78,1.15,7.1,1.97,1.56.51,3.02,1.27,4.33,2.25.96.72,1.73,1.68,2.22,2.78.43,1.11.63,2.3.61,3.5.04,2.67-1.19,5.2-3.33,6.8-2.57,1.85-5.69,2.77-8.85,2.6-3.45.06-6.88-.59-10.07-1.91-3.17-1.44-6.1-3.38-8.66-5.74l-3.83,4.52c3.03,2.79,6.53,5,10.35,6.55,3.83,1.45,7.89,2.16,11.98,2.11,2.55.02,5.08-.34,7.52-1.08,2.14-.65,4.13-1.71,5.86-3.14,3.37-2.79,5.3-6.97,5.24-11.35.17-3.81-1.44-7.48-4.36-9.93-4.01-2.85-8.61-4.74-13.46-5.55-2.53-.48-5.01-1.14-7.44-2-1.62-.53-3.15-1.32-4.52-2.33-.99-.71-1.78-1.66-2.27-2.78-.47-1.22-.68-2.52-.62-3.83h.01Z"></path><circle class="cls-1" cx="397.7" cy="45.88" r="18.5"></circle><path class="cls-1" d="m353.17,211.36c-23.5,0-43.11-21.44-52.91-58.22-13.25-49.77-12.86-94-11.44-115.93.06-.97.12-2.08.19-3.28,1.04-18.74,2.52-32.13,12.18-33.78,6.83-1.17,9.54,4.79,12.41,11.08,4.4,9.64,13.54,29.71,40.4,60.54,30.14,34.6,62.62,50.42,74.76,55.48,7.87-11.7,14.26-21.86,16.43-25.63,6.83-11.85,18.9-32.05,30.42-49.97,22.37-34.8,26.77-36.41,29.69-37.48,2.79-1.02,5.76-.6,8.14,1.17,2.67,1.98,7.63,5.66,5.68,40.97-1.12,20.2-4.5,39.27-11.56,54.06-8.06,16.86-24.08,30.83-40.57,34.42-11.66,2.54-25.4.4-32.52-1.09-6.97,10.08-14.5,20.43-21.11,28.44l-2,2.44c-13.18,16.05-28.11,34.24-54.67,36.62-1.18.11-2.36.16-3.52.16Zm-49.35-187.98c-.45,4.44-.71,9.02-.83,11.32-.07,1.25-.13,2.4-.2,3.4-1.36,21.08-1.74,63.59,11,111.44,3.14,11.79,15.39,50.04,41.65,47.72,20.71-1.86,32.55-16.29,45.09-31.56l2.03-2.46c5.66-6.87,12.03-15.51,18.1-24.17-15.04-6.56-46.99-23.4-77.21-58.09-23.3-26.75-33.98-45.95-39.62-57.59Zm139.24,107.65c6.16.93,14.22,1.55,20.95.09,12.2-2.66,23.87-14.1,30.82-26.57,6.75-12.1,9.3-30.71,10.31-49,.57-10.38.48-17.65.15-22.47-10.56,13.69-31.46,46.92-47.97,75.55-1.99,3.45-7.4,12.08-14.26,22.41Z"></path></svg> 