<?xml version="1.0" encoding="UTF-8"?> <svg xmlns="http://www.w3.org/2000/svg" width="310" height="405" viewBox="0 0 310 405" fill="none"><g clip-path="url(#clip0_1098_12307)"><rect x="5" y="5" width="300" height="650.382" rx="30.5343" fill="white"></rect><rect width="300" height="650.382" transform="translate(5 5)" fill="white"></rect><rect opacity="0.35" x="259.733" y="22.6335" width="18.3206" height="9.1603" rx="2.90076" stroke="#181818" stroke-width="0.763359"></rect><path opacity="0.4" d="M279.123 25.8142V28.8676C279.737 28.609 280.137 28.0074 280.137 27.3409C280.137 26.6744 279.737 26.0728 279.123 25.8142Z" fill="#181818"></path><rect x="260.727" y="23.7786" width="16.0305" height="6.87023" rx="1.9084" fill="#181818"></rect><path fill-rule="evenodd" clip-rule="evenodd" d="M247.191 24.5578C249.09 24.5578 250.916 25.2487 252.292 26.4875C252.396 26.5831 252.561 26.5819 252.663 26.4848L253.654 25.5382C253.705 25.4889 253.734 25.4222 253.734 25.3527C253.733 25.2833 253.704 25.2169 253.651 25.1682C250.04 21.8906 244.342 21.8906 240.731 25.1682C240.679 25.2168 240.649 25.2832 240.648 25.3527C240.648 25.4221 240.677 25.4889 240.728 25.5382L241.719 26.4848C241.821 26.5821 241.987 26.5833 242.09 26.4875C243.467 25.2486 245.293 24.5577 247.191 24.5578ZM247.19 27.7196C248.226 27.7196 249.225 28.103 249.993 28.7954C250.097 28.8936 250.261 28.8915 250.362 28.7906L251.345 27.8021C251.396 27.7503 251.425 27.6799 251.424 27.6068C251.424 27.5337 251.394 27.464 251.341 27.4132C249.002 25.2473 245.38 25.2473 243.041 27.4132C242.988 27.464 242.958 27.5338 242.958 27.6069C242.957 27.68 242.986 27.7503 243.038 27.8021L244.02 28.7906C244.121 28.8915 244.285 28.8936 244.389 28.7954C245.156 28.1034 246.155 27.7201 247.19 27.7196ZM249.115 29.8126C249.117 29.8916 249.088 29.9677 249.037 30.023L247.375 31.8621C247.327 31.9161 247.26 31.9466 247.191 31.9466C247.122 31.9466 247.055 31.9161 247.007 31.8621L245.345 30.023C245.293 29.9676 245.265 29.8915 245.267 29.8126C245.268 29.7336 245.299 29.6589 245.353 29.606C246.414 28.6216 247.968 28.6216 249.029 29.606C249.083 29.6589 249.114 29.7337 249.115 29.8126Z" fill="#181818"></path><path fill-rule="evenodd" clip-rule="evenodd" d="M234.924 23.4923C234.924 23.018 234.56 22.6335 234.11 22.6335H233.296C232.846 22.6335 232.481 23.018 232.481 23.4923V30.9351C232.481 31.4094 232.846 31.7938 233.296 31.7938H234.11C234.56 31.7938 234.924 31.4094 234.924 30.9351V23.4923ZM229.25 24.4656H230.064C230.514 24.4656 230.878 24.8593 230.878 25.345V30.9145C230.878 31.4002 230.514 31.7939 230.064 31.7939H229.25C228.8 31.7939 228.436 31.4002 228.436 30.9145V25.345C228.436 24.8593 228.8 24.4656 229.25 24.4656ZM225.942 26.4503H225.127C224.678 26.4503 224.313 26.8491 224.313 27.3409V30.9033C224.313 31.3951 224.678 31.7938 225.127 31.7938H225.942C226.391 31.7938 226.756 31.3951 226.756 30.9033V27.3409C226.756 26.8491 226.391 26.4503 225.942 26.4503ZM221.896 28.2824H221.082C220.632 28.2824 220.268 28.6754 220.268 29.1603V30.916C220.268 31.4008 220.632 31.7939 221.082 31.7939H221.896C222.346 31.7939 222.71 31.4008 222.71 30.916V29.1603C222.71 28.6754 222.346 28.2824 221.896 28.2824Z" fill="#181818"></path><g clip-path="url(#clip1_1098_12307)"><path d="M48.7148 22.3688C48.06 22.3688 47.4749 22.5082 46.9595 22.787C46.4484 23.0616 46.0471 23.4418 45.7556 23.9276C45.4684 24.4092 45.3247 24.9605 45.3247 25.5814V25.5941C45.3247 26.1686 45.4515 26.684 45.7049 27.1402C45.9626 27.5964 46.3153 27.9555 46.7631 28.2174C47.2109 28.4793 47.7263 28.6103 48.3092 28.6103C48.7316 28.6103 49.0992 28.5469 49.4118 28.4202C49.7286 28.2934 49.9947 28.1266 50.2102 27.9196C50.4256 27.7126 50.5882 27.4887 50.6981 27.2479H50.9198V25.5624H50.5397V25.5751C50.5397 25.9173 50.4594 26.2235 50.2989 26.4939C50.1383 26.7642 49.9208 26.9755 49.6462 27.1275C49.3716 27.2796 49.0611 27.3556 48.7148 27.3556C48.3684 27.3556 48.06 27.2775 47.7896 27.1212C47.5193 26.9649 47.3059 26.7516 47.1496 26.4812C46.9933 26.2066 46.9152 25.8919 46.9152 25.5371V25.5244C46.9152 25.1822 46.9976 24.8739 47.1623 24.5993C47.3271 24.3205 47.5467 24.1008 47.8213 23.9403C48.0959 23.7798 48.3979 23.6995 48.7274 23.6995C49.0696 23.6995 49.3759 23.7819 49.6462 23.9466C49.9208 24.1114 50.1383 24.3353 50.2989 24.6183C50.4594 24.9013 50.5397 25.216 50.5397 25.5624L50.8248 27.0895C50.8248 27.1486 50.8248 27.2099 50.8248 27.2733C50.8248 27.3324 50.8227 27.3937 50.8185 27.457C50.7973 28.04 50.7086 28.5722 50.5523 29.0538C50.4003 29.5312 50.17 29.9135 49.8617 30.2007C49.5575 30.4837 49.1646 30.6253 48.6831 30.6253C48.4169 30.6253 48.1762 30.583 47.9607 30.4985C47.7495 30.4098 47.5679 30.2852 47.4158 30.1247C47.2679 29.9642 47.1539 29.7783 47.0736 29.5671L47.0483 29.5037H45.4451L45.4578 29.5734C45.5592 30.0381 45.7556 30.4521 46.0471 30.8154C46.3428 31.1744 46.7145 31.4574 47.1623 31.6644C47.6143 31.8672 48.1212 31.9686 48.6831 31.9686C49.4477 31.9686 50.1046 31.7743 50.6537 31.3856C51.2071 30.9928 51.6316 30.4309 51.9273 29.7001C52.223 28.9693 52.3709 28.0907 52.3709 27.0642V27.0515C52.3709 26.2235 52.2737 25.5159 52.0794 24.9288C51.8851 24.3374 51.6169 23.8537 51.2747 23.4777C50.9367 23.0975 50.5481 22.8187 50.1088 22.6413C49.6694 22.4597 49.2048 22.3688 48.7148 22.3688ZM55.2477 30.5112C55.5391 30.5112 55.7799 30.4162 55.97 30.2261C56.1601 30.0317 56.2552 29.7952 56.2552 29.5164C56.2552 29.2333 56.1601 28.9968 55.97 28.8067C55.7799 28.6124 55.5391 28.5152 55.2477 28.5152C54.9604 28.5152 54.7196 28.6124 54.5253 28.8067C54.3352 28.9968 54.2402 29.2333 54.2402 29.5164C54.2402 29.7952 54.3352 30.0317 54.5253 30.2261C54.7196 30.4162 54.9604 30.5112 55.2477 30.5112ZM55.2477 25.8095C55.5391 25.8095 55.7799 25.7145 55.97 25.5244C56.1601 25.3301 56.2552 25.0935 56.2552 24.8147C56.2552 24.5317 56.1601 24.2951 55.97 24.105C55.7799 23.9107 55.5391 23.8136 55.2477 23.8136C54.9604 23.8136 54.7196 23.9107 54.5253 24.105C54.3352 24.2951 54.2402 24.5317 54.2402 24.8147C54.2402 25.0935 54.3352 25.3301 54.5253 25.5244C54.7196 25.7145 54.9604 25.8095 55.2477 25.8095ZM62.5599 31.7405H64.1187V29.9853H65.3543V28.6356H64.1187V22.5969H61.8186C61.5651 22.9729 61.3117 23.3594 61.0582 23.7565C60.809 24.1494 60.5576 24.5486 60.3042 24.9541C60.0549 25.3554 59.8036 25.7631 59.5501 26.1771C59.3009 26.5868 59.0538 26.9987 58.8088 27.4127C58.568 27.8267 58.3272 28.2385 58.0864 28.6483V29.9853H62.5599V31.7405ZM59.6072 28.6736V28.5786C59.7846 28.266 59.9683 27.9513 60.1584 27.6344C60.3485 27.3134 60.5407 26.9945 60.735 26.6776C60.9294 26.3566 61.1258 26.0377 61.3243 25.7208C61.5229 25.404 61.7193 25.0935 61.9136 24.7894C62.1122 24.4852 62.3044 24.1895 62.4902 23.9023H62.5853V28.6736H59.6072ZM69.1372 31.7405H70.7657V22.5969H69.1372L66.7484 24.2761V25.8095L69.0231 24.2064H69.1372V31.7405Z" fill="#181818"></path></g><rect x="107.291" y="13.397" width="95.4198" height="28.2443" rx="14.1221" fill="black"></rect><path d="M25.4401 76.458C26.1134 76.1588 26.5088 75.571 26.5088 74.8122C26.5088 73.658 25.579 72.8778 24.1897 72.8778H21.1119V80.3588H24.3393C25.7821 80.3588 26.7119 79.5252 26.7119 78.2855C26.7119 77.3985 26.2416 76.7466 25.4401 76.458ZM25.5042 74.9191C25.5042 75.6137 24.9806 76.0946 24.1683 76.0946H22.1271V73.7435H24.1683C24.9806 73.7435 25.5042 74.2137 25.5042 74.9191ZM24.2752 79.4931H22.1271V76.9389H24.2538C25.1515 76.9389 25.7073 77.4412 25.7073 78.2107C25.7073 78.9801 25.1622 79.4931 24.2752 79.4931ZM30.1369 74.8656C28.9292 74.8656 28.0636 75.603 27.8605 76.6824L28.6407 76.9175C28.8544 76.1374 29.3033 75.7206 30.0941 75.7206C30.8743 75.7206 31.3766 76.2122 31.4086 77.0351L29.9445 77.313C28.6193 77.5588 28.0529 78.0824 28.0529 78.9374C28.0529 79.8672 28.7476 80.4656 29.7415 80.4656C30.5323 80.4656 31.1201 80.0916 31.4621 79.4183V80.3588H32.3598V77.0244C32.3598 75.7313 31.4941 74.8656 30.1369 74.8656ZM29.9231 79.7496C29.3995 79.7496 29.0147 79.4611 29.0147 78.9481C29.0147 78.4244 29.4102 78.1572 30.2865 77.9862L31.4086 77.7832V77.9435C31.4086 79.0015 30.7888 79.7496 29.9231 79.7496ZM36.724 74.8656C35.9225 74.8656 35.3026 75.2397 34.9179 75.9557V74.9939H33.9561V80.3588H34.9179V77.8153C34.9179 76.3939 35.6232 75.6778 36.4996 75.6778C37.269 75.6778 37.7393 76.2122 37.7393 77.0885V80.3588H38.7011V76.971C38.7011 75.6672 37.9103 74.8656 36.724 74.8656ZM44.0151 80.3588H45.1266L43.0426 76.971L44.9449 74.9939H43.748L41.29 77.5588V72.8778H40.3281V80.3588H41.29V78.7878L42.38 77.6443L44.0151 80.3588ZM51.0398 79.3756C50.8795 79.5466 50.6871 79.6641 50.4306 79.6641C50.0459 79.6641 49.8214 79.3862 49.8214 78.8733V75.8061H51.2535V74.9939H49.8214V73.4122L48.8596 73.8183V74.9939H48.0047V75.8061H48.8596V78.9801C48.8596 79.9313 49.3726 80.4656 50.281 80.4656C50.8688 80.4656 51.3069 80.2412 51.5634 79.8778L51.0398 79.3756ZM54.8934 74.8977C54.3056 74.8977 53.8247 75.1862 53.5254 75.9023V74.9939H52.5636V80.3588H53.5254V78.0611C53.5254 76.3939 53.9957 75.774 54.7865 75.774C54.9789 75.774 55.1392 75.8168 55.2674 75.8809L55.5987 75.0794C55.417 74.9725 55.1712 74.8977 54.8934 74.8977ZM58.4604 74.8656C57.2528 74.8656 56.3871 75.603 56.1841 76.6824L56.9642 76.9175C57.178 76.1374 57.6268 75.7206 58.4177 75.7206C59.1978 75.7206 59.7001 76.2122 59.7322 77.0351L58.268 77.313C56.9428 77.5588 56.3764 78.0824 56.3764 78.9374C56.3764 79.8672 57.0711 80.4656 58.065 80.4656C58.8558 80.4656 59.4436 80.0916 59.7856 79.4183V80.3588H60.6833V77.0244C60.6833 75.7313 59.8177 74.8656 58.4604 74.8656ZM58.2467 79.7496C57.723 79.7496 57.3383 79.4611 57.3383 78.9481C57.3383 78.4244 57.7337 78.1572 58.61 77.9862L59.7322 77.7832V77.9435C59.7322 79.0015 59.1123 79.7496 58.2467 79.7496ZM65.0475 74.8656C64.246 74.8656 63.6262 75.2397 63.2414 75.9557V74.9939H62.2796V80.3588H63.2414V77.8153C63.2414 76.3939 63.9468 75.6778 64.8231 75.6778C65.5926 75.6778 66.0628 76.2122 66.0628 77.0885V80.3588H67.0246V76.971C67.0246 75.6672 66.2338 74.8656 65.0475 74.8656ZM70.3723 80.4656C71.6654 80.4656 72.531 79.8244 72.531 78.8305C72.531 76.5756 69.357 77.7725 69.357 76.3618C69.357 75.9023 69.7738 75.603 70.4257 75.603C71.0349 75.603 71.4303 75.9343 71.612 76.4473L72.3707 76.1908C72.1463 75.3786 71.4516 74.8656 70.4898 74.8656C69.2929 74.8656 68.47 75.4748 68.47 76.4473C68.47 78.7343 71.6333 77.5481 71.6333 78.9267C71.6333 79.3969 71.1738 79.7069 70.4364 79.7069C69.6776 79.7069 69.1753 79.3114 68.9723 78.6595L68.2349 78.916C68.4593 79.9099 69.2608 80.4656 70.3723 80.4656ZM75.1668 74.2778C75.1668 73.8397 75.4019 73.5725 75.7653 73.5725C75.9897 73.5725 76.1607 73.6794 76.2783 73.8504L76.9302 73.4549C76.6951 73.0168 76.2783 72.771 75.7546 72.771C74.8248 72.771 74.205 73.3908 74.205 74.3206V74.9939H73.35V75.8061H74.205V80.3588H75.1668V75.8061H76.4599V74.9939H75.1668V74.2778ZM79.9139 74.8656C78.3964 74.8656 77.2956 76.0198 77.2956 77.687C77.2956 79.3862 78.4926 80.4656 79.9781 80.4656C81.0147 80.4656 81.8055 79.9206 82.233 79.1404L81.5811 78.7343C81.2605 79.3007 80.7048 79.6748 79.9994 79.6748C79.091 79.6748 78.3002 79.0656 78.2361 77.8901H82.2971C82.4574 76.2122 81.549 74.8656 79.9139 74.8656ZM79.8926 75.6351C80.7582 75.6351 81.3246 76.2549 81.3994 77.142H78.2681C78.3643 76.2443 79.0269 75.6351 79.8926 75.6351ZM86.0243 74.8977C85.4365 74.8977 84.9556 75.1862 84.6564 75.9023V74.9939H83.6945V80.3588H84.6564V78.0611C84.6564 76.3939 85.1266 75.774 85.9174 75.774C86.1098 75.774 86.2701 75.8168 86.3984 75.8809L86.7297 75.0794C86.548 74.9725 86.3022 74.8977 86.0243 74.8977Z" fill="black"></path><path d="M103.648 80.4656C105.294 80.4656 106.513 79.5466 106.951 78.0504L105.871 77.6977C105.529 78.745 104.771 79.3328 103.68 79.3328C102.206 79.3328 101.222 78.2107 101.222 76.629C101.222 74.9939 102.238 73.8717 103.606 73.8717C104.664 73.8717 105.39 74.4061 105.732 75.432L106.844 75.058C106.384 73.5725 105.209 72.7389 103.616 72.7389C101.522 72.7389 99.94 74.3527 99.94 76.6183C99.94 78.884 101.426 80.4656 103.648 80.4656ZM110.802 74.8656C110.236 74.8656 109.755 75.1435 109.456 75.8275V74.9832H108.227V80.3588H109.456V77.9756C109.456 76.5542 109.894 75.9771 110.653 75.9771C110.856 75.9771 111.016 76.0198 111.144 76.084L111.561 75.0687C111.358 74.9404 111.102 74.8656 110.802 74.8656ZM114.643 74.8336C113.104 74.8336 111.993 76.0091 111.993 77.687C111.993 79.3862 113.2 80.4656 114.718 80.4656C115.744 80.4656 116.545 79.9633 116.983 79.2046L116.203 78.6595C115.883 79.1404 115.37 79.4611 114.739 79.4611C113.927 79.4611 113.232 78.9267 113.179 77.9756H117.08C117.325 76.3084 116.331 74.8336 114.643 74.8336ZM114.622 75.7954C115.359 75.7954 115.872 76.3191 115.947 77.0992H113.222C113.296 76.3084 113.873 75.7954 114.622 75.7954ZM122.324 72.8778V75.6458C121.971 75.1221 121.415 74.8336 120.667 74.8336C119.139 74.8336 118.134 75.9985 118.134 77.6549C118.134 79.3114 119.139 80.4656 120.667 80.4656C121.426 80.4656 121.971 80.1771 122.324 79.6534V80.3588H123.553V72.8778H122.324ZM120.849 79.4183C119.962 79.4183 119.363 78.6916 119.363 77.6549C119.363 76.6076 119.962 75.8809 120.849 75.8809C121.736 75.8809 122.324 76.6076 122.324 77.6549C122.324 78.6916 121.736 79.4183 120.849 79.4183ZM125.158 74.032H126.462V72.803H125.158V74.032ZM125.201 80.3588H126.43V74.9832H125.201V80.3588ZM130.663 79.2046C130.514 79.3435 130.332 79.4397 130.097 79.4397C129.755 79.4397 129.563 79.1939 129.563 78.7557V76.0305H130.973V74.9832H129.563V73.2519L128.334 73.7862V74.9832H127.479V76.0305H128.334V78.884C128.334 79.8992 128.879 80.4656 129.862 80.4656C130.525 80.4656 130.995 80.2305 131.305 79.8778L130.663 79.2046ZM137.128 80.4656C138.304 80.4656 139.17 79.8137 139.533 78.8305L138.56 78.4885C138.261 79.0977 137.834 79.4183 137.128 79.4183C136.284 79.4183 135.664 78.6916 135.664 77.6549C135.664 76.6076 136.295 75.8809 137.128 75.8809C137.791 75.8809 138.197 76.2122 138.422 76.832L139.48 76.5221C139.18 75.4855 138.368 74.8336 137.128 74.8336C135.568 74.8336 134.435 76.0305 134.435 77.7298C134.435 79.3542 135.483 80.4656 137.128 80.4656ZM142.887 74.8336C141.647 74.8336 140.76 75.5924 140.557 76.6824L141.53 76.971C141.744 76.2763 142.128 75.9023 142.834 75.9023C143.496 75.9023 143.934 76.3404 143.967 77.0458L142.545 77.2916C141.327 77.5053 140.739 78.0183 140.739 78.884C140.739 79.8351 141.444 80.4656 142.46 80.4656C143.186 80.4656 143.742 80.1343 144.063 79.5359V80.3588H145.185V77.0244C145.185 75.7206 144.319 74.8336 142.887 74.8336ZM142.738 79.6C142.289 79.6 141.968 79.3435 141.968 78.916C141.968 78.4565 142.321 78.232 142.941 78.1145L143.967 77.9114V78.0931C143.967 78.9481 143.454 79.6 142.738 79.6ZM149.301 74.8656C148.735 74.8656 148.254 75.1435 147.954 75.8275V74.9832H146.725V80.3588H147.954V77.9756C147.954 76.5542 148.393 75.9771 149.151 75.9771C149.354 75.9771 149.515 76.0198 149.643 76.084L150.06 75.0687C149.857 74.9404 149.6 74.8656 149.301 74.8656ZM154.681 72.8778V75.6458C154.328 75.1221 153.772 74.8336 153.024 74.8336C151.496 74.8336 150.491 75.9985 150.491 77.6549C150.491 79.3114 151.496 80.4656 153.024 80.4656C153.783 80.4656 154.328 80.1771 154.681 79.6534V80.3588H155.91V72.8778H154.681ZM153.206 79.4183C152.319 79.4183 151.72 78.6916 151.72 77.6549C151.72 76.6076 152.319 75.8809 153.206 75.8809C154.093 75.8809 154.681 76.6076 154.681 77.6549C154.681 78.6916 154.093 79.4183 153.206 79.4183Z" fill="black"></path><path d="M157.48 86.6488H99.4805V88.1756H157.48V86.6488Z" fill="black" mask="url(#path-11-inside-1_1098_12307)"></path><path fill-rule="evenodd" clip-rule="evenodd" d="M215.329 75.1615C215.017 75.045 214.53 74.9199 213.92 74.9199C212.368 74.9199 211.273 75.6994 211.264 76.8159C211.256 77.6421 212.045 78.102 212.641 78.3774C213.253 78.6585 213.459 78.8383 213.455 79.0897C213.452 79.4749 212.967 79.6508 212.516 79.6508C211.886 79.6508 211.553 79.5641 211.036 79.3495L210.834 79.258L210.613 80.5444C210.981 80.7045 211.659 80.8438 212.364 80.8509C214.016 80.8509 215.088 80.0806 215.1 78.8879C215.106 78.2342 214.688 77.7367 213.781 77.3271C213.231 77.0611 212.895 76.8833 212.899 76.6144C212.899 76.376 213.183 76.1201 213.798 76.1201C214.313 76.1121 214.685 76.2239 214.975 76.3406L215.116 76.4064L215.329 75.1615ZM208.058 80.7657L209.041 75.0202H210.612L209.629 80.7657H208.058ZM218.145 75.0258H219.359L220.631 80.7672H219.172C219.172 80.7672 219.028 80.1075 218.981 79.9064C218.86 79.9064 218.352 79.9058 217.875 79.9052L216.969 79.9042C216.908 80.0595 216.638 80.7672 216.638 80.7672H214.987L217.321 75.5022C217.487 75.1278 217.768 75.0258 218.145 75.0258ZM217.421 78.729C217.551 78.398 218.047 77.1226 218.047 77.1226C218.042 77.13 218.073 77.0511 218.115 76.9433L218.115 76.943C218.159 76.8297 218.215 76.6846 218.255 76.5743L218.361 77.0697L218.726 78.729H217.421ZM205.202 78.9422L206.74 75.0243H208.404L205.931 80.7586L204.268 80.7609L202.861 75.7356C203.859 76.2334 204.751 77.2279 205.038 78.146L205.202 78.9422Z" fill="#1A1F71"></path><path fill-rule="evenodd" clip-rule="evenodd" d="M203.775 75.0205H201.241L201.221 75.1399C203.192 75.6159 204.497 76.765 205.038 78.1461L204.487 75.5054C204.392 75.1415 204.116 75.0331 203.775 75.0205Z" fill="#F9A51A"></path><path fill-rule="evenodd" clip-rule="evenodd" d="M235.714 81.7675C237.904 81.7675 239.679 80.0294 239.679 77.8854C239.679 75.7414 237.904 74.0033 235.714 74.0033C233.524 74.0033 231.748 75.7414 231.748 77.8854C231.748 80.0294 233.524 81.7675 235.714 81.7675Z" fill="#F79E1B"></path><path fill-rule="evenodd" clip-rule="evenodd" d="M230.704 81.7676C232.894 81.7676 234.669 80.0296 234.669 77.8855C234.669 75.7415 232.894 74.0034 230.704 74.0034C228.514 74.0034 226.738 75.7415 226.738 77.8855C226.738 80.0296 228.514 81.7676 230.704 81.7676Z" fill="#EB001B"></path><path fill-rule="evenodd" clip-rule="evenodd" d="M233.209 74.8756C232.317 75.5875 231.748 76.6714 231.748 77.8855C231.748 79.0995 232.317 80.1834 233.209 80.8953C234.1 80.1834 234.67 79.0995 234.67 77.8855C234.67 76.6714 234.1 75.5875 233.209 74.8756Z" fill="#FF5F00"></path><path fill-rule="evenodd" clip-rule="evenodd" d="M249.289 77.4485H250.401L248.738 73.7681H247.453L245.785 77.4485H246.875L247.198 76.6967H248.966L249.289 77.4485ZM253.37 77.4485H252.509L251.486 74.7249V77.4485H250.506V73.7681H252.08L252.953 76.113L253.821 73.7681H255.378V77.4485H254.4V74.7249L253.37 77.4485ZM251.027 78.3224V79.1479H248.847V79.7474H250.977V80.5515H248.847V81.1774H251.027V82.0029H247.857V78.3224H251.027ZM255.393 82.0029H254.153L253.23 80.8617L252.312 82.0029H251.105L252.657 80.1677L251.1 78.3225H252.34L253.257 79.4529L254.175 78.3225H255.382L253.825 80.1469L255.393 82.0029ZM248.076 74.6356L247.537 75.8975H248.621L248.076 74.6356Z" fill="#006FAC"></path><path fill-rule="evenodd" clip-rule="evenodd" d="M286.428 75.7587H287.907C288.379 75.7587 289.319 75.9993 289.319 77.007C289.319 78.0157 288.347 78.2244 288.347 78.2244L289.733 79.9967H288.631L287.407 78.3052H287.313V79.9967H286.428V75.7587ZM287.313 76.4654V77.7023H287.8C288.176 77.7023 288.412 77.3862 288.412 77.1099V77.0569C288.412 76.7812 288.176 76.4654 287.8 76.4654H287.313Z" fill="#2A2D2E"></path><path fill-rule="evenodd" clip-rule="evenodd" d="M278.611 75.7587H279.587L280.836 78.535L282.014 75.7587H282.99L281.082 80.1043H280.52L278.611 75.7587Z" fill="#2A2D2E"></path><path fill-rule="evenodd" clip-rule="evenodd" d="M265.572 79.9967H266.479V75.7587H265.572V79.9967Z" fill="#2A2D2E"></path><path fill-rule="evenodd" clip-rule="evenodd" d="M261.5 75.7585H262.984C263.875 75.7585 265.182 76.5146 265.182 77.8583V77.8739V77.8898C265.182 79.2338 263.875 79.9893 262.984 79.9893H261.5V75.7585ZM262.354 79.2842C262.354 79.2842 264.259 79.4845 264.259 77.91V77.8853C264.259 76.3106 262.354 76.5112 262.354 76.5112V79.2842Z" fill="#2A2D2E"></path><path fill-rule="evenodd" clip-rule="evenodd" d="M285.77 77.4288V78.1763H284.229V79.249H285.841V79.9965H283.328V75.7584H285.841V76.5059H284.229V77.4288H285.77Z" fill="#2A2D2E"></path><path fill-rule="evenodd" clip-rule="evenodd" d="M278.771 77.8986C278.771 79.1121 277.717 80.0956 276.418 80.0956C275.118 80.0956 274.064 79.1121 274.064 77.8986C274.064 76.6848 275.118 75.701 276.418 75.701C277.717 75.701 278.771 76.6848 278.771 77.8986Z" fill="#F16822"></path><path fill-rule="evenodd" clip-rule="evenodd" d="M269.257 76.7358C269.257 76.7358 268.959 76.4148 268.558 76.4148C268.157 76.4148 267.926 76.6638 267.926 76.8452C267.926 77.0261 267.918 77.1285 268.49 77.3513C269.063 77.5748 269.904 77.7352 269.904 78.6791C269.904 79.6223 269.113 80.1011 268.401 80.1011C267.278 80.1011 266.773 79.2972 266.773 79.2972L267.338 78.7693C267.338 78.7693 267.697 79.332 268.322 79.332C268.946 79.332 268.981 78.8878 268.981 78.7418C268.981 78.5255 268.846 78.3116 268.461 78.1796C268.075 78.0468 267.02 77.9137 267.02 76.9637C267.02 76.1107 267.703 75.6879 268.468 75.6879C269.152 75.6879 269.747 76.1879 269.747 76.1879L269.257 76.7358Z" fill="#2A2D2E"></path><path fill-rule="evenodd" clip-rule="evenodd" d="M273.671 76.9118C273.39 76.641 273.004 76.4443 272.569 76.4443C271.717 76.4443 271.026 77.0899 271.026 77.8852C271.026 78.6813 271.717 79.3261 272.569 79.3261C272.999 79.3261 273.391 79.1314 273.671 78.8656L273.671 79.8631C273.34 80.0245 272.967 80.1144 272.569 80.1144C271.25 80.1144 270.182 79.1166 270.182 77.8852C270.182 76.6543 271.25 75.6565 272.569 75.6565C272.968 75.6565 273.34 75.7477 273.671 75.9096V76.9118Z" fill="#2A2D2E"></path><mask id="path-28-inside-2_1098_12307" fill="white"><path d="M20.2676 114.893C20.2676 111.52 23.0017 108.786 26.3744 108.786H283.626C286.999 108.786 289.733 111.52 289.733 114.893V145.427H20.2676V114.893Z"></path></mask><path d="M20.2676 114.893C20.2676 111.52 23.0017 108.786 26.3744 108.786H283.626C286.999 108.786 289.733 111.52 289.733 114.893V145.427H20.2676V114.893Z" fill="white"></path><path d="M34.8011 123.16C34.4469 124.15 33.7629 124.675 32.7003 124.76V125.847C33.5553 125.774 34.1904 125.493 34.6179 124.98V131.71H35.766V123.16H34.8011ZM39.3247 130.696L40.8026 129.646C42.7079 128.302 43.4163 127.032 43.4163 125.725C43.4163 124.076 42.3049 123.014 40.595 123.014C38.8484 123.014 37.7125 124.076 37.7125 125.713C37.7125 126.177 37.798 126.605 37.9446 126.971L38.9705 126.629C38.8728 126.36 38.8118 126.055 38.8118 125.737C38.8118 124.699 39.4957 124.028 40.5461 124.028C41.5843 124.028 42.256 124.711 42.256 125.786C42.256 126.837 41.682 127.887 39.9965 129.096L37.7003 130.757V131.71H43.4896V130.696H39.3247ZM49.0865 127.215C49.9781 126.922 50.4788 126.263 50.4788 125.31C50.4788 123.918 49.4407 123.014 47.8407 123.014C46.2651 123.014 45.2025 123.893 45.0559 125.334L46.0941 125.505C46.2651 124.577 46.8514 123.991 47.7796 123.991C48.7201 123.991 49.3308 124.54 49.3308 125.408C49.3308 126.299 48.6834 126.776 47.5109 126.776H47.059V127.753H47.5842C48.8788 127.753 49.6361 128.302 49.6361 129.316C49.6361 130.244 48.9277 130.843 47.8407 130.843C46.7414 130.843 46.0941 130.305 45.8743 129.377L44.8117 129.56C45.0437 131.002 46.1308 131.832 47.8162 131.832C49.6117 131.832 50.7842 130.867 50.7842 129.389C50.7842 128.278 50.1735 127.533 49.0865 127.215ZM58.2753 128.876H57.1639V123.16H55.9913L51.8753 128.889V129.866H56.0402V131.71H57.1639V129.866H58.2753V128.876ZM56.0646 124.736V128.876H53.1089L56.0646 124.736ZM68.2585 126.006C67.5135 126.006 66.8539 126.275 66.3898 126.739L66.7562 124.162H70.5913V123.16H65.8524L65.1807 127.96L66.1944 128.205C66.4387 127.508 67.086 126.947 68.0142 126.947C69.1257 126.947 69.8829 127.74 69.8829 128.901C69.8829 130.061 69.1379 130.818 68.0387 130.818C67.1104 130.818 66.4997 130.342 66.1578 129.56L65.1684 129.963C65.5715 131.087 66.5974 131.832 67.9898 131.832C69.7974 131.832 71.031 130.647 71.031 128.889C71.031 127.179 69.8829 126.006 68.2585 126.006ZM76.0435 126.165C75.0298 126.165 74.2115 126.629 73.784 127.435V127.423C73.7718 125.224 74.6267 124.003 75.9458 124.003C76.8008 124.003 77.3626 124.54 77.6802 125.518L78.6206 125.224C78.2176 123.759 77.3138 123.014 75.9336 123.014C73.955 123.014 72.6725 124.687 72.6725 127.472C72.6725 130.293 73.9183 131.832 75.9092 131.832C77.668 131.832 78.8405 130.635 78.8405 128.962C78.8405 127.337 77.6802 126.165 76.0435 126.165ZM75.897 130.843C74.8344 130.843 74.0771 130.073 74.0771 128.962C74.0771 127.863 74.8344 127.093 75.8725 127.093C76.9229 127.093 77.6924 127.863 77.6924 128.962C77.6924 130.086 76.984 130.843 75.897 130.843ZM79.9341 123.16V125.127H81.0944V124.162H84.4776C82.6455 126.336 81.7661 128.388 81.7661 131.111V131.71H82.9142V131.099C82.9142 128.131 83.7448 126.421 85.7234 124.064V123.16H79.9341ZM91.2715 127.252C92.102 126.922 92.6028 126.25 92.6028 125.347C92.6028 123.991 91.5158 123.014 89.8669 123.014C88.2303 123.014 87.131 123.991 87.131 125.347C87.131 126.25 87.6318 126.922 88.4623 127.252C87.4608 127.606 86.8501 128.376 86.8501 129.389C86.8501 130.806 88.0593 131.832 89.8669 131.832C91.6868 131.832 92.8837 130.806 92.8837 129.389C92.8837 128.376 92.273 127.606 91.2715 127.252ZM89.8791 124.003C90.844 124.003 91.4791 124.565 91.4791 125.432C91.4791 126.275 90.844 126.788 89.8791 126.788C88.8898 126.788 88.2547 126.275 88.2547 125.432C88.2547 124.565 88.8898 124.003 89.8791 124.003ZM89.8669 130.843C88.7432 130.843 87.9982 130.232 87.9982 129.316C87.9982 128.388 88.7432 127.74 89.8669 127.74C90.9906 127.74 91.7356 128.388 91.7356 129.316C91.7356 130.232 90.9906 130.843 89.8669 130.843ZM102.573 123.014C100.85 123.014 99.6291 124.211 99.6291 125.872C99.6291 127.521 100.789 128.681 102.426 128.681C103.44 128.681 104.246 128.229 104.686 127.423C104.698 129.621 103.855 130.843 102.536 130.843C101.669 130.843 101.107 130.293 100.789 129.304L99.8612 129.621C100.252 131.087 101.168 131.832 102.548 131.832C104.527 131.832 105.797 130.159 105.797 127.35C105.797 124.589 104.588 123.014 102.573 123.014ZM102.609 127.753C101.559 127.753 100.777 126.983 100.777 125.884C100.777 124.76 101.51 124.003 102.585 124.003C103.647 124.003 104.392 124.773 104.392 125.884C104.392 126.983 103.635 127.753 102.609 127.753ZM110.689 131.832C112.79 131.832 113.95 130.257 113.95 127.435C113.95 124.589 112.79 123.014 110.689 123.014C108.588 123.014 107.416 124.589 107.416 127.435C107.416 130.257 108.588 131.832 110.689 131.832ZM110.689 130.818C109.333 130.818 108.576 129.609 108.576 127.435C108.576 125.237 109.333 124.028 110.689 124.028C112.033 124.028 112.802 125.237 112.802 127.435C112.802 129.609 112.033 130.818 110.689 130.818ZM117.205 123.16C116.85 124.15 116.167 124.675 115.104 124.76V125.847C115.959 125.774 116.594 125.493 117.021 124.98V131.71H118.17V123.16H117.205ZM121.728 130.696L123.206 129.646C125.112 128.302 125.82 127.032 125.82 125.725C125.82 124.076 124.709 123.014 122.999 123.014C121.252 123.014 120.116 124.076 120.116 125.713C120.116 126.177 120.202 126.605 120.348 126.971L121.374 126.629C121.276 126.36 121.215 126.055 121.215 125.737C121.215 124.699 121.899 124.028 122.95 124.028C123.988 124.028 124.66 124.711 124.66 125.786C124.66 126.837 124.086 127.887 122.4 129.096L120.104 130.757V131.71H125.893V130.696H121.728ZM136.964 127.215C137.856 126.922 138.357 126.263 138.357 125.31C138.357 123.918 137.319 123.014 135.719 123.014C134.143 123.014 133.08 123.893 132.934 125.334L133.972 125.505C134.143 124.577 134.729 123.991 135.657 123.991C136.598 123.991 137.209 124.54 137.209 125.408C137.209 126.299 136.561 126.776 135.389 126.776H134.937V127.753H135.462C136.757 127.753 137.514 128.302 137.514 129.316C137.514 130.244 136.806 130.843 135.719 130.843C134.619 130.843 133.972 130.305 133.752 129.377L132.69 129.56C132.922 131.002 134.009 131.832 135.694 131.832C137.49 131.832 138.662 130.867 138.662 129.389C138.662 128.278 138.051 127.533 136.964 127.215ZM146.153 128.876H145.042V123.16H143.869L139.753 128.889V129.866H143.918V131.71H145.042V129.866H146.153V128.876ZM143.942 124.736V128.876H140.987L143.942 124.736ZM150.662 126.006C149.917 126.006 149.258 126.275 148.793 126.739L149.16 124.162H152.995V123.16H148.256L147.584 127.96L148.598 128.205C148.842 127.508 149.49 126.947 150.418 126.947C151.529 126.947 152.287 127.74 152.287 128.901C152.287 130.061 151.542 130.818 150.442 130.818C149.514 130.818 148.903 130.342 148.561 129.56L147.572 129.963C147.975 131.087 149.001 131.832 150.393 131.832C152.201 131.832 153.435 130.647 153.435 128.889C153.435 127.179 152.287 126.006 150.662 126.006ZM158.447 126.165C157.433 126.165 156.615 126.629 156.188 127.435V127.423C156.175 125.224 157.03 124.003 158.349 124.003C159.204 124.003 159.766 124.54 160.084 125.518L161.024 125.224C160.621 123.759 159.717 123.014 158.337 123.014C156.359 123.014 155.076 124.687 155.076 127.472C155.076 130.293 156.322 131.832 158.313 131.832C160.072 131.832 161.244 130.635 161.244 128.962C161.244 127.337 160.084 126.165 158.447 126.165ZM158.301 130.843C157.238 130.843 156.481 130.073 156.481 128.962C156.481 127.863 157.238 127.093 158.276 127.093C159.327 127.093 160.096 127.863 160.096 128.962C160.096 130.086 159.388 130.843 158.301 130.843Z" fill="black" fill-opacity="0.4"></path><path d="M19.5042 114.893C19.5042 111.099 22.5801 108.023 26.3744 108.023H283.626C287.421 108.023 290.497 111.099 290.497 114.893H288.97C288.97 111.942 286.577 109.55 283.626 109.55H26.3744C23.4233 109.55 21.0309 111.942 21.0309 114.893H19.5042ZM290.497 145.809H19.5042L21.0309 145.046H288.97L290.497 145.809ZM19.5042 145.809V114.893C19.5042 111.099 22.5801 108.023 26.3744 108.023V109.55C23.4233 109.55 21.0309 111.942 21.0309 114.893V145.046L19.5042 145.809ZM283.626 108.023C287.421 108.023 290.497 111.099 290.497 114.893V145.809L288.97 145.046V114.893C288.97 111.942 286.577 109.55 283.626 109.55V108.023Z" fill="black" fill-opacity="0.2" mask="url(#path-28-inside-2_1098_12307)"></path><mask id="path-31-inside-3_1098_12307" fill="white"><path d="M20.2676 145.427H155V182.069H26.3745C23.0017 182.069 20.2676 179.335 20.2676 175.962V145.427Z"></path></mask><path d="M20.2676 145.427H155V182.069H26.3745C23.0017 182.069 20.2676 179.335 20.2676 175.962V145.427Z" fill="white"></path><path d="M43.5962 159.802L40.8848 167.142L38.1855 159.802H36.5V168.351H37.6237V161.182L40.2741 168.351H41.4832L44.1581 161.121V168.351H45.2695V159.802H43.5962ZM54.5514 159.802L51.8399 167.142L49.1407 159.802H47.4552V168.351H48.5789V161.182L51.2292 168.351H52.4384L55.1132 161.121V168.351H56.2247V159.802H54.5514ZM60.3047 170.794H61.465L65.9719 159.802H64.8116L60.3047 170.794ZM75.2846 159.802L72.9151 163.857L70.5212 159.802H69.251L72.3044 164.882V168.351H73.4647V164.882L76.5548 159.802H75.2846ZM83.1744 159.802L80.8049 163.857L78.411 159.802H77.1408L80.1942 164.882V168.351H81.3545V164.882L84.4446 159.802H83.1744Z" fill="black" fill-opacity="0.4"></path><path d="M19.5042 145.046H155.382L154.619 145.809H21.0309L19.5042 145.046ZM155.382 182.832H26.3744C22.5801 182.832 19.5042 179.756 19.5042 175.962H21.0309C21.0309 178.913 23.4233 181.305 26.3744 181.305H154.619L155.382 182.832ZM26.3744 182.832C22.5801 182.832 19.5042 179.756 19.5042 175.962V145.046L21.0309 145.809V175.962C21.0309 178.913 23.4233 181.305 26.3744 181.305V182.832ZM155.382 145.046V182.832L154.619 181.305V145.809L155.382 145.046Z" fill="black" fill-opacity="0.2" mask="url(#path-31-inside-3_1098_12307)"></path><mask id="path-34-inside-4_1098_12307" fill="white"><path d="M155 145.427H289.733V175.962C289.733 179.335 286.999 182.069 283.626 182.069H155V145.427Z"></path></mask><path d="M155 145.427H289.733V175.962C289.733 179.335 286.999 182.069 283.626 182.069H155V145.427Z" fill="white"></path><path d="M175.019 168.473C176.839 168.473 178.17 167.484 178.707 165.847L177.755 165.505C177.327 166.739 176.374 167.46 175.055 167.46C173.248 167.46 171.99 166.067 171.99 164.089C171.99 162.073 173.26 160.669 174.97 160.669C176.24 160.669 177.156 161.341 177.584 162.525L178.573 162.183C178.023 160.583 176.729 159.655 174.982 159.655C172.613 159.655 170.829 161.499 170.829 164.089C170.829 166.678 172.539 168.473 175.019 168.473ZM186.071 159.802L183.396 167.093L180.648 159.802H179.402L182.736 168.351H184.031L187.292 159.802H186.071ZM192.146 168.473C193.966 168.473 195.297 167.484 195.835 165.847L194.882 165.505C194.455 166.739 193.502 167.46 192.183 167.46C190.375 167.46 189.117 166.067 189.117 164.089C189.117 162.073 190.387 160.669 192.097 160.669C193.367 160.669 194.284 161.341 194.711 162.525L195.7 162.183C195.151 160.583 193.856 159.655 192.109 159.655C189.74 159.655 187.957 161.499 187.957 164.089C187.957 166.678 189.667 168.473 192.146 168.473Z" fill="black" fill-opacity="0.4"></path><g opacity="0.65"><path fill-rule="evenodd" clip-rule="evenodd" d="M266.069 158.504C263.173 158.504 260.825 160.852 260.825 163.748C260.825 166.644 263.173 168.992 266.069 168.992C268.966 168.992 271.314 166.644 271.314 163.748C271.314 160.852 268.966 158.504 266.069 158.504ZM259.863 163.748C259.863 160.321 262.642 157.542 266.069 157.542C269.497 157.542 272.275 160.321 272.275 163.748C272.275 167.176 269.497 169.954 266.069 169.954C262.642 169.954 259.863 167.176 259.863 163.748ZM266.069 167.565C266.465 167.565 266.785 167.244 266.785 166.849C266.785 166.454 266.465 166.134 266.069 166.134C265.674 166.134 265.354 166.454 265.354 166.849C265.354 167.244 265.674 167.565 266.069 167.565ZM266.488 160.45C266.072 160.367 265.64 160.409 265.248 160.572C264.855 160.734 264.52 161.01 264.284 161.363C264.048 161.716 263.922 162.131 263.922 162.555C263.922 162.819 264.136 163.032 264.4 163.032C264.663 163.032 264.877 162.819 264.877 162.555C264.877 162.319 264.947 162.089 265.078 161.893C265.209 161.697 265.395 161.544 265.613 161.453C265.831 161.363 266.071 161.339 266.302 161.386C266.533 161.432 266.746 161.545 266.913 161.712C267.08 161.879 267.193 162.091 267.239 162.323C267.285 162.554 267.262 162.794 267.171 163.012C267.081 163.23 266.928 163.416 266.732 163.547C266.536 163.678 266.305 163.748 266.069 163.748C265.943 163.748 265.822 163.798 265.732 163.888C265.643 163.977 265.592 164.099 265.592 164.225V164.702C265.592 164.966 265.806 165.179 266.069 165.179C266.333 165.179 266.546 164.966 266.546 164.702V164.649C266.801 164.591 267.043 164.487 267.262 164.34C267.615 164.105 267.89 163.769 268.053 163.377C268.215 162.985 268.258 162.553 268.175 162.137C268.092 161.72 267.888 161.337 267.588 161.037C267.287 160.737 266.905 160.532 266.488 160.45Z" fill="black"></path></g><path d="M154.618 145.046H290.496L288.969 145.809H155.382L154.618 145.046ZM290.496 175.962C290.496 179.756 287.42 182.832 283.626 182.832H154.618L155.382 181.305H283.626C286.577 181.305 288.969 178.913 288.969 175.962H290.496ZM154.618 182.832V145.046L155.382 145.809V181.305L154.618 182.832ZM290.496 145.046V175.962C290.496 179.756 287.42 182.832 283.626 182.832V181.305C286.577 181.305 288.969 178.913 288.969 175.962V145.809L290.496 145.046Z" fill="black" fill-opacity="0.2" mask="url(#path-34-inside-4_1098_12307)"></path><path d="M24.489 206.153C26.3057 206.153 27.6096 205.223 27.834 203.385H26.4447C26.2951 204.464 25.547 204.998 24.489 204.998C23.0783 204.998 22.2554 203.983 22.2554 202.263V202.177C22.2554 200.467 23.1317 199.42 24.4783 199.42C25.579 199.42 26.1454 199.943 26.3057 200.959H27.7485C27.5775 199.163 26.2202 198.287 24.4676 198.287C22.3409 198.287 20.7592 199.89 20.7592 202.188V202.273C20.7592 204.624 22.0951 206.153 24.489 206.153ZM31.4591 205.148C30.4759 205.148 29.9095 204.432 29.9095 203.289V203.203C29.9095 202.049 30.4973 201.354 31.4591 201.354C32.421 201.354 32.9981 202.06 32.9981 203.214V203.289C32.9981 204.432 32.421 205.148 31.4591 205.148ZM31.4485 206.153C33.0943 206.153 34.3233 205.02 34.3233 203.278V203.192C34.3233 201.482 33.0943 200.339 31.4591 200.339C29.8133 200.339 28.5843 201.493 28.5843 203.224V203.31C28.5843 205.009 29.8027 206.153 31.4485 206.153ZM37.3619 206.153C38.2703 206.153 38.8581 205.714 39.1359 205.169V206.046H40.4291V200.456H39.1359V203.78C39.1359 204.667 38.5268 205.116 37.8321 205.116C37.084 205.116 36.7314 204.731 36.7314 203.887V200.456H35.4382V204.037C35.4382 205.522 36.2611 206.153 37.3619 206.153ZM41.9623 206.046H43.2554V202.754C43.2554 201.867 43.8432 201.418 44.5699 201.418C45.3394 201.418 45.6814 201.803 45.6814 202.647V206.046H46.9745V202.53C46.9745 200.991 46.1837 200.339 45.0616 200.339C44.1425 200.339 43.5226 200.798 43.2554 201.343V200.456H41.9623V206.046ZM50.3666 206.142C50.762 206.142 51.0399 206.078 51.2429 206.003V204.977C51.0612 205.052 50.8689 205.084 50.6124 205.084C50.2063 205.084 49.9712 204.86 49.9712 204.368V201.429H51.2002V200.456H49.9712V199.227H48.678V200.456H47.9299V201.429H48.678V204.485C48.678 205.543 49.2551 206.142 50.3666 206.142ZM52.4093 206.046H53.7024V203.139C53.7024 201.953 54.3864 201.589 55.5192 201.579V200.371C54.5788 200.382 54.0551 200.798 53.7024 201.504V200.456H52.4093V206.046ZM57.329 207.959H58.6008L61.6466 200.456H60.3855L59.0175 204.058L57.5321 200.456H56.1321L58.3443 205.479L57.329 207.959Z" fill="black"></path><rect x="20.2676" y="215.626" width="269.466" height="36.6412" rx="6.10687" fill="white"></rect><path d="M39.2115 238.832C41.1901 238.832 42.5214 237.867 42.5214 236.292C42.5214 232.811 37.4283 234.753 37.4283 232.383C37.4283 231.589 38.1367 230.991 39.2359 230.991C40.2252 230.991 40.9458 231.54 41.2512 232.408L42.2771 232.102C41.8985 230.832 40.8481 230.014 39.3092 230.014C37.5382 230.014 36.3413 231.015 36.3413 232.481C36.3413 235.95 41.3978 233.995 41.3978 236.426C41.3978 237.281 40.555 237.855 39.2848 237.855C38.0878 237.855 37.2817 237.232 36.9886 236.121L35.9871 236.426C36.3168 237.904 37.4771 238.832 39.2115 238.832ZM46.7153 232.432C44.981 232.432 43.7229 233.751 43.7229 235.657C43.7229 237.599 45.0909 238.832 46.7886 238.832C47.9733 238.832 48.8771 238.209 49.3657 237.318L48.6207 236.853C48.2542 237.501 47.6191 237.928 46.813 237.928C45.7748 237.928 44.871 237.232 44.7977 235.889H49.439C49.6222 233.971 48.584 232.432 46.7153 232.432ZM46.6909 233.311C47.6802 233.311 48.3275 234.02 48.413 235.034H44.8344C44.9443 234.008 45.7016 233.311 46.6909 233.311ZM51.0727 238.71H52.1719V230.16H51.0727V238.71ZM56.7936 232.432C55.0592 232.432 53.8012 233.751 53.8012 235.657C53.8012 237.599 55.1691 238.832 56.8668 238.832C58.0516 238.832 58.9554 238.209 59.4439 237.318L58.6989 236.853C58.3325 237.501 57.6974 237.928 56.8913 237.928C55.8531 237.928 54.9493 237.232 54.876 235.889H59.5172C59.7004 233.971 58.6623 232.432 56.7936 232.432ZM56.7691 233.311C57.7584 233.311 58.4058 234.02 58.4913 235.034H54.9126C55.0226 234.008 55.7798 233.311 56.7691 233.311ZM63.8013 238.832C65.1081 238.832 66.0852 238.099 66.5005 236.976L65.6211 236.646C65.2669 237.464 64.6929 237.904 63.8135 237.904C62.702 237.904 61.8837 236.976 61.8837 235.632C61.8837 234.276 62.702 233.36 63.8013 233.36C64.6562 233.36 65.2181 233.812 65.4868 234.643L66.4394 234.35C66.0852 233.165 65.1692 232.432 63.8135 232.432C62.0669 232.432 60.7845 233.776 60.7845 235.693C60.7845 237.574 62.0059 238.832 63.8013 238.832ZM70.7988 237.586C70.6156 237.782 70.3957 237.916 70.1026 237.916C69.6629 237.916 69.4064 237.599 69.4064 237.012V233.507H71.0431V232.579H69.4064V230.771L68.3072 231.235V232.579H67.3301V233.507H68.3072V237.134C68.3072 238.221 68.8935 238.832 69.9316 238.832C70.6034 238.832 71.1041 238.576 71.3973 238.16L70.7988 237.586Z" fill="black" fill-opacity="0.4"></path><path d="M275.231 233.183L271.414 237L267.598 233.183" stroke="black" stroke-width="1.22137" stroke-linecap="round" stroke-linejoin="round"></path><rect x="20.6493" y="216.008" width="268.702" height="35.8779" rx="5.72519" stroke="black" stroke-opacity="0.2" stroke-width="0.763359"></rect><path d="M22.1592 276.24L26.4019 270.714V269.763H20.8447V270.768H25.0233L20.7699 276.293V277.244H26.4447V276.24H22.1592ZM27.7177 277.244H28.8612V269.763H27.7177V277.244ZM33.4859 269.763H30.5042V277.244H31.6478V274.391H33.4325C35.0462 274.391 36.0187 273.472 36.0187 272.04C36.0187 270.64 35.0676 269.763 33.4859 269.763ZM33.4645 273.386H31.6478V270.768H33.4111C34.3623 270.768 34.8752 271.26 34.8752 272.072C34.8752 272.884 34.3729 273.386 33.4645 273.386ZM41.6096 277.351C42.7745 277.351 43.6295 276.699 43.9928 275.727L43.1272 275.406C42.8173 276.069 42.3577 276.421 41.6203 276.421C40.7119 276.421 40.0387 275.652 40.0387 274.54C40.0387 273.429 40.7119 272.66 41.6096 272.66C42.315 272.66 42.7638 273.023 42.999 273.696L43.9394 273.418C43.6295 272.382 42.828 271.74 41.6203 271.74C40.0707 271.74 38.9486 272.916 38.9486 274.615C38.9486 276.24 40.0066 277.351 41.6096 277.351ZM47.4969 277.351C49.0572 277.351 50.222 276.165 50.222 274.53C50.222 272.905 49.0572 271.74 47.5075 271.74C45.9472 271.74 44.793 272.927 44.793 274.551C44.793 276.186 45.9472 277.351 47.4969 277.351ZM47.5182 276.421C46.5671 276.421 45.8831 275.663 45.8831 274.54C45.8831 273.429 46.5457 272.66 47.4969 272.66C48.448 272.66 49.132 273.429 49.132 274.551C49.132 275.663 48.4587 276.421 47.5182 276.421ZM55.3081 269.763V272.617C54.9448 272.061 54.357 271.74 53.5769 271.74C52.0593 271.74 51.0654 272.895 51.0654 274.54C51.0654 276.197 52.0593 277.351 53.5769 277.351C54.3677 277.351 54.9448 277.031 55.3081 276.475V277.244H56.3982V269.763H55.3081ZM53.7372 276.421C52.786 276.421 52.1555 275.652 52.1555 274.54C52.1555 273.429 52.786 272.66 53.7372 272.66C54.6883 272.66 55.3081 273.429 55.3081 274.54C55.3081 275.652 54.6883 276.421 53.7372 276.421ZM60.2068 271.74C58.6786 271.74 57.5778 272.905 57.5778 274.573C57.5778 276.272 58.7748 277.351 60.2709 277.351C61.3076 277.351 62.0984 276.827 62.5366 276.058L61.8206 275.577C61.4999 276.111 60.9656 276.453 60.2923 276.453C59.4267 276.453 58.6893 275.887 58.6358 274.818H62.6114C62.8144 273.151 61.8633 271.74 60.2068 271.74ZM60.1854 272.595C60.987 272.595 61.532 273.162 61.6068 273.995H58.6679C58.7534 273.151 59.3839 272.595 60.1854 272.595Z" fill="black"></path><rect x="20.2676" y="285.824" width="269.466" height="36.6412" rx="6.10687" fill="white"></rect><path d="M37.8558 299.595C37.5016 300.585 36.8176 301.11 35.755 301.195V302.282C36.61 302.209 37.2451 301.928 37.6726 301.415V308.145H38.8207V299.595H37.8558ZM42.3794 307.131L43.8573 306.081C45.7626 304.737 46.471 303.467 46.471 302.16C46.471 300.511 45.3596 299.449 43.6497 299.449C41.9031 299.449 40.7672 300.511 40.7672 302.148C40.7672 302.612 40.8527 303.04 40.9993 303.406L42.0252 303.064C41.9275 302.795 41.8665 302.49 41.8665 302.173C41.8665 301.134 42.5504 300.463 43.6008 300.463C44.639 300.463 45.3107 301.147 45.3107 302.221C45.3107 303.272 44.7367 304.322 43.0512 305.531L40.755 307.192V308.145H46.5443V307.131H42.3794ZM52.1412 303.65C53.0328 303.357 53.5335 302.698 53.5335 301.745C53.5335 300.353 52.4954 299.449 50.8954 299.449C49.3198 299.449 48.2572 300.328 48.1106 301.769L49.1488 301.94C49.3198 301.012 49.9061 300.426 50.8343 300.426C51.7748 300.426 52.3854 300.976 52.3854 301.843C52.3854 302.734 51.7381 303.211 50.5656 303.211H50.1137V304.188H50.6389C51.9335 304.188 52.6908 304.737 52.6908 305.751C52.6908 306.679 51.9824 307.278 50.8954 307.278C49.7961 307.278 49.1488 306.74 48.929 305.812L47.8664 305.995C48.0984 307.437 49.1854 308.267 50.8709 308.267C52.6664 308.267 53.8389 307.302 53.8389 305.824C53.8389 304.713 53.2282 303.968 52.1412 303.65ZM61.33 305.311H60.2185V299.595H59.046L54.93 305.324V306.301H59.0949V308.145H60.2185V306.301H61.33V305.311ZM59.1193 301.171V305.311H56.1636L59.1193 301.171ZM65.839 302.441C65.0939 302.441 64.4344 302.71 63.9703 303.174L64.3367 300.597H68.1718V299.595H63.4329L62.7611 304.395L63.7748 304.64C64.0191 303.943 64.6664 303.382 65.5947 303.382C66.7061 303.382 67.4634 304.176 67.4634 305.336C67.4634 306.496 66.7184 307.253 65.6191 307.253C64.6909 307.253 64.0802 306.777 63.7382 305.995L62.7489 306.398C63.1519 307.522 64.1779 308.267 65.5703 308.267C67.3779 308.267 68.6115 307.082 68.6115 305.324C68.6115 303.614 67.4634 302.441 65.839 302.441Z" fill="black" fill-opacity="0.4"></path><rect x="20.6493" y="286.206" width="268.702" height="35.8779" rx="5.72519" stroke="black" stroke-opacity="0.2" stroke-width="0.763359"></rect><rect x="20.2676" y="343.87" width="269.466" height="36.6412" rx="6.10687" fill="black"></rect><path fill-rule="evenodd" clip-rule="evenodd" d="M107.871 359.01C107.871 357.341 109.224 355.988 110.893 355.988C112.562 355.988 113.915 357.341 113.915 359.01V360.282H107.871V359.01ZM106.917 360.282V359.01C106.917 356.814 108.697 355.034 110.893 355.034C113.089 355.034 114.869 356.814 114.869 359.01V360.282H115.982C116.334 360.282 116.618 360.567 116.618 360.918V367.28C116.618 367.631 116.334 367.916 115.982 367.916H105.804C105.453 367.916 105.168 367.631 105.168 367.28V360.918C105.168 360.567 105.453 360.282 105.804 360.282H106.917Z" fill="white"></path><path d="M132.036 357.641H128.628V366.191H129.935V362.93H131.975C133.819 362.93 134.93 361.879 134.93 360.243C134.93 358.643 133.843 357.641 132.036 357.641ZM132.011 361.782H129.935V358.789H131.95C133.037 358.789 133.623 359.351 133.623 360.279C133.623 361.207 133.049 361.782 132.011 361.782ZM138.327 359.901C136.934 359.901 135.92 360.743 135.688 361.989L136.69 362.282C136.934 361.452 137.41 360.988 138.265 360.988C139.096 360.988 139.633 361.525 139.67 362.404L138.021 362.698C136.568 362.966 135.908 363.553 135.908 364.542C135.908 365.617 136.702 366.313 137.862 366.313C138.73 366.313 139.377 365.91 139.756 365.189V366.191H140.904V362.38C140.904 360.89 139.914 359.901 138.327 359.901ZM138.119 365.409C137.557 365.409 137.154 365.104 137.154 364.566C137.154 363.992 137.581 363.711 138.449 363.553L139.67 363.32V363.516C139.67 364.615 139.023 365.409 138.119 365.409ZM146.152 360.047L144.504 364.688L142.72 360.047H141.426L143.881 366.142L142.855 368.633H144.113L147.423 360.047H146.152ZM156.983 363.723C156.983 361.891 155.529 361.574 154.186 361.317V358.618C154.882 358.777 155.358 359.253 155.59 359.949L156.751 359.62C156.396 358.447 155.517 357.653 154.186 357.507V356.444H153.294V357.507C151.767 357.665 150.729 358.63 150.729 360.011C150.729 361.745 152.024 362.123 153.294 362.368V365.226C152.366 365.091 151.755 364.517 151.523 363.528L150.363 363.858C150.644 365.299 151.657 366.191 153.294 366.301V367.375H154.186V366.288C155.871 366.117 156.983 365.177 156.983 363.723ZM151.938 359.888C151.938 359.217 152.451 358.691 153.294 358.582V361.134C152.525 360.951 151.938 360.658 151.938 359.888ZM154.186 365.226V362.551C155.053 362.746 155.749 363.027 155.749 363.894C155.749 364.603 155.138 365.104 154.186 365.226ZM159.754 357.641C159.4 358.618 158.703 359.131 157.604 359.229V360.45C158.459 360.389 159.082 360.133 159.522 359.644V366.191H160.829V357.641H159.754ZM162.504 364.786V366.191H163.334V366.63C163.334 366.96 163.151 367.168 162.858 367.168C162.675 367.168 162.504 367.143 162.357 367.046L162.101 367.473C162.308 367.62 162.565 367.693 162.858 367.693C163.518 367.693 163.945 367.241 163.945 366.545V364.786H162.504ZM166.535 357.641C166.181 358.618 165.484 359.131 164.385 359.229V360.45C165.24 360.389 165.863 360.133 166.303 359.644V366.191H167.61V357.641H166.535ZM172.521 366.313C174.647 366.313 175.819 364.737 175.819 361.904C175.819 359.07 174.647 357.482 172.521 357.482C170.396 357.482 169.224 359.07 169.224 361.904C169.224 364.737 170.396 366.313 172.521 366.313ZM172.521 365.165C171.239 365.165 170.518 364.004 170.518 361.904C170.518 359.803 171.239 358.63 172.521 358.63C173.804 358.63 174.525 359.803 174.525 361.904C174.525 364.004 173.804 365.165 172.521 365.165ZM180.343 366.313C182.468 366.313 183.641 364.737 183.641 361.904C183.641 359.07 182.468 357.482 180.343 357.482C178.218 357.482 177.045 359.07 177.045 361.904C177.045 364.737 178.218 366.313 180.343 366.313ZM180.343 365.165C179.061 365.165 178.34 364.004 178.34 361.904C178.34 359.803 179.061 358.63 180.343 358.63C181.625 358.63 182.346 359.803 182.346 361.904C182.346 364.004 181.625 365.165 180.343 365.165ZM184.928 366.191H186.357V364.774H184.928V366.191ZM190.941 366.313C193.066 366.313 194.239 364.737 194.239 361.904C194.239 359.07 193.066 357.482 190.941 357.482C188.816 357.482 187.643 359.07 187.643 361.904C187.643 364.737 188.816 366.313 190.941 366.313ZM190.941 365.165C189.658 365.165 188.938 364.004 188.938 361.904C188.938 359.803 189.658 358.63 190.941 358.63C192.223 358.63 192.944 359.803 192.944 361.904C192.944 364.004 192.223 365.165 190.941 365.165ZM198.762 366.313C200.888 366.313 202.06 364.737 202.06 361.904C202.06 359.07 200.888 357.482 198.762 357.482C196.637 357.482 195.465 359.07 195.465 361.904C195.465 364.737 196.637 366.313 198.762 366.313ZM198.762 365.165C197.48 365.165 196.759 364.004 196.759 361.904C196.759 359.803 197.48 358.63 198.762 358.63C200.045 358.63 200.765 359.803 200.765 361.904C200.765 364.004 200.045 365.165 198.762 365.165Z" fill="white"></path></g><rect x="2.5" y="2.5" width="305" height="655.382" rx="33.0343" stroke="#222020" stroke-width="5"></rect><defs><clipPath id="clip0_1098_12307"><rect x="5" y="5" width="300" height="650.382" rx="30.5343" fill="white"></rect></clipPath><clipPath id="clip1_1098_12307"><rect width="41.2214" height="16.7939" fill="white" transform="translate(37.8242 18.7405)"></rect></clipPath></defs></svg> 