<?xml version="1.0" encoding="UTF-8"?> <svg xmlns="http://www.w3.org/2000/svg" width="222" height="74" viewBox="0 0 222 74" fill="none"><rect y="0.982422" width="222" height="73" rx="8" fill="white"></rect><path d="M15.328 26.1124C17.122 26.1124 18.214 24.9684 18.214 23.0964V16.8824H16.979V23.2134C16.979 24.3314 16.368 25.0204 15.367 25.0204C14.327 25.0204 13.69 24.3184 13.69 23.0444V22.4594H12.52V23.1874C12.52 25.0074 13.586 26.1124 15.328 26.1124ZM23.3335 26.1124C25.2185 26.1124 26.6095 24.6824 26.6095 22.6934C26.6095 20.7044 25.2185 19.3004 23.3465 19.3004C21.4615 19.3004 20.0705 20.7304 20.0705 22.7194C20.0705 24.7084 21.4615 26.1124 23.3335 26.1124ZM23.3465 25.1244C22.1245 25.1244 21.2405 24.1364 21.2405 22.7064C21.2405 21.2764 22.1115 20.2884 23.3335 20.2884C24.5555 20.2884 25.4395 21.2764 25.4395 22.7064C25.4395 24.1364 24.5685 25.1244 23.3465 25.1244ZM31.835 19.3004C30.86 19.3004 30.093 19.7554 29.625 20.6394V16.8824H28.455V25.9824H29.625V22.8884C29.625 21.1724 30.483 20.2884 31.549 20.2884C32.485 20.2884 33.057 20.9384 33.057 22.0044V25.9824H34.227V21.8614C34.227 20.3274 33.304 19.3004 31.835 19.3004ZM39.6632 19.3004C38.6882 19.3004 37.9342 19.7554 37.4662 20.6264V19.4564H36.2962V25.9824H37.4662V22.8884C37.4662 21.1594 38.3242 20.2884 39.3902 20.2884C40.3262 20.2884 40.8982 20.9384 40.8982 22.0044V25.9824H42.0682V21.8614C42.0682 20.2754 41.1062 19.3004 39.6632 19.3004ZM51.1727 21.3544V22.3684H54.1237L54.1367 22.6024C54.0587 24.0844 53.0057 25.0334 51.4457 25.0334C49.5477 25.0334 48.1307 23.5774 48.1307 21.4454C48.1307 19.3004 49.4697 17.8054 51.3027 17.8054C52.6547 17.8054 53.6167 18.5334 54.0977 19.6774L55.1377 19.2614C54.5267 17.7404 53.1747 16.7264 51.3157 16.7264C48.7677 16.7264 46.8957 18.6764 46.8957 21.4584C46.8957 24.2664 48.8977 26.1124 51.2767 26.1124C52.6547 26.1124 53.6037 25.6054 54.1627 24.6954V25.9824H55.1897V21.3544H51.1727ZM59.8294 19.3004C58.3604 19.3004 57.3074 20.1974 57.0604 21.5104L58.0094 21.7964C58.2694 20.8474 58.8154 20.3404 59.7774 20.3404C60.7264 20.3404 61.3374 20.9384 61.3764 21.9394L59.5954 22.2774C57.9834 22.5764 57.2944 23.2134 57.2944 24.2534C57.2944 25.3844 58.1394 26.1124 59.3484 26.1124C60.3104 26.1124 61.0254 25.6574 61.4414 24.8384V25.9824H62.5334V21.9264C62.5334 20.3534 61.4804 19.3004 59.8294 19.3004ZM59.5694 25.2414C58.9324 25.2414 58.4644 24.8904 58.4644 24.2664C58.4644 23.6294 58.9454 23.3044 60.0114 23.0964L61.3764 22.8494V23.0444C61.3764 24.3314 60.6224 25.2414 59.5694 25.2414ZM67.4392 19.3394C66.7242 19.3394 66.1392 19.6904 65.7752 20.5614V19.4564H64.6052V25.9824H65.7752V23.1874C65.7752 21.1594 66.3472 20.4054 67.3092 20.4054C67.5432 20.4054 67.7382 20.4574 67.8942 20.5354L68.2972 19.5604C68.0762 19.4304 67.7772 19.3394 67.4392 19.3394ZM72.2351 26.1124C73.6261 26.1124 74.6661 25.3324 75.1081 24.1364L74.1721 23.7854C73.7951 24.6564 73.1841 25.1244 72.2481 25.1244C71.0651 25.1244 70.1941 24.1364 70.1941 22.7064C70.1941 21.2634 71.0651 20.2884 72.2351 20.2884C73.1451 20.2884 73.7431 20.7694 74.0291 21.6534L75.0431 21.3414C74.6661 20.0804 73.6911 19.3004 72.2481 19.3004C70.3891 19.3004 69.0241 20.7304 69.0241 22.7714C69.0241 24.7734 70.3241 26.1124 72.2351 26.1124ZM76.8101 18.1174H78.0581V16.8304H76.8101V18.1174ZM76.8491 25.9824H78.0191V19.4564H76.8491V25.9824ZM82.6414 19.3004C81.1724 19.3004 80.1194 20.1974 79.8724 21.5104L80.8214 21.7964C81.0814 20.8474 81.6274 20.3404 82.5894 20.3404C83.5384 20.3404 84.1494 20.9384 84.1884 21.9394L82.4074 22.2774C80.7954 22.5764 80.1064 23.2134 80.1064 24.2534C80.1064 25.3844 80.9514 26.1124 82.1604 26.1124C83.1224 26.1124 83.8374 25.6574 84.2534 24.8384V25.9824H85.3454V21.9264C85.3454 20.3534 84.2924 19.3004 82.6414 19.3004ZM82.3814 25.2414C81.7444 25.2414 81.2764 24.8904 81.2764 24.2664C81.2764 23.6294 81.7574 23.3044 82.8234 23.0964L84.1884 22.8494V23.0444C84.1884 24.3314 83.4344 25.2414 82.3814 25.2414Z" fill="#1F1E1D"></path><path d="M160.066 23.3564C160.066 21.4064 158.519 21.0684 157.089 20.7954V17.9224C157.83 18.0914 158.337 18.5984 158.584 19.3394L159.819 18.9884C159.442 17.7404 158.506 16.8954 157.089 16.7394V15.6084H156.14V16.7394C154.515 16.9084 153.41 17.9354 153.41 19.4044C153.41 21.2504 154.788 21.6534 156.14 21.9134V24.9554C155.152 24.8124 154.502 24.2014 154.255 23.1484L153.02 23.4994C153.319 25.0334 154.398 25.9824 156.14 26.0994V27.2434H157.089V26.0864C158.883 25.9044 160.066 24.9034 160.066 23.3564ZM154.697 19.2744C154.697 18.5594 155.243 18.0004 156.14 17.8834V20.6004C155.321 20.4054 154.697 20.0934 154.697 19.2744ZM157.089 24.9554V22.1084C158.012 22.3164 158.753 22.6154 158.753 23.5384C158.753 24.2924 158.103 24.8254 157.089 24.9554ZM168.215 22.8624H167.058V16.8824H165.654L161.351 22.8884V24.0584H165.706V25.9824H167.058V24.0584H168.215V22.8624ZM165.745 18.7804V22.8624H162.82L165.745 18.7804ZM169.712 24.4874V25.9824H170.596V26.4504C170.596 26.8014 170.401 27.0224 170.089 27.0224C169.894 27.0224 169.712 26.9964 169.556 26.8924L169.283 27.3474C169.504 27.5034 169.777 27.5814 170.089 27.5814C170.791 27.5814 171.246 27.1004 171.246 26.3594V24.4874H169.712ZM174.522 16.8824C174.145 17.9224 173.404 18.4684 172.234 18.5724V19.8724C173.144 19.8074 173.807 19.5344 174.275 19.0144V25.9824H175.666V16.8824H174.522ZM180.882 16.7134C179.036 16.7134 177.71 17.9744 177.71 19.7814C177.71 21.5364 178.932 22.7454 180.674 22.7454C181.714 22.7454 182.533 22.3034 183.001 21.5364C182.988 23.7074 182.143 24.9294 180.817 24.9294C179.946 24.9294 179.387 24.3704 179.062 23.3564L177.944 23.7464C178.373 25.3064 179.335 26.1124 180.843 26.1124C182.962 26.1124 184.34 24.3054 184.34 21.3154C184.34 18.3774 183.053 16.7134 180.882 16.7134ZM180.908 21.6404C179.855 21.6404 179.088 20.8734 179.088 19.7684C179.088 18.6504 179.816 17.9094 180.895 17.9094C181.948 17.9094 182.702 18.6764 182.702 19.7684C182.702 20.8734 181.948 21.6404 180.908 21.6404ZM189.117 16.7134C187.271 16.7134 185.945 17.9744 185.945 19.7814C185.945 21.5364 187.167 22.7454 188.909 22.7454C189.949 22.7454 190.768 22.3034 191.236 21.5364C191.223 23.7074 190.378 24.9294 189.052 24.9294C188.181 24.9294 187.622 24.3704 187.297 23.3564L186.179 23.7464C186.608 25.3064 187.57 26.1124 189.078 26.1124C191.197 26.1124 192.575 24.3054 192.575 21.3154C192.575 18.3774 191.288 16.7134 189.117 16.7134ZM189.143 21.6404C188.09 21.6404 187.323 20.8734 187.323 19.7684C187.323 18.6504 188.051 17.9094 189.13 17.9094C190.183 17.9094 190.937 18.6764 190.937 19.7684C190.937 20.8734 190.183 21.6404 189.143 21.6404ZM194.277 25.9824H195.685V24.6074H194.277V25.9824ZM199.904 26.0824C201.654 26.0824 202.634 24.7924 202.634 22.4724C202.634 20.1424 201.654 18.8524 199.904 18.8524C198.144 18.8524 197.164 20.1424 197.164 22.4724C197.164 24.7924 198.144 26.0824 199.904 26.0824ZM199.904 25.0224C198.914 25.0224 198.364 24.1124 198.364 22.4724C198.364 20.8324 198.914 19.9124 199.904 19.9124C200.884 19.9124 201.434 20.8324 201.434 22.4724C201.434 24.1124 200.884 25.0224 199.904 25.0224ZM206.737 26.0824C208.487 26.0824 209.467 24.7924 209.467 22.4724C209.467 20.1424 208.487 18.8524 206.737 18.8524C204.977 18.8524 203.997 20.1424 203.997 22.4724C203.997 24.7924 204.977 26.0824 206.737 26.0824ZM206.737 25.0224C205.747 25.0224 205.197 24.1124 205.197 22.4724C205.197 20.8324 205.747 19.9124 206.737 19.9124C207.717 19.9124 208.267 20.8324 208.267 22.4724C208.267 24.1124 207.717 25.0224 206.737 25.0224Z" fill="#00473C"></path><rect x="12" y="37.9824" width="42.4615" height="24" rx="1.84615" fill="#ECEBE3" fill-opacity="0.5"></rect><path fill-rule="evenodd" clip-rule="evenodd" d="M36.804 55.0591C39.9286 55.0591 42.4615 52.5795 42.4615 49.5207C42.4615 46.4619 39.9286 43.9823 36.804 43.9823C33.6794 43.9823 31.1465 46.4619 31.1465 49.5207C31.1465 52.5795 33.6794 55.0591 36.804 55.0591Z" fill="#F79E1B"></path><path fill-rule="evenodd" clip-rule="evenodd" d="M29.6575 55.0593C32.7821 55.0593 35.3151 52.5796 35.3151 49.5208C35.3151 46.4621 32.7821 43.9824 29.6575 43.9824C26.533 43.9824 24 46.4621 24 49.5208C24 52.5796 26.533 55.0593 29.6575 55.0593Z" fill="#EB001B"></path><path fill-rule="evenodd" clip-rule="evenodd" d="M33.2307 45.2267C31.9587 46.2423 31.1465 47.7887 31.1465 49.5208C31.1465 51.2529 31.9587 52.7993 33.2307 53.8149C34.5026 52.7993 35.3149 51.2529 35.3149 49.5208C35.3149 47.7887 34.5026 46.2423 33.2307 45.2267Z" fill="#FF5F00"></path><path d="M60.4892 49.8304L61.4242 48.5654L62.3482 49.8304L63.0302 49.3244L62.1062 48.0594L63.6022 47.5754L63.3382 46.7614L61.8532 47.2454V45.7054H60.9952V47.2564L59.5102 46.7724L59.2462 47.5864L60.7202 48.0594L59.8072 49.3354L60.4892 49.8304ZM66.1606 49.8304L67.0956 48.5654L68.0196 49.8304L68.7016 49.3244L67.7776 48.0594L69.2736 47.5754L69.0096 46.7614L67.5246 47.2454V45.7054H66.6666V47.2564L65.1816 46.7724L64.9176 47.5864L66.3916 48.0594L65.4786 49.3354L66.1606 49.8304ZM71.8321 49.8304L72.7671 48.5654L73.6911 49.8304L74.3731 49.3244L73.4491 48.0594L74.9451 47.5754L74.6811 46.7614L73.1961 47.2454V45.7054H72.3381V47.2564L70.8531 46.7724L70.5891 47.5864L72.0631 48.0594L71.1501 49.3354L71.8321 49.8304ZM77.5035 49.8304L78.4385 48.5654L79.3625 49.8304L80.0445 49.3244L79.1205 48.0594L80.6165 47.5754L80.3525 46.7614L78.8675 47.2454V45.7054H78.0095V47.2564L76.5245 46.7724L76.2605 47.5864L77.7345 48.0594L76.8215 49.3354L77.5035 49.8304ZM87.7301 48.3454C87.0591 48.3454 86.4651 48.5874 86.0471 49.0054L86.3771 46.6844H89.8311V45.7824H85.5631L84.9581 50.1054L85.8711 50.3254C86.0911 49.6984 86.6741 49.1924 87.5101 49.1924C88.5111 49.1924 89.1931 49.9074 89.1931 50.9524C89.1931 51.9974 88.5221 52.6794 87.5321 52.6794C86.6961 52.6794 86.1461 52.2504 85.8381 51.5464L84.9471 51.9094C85.3101 52.9214 86.2341 53.5924 87.4881 53.5924C89.1161 53.5924 90.2271 52.5254 90.2271 50.9414C90.2271 49.4014 89.1931 48.3454 87.7301 48.3454ZM94.4115 45.6504C92.8605 45.6504 91.7605 46.7284 91.7605 48.2244C91.7605 49.7094 92.8055 50.7544 94.2795 50.7544C95.1925 50.7544 95.9185 50.3474 96.3145 49.6214C96.3255 51.6014 95.5665 52.7014 94.3785 52.7014C93.5975 52.7014 93.0915 52.2064 92.8055 51.3154L91.9695 51.6014C92.3215 52.9214 93.1465 53.5924 94.3895 53.5924C96.1715 53.5924 97.3155 52.0854 97.3155 49.5554C97.3155 47.0694 96.2265 45.6504 94.4115 45.6504ZM94.4445 49.9184C93.4985 49.9184 92.7945 49.2254 92.7945 48.2354C92.7945 47.2234 93.4545 46.5414 94.4225 46.5414C95.3795 46.5414 96.0505 47.2344 96.0505 48.2354C96.0505 49.2254 95.3685 49.9184 94.4445 49.9184ZM102.832 49.4674C103.58 49.1704 104.031 48.5654 104.031 47.7514C104.031 46.5304 103.052 45.6504 101.567 45.6504C100.093 45.6504 99.1034 46.5304 99.1034 47.7514C99.1034 48.5654 99.5544 49.1704 100.302 49.4674C99.4004 49.7864 98.8504 50.4794 98.8504 51.3924C98.8504 52.6684 99.9394 53.5924 101.567 53.5924C103.206 53.5924 104.284 52.6684 104.284 51.3924C104.284 50.4794 103.734 49.7864 102.832 49.4674ZM101.578 46.5414C102.447 46.5414 103.019 47.0474 103.019 47.8284C103.019 48.5874 102.447 49.0494 101.578 49.0494C100.687 49.0494 100.115 48.5874 100.115 47.8284C100.115 47.0474 100.687 46.5414 101.578 46.5414ZM101.567 52.7014C100.555 52.7014 99.8844 52.1514 99.8844 51.3264C99.8844 50.4904 100.555 49.9074 101.567 49.9074C102.579 49.9074 103.25 50.4904 103.25 51.3264C103.25 52.1514 102.579 52.7014 101.567 52.7014ZM109.455 49.4344C110.258 49.1704 110.709 48.5764 110.709 47.7184C110.709 46.4644 109.774 45.6504 108.333 45.6504C106.914 45.6504 105.957 46.4424 105.825 47.7404L106.76 47.8944C106.914 47.0584 107.442 46.5304 108.278 46.5304C109.125 46.5304 109.675 47.0254 109.675 47.8064C109.675 48.6094 109.092 49.0384 108.036 49.0384H107.629V49.9184H108.102C109.268 49.9184 109.95 50.4134 109.95 51.3264C109.95 52.1624 109.312 52.7014 108.333 52.7014C107.343 52.7014 106.76 52.2174 106.562 51.3814L105.605 51.5464C105.814 52.8444 106.793 53.5924 108.311 53.5924C109.928 53.5924 110.984 52.7234 110.984 51.3924C110.984 50.3914 110.434 49.7204 109.455 49.4344Z" fill="#897E7A"></path><rect x="134" y="37.9824" width="76" height="24" rx="4" fill="#E9F7EF"></rect><path d="M145.322 53.5924C147.115 53.5924 148.336 52.7124 148.336 51.2604C148.336 48.1364 143.815 49.8084 143.815 47.8064C143.815 47.1354 144.398 46.6404 145.344 46.6404C146.213 46.6404 146.818 47.1134 147.071 47.8614L148.127 47.5644C147.775 46.3984 146.84 45.6394 145.41 45.6394C143.815 45.6394 142.704 46.5634 142.704 47.9164C142.704 51.0404 147.192 49.3464 147.192 51.4144C147.192 52.1184 146.466 52.5914 145.399 52.5914C144.354 52.5914 143.672 52.0744 143.397 51.0844L142.374 51.3924C142.682 52.7564 143.727 53.5924 145.322 53.5924ZM153.466 47.9494V50.4244C153.466 51.8874 152.784 52.6354 151.904 52.6354C151.167 52.6354 150.738 52.1184 150.738 51.3154V47.9494H149.616V51.4474C149.616 52.7674 150.43 53.5924 151.618 53.5924C152.443 53.5924 153.081 53.1964 153.466 52.4814V53.4824H154.588V47.9494H153.466ZM158.837 53.5924C160.036 53.5924 160.916 52.9214 161.29 51.9204L160.399 51.5904C160.08 52.2724 159.607 52.6354 158.848 52.6354C157.913 52.6354 157.22 51.8434 157.22 50.6994C157.22 49.5554 157.913 48.7634 158.837 48.7634C159.563 48.7634 160.025 49.1374 160.267 49.8304L161.235 49.5444C160.916 48.4774 160.091 47.8174 158.848 47.8174C157.253 47.8174 156.098 49.0274 156.098 50.7764C156.098 52.4484 157.187 53.5924 158.837 53.5924ZM165.183 53.5924C166.382 53.5924 167.262 52.9214 167.636 51.9204L166.745 51.5904C166.426 52.2724 165.953 52.6354 165.194 52.6354C164.259 52.6354 163.566 51.8434 163.566 50.6994C163.566 49.5554 164.259 48.7634 165.183 48.7634C165.909 48.7634 166.371 49.1374 166.613 49.8304L167.581 49.5444C167.262 48.4774 166.437 47.8174 165.194 47.8174C163.599 47.8174 162.444 49.0274 162.444 50.7764C162.444 52.4484 163.533 53.5924 165.183 53.5924ZM171.495 47.8174C169.922 47.8174 168.789 49.0164 168.789 50.7324C168.789 52.4814 170.021 53.5924 171.561 53.5924C172.628 53.5924 173.442 53.0534 173.893 52.2614L173.156 51.7664C172.826 52.3164 172.276 52.6684 171.583 52.6684C170.692 52.6684 169.933 52.0854 169.878 50.9854H173.97C174.179 49.2694 173.2 47.8174 171.495 47.8174ZM171.473 48.6974C172.298 48.6974 172.859 49.2804 172.936 50.1384H169.911C169.999 49.2694 170.648 48.6974 171.473 48.6974ZM177.895 47.8174C176.322 47.8174 175.189 49.0164 175.189 50.7324C175.189 52.4814 176.421 53.5924 177.961 53.5924C179.028 53.5924 179.842 53.0534 180.293 52.2614L179.556 51.7664C179.226 52.3164 178.676 52.6684 177.983 52.6684C177.092 52.6684 176.333 52.0854 176.278 50.9854H180.37C180.579 49.2694 179.6 47.8174 177.895 47.8174ZM177.873 48.6974C178.698 48.6974 179.259 49.2804 179.336 50.1384H176.311C176.399 49.2694 177.048 48.6974 177.873 48.6974ZM185.955 45.7824V48.7194C185.581 48.1474 184.976 47.8174 184.173 47.8174C182.611 47.8174 181.588 49.0054 181.588 50.6994C181.588 52.4044 182.611 53.5924 184.173 53.5924C184.987 53.5924 185.581 53.2624 185.955 52.6904V53.4824H187.077V45.7824H185.955ZM184.338 52.6354C183.359 52.6354 182.71 51.8434 182.71 50.6994C182.71 49.5554 183.359 48.7634 184.338 48.7634C185.317 48.7634 185.955 49.5554 185.955 50.6994C185.955 51.8434 185.317 52.6354 184.338 52.6354ZM191.327 47.8174C189.754 47.8174 188.621 49.0164 188.621 50.7324C188.621 52.4814 189.853 53.5924 191.393 53.5924C192.46 53.5924 193.274 53.0534 193.725 52.2614L192.988 51.7664C192.658 52.3164 192.108 52.6684 191.415 52.6684C190.524 52.6684 189.765 52.0854 189.71 50.9854H193.802C194.011 49.2694 193.032 47.8174 191.327 47.8174ZM191.305 48.6974C192.13 48.6974 192.691 49.2804 192.768 50.1384H189.743C189.831 49.2694 190.48 48.6974 191.305 48.6974ZM199.387 45.7824V48.7194C199.013 48.1474 198.408 47.8174 197.605 47.8174C196.043 47.8174 195.02 49.0054 195.02 50.6994C195.02 52.4044 196.043 53.5924 197.605 53.5924C198.419 53.5924 199.013 53.2624 199.387 52.6904V53.4824H200.509V45.7824H199.387ZM197.77 52.6354C196.791 52.6354 196.142 51.8434 196.142 50.6994C196.142 49.5554 196.791 48.7634 197.77 48.7634C198.749 48.7634 199.387 49.5554 199.387 50.6994C199.387 51.8434 198.749 52.6354 197.77 52.6354Z" fill="#239754"></path></svg> 