<?xml version="1.0" encoding="UTF-8"?> <svg xmlns="http://www.w3.org/2000/svg" width="238" height="72" viewBox="0 0 238 72" fill="none"><rect x="1" y="1" width="236" height="70" rx="7" fill="#FAF9F6"></rect><path d="M14.576 27.684V19.2H13.078V29H19.518V27.684H14.576ZM24.4084 21.79C22.4064 21.79 20.9644 23.316 20.9644 25.5C20.9644 27.726 22.5324 29.14 24.4924 29.14C25.8504 29.14 26.8864 28.454 27.4604 27.446L26.5224 26.816C26.1024 27.516 25.4024 27.964 24.5204 27.964C23.3864 27.964 22.4204 27.222 22.3504 25.822H27.5584C27.8244 23.638 26.5784 21.79 24.4084 21.79ZM24.3804 22.91C25.4304 22.91 26.1444 23.652 26.2424 24.744H22.3924C22.5044 23.638 23.3304 22.91 24.3804 22.91ZM31.811 29.14C33.519 29.14 34.695 28.286 34.695 26.956C34.695 24.002 30.607 25.5 30.607 23.778C30.607 23.232 31.111 22.868 31.881 22.868C32.651 22.868 33.155 23.288 33.379 23.932L34.485 23.554C34.191 22.476 33.281 21.79 31.993 21.79C30.397 21.79 29.291 22.588 29.291 23.904C29.291 26.9 33.365 25.43 33.365 27.096C33.365 27.67 32.805 28.034 31.909 28.034C30.957 28.034 30.327 27.53 30.075 26.718L28.997 27.082C29.291 28.398 30.341 29.14 31.811 29.14ZM36.6345 29H38.0625V19.2H36.6345V29ZM40.3472 20.628H41.8732V19.116H40.3472V20.628ZM40.4032 29H41.8312V21.958H40.4032V29ZM47.1978 21.79C45.1958 21.79 43.7538 23.316 43.7538 25.5C43.7538 27.726 45.3218 29.14 47.2818 29.14C48.6398 29.14 49.6758 28.454 50.2498 27.446L49.3118 26.816C48.8918 27.516 48.1918 27.964 47.3098 27.964C46.1758 27.964 45.2098 27.222 45.1398 25.822H50.3478C50.6138 23.638 49.3678 21.79 47.1978 21.79ZM47.1698 22.91C48.2198 22.91 48.9338 23.652 49.0318 24.744H45.1818C45.2938 23.638 46.1198 22.91 47.1698 22.91ZM62.6375 29H64.2195L60.3555 19.2H58.7735L54.8955 29H56.4635L57.3035 26.802H61.7975L62.6375 29ZM57.7795 25.57L59.5575 20.894L61.3355 25.57H57.7795ZM65.8869 29H67.3149V19.2H65.8869V29ZM72.7215 21.79C70.7195 21.79 69.2775 23.316 69.2775 25.5C69.2775 27.726 70.8455 29.14 72.8055 29.14C74.1635 29.14 75.1995 28.454 75.7735 27.446L74.8355 26.816C74.4155 27.516 73.7155 27.964 72.8335 27.964C71.6995 27.964 70.7335 27.222 70.6635 25.822H75.8715C76.1375 23.638 74.8915 21.79 72.7215 21.79ZM72.6935 22.91C73.7435 22.91 74.4575 23.652 74.5555 24.744H70.7055C70.8175 23.638 71.6435 22.91 72.6935 22.91ZM83.2983 29L80.8063 25.444L83.1723 21.958H81.6323L80.0363 24.338L78.3703 21.958H76.7883L79.1543 25.332L76.6623 29H78.2023L79.9243 26.438L81.7163 29H83.2983ZM87.4023 21.79C85.8063 21.79 84.6443 22.756 84.3783 24.184L85.5263 24.52C85.8063 23.568 86.3523 23.036 87.3323 23.036C88.2843 23.036 88.9003 23.652 88.9423 24.66L87.0523 24.996C85.3863 25.304 84.6303 25.976 84.6303 27.11C84.6303 28.342 85.5403 29.14 86.8703 29.14C87.8643 29.14 88.6063 28.678 89.0403 27.852V29H90.3563V24.632C90.3563 22.924 89.2223 21.79 87.4023 21.79ZM87.1643 28.104C86.5203 28.104 86.0583 27.754 86.0583 27.138C86.0583 26.48 86.5483 26.158 87.5423 25.976L88.9423 25.71V25.934C88.9423 27.194 88.2003 28.104 87.1643 28.104ZM96.2961 21.79C95.2881 21.79 94.4761 22.238 93.9861 23.134V21.958H92.5581V29H93.9861V25.612C93.9861 23.848 94.8681 22.994 95.9321 22.994C96.8841 22.994 97.4581 23.666 97.4581 24.73V29H98.8861V24.548C98.8861 22.84 97.8501 21.79 96.2961 21.79ZM106.265 19.2V22.938C105.789 22.21 105.019 21.79 103.997 21.79C102.009 21.79 100.707 23.302 100.707 25.458C100.707 27.628 102.009 29.14 103.997 29.14C105.033 29.14 105.789 28.72 106.265 27.992V29H107.693V19.2H106.265ZM104.207 27.922C102.961 27.922 102.135 26.914 102.135 25.458C102.135 24.002 102.961 22.994 104.207 22.994C105.453 22.994 106.265 24.002 106.265 25.458C106.265 26.914 105.453 27.922 104.207 27.922ZM113.103 21.79C111.101 21.79 109.659 23.316 109.659 25.5C109.659 27.726 111.227 29.14 113.187 29.14C114.545 29.14 115.581 28.454 116.155 27.446L115.217 26.816C114.797 27.516 114.097 27.964 113.215 27.964C112.081 27.964 111.115 27.222 111.045 25.822H116.253C116.519 23.638 115.273 21.79 113.103 21.79ZM113.075 22.91C114.125 22.91 114.839 23.652 114.937 24.744H111.087C111.199 23.638 112.025 22.91 113.075 22.91ZM121.387 21.818C120.631 21.818 120.001 22.182 119.609 23.106V21.958H118.181V29H119.609V25.934C119.609 23.904 120.197 23.12 121.219 23.12C121.471 23.12 121.681 23.176 121.849 23.26L122.339 22.084C122.087 21.93 121.765 21.818 121.387 21.818Z" fill="#00473C"></path><path d="M16.716 51.12C19.128 51.12 20.868 49.308 20.868 46.8C20.868 44.268 19.128 42.456 16.716 42.456C14.292 42.456 12.552 44.268 12.552 46.8C12.552 49.308 14.292 51.12 16.716 51.12ZM16.716 50.124C14.928 50.124 13.692 48.732 13.692 46.8C13.692 44.844 14.928 43.452 16.716 43.452C18.492 43.452 19.74 44.844 19.74 46.8C19.74 48.732 18.492 50.124 16.716 50.124ZM25.3579 51.12C26.6419 51.12 27.6019 50.4 28.0099 49.296L27.1459 48.972C26.7979 49.776 26.2339 50.208 25.3699 50.208C24.2779 50.208 23.4739 49.296 23.4739 47.976C23.4739 46.644 24.2779 45.744 25.3579 45.744C26.1979 45.744 26.7499 46.188 27.0139 47.004L27.9499 46.716C27.6019 45.552 26.7019 44.832 25.3699 44.832C23.6539 44.832 22.3939 46.152 22.3939 48.036C22.3939 49.884 23.5939 51.12 25.3579 51.12ZM32.4729 49.896C32.2929 50.088 32.0769 50.22 31.7889 50.22C31.3569 50.22 31.1049 49.908 31.1049 49.332V45.888H32.7129V44.976H31.1049V43.2L30.0249 43.656V44.976H29.0649V45.888H30.0249V49.452C30.0249 50.52 30.6009 51.12 31.6209 51.12C32.2809 51.12 32.7729 50.868 33.0609 50.46L32.4729 49.896ZM38.7092 50.004L40.1612 48.972C42.0332 47.652 42.7292 46.404 42.7292 45.12C42.7292 43.5 41.6372 42.456 39.9572 42.456C38.2412 42.456 37.1252 43.5 37.1252 45.108C37.1252 45.564 37.2092 45.984 37.3532 46.344L38.3612 46.008C38.2652 45.744 38.2052 45.444 38.2052 45.132C38.2052 44.112 38.8772 43.452 39.9092 43.452C40.9292 43.452 41.5892 44.124 41.5892 45.18C41.5892 46.212 41.0252 47.244 39.3692 48.432L37.1132 50.064V51H42.8012V50.004H38.7092ZM48.5401 46.584C49.4161 46.296 49.9081 45.648 49.9081 44.712C49.9081 43.344 48.8881 42.456 47.3161 42.456C45.7681 42.456 44.7241 43.32 44.5801 44.736L45.6001 44.904C45.7681 43.992 46.3441 43.416 47.2561 43.416C48.1801 43.416 48.7801 43.956 48.7801 44.808C48.7801 45.684 48.1441 46.152 46.9921 46.152H46.5481V47.112H47.0641C48.3361 47.112 49.0801 47.652 49.0801 48.648C49.0801 49.56 48.3841 50.148 47.3161 50.148C46.2361 50.148 45.6001 49.62 45.3841 48.708L44.3401 48.888C44.5681 50.304 45.6361 51.12 47.2921 51.12C49.0561 51.12 50.2081 50.172 50.2081 48.72C50.2081 47.628 49.6081 46.896 48.5401 46.584ZM51.9761 49.716V51H52.7201V51.444C52.7201 51.744 52.5521 51.948 52.2881 51.948C52.1081 51.948 51.9401 51.912 51.8081 51.828L51.5681 52.224C51.7601 52.356 52.0001 52.416 52.2761 52.416C52.8881 52.416 53.2721 52.008 53.2721 51.36V49.716H51.9761ZM61.3296 51.12C63.3936 51.12 64.5336 49.572 64.5336 46.8C64.5336 44.004 63.3936 42.456 61.3296 42.456C59.2656 42.456 58.1136 44.004 58.1136 46.8C58.1136 49.572 59.2656 51.12 61.3296 51.12ZM61.3296 50.124C59.9976 50.124 59.2536 48.936 59.2536 46.8C59.2536 44.64 59.9976 43.452 61.3296 43.452C62.6496 43.452 63.4056 44.64 63.4056 46.8C63.4056 48.936 62.6496 50.124 61.3296 50.124ZM69.6751 45.552C68.6791 45.552 67.8751 46.008 67.4551 46.8V46.788C67.4431 44.628 68.2831 43.428 69.5791 43.428C70.4191 43.428 70.9711 43.956 71.2831 44.916L72.2071 44.628C71.8111 43.188 70.9231 42.456 69.5671 42.456C67.6231 42.456 66.3631 44.1 66.3631 46.836C66.3631 49.608 67.5871 51.12 69.5431 51.12C71.2711 51.12 72.4231 49.944 72.4231 48.3C72.4231 46.704 71.2831 45.552 69.6751 45.552ZM69.5311 50.148C68.4871 50.148 67.7431 49.392 67.7431 48.3C67.7431 47.22 68.4871 46.464 69.5071 46.464C70.5391 46.464 71.2951 47.22 71.2951 48.3C71.2951 49.404 70.5991 50.148 69.5311 50.148ZM74.1576 46.26H75.4536V44.976H74.1576V46.26ZM74.1576 51H75.4536V49.716H74.1576V51ZM78.8661 50.004L80.3181 48.972C82.1901 47.652 82.8861 46.404 82.8861 45.12C82.8861 43.5 81.7941 42.456 80.1141 42.456C78.3981 42.456 77.2821 43.5 77.2821 45.108C77.2821 45.564 77.3661 45.984 77.5101 46.344L78.5181 46.008C78.4221 45.744 78.3621 45.444 78.3621 45.132C78.3621 44.112 79.0341 43.452 80.0661 43.452C81.0861 43.452 81.7461 44.124 81.7461 45.18C81.7461 46.212 81.1821 47.244 79.5261 48.432L77.2701 50.064V51H82.9581V50.004H78.8661ZM84.389 42.6V44.532H85.529V43.584H88.853C87.053 45.72 86.189 47.736 86.189 50.412V51H87.317V50.4C87.317 47.484 88.133 45.804 90.077 43.488V42.6H84.389ZM98.0132 42.6H94.7852V51H95.9252V47.724H97.9652C99.7772 47.724 100.833 46.728 100.833 45.132C100.833 43.572 99.7892 42.6 98.0132 42.6ZM98.0132 46.74H95.9252V43.584H97.9292C99.0812 43.584 99.7052 44.184 99.7052 45.168C99.7052 46.152 99.1052 46.74 98.0132 46.74ZM109.608 42.6L106.944 49.812L104.292 42.6H102.636V51H103.74V43.956L106.344 51H107.532L110.16 43.896V51H111.252V42.6H109.608Z" fill="#897E7A"></path><path d="M149.165 26.172C149.165 24.072 147.499 23.708 145.959 23.414V20.32C146.757 20.502 147.303 21.048 147.569 21.846L148.899 21.468C148.493 20.124 147.485 19.214 145.959 19.046V17.828H144.937V19.046C143.187 19.228 141.997 20.334 141.997 21.916C141.997 23.904 143.481 24.338 144.937 24.618V27.894C143.873 27.74 143.173 27.082 142.907 25.948L141.577 26.326C141.899 27.978 143.061 29 144.937 29.126V30.358H145.959V29.112C147.891 28.916 149.165 27.838 149.165 26.172ZM143.383 21.776C143.383 21.006 143.971 20.404 144.937 20.278V23.204C144.055 22.994 143.383 22.658 143.383 21.776ZM145.959 27.894V24.828C146.953 25.052 147.751 25.374 147.751 26.368C147.751 27.18 147.051 27.754 145.959 27.894ZM152.901 19.2C152.495 20.32 151.697 20.908 150.437 21.02V22.42C151.417 22.35 152.131 22.056 152.635 21.496V29H154.133V19.2H152.901ZM156.614 27.39V29H157.566V29.504C157.566 29.882 157.356 30.12 157.02 30.12C156.81 30.12 156.614 30.092 156.446 29.98L156.152 30.47C156.39 30.638 156.684 30.722 157.02 30.722C157.776 30.722 158.266 30.204 158.266 29.406V27.39H156.614ZM161.794 19.2C161.388 20.32 160.59 20.908 159.33 21.02V22.42C160.31 22.35 161.024 22.056 161.528 21.496V29H163.026V19.2H161.794ZM168.642 19.018C166.654 19.018 165.226 20.376 165.226 22.322C165.226 24.212 166.542 25.514 168.418 25.514C169.538 25.514 170.42 25.038 170.924 24.212C170.91 26.55 170 27.866 168.572 27.866C167.634 27.866 167.032 27.264 166.682 26.172L165.478 26.592C165.94 28.272 166.976 29.14 168.6 29.14C170.882 29.14 172.366 27.194 172.366 23.974C172.366 20.81 170.98 19.018 168.642 19.018ZM168.67 24.324C167.536 24.324 166.71 23.498 166.71 22.308C166.71 21.104 167.494 20.306 168.656 20.306C169.79 20.306 170.602 21.132 170.602 22.308C170.602 23.498 169.79 24.324 168.67 24.324ZM177.512 19.018C175.524 19.018 174.096 20.376 174.096 22.322C174.096 24.212 175.412 25.514 177.288 25.514C178.408 25.514 179.29 25.038 179.794 24.212C179.78 26.55 178.87 27.866 177.442 27.866C176.504 27.866 175.902 27.264 175.552 26.172L174.348 26.592C174.81 28.272 175.846 29.14 177.47 29.14C179.752 29.14 181.236 27.194 181.236 23.974C181.236 20.81 179.85 19.018 177.512 19.018ZM177.54 24.324C176.406 24.324 175.58 23.498 175.58 22.308C175.58 21.104 176.364 20.306 177.526 20.306C178.66 20.306 179.472 21.132 179.472 22.308C179.472 23.498 178.66 24.324 177.54 24.324ZM183.021 29H184.429V27.625H183.021V29ZM188.974 29.11C190.899 29.11 191.977 27.691 191.977 25.139C191.977 22.576 190.899 21.157 188.974 21.157C187.038 21.157 185.96 22.576 185.96 25.139C185.96 27.691 187.038 29.11 188.974 29.11ZM188.974 27.944C187.885 27.944 187.28 26.943 187.28 25.139C187.28 23.335 187.885 22.323 188.974 22.323C190.052 22.323 190.657 23.335 190.657 25.139C190.657 26.943 190.052 27.944 188.974 27.944ZM196.491 29.11C198.416 29.11 199.494 27.691 199.494 25.139C199.494 22.576 198.416 21.157 196.491 21.157C194.555 21.157 193.477 22.576 193.477 25.139C193.477 27.691 194.555 29.11 196.491 29.11ZM196.491 27.944C195.402 27.944 194.797 26.943 194.797 25.139C194.797 23.335 195.402 22.323 196.491 22.323C197.569 22.323 198.174 23.335 198.174 25.139C198.174 26.943 197.569 27.944 196.491 27.944ZM206.835 29.11C208.738 29.11 209.926 27.889 209.926 25.909V21.3H208.606V25.865C208.606 27.152 207.924 27.933 206.846 27.933C205.757 27.933 205.064 27.152 205.064 25.865V21.3H203.744V25.909C203.744 27.889 204.932 29.11 206.835 29.11ZM214.329 29.11C216.133 29.11 217.365 28.23 217.365 26.734C217.365 23.621 212.921 25.216 212.921 23.346C212.921 22.73 213.449 22.279 214.329 22.279C215.187 22.279 215.748 22.73 215.99 23.445L217.156 23.115C216.815 21.938 215.869 21.157 214.406 21.157C212.8 21.157 211.678 22.092 211.678 23.489C211.678 26.602 216.089 24.985 216.089 26.921C216.089 27.57 215.407 27.988 214.406 27.988C213.405 27.988 212.756 27.515 212.481 26.525L211.337 26.877C211.634 28.274 212.701 29.11 214.329 29.11ZM221.747 21.3H218.876V29H221.747C224.09 29 225.531 27.537 225.531 25.15C225.531 22.763 224.09 21.3 221.747 21.3ZM221.714 27.834H220.185V22.466H221.714C223.243 22.466 224.222 23.511 224.222 25.15C224.222 26.789 223.243 27.834 221.714 27.834Z" fill="#00473C"></path><rect x="194" y="38" width="32" height="18.087" rx="1.4449" fill="white"></rect><path fill-rule="evenodd" clip-rule="evenodd" d="M213.232 52.0521C216.057 52.0521 218.348 49.8097 218.348 47.0435C218.348 44.2773 216.057 42.0348 213.232 42.0348C210.406 42.0348 208.115 44.2773 208.115 47.0435C208.115 49.8097 210.406 52.0521 213.232 52.0521Z" fill="#F79E1B"></path><path fill-rule="evenodd" clip-rule="evenodd" d="M206.769 52.0521C209.594 52.0521 211.885 49.8097 211.885 47.0435C211.885 44.2773 209.594 42.0348 206.769 42.0348C203.943 42.0348 201.652 44.2773 201.652 47.0435C201.652 49.8097 203.943 52.0521 206.769 52.0521Z" fill="#EB001B"></path><path fill-rule="evenodd" clip-rule="evenodd" d="M210 43.1599C208.85 44.0784 208.115 45.4769 208.115 47.0435C208.115 48.61 208.85 50.0086 210 50.9271C211.151 50.0086 211.885 48.61 211.885 47.0435C211.885 45.4769 211.151 44.0784 210 43.1599Z" fill="#FF5F00"></path><rect x="1" y="1" width="236" height="70" rx="7" stroke="url(#paint0_linear_1358_26191)" stroke-width="2"></rect><defs><linearGradient id="paint0_linear_1358_26191" x1="75.041" y1="-13" x2="166.1" y2="78.5504" gradientUnits="userSpaceOnUse"><stop stop-color="white"></stop><stop offset="0.588542" stop-color="#D6F1A2"></stop><stop offset="1" stop-color="#9DE183"></stop></linearGradient></defs></svg> 