<?xml version="1.0" encoding="UTF-8"?> <svg xmlns="http://www.w3.org/2000/svg" width="300" height="368" viewBox="0 0 300 368" fill="none"><rect width="300" height="368" rx="8" fill="white"></rect><rect x="16" y="24" width="130" height="36" rx="4" fill="black"></rect><path d="M70.239 37.724C69.3859 37.724 68.6977 38.2402 68.2533 38.2402C67.7873 38.2402 67.1637 37.7527 66.4253 37.7527C65.0203 37.7527 63.5938 38.9212 63.5938 41.1075C63.5938 42.4767 64.1242 43.9176 64.7766 44.8567C65.3285 45.638 65.8232 46.2832 66.5257 46.2832C67.221 46.2832 67.5293 45.8244 68.3967 45.8244C69.2712 45.8244 69.4719 46.2689 70.239 46.2689C71.006 46.2689 71.515 45.5735 71.9952 44.8853C72.5257 44.0896 72.7551 43.3154 72.7623 43.2796C72.7193 43.2653 71.2569 42.6703 71.2569 40.9928C71.2569 39.5448 72.4038 38.8997 72.4684 38.8495C71.7157 37.7527 70.5615 37.724 70.239 37.724ZM69.8447 36.7993C70.1888 36.3763 70.4325 35.8029 70.4325 35.2222C70.4325 35.1434 70.4253 35.0645 70.411 35C69.8519 35.0215 69.1637 35.3728 68.7551 35.853C68.4397 36.2186 68.1386 36.7993 68.1386 37.3799C68.1386 37.466 68.1529 37.5591 68.1601 37.5878C68.1959 37.595 68.2533 37.6022 68.3106 37.6022C68.8196 37.6022 69.4648 37.2581 69.8447 36.7993Z" fill="white"></path><path d="M75.5801 35.81V46.1542H77.4296V42.7635H79.6733C81.7665 42.7635 83.2289 41.3584 83.2289 39.3083C83.2289 37.2222 81.8167 35.81 79.7522 35.81H75.5801ZM77.4296 37.3584H79.2647C80.598 37.3584 81.3507 38.0394 81.3507 39.3083C81.3507 40.5412 80.5765 41.2294 79.2575 41.2294H77.4296V37.3584Z" fill="white"></path><path d="M86.699 44.8853C85.9105 44.8853 85.3442 44.4911 85.3442 43.8316C85.3442 43.1936 85.8102 42.8351 86.8066 42.7706L88.5772 42.6559V43.2796C88.5772 44.19 87.7743 44.8853 86.699 44.8853ZM86.1757 46.2832C87.2008 46.2832 88.0611 45.8387 88.4983 45.0789H88.6202V46.1542H90.3335V40.7993C90.3335 39.1362 89.2009 38.1541 87.1865 38.1541C85.3227 38.1541 84.0252 39.0359 83.8818 40.4194H85.5593C85.7241 39.8889 86.2833 39.6022 87.1005 39.6022C88.0611 39.6022 88.5772 40.0323 88.5772 40.7993V41.4588L86.5557 41.5807C84.6489 41.6954 83.5807 42.5126 83.5807 43.9319C83.5807 45.3656 84.6632 46.2832 86.1757 46.2832Z" fill="white"></path><path d="M92.3126 49C94.0689 49 94.9076 48.3549 95.5743 46.4051L98.4058 38.3118H96.5277L94.6997 44.4337H94.5778L92.7427 38.3118H90.7929L93.5958 46.19L93.5026 46.5341C93.2732 47.2581 92.8502 47.5448 92.0975 47.5448C91.9757 47.5448 91.7104 47.5377 91.6101 47.5162V48.9714C91.7248 48.9929 92.2051 49 92.3126 49Z" fill="white"></path><rect x="154" y="24" width="130" height="36" rx="4" fill="black"></rect><path d="M217.805 42.0819V46.2095H216.486V36.0166H219.983C220.869 36.0166 221.624 36.31 222.242 36.8967C222.874 37.4835 223.19 38.1998 223.19 39.0458C223.19 39.9123 222.874 40.6287 222.242 41.2086C221.631 41.7885 220.875 42.0751 219.983 42.0751H217.805V42.0819ZM217.805 37.272V40.8265H220.01C220.532 40.8265 220.972 40.6491 221.315 40.3012C221.665 39.9532 221.844 39.5302 221.844 39.0527C221.844 38.5819 221.665 38.1657 221.315 37.8178C220.972 37.4562 220.539 37.2788 220.01 37.2788H217.805V37.272Z" fill="white"></path><path d="M226.639 39.0049C227.614 39.0049 228.383 39.2641 228.947 39.7827C229.51 40.3012 229.791 41.0107 229.791 41.9113V46.2095H228.534V45.2407H228.48C227.937 46.039 227.209 46.4347 226.302 46.4347C225.526 46.4347 224.88 46.2095 224.358 45.7524C223.836 45.2953 223.575 44.729 223.575 44.0468C223.575 43.3236 223.85 42.7505 224.399 42.3275C224.949 41.8977 225.684 41.6862 226.597 41.6862C227.381 41.6862 228.026 41.8294 228.528 42.116V41.8158C228.528 41.3587 228.349 40.9766 227.985 40.6559C227.621 40.3353 227.195 40.1784 226.707 40.1784C225.972 40.1784 225.389 40.4854 224.963 41.1062L223.802 40.383C224.441 39.462 225.389 39.0049 226.639 39.0049ZM224.935 44.0672C224.935 44.4084 225.079 44.6949 225.375 44.9201C225.663 45.1452 226.007 45.2612 226.398 45.2612C226.955 45.2612 227.449 45.0565 227.882 44.6472C228.315 44.2378 228.534 43.7602 228.534 43.2076C228.122 42.8869 227.552 42.7232 226.817 42.7232C226.281 42.7232 225.835 42.8528 225.478 43.1053C225.114 43.3713 224.935 43.692 224.935 44.0672Z" fill="white"></path><path d="M236.962 39.23L232.566 49.2728H231.206L232.841 45.7592L229.942 39.23H231.377L233.466 44.2378H233.493L235.526 39.23H236.962Z" fill="white"></path><path d="M212.559 41.2497C212.559 40.8227 212.521 40.414 212.449 40.021H206.921V42.2724L210.105 42.2731C209.976 43.0223 209.56 43.6608 208.924 44.0866V45.5473H210.819C211.925 44.53 212.559 43.0263 212.559 41.2497Z" fill="#4285F4"></path><path d="M208.924 44.0862C208.397 44.4396 207.718 44.6464 206.923 44.6464C205.388 44.6464 204.085 43.6189 203.619 42.2339H201.664V43.7403C202.633 45.6493 204.623 46.9592 206.923 46.9592C208.512 46.9592 209.848 46.44 210.819 45.5463L208.924 44.0862Z" fill="#34A853"></path><path d="M203.435 41.1168C203.435 40.7279 203.5 40.352 203.619 39.9986V38.4922H201.664C201.263 39.2816 201.038 40.1726 201.038 41.1168C201.038 42.0611 201.264 42.9521 201.664 43.7415L203.619 42.2351C203.5 41.8816 203.435 41.5057 203.435 41.1168Z" fill="#FABB05"></path><path d="M206.923 37.5858C207.79 37.5858 208.567 37.8826 209.181 38.4625L210.86 36.7958C209.84 35.8522 208.51 35.2729 206.923 35.2729C204.624 35.2729 202.633 36.5829 201.664 38.4918L203.619 39.9983C204.085 38.6133 205.388 37.5858 206.923 37.5858Z" fill="#E94235"></path><path d="M21.808 84.62C22.564 84.284 23.008 83.624 23.008 82.772C23.008 81.476 21.964 80.6 20.404 80.6H16.948V89H20.572C22.192 89 23.236 88.064 23.236 86.672C23.236 85.676 22.708 84.944 21.808 84.62ZM21.88 82.892C21.88 83.672 21.292 84.212 20.38 84.212H18.088V81.572H20.38C21.292 81.572 21.88 82.1 21.88 82.892ZM20.5 88.028H18.088V85.16H20.476C21.484 85.16 22.108 85.724 22.108 86.588C22.108 87.452 21.496 88.028 20.5 88.028ZM27.0818 82.832C25.7258 82.832 24.7538 83.66 24.5258 84.872L25.4018 85.136C25.6418 84.26 26.1458 83.792 27.0338 83.792C27.9098 83.792 28.4738 84.344 28.5098 85.268L26.8658 85.58C25.3778 85.856 24.7418 86.444 24.7418 87.404C24.7418 88.448 25.5218 89.12 26.6378 89.12C27.5258 89.12 28.1858 88.7 28.5698 87.944V89H29.5778V85.256C29.5778 83.804 28.6058 82.832 27.0818 82.832ZM26.8418 88.316C26.2538 88.316 25.8218 87.992 25.8218 87.416C25.8218 86.828 26.2658 86.528 27.2498 86.336L28.5098 86.108V86.288C28.5098 87.476 27.8138 88.316 26.8418 88.316ZM34.4782 82.832C33.5782 82.832 32.8822 83.252 32.4502 84.056V82.976H31.3702V89H32.4502V86.144C32.4502 84.548 33.2422 83.744 34.2262 83.744C35.0902 83.744 35.6182 84.344 35.6182 85.328V89H36.6982V85.196C36.6982 83.732 35.8102 82.832 34.4782 82.832ZM42.6651 89H43.9131L41.5731 85.196L43.7091 82.976H42.3651L39.6051 85.856V80.6H38.5251V89H39.6051V87.236L40.8291 85.952L42.6651 89ZM54.3448 80.6H47.2168V81.584H50.2168V89H51.3448V81.584H54.3448V80.6ZM57.7978 82.868C57.1378 82.868 56.5978 83.192 56.2618 83.996V82.976H55.1818V89H56.2618V86.42C56.2618 84.548 56.7898 83.852 57.6778 83.852C57.8938 83.852 58.0738 83.9 58.2178 83.972L58.5898 83.072C58.3858 82.952 58.1098 82.868 57.7978 82.868ZM61.8031 82.832C60.4471 82.832 59.4751 83.66 59.2471 84.872L60.1231 85.136C60.3631 84.26 60.8671 83.792 61.7551 83.792C62.6311 83.792 63.1951 84.344 63.2311 85.268L61.5871 85.58C60.0991 85.856 59.4631 86.444 59.4631 87.404C59.4631 88.448 60.2431 89.12 61.3591 89.12C62.2471 89.12 62.9071 88.7 63.2911 87.944V89H64.2991V85.256C64.2991 83.804 63.3271 82.832 61.8031 82.832ZM61.5631 88.316C60.9751 88.316 60.5431 87.992 60.5431 87.416C60.5431 86.828 60.9871 86.528 61.9711 86.336L63.2311 86.108V86.288C63.2311 87.476 62.5351 88.316 61.5631 88.316ZM69.1995 82.832C68.2995 82.832 67.6035 83.252 67.1715 84.056V82.976H66.0915V89H67.1715V86.144C67.1715 84.548 67.9635 83.744 68.9475 83.744C69.8115 83.744 70.3395 84.344 70.3395 85.328V89H71.4195V85.196C71.4195 83.732 70.5315 82.832 69.1995 82.832ZM75.1784 89.12C76.6304 89.12 77.6024 88.4 77.6024 87.284C77.6024 84.752 74.0384 86.096 74.0384 84.512C74.0384 83.996 74.5064 83.66 75.2384 83.66C75.9224 83.66 76.3664 84.032 76.5704 84.608L77.4224 84.32C77.1704 83.408 76.3904 82.832 75.3104 82.832C73.9664 82.832 73.0424 83.516 73.0424 84.608C73.0424 87.176 76.5944 85.844 76.5944 87.392C76.5944 87.92 76.0784 88.268 75.2504 88.268C74.3984 88.268 73.8344 87.824 73.6064 87.092L72.7784 87.38C73.0304 88.496 73.9304 89.12 75.1784 89.12ZM80.562 82.172C80.562 81.68 80.826 81.38 81.234 81.38C81.486 81.38 81.678 81.5 81.81 81.692L82.542 81.248C82.278 80.756 81.81 80.48 81.222 80.48C80.178 80.48 79.482 81.176 79.482 82.22V82.976H78.522V83.888H79.482V89H80.562V83.888H82.014V82.976H80.562V82.172ZM85.8923 82.832C84.1883 82.832 82.9523 84.128 82.9523 86C82.9523 87.908 84.2963 89.12 85.9643 89.12C87.1283 89.12 88.0163 88.508 88.4963 87.632L87.7643 87.176C87.4043 87.812 86.7803 88.232 85.9883 88.232C84.9683 88.232 84.0803 87.548 84.0083 86.228H88.5683C88.7483 84.344 87.7283 82.832 85.8923 82.832ZM85.8683 83.696C86.8403 83.696 87.4763 84.392 87.5603 85.388H84.0443C84.1523 84.38 84.8963 83.696 85.8683 83.696ZM92.7534 82.868C92.0934 82.868 91.5534 83.192 91.2174 83.996V82.976H90.1374V89H91.2174V86.42C91.2174 84.548 91.7454 83.852 92.6334 83.852C92.8494 83.852 93.0294 83.9 93.1734 83.972L93.5454 83.072C93.3414 82.952 93.0654 82.868 92.7534 82.868Z" fill="#00473C"></path><path d="M110.68 89.12C112.528 89.12 113.896 88.088 114.388 86.408L113.176 86.012C112.792 87.188 111.94 87.848 110.716 87.848C109.06 87.848 107.956 86.588 107.956 84.812C107.956 82.976 109.096 81.716 110.632 81.716C111.82 81.716 112.636 82.316 113.02 83.468L114.268 83.048C113.752 81.38 112.432 80.444 110.644 80.444C108.292 80.444 106.516 82.256 106.516 84.8C106.516 87.344 108.184 89.12 110.68 89.12ZM118.713 82.832C118.077 82.832 117.537 83.144 117.201 83.912V82.964H115.821V89H117.201V86.324C117.201 84.728 117.693 84.08 118.545 84.08C118.773 84.08 118.953 84.128 119.097 84.2L119.565 83.06C119.337 82.916 119.049 82.832 118.713 82.832ZM123.025 82.796C121.297 82.796 120.049 84.116 120.049 86C120.049 87.908 121.405 89.12 123.109 89.12C124.261 89.12 125.161 88.556 125.653 87.704L124.777 87.092C124.417 87.632 123.841 87.992 123.133 87.992C122.221 87.992 121.441 87.392 121.381 86.324H125.761C126.037 84.452 124.921 82.796 123.025 82.796ZM123.001 83.876C123.829 83.876 124.405 84.464 124.489 85.34H121.429C121.513 84.452 122.161 83.876 123.001 83.876ZM131.65 80.6V83.708C131.254 83.12 130.63 82.796 129.79 82.796C128.074 82.796 126.946 84.104 126.946 85.964C126.946 87.824 128.074 89.12 129.79 89.12C130.642 89.12 131.254 88.796 131.65 88.208V89H133.03V80.6H131.65ZM129.994 87.944C128.998 87.944 128.326 87.128 128.326 85.964C128.326 84.788 128.998 83.972 129.994 83.972C130.99 83.972 131.65 84.788 131.65 85.964C131.65 87.128 130.99 87.944 129.994 87.944ZM134.833 81.896H136.297V80.516H134.833V81.896ZM134.881 89H136.261V82.964H134.881V89ZM141.014 87.704C140.846 87.86 140.642 87.968 140.378 87.968C139.994 87.968 139.778 87.692 139.778 87.2V84.14H141.362V82.964H139.778V81.02L138.398 81.62V82.964H137.438V84.14H138.398V87.344C138.398 88.484 139.01 89.12 140.114 89.12C140.858 89.12 141.386 88.856 141.734 88.46L141.014 87.704ZM149.473 89.12C151.321 89.12 152.689 88.088 153.181 86.408L151.969 86.012C151.585 87.188 150.733 87.848 149.509 87.848C147.853 87.848 146.749 86.588 146.749 84.812C146.749 82.976 147.889 81.716 149.425 81.716C150.613 81.716 151.429 82.316 151.813 83.468L153.061 83.048C152.545 81.38 151.225 80.444 149.437 80.444C147.085 80.444 145.309 82.256 145.309 84.8C145.309 87.344 146.977 89.12 149.473 89.12ZM156.966 82.796C155.574 82.796 154.578 83.648 154.35 84.872L155.442 85.196C155.682 84.416 156.114 83.996 156.906 83.996C157.65 83.996 158.142 84.488 158.178 85.28L156.582 85.556C155.214 85.796 154.554 86.372 154.554 87.344C154.554 88.412 155.346 89.12 156.486 89.12C157.302 89.12 157.926 88.748 158.286 88.076V89H159.546V85.256C159.546 83.792 158.574 82.796 156.966 82.796ZM156.798 88.148C156.294 88.148 155.934 87.86 155.934 87.38C155.934 86.864 156.33 86.612 157.026 86.48L158.178 86.252V86.456C158.178 87.416 157.602 88.148 156.798 88.148ZM164.168 82.832C163.532 82.832 162.992 83.144 162.656 83.912V82.964H161.276V89H162.656V86.324C162.656 84.728 163.148 84.08 164 84.08C164.228 84.08 164.408 84.128 164.552 84.2L165.02 83.06C164.792 82.916 164.504 82.832 164.168 82.832ZM170.208 80.6V83.708C169.812 83.12 169.188 82.796 168.348 82.796C166.632 82.796 165.504 84.104 165.504 85.964C165.504 87.824 166.632 89.12 168.348 89.12C169.2 89.12 169.812 88.796 170.208 88.208V89H171.588V80.6H170.208ZM168.552 87.944C167.556 87.944 166.884 87.128 166.884 85.964C166.884 84.788 167.556 83.972 168.552 83.972C169.548 83.972 170.208 84.788 170.208 85.964C170.208 87.128 169.548 87.944 168.552 87.944Z" fill="#00473C"></path><rect x="106" y="97" width="67" height="1" fill="#00473C"></rect><path d="M31.626 144.83C33.054 144.83 34.132 143.668 34.132 142.31C34.132 140.966 33.054 139.804 31.626 139.804C30.268 139.804 29.12 140.966 29.12 142.31C29.12 143.668 30.268 144.83 31.626 144.83ZM39.1521 144.83C40.5801 144.83 41.6581 143.668 41.6581 142.31C41.6581 140.966 40.5801 139.804 39.1521 139.804C37.7941 139.804 36.6461 140.966 36.6461 142.31C36.6461 143.668 37.7941 144.83 39.1521 144.83ZM46.6782 144.83C48.1062 144.83 49.1842 143.668 49.1842 142.31C49.1842 140.966 48.1062 139.804 46.6782 139.804C45.3202 139.804 44.1722 140.966 44.1722 142.31C44.1722 143.668 45.3202 144.83 46.6782 144.83ZM54.2043 144.83C55.6323 144.83 56.7103 143.668 56.7103 142.31C56.7103 140.966 55.6323 139.804 54.2043 139.804C52.8463 139.804 51.6983 140.966 51.6983 142.31C51.6983 143.668 52.8463 144.83 54.2043 144.83ZM68.0052 144.83C69.4332 144.83 70.5112 143.668 70.5112 142.31C70.5112 140.966 69.4332 139.804 68.0052 139.804C66.6472 139.804 65.4992 140.966 65.4992 142.31C65.4992 143.668 66.6472 144.83 68.0052 144.83ZM75.5313 144.83C76.9593 144.83 78.0373 143.668 78.0373 142.31C78.0373 140.966 76.9593 139.804 75.5313 139.804C74.1733 139.804 73.0253 140.966 73.0253 142.31C73.0253 143.668 74.1733 144.83 75.5313 144.83ZM83.0574 144.83C84.4854 144.83 85.5634 143.668 85.5634 142.31C85.5634 140.966 84.4854 139.804 83.0574 139.804C81.6994 139.804 80.5514 140.966 80.5514 142.31C80.5514 143.668 81.6994 144.83 83.0574 144.83ZM90.5835 144.83C92.0115 144.83 93.0895 143.668 93.0895 142.31C93.0895 140.966 92.0115 139.804 90.5835 139.804C89.2255 139.804 88.0775 140.966 88.0775 142.31C88.0775 143.668 89.2255 144.83 90.5835 144.83ZM104.384 144.83C105.812 144.83 106.89 143.668 106.89 142.31C106.89 140.966 105.812 139.804 104.384 139.804C103.026 139.804 101.878 140.966 101.878 142.31C101.878 143.668 103.026 144.83 104.384 144.83ZM111.911 144.83C113.339 144.83 114.417 143.668 114.417 142.31C114.417 140.966 113.339 139.804 111.911 139.804C110.553 139.804 109.405 140.966 109.405 142.31C109.405 143.668 110.553 144.83 111.911 144.83ZM119.437 144.83C120.865 144.83 121.943 143.668 121.943 142.31C121.943 140.966 120.865 139.804 119.437 139.804C118.079 139.804 116.931 140.966 116.931 142.31C116.931 143.668 118.079 144.83 119.437 144.83ZM126.963 144.83C128.391 144.83 129.469 143.668 129.469 142.31C129.469 140.966 128.391 139.804 126.963 139.804C125.605 139.804 124.457 140.966 124.457 142.31C124.457 143.668 125.605 144.83 126.963 144.83ZM140.764 144.83C142.192 144.83 143.27 143.668 143.27 142.31C143.27 140.966 142.192 139.804 140.764 139.804C139.406 139.804 138.258 140.966 138.258 142.31C138.258 143.668 139.406 144.83 140.764 144.83ZM148.29 144.83C149.718 144.83 150.796 143.668 150.796 142.31C150.796 140.966 149.718 139.804 148.29 139.804C146.932 139.804 145.784 140.966 145.784 142.31C145.784 143.668 146.932 144.83 148.29 144.83ZM155.816 144.83C157.244 144.83 158.322 143.668 158.322 142.31C158.322 140.966 157.244 139.804 155.816 139.804C154.458 139.804 153.31 140.966 153.31 142.31C153.31 143.668 154.458 144.83 155.816 144.83ZM167.416 143.752H166.142V137.2H164.798L160.08 143.766V144.886H164.854V147H166.142V144.886H167.416V143.752ZM164.882 139.006V143.752H161.494L164.882 139.006Z" fill="#00473C"></path><path fill-rule="evenodd" clip-rule="evenodd" d="M264.968 147.949C268.62 147.949 271.581 145.05 271.581 141.474C271.581 137.899 268.62 135 264.968 135C261.315 135 258.354 137.899 258.354 141.474C258.354 145.05 261.315 147.949 264.968 147.949Z" fill="#F79E1B"></path><path fill-rule="evenodd" clip-rule="evenodd" d="M256.614 147.949C260.266 147.949 263.227 145.05 263.227 141.474C263.227 137.899 260.266 135 256.614 135C252.961 135 250 137.899 250 141.474C250 145.05 252.961 147.949 256.614 147.949Z" fill="#EB001B"></path><path fill-rule="evenodd" clip-rule="evenodd" d="M260.79 136.455C259.304 137.642 258.354 139.45 258.354 141.474C258.354 143.499 259.304 145.307 260.79 146.494C262.277 145.307 263.227 143.499 263.227 141.474C263.227 139.45 262.277 137.642 260.79 136.455Z" fill="#FF5F00"></path><path d="M16 125C16 122.791 17.7909 121 20 121H280C282.209 121 284 122.791 284 125V161H16V125Z" stroke="#E6E6E6"></path><path d="M37.24 177.2L34.132 185.614L31.038 177.2H29.106V187H30.394V178.782L33.432 187H34.818L37.884 178.712V187H39.158V177.2H37.24ZM49.7973 177.2L46.6893 185.614L43.5953 177.2H41.6633V187H42.9513V178.782L45.9893 187H47.3753L50.4413 178.712V187H51.7153V177.2H49.7973ZM53.2547 189.8H54.5847L59.7507 177.2H58.4207L53.2547 189.8ZM67.2879 177.2L64.5719 181.848L61.8279 177.2H60.3719L63.8719 183.024V187H65.2019V183.024L68.7439 177.2H67.2879ZM76.3316 177.2L73.6156 181.848L70.8716 177.2H69.4156L72.9156 183.024V187H74.2456V183.024L77.7876 177.2H76.3316Z" fill="#00473C"></path><path d="M16 161H150V201H20C17.7909 201 16 199.209 16 197V161Z" stroke="#E6E6E6"></path><path d="M167.446 187.14C169.532 187.14 171.058 186.006 171.674 184.13L170.582 183.738C170.092 185.152 169 185.978 167.488 185.978C165.416 185.978 163.974 184.382 163.974 182.114C163.974 179.804 165.43 178.194 167.39 178.194C168.846 178.194 169.896 178.964 170.386 180.322L171.52 179.93C170.89 178.096 169.406 177.032 167.404 177.032C164.688 177.032 162.644 179.146 162.644 182.114C162.644 185.082 164.604 187.14 167.446 187.14ZM180.114 177.2L177.048 185.558L173.898 177.2H172.47L176.292 187H177.776L181.514 177.2H180.114ZM187.078 187.14C189.164 187.14 190.69 186.006 191.306 184.13L190.214 183.738C189.724 185.152 188.632 185.978 187.12 185.978C185.048 185.978 183.606 184.382 183.606 182.114C183.606 179.804 185.062 178.194 187.022 178.194C188.478 178.194 189.528 178.964 190.018 180.322L191.152 179.93C190.522 178.096 189.038 177.032 187.036 177.032C184.32 177.032 182.276 179.146 182.276 182.114C182.276 185.082 184.236 187.14 187.078 187.14Z" fill="#00473C"></path><g opacity="0.65"><path fill-rule="evenodd" clip-rule="evenodd" d="M264 175.504C260.965 175.504 258.504 177.965 258.504 181C258.504 184.035 260.965 186.496 264 186.496C267.035 186.496 269.496 184.035 269.496 181C269.496 177.965 267.035 175.504 264 175.504ZM257.496 181C257.496 177.408 260.408 174.496 264 174.496C267.592 174.496 270.504 177.408 270.504 181C270.504 184.592 267.592 187.504 264 187.504C260.408 187.504 257.496 184.592 257.496 181ZM264 185C264.414 185 264.75 184.664 264.75 184.25C264.75 183.836 264.414 183.5 264 183.5C263.586 183.5 263.25 183.836 263.25 184.25C263.25 184.664 263.586 185 264 185ZM264.439 177.543C264.003 177.457 263.55 177.501 263.139 177.671C262.728 177.842 262.377 178.13 262.129 178.5C261.882 178.87 261.75 179.305 261.75 179.75C261.75 180.026 261.974 180.25 262.25 180.25C262.526 180.25 262.75 180.026 262.75 179.75C262.75 179.503 262.823 179.261 262.961 179.056C263.098 178.85 263.293 178.69 263.522 178.595C263.75 178.501 264.001 178.476 264.244 178.524C264.486 178.572 264.709 178.691 264.884 178.866C265.059 179.041 265.178 179.264 265.226 179.506C265.274 179.749 265.25 180 265.155 180.228C265.06 180.457 264.9 180.652 264.695 180.789C264.489 180.927 264.247 181 264 181C263.867 181 263.74 181.053 263.647 181.147C263.553 181.24 263.5 181.367 263.5 181.5V182C263.5 182.276 263.724 182.5 264 182.5C264.276 182.5 264.5 182.276 264.5 182V181.944C264.766 181.883 265.021 181.774 265.25 181.621C265.62 181.374 265.909 181.022 266.079 180.611C266.249 180.2 266.294 179.748 266.207 179.311C266.12 178.875 265.906 178.474 265.591 178.159C265.276 177.844 264.876 177.63 264.439 177.543Z" fill="#00473C"></path></g><path d="M150 161H284V197C284 199.209 282.209 201 280 201H150V161Z" stroke="#E6E6E6"></path><path d="M20.68 233.12C22.528 233.12 23.896 232.088 24.388 230.408L23.176 230.012C22.792 231.188 21.94 231.848 20.716 231.848C19.06 231.848 17.956 230.588 17.956 228.812C17.956 226.976 19.096 225.716 20.632 225.716C21.82 225.716 22.636 226.316 23.02 227.468L24.268 227.048C23.752 225.38 22.432 224.444 20.644 224.444C18.292 224.444 16.516 226.256 16.516 228.8C16.516 231.344 18.184 233.12 20.68 233.12ZM28.5688 233.12C30.3448 233.12 31.6648 231.764 31.6648 229.94C31.6648 228.116 30.3448 226.796 28.5928 226.796C26.8168 226.796 25.4968 228.152 25.4968 229.976C25.4968 231.8 26.8168 233.12 28.5688 233.12ZM28.5928 231.944C27.5968 231.944 26.8768 231.14 26.8768 229.952C26.8768 228.776 27.5728 227.972 28.5688 227.972C29.5648 227.972 30.2848 228.776 30.2848 229.964C30.2848 231.14 29.5888 231.944 28.5928 231.944ZM37.1229 226.964V229.712C37.1229 231.224 36.4029 231.944 35.5389 231.944C34.7949 231.944 34.3629 231.416 34.3629 230.6V226.964H32.9829V230.768C32.9829 232.22 33.8709 233.12 35.1549 233.12C36.0309 233.12 36.7029 232.712 37.1229 231.956V233H38.5029V226.964H37.1229ZM43.6284 226.796C42.7884 226.796 42.1164 227.168 41.6964 227.9V226.964H40.3164V233H41.6964V230.048C41.6964 228.632 42.4284 227.972 43.2684 227.972C44.0244 227.972 44.4804 228.5 44.4804 229.352V233H45.8604V229.172C45.8604 227.708 44.9604 226.796 43.6284 226.796ZM50.5397 231.704C50.3717 231.86 50.1677 231.968 49.9037 231.968C49.5197 231.968 49.3037 231.692 49.3037 231.2V228.14H50.8877V226.964H49.3037V225.02L47.9237 225.62V226.964H46.9637V228.14H47.9237V231.344C47.9237 232.484 48.5357 233.12 49.6397 233.12C50.3837 233.12 50.9117 232.856 51.2597 232.46L50.5397 231.704ZM55.2665 226.832C54.6305 226.832 54.0905 227.144 53.7545 227.912V226.964H52.3745V233H53.7545V230.324C53.7545 228.728 54.2465 228.08 55.0985 228.08C55.3265 228.08 55.5065 228.128 55.6505 228.2L56.1185 227.06C55.8905 226.916 55.6025 226.832 55.2665 226.832ZM61.2623 226.964L59.7263 231.296L58.0823 226.964H56.6543L59.0543 232.892L58.0103 235.4H59.4023L62.6663 226.964H61.2623ZM69.3074 233.12C71.0834 233.12 72.4034 231.764 72.4034 229.94C72.4034 228.116 71.0834 226.796 69.3314 226.796C67.5554 226.796 66.2354 228.152 66.2354 229.976C66.2354 231.8 67.5554 233.12 69.3074 233.12ZM69.3314 231.944C68.3354 231.944 67.6154 231.14 67.6154 229.952C67.6154 228.776 68.3114 227.972 69.3074 227.972C70.3034 227.972 71.0234 228.776 71.0234 229.964C71.0234 231.14 70.3274 231.944 69.3314 231.944ZM76.7695 226.832C76.1335 226.832 75.5935 227.144 75.2575 227.912V226.964H73.8775V233H75.2575V230.324C75.2575 228.728 75.7495 228.08 76.6015 228.08C76.8295 228.08 77.0095 228.128 77.1535 228.2L77.6215 227.06C77.3935 226.916 77.1055 226.832 76.7695 226.832ZM84.4097 226.832C83.7737 226.832 83.2337 227.144 82.8977 227.912V226.964H81.5177V233H82.8977V230.324C82.8977 228.728 83.3897 228.08 84.2417 228.08C84.4697 228.08 84.6497 228.128 84.7937 228.2L85.2617 227.06C85.0337 226.916 84.7457 226.832 84.4097 226.832ZM88.7222 226.796C86.9942 226.796 85.7462 228.116 85.7462 230C85.7462 231.908 87.1022 233.12 88.8062 233.12C89.9582 233.12 90.8582 232.556 91.3502 231.704L90.4742 231.092C90.1142 231.632 89.5382 231.992 88.8302 231.992C87.9182 231.992 87.1382 231.392 87.0782 230.324H91.4582C91.7342 228.452 90.6182 226.796 88.7222 226.796ZM88.6982 227.876C89.5262 227.876 90.1022 228.464 90.1862 229.34H87.1262C87.2102 228.452 87.8582 227.876 88.6982 227.876ZM97.3704 226.964V227.672C96.9384 227.12 96.3144 226.796 95.5344 226.796C93.8784 226.796 92.6424 228.116 92.6424 229.856C92.6424 231.596 93.8904 232.904 95.5224 232.904C96.3264 232.904 96.9504 232.592 97.3704 232.04V232.436C97.3704 233.672 96.6984 234.344 95.5704 234.344C94.5984 234.344 93.9624 233.888 93.6384 233.072L92.5344 233.48C92.9304 234.728 94.0344 235.52 95.5344 235.52C97.4664 235.52 98.7504 234.272 98.7504 232.28V226.964H97.3704ZM95.7024 231.728C94.7304 231.728 94.0464 230.948 94.0464 229.856C94.0464 228.752 94.7304 227.972 95.7024 227.972C96.6744 227.972 97.3584 228.752 97.3584 229.856C97.3584 230.948 96.6744 231.728 95.7024 231.728ZM100.506 225.896H101.97V224.516H100.506V225.896ZM100.554 233H101.934V226.964H100.554V233ZM106.483 233.12C108.259 233.12 109.579 231.764 109.579 229.94C109.579 228.116 108.259 226.796 106.507 226.796C104.731 226.796 103.411 228.152 103.411 229.976C103.411 231.8 104.731 233.12 106.483 233.12ZM106.507 231.944C105.511 231.944 104.791 231.14 104.791 229.952C104.791 228.776 105.487 227.972 106.483 227.972C107.479 227.972 108.199 228.776 108.199 229.964C108.199 231.14 107.503 231.944 106.507 231.944ZM114.366 226.796C113.526 226.796 112.854 227.168 112.434 227.9V226.964H111.054V233H112.434V230.048C112.434 228.632 113.166 227.972 114.006 227.972C114.762 227.972 115.218 228.5 115.218 229.352V233H116.598V229.172C116.598 227.708 115.698 226.796 114.366 226.796Z" fill="#00473C"></path><path d="M32.214 267.14C34.482 267.14 36.008 266.034 36.008 264.228C36.008 260.238 30.17 262.464 30.17 259.748C30.17 258.838 30.982 258.152 32.242 258.152C33.376 258.152 34.202 258.782 34.552 259.776L35.728 259.426C35.294 257.97 34.09 257.032 32.326 257.032C30.296 257.032 28.924 258.18 28.924 259.86C28.924 263.836 34.72 261.596 34.72 264.382C34.72 265.362 33.754 266.02 32.298 266.02C30.926 266.02 30.002 265.306 29.666 264.032L28.518 264.382C28.896 266.076 30.226 267.14 32.214 267.14ZM40.8152 259.804C38.8272 259.804 37.3852 261.316 37.3852 263.5C37.3852 265.726 38.9532 267.14 40.8993 267.14C42.2573 267.14 43.2933 266.426 43.8533 265.404L42.9993 264.872C42.5793 265.614 41.8512 266.104 40.9272 266.104C39.7372 266.104 38.7012 265.306 38.6172 263.766H43.9372C44.1473 261.568 42.9572 259.804 40.8152 259.804ZM40.7872 260.812C41.9212 260.812 42.6632 261.624 42.7612 262.786H38.6592C38.7852 261.61 39.6532 260.812 40.7872 260.812ZM45.8099 267H47.0699V257.2H45.8099V267ZM52.3674 259.804C50.3794 259.804 48.9374 261.316 48.9374 263.5C48.9374 265.726 50.5054 267.14 52.4514 267.14C53.8094 267.14 54.8454 266.426 55.4054 265.404L54.5514 264.872C54.1314 265.614 53.4034 266.104 52.4794 266.104C51.2894 266.104 50.2534 265.306 50.1694 263.766H55.4894C55.6994 261.568 54.5094 259.804 52.3674 259.804ZM52.3394 260.812C53.4734 260.812 54.2154 261.624 54.3134 262.786H50.2114C50.3374 261.61 51.2054 260.812 52.3394 260.812ZM60.4 267.14C61.898 267.14 63.018 266.3 63.494 265.012L62.486 264.634C62.08 265.572 61.422 266.076 60.414 266.076C59.14 266.076 58.202 265.012 58.202 263.472C58.202 261.918 59.14 260.868 60.4 260.868C61.38 260.868 62.024 261.386 62.332 262.338L63.424 262.002C63.018 260.644 61.968 259.804 60.414 259.804C58.412 259.804 56.942 261.344 56.942 263.542C56.942 265.698 58.342 267.14 60.4 267.14ZM68.421 265.712C68.211 265.936 67.959 266.09 67.623 266.09C67.119 266.09 66.825 265.726 66.825 265.054V261.036H68.701V259.972H66.825V257.9L65.565 258.432V259.972H64.445V261.036H65.565V265.194C65.565 266.44 66.237 267.14 67.427 267.14C68.197 267.14 68.771 266.846 69.107 266.37L68.421 265.712Z" fill="#00473C"></path><path d="M269 258L264 263L259 258" stroke="black" stroke-width="1.6" stroke-linecap="round" stroke-linejoin="round"></path><rect x="16" y="241" width="268" height="40" rx="4" stroke="#E6E6E6"></rect><rect x="16" y="299" width="268" height="40" rx="5" fill="black"></rect><path fill-rule="evenodd" clip-rule="evenodd" d="M98.8184 316.5C98.8184 315.188 99.8817 314.125 101.193 314.125C102.505 314.125 103.568 315.188 103.568 316.5V317.5H98.8184V316.5ZM98.0684 317.5V316.5C98.0684 314.774 99.4675 313.375 101.193 313.375C102.919 313.375 104.318 314.774 104.318 316.5V317.5H105.193C105.47 317.5 105.693 317.724 105.693 318V323C105.693 323.276 105.47 323.5 105.193 323.5H97.1934C96.9172 323.5 96.6934 323.276 96.6934 323V318C96.6934 317.724 96.9172 317.5 97.1934 317.5H98.0684Z" fill="white"></path><path d="M118.917 314.2H114.857V324H116.523V320.346H118.819C120.947 320.346 122.249 319.114 122.249 317.21C122.249 315.376 120.989 314.2 118.917 314.2ZM118.861 318.848H116.523V315.684H118.819C119.939 315.684 120.569 316.3 120.569 317.266C120.569 318.246 119.953 318.848 118.861 318.848ZM126.573 316.762C124.949 316.762 123.787 317.756 123.521 319.184L124.795 319.562C125.075 318.652 125.579 318.162 126.503 318.162C127.371 318.162 127.945 318.736 127.987 319.66L126.125 319.982C124.529 320.262 123.759 320.934 123.759 322.068C123.759 323.314 124.683 324.14 126.013 324.14C126.965 324.14 127.693 323.706 128.113 322.922V324H129.583V319.632C129.583 317.924 128.449 316.762 126.573 316.762ZM126.377 323.006C125.789 323.006 125.369 322.67 125.369 322.11C125.369 321.508 125.831 321.214 126.643 321.06L127.987 320.794V321.032C127.987 322.152 127.315 323.006 126.377 323.006ZM135.961 316.958L134.169 322.012L132.251 316.958H130.585L133.385 323.874L132.167 326.8H133.791L137.599 316.958H135.961ZM149.491 321.116C149.491 319.002 147.811 318.624 146.285 318.344V315.474C147.013 315.67 147.503 316.188 147.741 316.93L149.225 316.51C148.833 315.166 147.825 314.228 146.285 314.046V312.8H145.207V314.046C143.443 314.228 142.253 315.362 142.253 316.986C142.253 318.988 143.751 319.422 145.207 319.716V322.726C144.213 322.586 143.569 321.97 143.289 320.864L141.805 321.284C142.141 322.964 143.303 324 145.207 324.126V325.358H146.285V324.112C148.217 323.916 149.491 322.838 149.491 321.116ZM143.793 316.804C143.793 316.09 144.325 315.544 145.207 315.418V318.12C144.395 317.91 143.793 317.588 143.793 316.804ZM146.285 322.726V319.94C147.195 320.15 147.909 320.472 147.909 321.354C147.909 322.082 147.265 322.586 146.285 322.726ZM153.087 314.2C152.681 315.32 151.883 315.894 150.581 316.006V317.588C151.547 317.518 152.261 317.238 152.779 316.706V324H154.459V314.2H153.087ZM156.712 322.278V324H157.734V324.504C157.734 324.882 157.496 325.148 157.16 325.148C156.936 325.148 156.726 325.106 156.544 324.994L156.236 325.526C156.488 325.708 156.796 325.792 157.16 325.792C157.972 325.792 158.49 325.246 158.49 324.406V322.278H156.712ZM161.878 314.2C161.472 315.32 160.674 315.894 159.372 316.006V317.588C160.338 317.518 161.052 317.238 161.57 316.706V324H163.25V314.2H161.878ZM168.709 314.018C166.707 314.018 165.237 315.362 165.237 317.336C165.237 319.212 166.539 320.486 168.429 320.486C169.493 320.486 170.333 320.052 170.837 319.324C170.809 321.494 169.969 322.698 168.611 322.698C167.743 322.698 167.183 322.138 166.833 321.116L165.489 321.578C165.951 323.258 166.987 324.14 168.653 324.14C170.963 324.14 172.447 322.166 172.447 318.946C172.447 315.796 171.075 314.018 168.709 314.018ZM168.737 319.17C167.673 319.17 166.917 318.4 166.917 317.308C166.917 316.188 167.631 315.446 168.723 315.446C169.787 315.446 170.529 316.216 170.529 317.308C170.529 318.4 169.773 319.17 168.737 319.17ZM177.479 314.018C175.477 314.018 174.007 315.362 174.007 317.336C174.007 319.212 175.309 320.486 177.199 320.486C178.263 320.486 179.103 320.052 179.607 319.324C179.579 321.494 178.739 322.698 177.381 322.698C176.513 322.698 175.953 322.138 175.603 321.116L174.259 321.578C174.721 323.258 175.757 324.14 177.423 324.14C179.733 324.14 181.217 322.166 181.217 318.946C181.217 315.796 179.845 314.018 177.479 314.018ZM177.507 319.17C176.443 319.17 175.687 318.4 175.687 317.308C175.687 316.188 176.401 315.446 177.493 315.446C178.557 315.446 179.299 316.216 179.299 317.308C179.299 318.4 178.543 319.17 177.507 319.17ZM183.029 324H184.821V322.25H183.029V324ZM190.467 324.14C192.917 324.14 194.289 322.334 194.289 319.086C194.289 315.824 192.917 314.018 190.467 314.018C188.003 314.018 186.631 315.824 186.631 319.086C186.631 322.334 188.003 324.14 190.467 324.14ZM190.467 322.656C189.081 322.656 188.311 321.382 188.311 319.086C188.311 316.79 189.081 315.502 190.467 315.502C191.839 315.502 192.609 316.79 192.609 319.086C192.609 321.382 191.839 322.656 190.467 322.656ZM199.893 324.14C202.343 324.14 203.715 322.334 203.715 319.086C203.715 315.824 202.343 314.018 199.893 314.018C197.429 314.018 196.057 315.824 196.057 319.086C196.057 322.334 197.429 324.14 199.893 324.14ZM199.893 322.656C198.507 322.656 197.737 321.382 197.737 319.086C197.737 316.79 198.507 315.502 199.893 315.502C201.265 315.502 202.035 316.79 202.035 319.086C202.035 321.382 201.265 322.656 199.893 322.656Z" fill="white"></path></svg> 