<?xml version="1.0" encoding="UTF-8"?> <svg xmlns="http://www.w3.org/2000/svg" width="56" height="56" viewBox="0 0 56 56" fill="none"><rect width="56" height="56" rx="12" fill="white"></rect><path fill-rule="evenodd" clip-rule="evenodd" d="M33.825 37.3333C39.0905 37.3333 43.359 33.1546 43.359 28C43.359 22.8453 39.0905 18.6667 33.825 18.6667C28.5595 18.6667 24.291 22.8453 24.291 28C24.291 33.1546 28.5595 37.3333 33.825 37.3333Z" fill="#F79E1B"></path><path fill-rule="evenodd" clip-rule="evenodd" d="M21.784 37.3333C27.0495 37.3333 31.318 33.1547 31.318 28C31.318 22.8453 27.0495 18.6667 21.784 18.6667C16.5185 18.6667 12.25 22.8453 12.25 28C12.25 33.1547 16.5185 37.3333 21.784 37.3333Z" fill="#EB001B"></path><path fill-rule="evenodd" clip-rule="evenodd" d="M27.8045 35.2359C29.9476 33.5244 31.316 30.9187 31.316 28.0001C31.316 25.0814 29.9476 22.4757 27.8045 20.7642C25.6614 22.4757 24.293 25.0814 24.293 28.0001C24.293 30.9187 25.6614 33.5244 27.8045 35.2359Z" fill="#FF5F00"></path></svg> 