<?xml version="1.0" encoding="UTF-8"?> <svg xmlns="http://www.w3.org/2000/svg" width="540" height="396" viewBox="0 0 540 396" fill="none"><rect width="540" height="481" rx="8" fill="#FAF9F6"></rect><path opacity="0.5" d="M34.316 45H35.36V36.42H34.388L32.396 37.86V38.832L34.316 37.452V45ZM36.7478 46.776H37.6598L41.1518 35.688H40.2398L36.7478 46.776ZM44.4566 45.108C46.2326 45.108 47.5046 44.172 47.5046 42.612C47.5046 41.424 46.8566 40.716 45.8486 40.452C46.6286 40.128 47.2046 39.552 47.2046 38.58C47.2046 37.392 46.2566 36.312 44.6246 36.312C42.9926 36.312 41.8766 37.428 41.8166 38.784H42.7286C42.8366 37.812 43.5566 37.164 44.6246 37.164C45.6686 37.164 46.1846 37.788 46.1846 38.604C46.1846 39.54 45.6926 40.068 44.5766 40.068H43.9766V40.944H44.6246C45.8366 40.944 46.4366 41.508 46.4366 42.612C46.4366 43.62 45.8246 44.268 44.4806 44.268C43.1246 44.268 42.5126 43.488 42.4166 42.468H41.4566C41.5166 43.968 42.6326 45.108 44.4566 45.108ZM55.2465 45.108C56.9505 45.108 58.2105 44.016 58.2105 42.576C58.2105 40.956 57.2025 40.38 55.2945 40.08C53.5425 39.816 53.2305 39.384 53.2305 38.544C53.2305 37.74 53.8425 37.152 55.0185 37.152C56.2065 37.152 56.8305 37.596 57.0345 38.676H57.9705C57.8025 37.152 56.7345 36.312 55.0185 36.312C53.3985 36.312 52.2585 37.32 52.2585 38.64C52.2585 40.164 53.3265 40.728 55.1265 41.004C56.7585 41.268 57.2025 41.676 57.2025 42.648C57.2025 43.62 56.3505 44.268 55.2465 44.268C53.5185 44.268 53.1105 43.404 52.9785 42.384H51.9705C52.1265 43.848 52.9545 45.108 55.2465 45.108ZM61.834 45.084C62.242 45.084 62.482 45.024 62.686 44.952V44.112C62.47 44.196 62.23 44.244 61.918 44.244C61.414 44.244 61.138 43.944 61.138 43.332V39.564H62.602V38.724H61.138V37.296H60.142V38.724H59.242V39.564H60.142V43.428C60.142 44.412 60.694 45.084 61.834 45.084ZM66.7596 45.108C68.1756 45.108 69.2196 44.448 69.4356 43.188H68.4396C68.3076 43.92 67.7436 44.28 66.7716 44.28C65.4876 44.28 64.8036 43.488 64.7556 42.06H69.4836V41.736C69.4836 39.492 68.1156 38.616 66.6636 38.616C64.9356 38.616 63.7236 39.936 63.7236 41.832V41.928C63.7236 43.86 64.9836 45.108 66.7596 45.108ZM64.7916 41.256C64.9596 40.14 65.6436 39.444 66.6636 39.444C67.6956 39.444 68.3676 39.96 68.4636 41.256H64.7916ZM71.0119 47.184H72.0079V43.968C72.3679 44.592 73.0999 45.108 74.1319 45.108C75.8599 45.108 76.9879 43.788 76.9879 41.868V41.772C76.9879 39.816 75.7759 38.616 74.1319 38.616C73.2199 38.616 72.3679 39.168 72.0079 39.78V38.724H71.0119V47.184ZM74.0359 44.28C72.8119 44.28 71.9719 43.524 71.9719 41.916V41.82C71.9719 40.212 72.8599 39.444 74.0239 39.444C75.0799 39.444 75.9559 40.236 75.9559 41.82V41.916C75.9559 43.44 75.2839 44.28 74.0359 44.28ZM80.4793 45.108C82.0033 45.108 82.7833 44.34 82.7833 43.2C82.7833 41.868 81.8713 41.58 80.5753 41.34C79.4233 41.136 79.1113 40.908 79.1113 40.344C79.1113 39.804 79.5793 39.444 80.2993 39.444C81.0913 39.444 81.4753 39.744 81.6193 40.428H82.5793C82.4113 39.072 81.4393 38.616 80.3113 38.616C79.3273 38.616 78.1873 39.216 78.1873 40.38C78.1873 41.472 78.7393 41.928 80.3713 42.228C81.3433 42.408 81.8353 42.624 81.8353 43.284C81.8353 43.956 81.4153 44.28 80.4673 44.28C79.4593 44.28 79.0633 43.812 78.9913 43.068H78.0193C78.0793 44.352 78.9793 45.108 80.4793 45.108Z" fill="#404040"></path><g clip-path="url(#clip0_1125_17950)"><rect x="32" y="58" width="157.333" height="2" rx="1" fill="url(#paint0_linear_1125_17950)"></rect><rect opacity="0.5" x="191.333" y="58" width="157.333" height="2" rx="1" fill="#E1DCD4"></rect><rect opacity="0.5" x="350.667" y="58" width="157.333" height="2" rx="1" fill="#E1DCD4"></rect></g><path d="M43.88 81.4L39.884 92.218L35.906 81.4H33.422V94H35.078V83.434L38.984 94H40.766L44.708 83.344V94H46.346V81.4H43.88ZM52.7532 84.748C50.1972 84.748 48.3432 86.692 48.3432 89.5C48.3432 92.362 50.3592 94.18 52.8612 94.18C54.6072 94.18 55.9392 93.262 56.6592 91.948L55.5612 91.264C55.0212 92.218 54.0852 92.848 52.8972 92.848C51.3672 92.848 50.0352 91.822 49.9272 89.842H56.7672C57.0372 87.016 55.5072 84.748 52.7532 84.748ZM52.7172 86.044C54.1752 86.044 55.1292 87.088 55.2552 88.582H49.9812C50.1432 87.07 51.2592 86.044 52.7172 86.044ZM62.5048 84.802C61.5148 84.802 60.7048 85.288 60.2008 86.494V84.964H58.5808V94H60.2008V90.13C60.2008 87.322 60.9928 86.278 62.3248 86.278C62.6488 86.278 62.9188 86.35 63.1348 86.458L63.6928 85.108C63.3868 84.928 62.9728 84.802 62.5048 84.802ZM68.4252 94.18C70.3512 94.18 71.7912 93.1 72.4032 91.444L71.1072 90.958C70.5852 92.164 69.7392 92.812 68.4432 92.812C66.8052 92.812 65.5992 91.444 65.5992 89.464C65.5992 87.466 66.8052 86.116 68.4252 86.116C69.6852 86.116 70.5132 86.782 70.9092 88.006L72.3132 87.574C71.7912 85.828 70.4412 84.748 68.4432 84.748C65.8692 84.748 63.9792 86.728 63.9792 89.554C63.9792 92.326 65.7792 94.18 68.4252 94.18ZM78.8278 84.748C77.4778 84.748 76.4158 85.378 75.7678 86.602V81.4H74.1478V94H75.7678V89.716C75.7678 87.34 76.9558 86.116 78.4318 86.116C79.7278 86.116 80.5198 87.016 80.5198 88.492V94H82.1398V88.294C82.1398 86.17 80.8618 84.748 78.8278 84.748ZM87.6869 84.748C85.6529 84.748 84.1949 85.99 83.8529 87.808L85.1669 88.204C85.5269 86.89 86.2829 86.188 87.6149 86.188C88.9289 86.188 89.7749 87.016 89.8289 88.402L87.3629 88.87C85.1309 89.284 84.1769 90.166 84.1769 91.606C84.1769 93.172 85.3469 94.18 87.0209 94.18C88.3529 94.18 89.3429 93.55 89.9189 92.416V94H91.4309V88.384C91.4309 86.206 89.9729 84.748 87.6869 84.748ZM87.3269 92.974C86.4449 92.974 85.7969 92.488 85.7969 91.624C85.7969 90.742 86.4629 90.292 87.9389 90.004L89.8289 89.662V89.932C89.8289 91.714 88.7849 92.974 87.3269 92.974ZM98.2415 84.748C96.8915 84.748 95.8475 85.378 95.1995 86.584V84.964H93.5795V94H95.1995V89.716C95.1995 87.322 96.3875 86.116 97.8635 86.116C99.1595 86.116 99.9515 87.016 99.9515 88.492V94H101.572V88.294C101.572 86.098 100.24 84.748 98.2415 84.748ZM107.822 92.344C107.552 92.632 107.228 92.83 106.796 92.83C106.148 92.83 105.77 92.362 105.77 91.498V86.332H108.182V84.964H105.77V82.3L104.15 82.984V84.964H102.71V86.332H104.15V91.678C104.15 93.28 105.014 94.18 106.544 94.18C107.534 94.18 108.272 93.802 108.704 93.19L107.822 92.344ZM117.374 94.18C119.984 94.18 121.91 92.2 121.91 89.446C121.91 86.692 119.984 84.748 117.392 84.748C114.782 84.748 112.856 86.728 112.856 89.482C112.856 92.236 114.782 94.18 117.374 94.18ZM117.392 92.812C115.7 92.812 114.476 91.444 114.476 89.464C114.476 87.484 115.682 86.116 117.374 86.116C119.066 86.116 120.29 87.484 120.29 89.464C120.29 91.444 119.084 92.812 117.392 92.812ZM128.354 84.748C127.004 84.748 125.96 85.378 125.312 86.584V84.964H123.692V94H125.312V89.716C125.312 87.322 126.5 86.116 127.976 86.116C129.272 86.116 130.064 87.016 130.064 88.492V94H131.684V88.294C131.684 86.098 130.352 84.748 128.354 84.748ZM138.618 84.748C137.214 84.748 136.152 85.36 135.504 86.44V81.4H133.884V94H135.504V92.488C136.152 93.568 137.214 94.18 138.618 94.18C141.066 94.18 142.722 92.254 142.722 89.464C142.722 86.692 141.066 84.748 138.618 84.748ZM138.312 92.812C136.62 92.812 135.504 91.444 135.504 89.464C135.504 87.484 136.62 86.116 138.312 86.116C139.986 86.116 141.102 87.484 141.102 89.464C141.102 91.444 139.986 92.812 138.312 92.812ZM148.528 94.18C151.138 94.18 153.064 92.2 153.064 89.446C153.064 86.692 151.138 84.748 148.546 84.748C145.936 84.748 144.01 86.728 144.01 89.482C144.01 92.236 145.936 94.18 148.528 94.18ZM148.546 92.812C146.854 92.812 145.63 91.444 145.63 89.464C145.63 87.484 146.836 86.116 148.528 86.116C150.22 86.116 151.444 87.484 151.444 89.464C151.444 91.444 150.238 92.812 148.546 92.812ZM158.247 84.748C156.213 84.748 154.755 85.99 154.413 87.808L155.727 88.204C156.087 86.89 156.843 86.188 158.175 86.188C159.489 86.188 160.335 87.016 160.389 88.402L157.923 88.87C155.691 89.284 154.737 90.166 154.737 91.606C154.737 93.172 155.907 94.18 157.581 94.18C158.913 94.18 159.903 93.55 160.479 92.416V94H161.991V88.384C161.991 86.206 160.533 84.748 158.247 84.748ZM157.887 92.974C157.005 92.974 156.357 92.488 156.357 91.624C156.357 90.742 157.023 90.292 158.499 90.004L160.389 89.662V89.932C160.389 91.714 159.345 92.974 157.887 92.974ZM168.064 84.802C167.074 84.802 166.264 85.288 165.76 86.494V84.964H164.14V94H165.76V90.13C165.76 87.322 166.552 86.278 167.884 86.278C168.208 86.278 168.478 86.35 168.694 86.458L169.252 85.108C168.946 84.928 168.532 84.802 168.064 84.802ZM176.792 81.4V86.35C176.162 85.324 175.136 84.748 173.768 84.748C171.212 84.748 169.538 86.692 169.538 89.464C169.538 92.254 171.212 94.18 173.768 94.18C175.136 94.18 176.162 93.586 176.792 92.578V94H178.412V81.4H176.792ZM173.984 92.812C172.292 92.812 171.158 91.444 171.158 89.464C171.158 87.484 172.292 86.116 173.984 86.116C175.694 86.116 176.792 87.484 176.792 89.464C176.792 91.444 175.694 92.812 173.984 92.812ZM180.688 83.11H182.416V81.328H180.688V83.11ZM180.742 94H182.362V84.964H180.742V94ZM189.303 84.748C187.953 84.748 186.909 85.378 186.261 86.584V84.964H184.641V94H186.261V89.716C186.261 87.322 187.449 86.116 188.925 86.116C190.221 86.116 191.013 87.016 191.013 88.492V94H192.633V88.294C192.633 86.098 191.301 84.748 189.303 84.748ZM201.637 84.964V86.26C200.971 85.306 199.927 84.748 198.631 84.748C196.165 84.748 194.311 86.674 194.311 89.338C194.311 91.966 196.147 93.874 198.595 93.874C199.927 93.874 200.971 93.316 201.637 92.38V93.118C201.637 95.188 200.521 96.394 198.649 96.394C197.029 96.394 195.967 95.62 195.445 94.198L194.149 94.684C194.743 96.628 196.363 97.78 198.595 97.78C201.457 97.78 203.257 95.89 203.257 92.902V84.964H201.637ZM198.793 92.506C197.119 92.506 195.949 91.174 195.949 89.32C195.949 87.448 197.119 86.116 198.793 86.116C200.449 86.116 201.637 87.448 201.637 89.32C201.637 91.174 200.449 92.506 198.793 92.506Z" fill="#322E2E"></path><path opacity="0.5" d="M38.877 121.966V120.9H33.027V130H34.262V126.23H38.344V125.151H34.262V121.966H38.877ZM40.2337 122.135H41.4817V120.848H40.2337V122.135ZM40.2727 130H41.4427V123.474H40.2727V130ZM46.052 123.357C45.337 123.357 44.752 123.708 44.388 124.579V123.474H43.218V130H44.388V127.205C44.388 125.177 44.96 124.423 45.922 124.423C46.156 124.423 46.351 124.475 46.507 124.553L46.91 123.578C46.689 123.448 46.39 123.357 46.052 123.357ZM50.0219 130.13C51.5949 130.13 52.6479 129.35 52.6479 128.141C52.6479 125.398 48.7869 126.854 48.7869 125.138C48.7869 124.579 49.2939 124.215 50.0869 124.215C50.8279 124.215 51.3089 124.618 51.5299 125.242L52.4529 124.93C52.1799 123.942 51.3349 123.318 50.1649 123.318C48.7089 123.318 47.7079 124.059 47.7079 125.242C47.7079 128.024 51.5559 126.581 51.5559 128.258C51.5559 128.83 50.9969 129.207 50.0999 129.207C49.1769 129.207 48.5659 128.726 48.3189 127.933L47.4219 128.245C47.6949 129.454 48.6699 130.13 50.0219 130.13ZM57.0111 128.804C56.8161 129.012 56.5821 129.155 56.2701 129.155C55.8021 129.155 55.5291 128.817 55.5291 128.193V124.462H57.2711V123.474H55.5291V121.55L54.3591 122.044V123.474H53.3191V124.462H54.3591V128.323C54.3591 129.48 54.9831 130.13 56.0881 130.13C56.8031 130.13 57.3361 129.857 57.6481 129.415L57.0111 128.804ZM64.625 123.318C63.65 123.318 62.896 123.773 62.428 124.644V123.474H61.258V130H62.428V126.906C62.428 125.177 63.286 124.306 64.352 124.306C65.288 124.306 65.86 124.956 65.86 126.022V130H67.03V125.879C67.03 124.293 66.068 123.318 64.625 123.318ZM71.1672 123.318C69.6982 123.318 68.6452 124.215 68.3982 125.528L69.3472 125.814C69.6072 124.865 70.1532 124.358 71.1152 124.358C72.0642 124.358 72.6752 124.956 72.7142 125.957L70.9332 126.295C69.3212 126.594 68.6322 127.231 68.6322 128.271C68.6322 129.402 69.4772 130.13 70.6862 130.13C71.6482 130.13 72.3632 129.675 72.7792 128.856V130H73.8712V125.944C73.8712 124.371 72.8182 123.318 71.1672 123.318ZM70.9072 129.259C70.2702 129.259 69.8022 128.908 69.8022 128.284C69.8022 127.647 70.2832 127.322 71.3492 127.114L72.7142 126.867V127.062C72.7142 128.349 71.9602 129.259 70.9072 129.259ZM83.1709 123.318C82.1569 123.318 81.3899 123.812 80.9349 124.722C80.5839 123.812 79.8299 123.318 78.8029 123.318C77.8279 123.318 77.1129 123.786 76.7229 124.683V123.474H75.5529V130H76.7229V127.127C76.7229 125.268 77.4899 124.306 78.5819 124.306C79.4789 124.306 79.9599 124.956 79.9599 125.97V130H81.1299V127.127C81.1299 125.268 81.8969 124.306 82.9759 124.306C83.8729 124.306 84.3669 124.956 84.3669 125.97V130H85.5369V125.866C85.5369 124.28 84.6399 123.318 83.1709 123.318ZM90.0539 123.318C88.2079 123.318 86.8689 124.722 86.8689 126.75C86.8689 128.817 88.3249 130.13 90.1319 130.13C91.3929 130.13 92.3549 129.467 92.8749 128.518L92.0819 128.024C91.6919 128.713 91.0159 129.168 90.1579 129.168C89.0529 129.168 88.0909 128.427 88.0129 126.997H92.9529C93.1479 124.956 92.0429 123.318 90.0539 123.318ZM90.0279 124.254C91.0809 124.254 91.7699 125.008 91.8609 126.087H88.0519C88.1689 124.995 88.9749 124.254 90.0279 124.254Z" fill="black"></path><rect x="32" y="142" width="226" height="41" rx="6" fill="white"></rect><path d="M49.26 167H50.478V162.926H52.102C54.006 162.926 55.602 162.1 55.602 159.972V159.916C55.602 157.83 54.02 156.99 52.102 156.99H49.26V167ZM50.478 161.96V157.97H52.186C53.544 157.97 54.384 158.502 54.384 159.916V159.972C54.384 161.26 53.614 161.96 52.186 161.96H50.478ZM59.9617 167.126C61.6137 167.126 62.8317 166.356 63.0837 164.886H61.9217C61.7677 165.74 61.1097 166.16 59.9757 166.16C58.4777 166.16 57.6797 165.236 57.6237 163.57H63.1397V163.192C63.1397 160.574 61.5437 159.552 59.8497 159.552C57.8337 159.552 56.4197 161.092 56.4197 163.304V163.416C56.4197 165.67 57.8897 167.126 59.9617 167.126ZM57.6657 162.632C57.8617 161.33 58.6597 160.518 59.8497 160.518C61.0537 160.518 61.8377 161.12 61.9497 162.632H57.6657ZM67.0087 167.098C67.4847 167.098 67.7647 167.028 68.0027 166.944V165.964C67.7507 166.062 67.4707 166.118 67.1067 166.118C66.5187 166.118 66.1967 165.768 66.1967 165.054V160.658H67.9047V159.678H66.1967V158.012H65.0347V159.678H63.9847V160.658H65.0347V165.166C65.0347 166.314 65.6787 167.098 67.0087 167.098ZM72.6153 167.126C74.2673 167.126 75.4853 166.356 75.7373 164.886H74.5753C74.4213 165.74 73.7633 166.16 72.6293 166.16C71.1313 166.16 70.3333 165.236 70.2773 163.57H75.7933V163.192C75.7933 160.574 74.1973 159.552 72.5033 159.552C70.4873 159.552 69.0733 161.092 69.0733 163.304V163.416C69.0733 165.67 70.5433 167.126 72.6153 167.126ZM70.3193 162.632C70.5153 161.33 71.3133 160.518 72.5033 160.518C73.7073 160.518 74.4913 161.12 74.6033 162.632H70.3193ZM77.4363 167H78.5983V162.982C78.5983 161.176 79.5363 160.714 81.0063 160.644V159.552C79.6903 159.594 79.0603 160.168 78.5983 160.994V159.678H77.4363V167Z" fill="#322E2E"></path><rect x="32.5" y="142.5" width="225" height="40" rx="5.5" stroke="black" stroke-opacity="0.1"></rect><path opacity="0.5" d="M284.262 128.921V120.9H283.027V130H288.89V128.921H284.262ZM292.666 123.318C291.197 123.318 290.144 124.215 289.897 125.528L290.846 125.814C291.106 124.865 291.652 124.358 292.614 124.358C293.563 124.358 294.174 124.956 294.213 125.957L292.432 126.295C290.82 126.594 290.131 127.231 290.131 128.271C290.131 129.402 290.976 130.13 292.185 130.13C293.147 130.13 293.862 129.675 294.278 128.856V130H295.37V125.944C295.37 124.371 294.317 123.318 292.666 123.318ZM292.406 129.259C291.769 129.259 291.301 128.908 291.301 128.284C291.301 127.647 291.782 127.322 292.848 127.114L294.213 126.867V127.062C294.213 128.349 293.459 129.259 292.406 129.259ZM299.184 130.13C300.757 130.13 301.81 129.35 301.81 128.141C301.81 125.398 297.949 126.854 297.949 125.138C297.949 124.579 298.456 124.215 299.249 124.215C299.99 124.215 300.471 124.618 300.692 125.242L301.615 124.93C301.342 123.942 300.497 123.318 299.327 123.318C297.871 123.318 296.87 124.059 296.87 125.242C296.87 128.024 300.718 126.581 300.718 128.258C300.718 128.83 300.159 129.207 299.262 129.207C298.339 129.207 297.728 128.726 297.481 127.933L296.584 128.245C296.857 129.454 297.832 130.13 299.184 130.13ZM306.173 128.804C305.978 129.012 305.744 129.155 305.432 129.155C304.964 129.155 304.691 128.817 304.691 128.193V124.462H306.433V123.474H304.691V121.55L303.521 122.044V123.474H302.481V124.462H303.521V128.323C303.521 129.48 304.145 130.13 305.25 130.13C305.965 130.13 306.498 129.857 306.81 129.415L306.173 128.804ZM313.787 123.318C312.812 123.318 312.058 123.773 311.59 124.644V123.474H310.42V130H311.59V126.906C311.59 125.177 312.448 124.306 313.514 124.306C314.45 124.306 315.022 124.956 315.022 126.022V130H316.192V125.879C316.192 124.293 315.23 123.318 313.787 123.318ZM320.329 123.318C318.86 123.318 317.807 124.215 317.56 125.528L318.509 125.814C318.769 124.865 319.315 124.358 320.277 124.358C321.226 124.358 321.837 124.956 321.876 125.957L320.095 126.295C318.483 126.594 317.794 127.231 317.794 128.271C317.794 129.402 318.639 130.13 319.848 130.13C320.81 130.13 321.525 129.675 321.941 128.856V130H323.033V125.944C323.033 124.371 321.98 123.318 320.329 123.318ZM320.069 129.259C319.432 129.259 318.964 128.908 318.964 128.284C318.964 127.647 319.445 127.322 320.511 127.114L321.876 126.867V127.062C321.876 128.349 321.122 129.259 320.069 129.259ZM332.333 123.318C331.319 123.318 330.552 123.812 330.097 124.722C329.746 123.812 328.992 123.318 327.965 123.318C326.99 123.318 326.275 123.786 325.885 124.683V123.474H324.715V130H325.885V127.127C325.885 125.268 326.652 124.306 327.744 124.306C328.641 124.306 329.122 124.956 329.122 125.97V130H330.292V127.127C330.292 125.268 331.059 124.306 332.138 124.306C333.035 124.306 333.529 124.956 333.529 125.97V130H334.699V125.866C334.699 124.28 333.802 123.318 332.333 123.318ZM339.216 123.318C337.37 123.318 336.031 124.722 336.031 126.75C336.031 128.817 337.487 130.13 339.294 130.13C340.555 130.13 341.517 129.467 342.037 128.518L341.244 128.024C340.854 128.713 340.178 129.168 339.32 129.168C338.215 129.168 337.253 128.427 337.175 126.997H342.115C342.31 124.956 341.205 123.318 339.216 123.318ZM339.19 124.254C340.243 124.254 340.932 125.008 341.023 126.087H337.214C337.331 124.995 338.137 124.254 339.19 124.254Z" fill="black"></path><rect x="282" y="142" width="226" height="41" rx="6" fill="white"></rect><path d="M302.494 167.126C304.482 167.126 305.952 165.852 305.952 164.172C305.952 162.282 304.776 161.61 302.55 161.26C300.506 160.952 300.142 160.448 300.142 159.468C300.142 158.53 300.856 157.844 302.228 157.844C303.614 157.844 304.342 158.362 304.58 159.622H305.672C305.476 157.844 304.23 156.864 302.228 156.864C300.338 156.864 299.008 158.04 299.008 159.58C299.008 161.358 300.254 162.016 302.354 162.338C304.258 162.646 304.776 163.122 304.776 164.256C304.776 165.39 303.782 166.146 302.494 166.146C300.478 166.146 300.002 165.138 299.848 163.948H298.672C298.854 165.656 299.82 167.126 302.494 167.126ZM307.841 167H309.003V159.678H307.841V167ZM308.401 158.152C308.821 158.152 309.171 157.802 309.171 157.382C309.171 156.962 308.821 156.612 308.401 156.612C307.981 156.612 307.631 156.962 307.631 157.382C307.631 157.802 307.981 158.152 308.401 158.152ZM311.242 167H312.404V162.52C312.404 161.204 313.384 160.56 314.336 160.56C315.344 160.56 315.89 161.092 315.89 162.38V167H317.052V162.52C317.052 161.204 318.032 160.56 318.984 160.56C319.992 160.56 320.538 161.092 320.538 162.38V167H321.7V162.464C321.7 160.336 320.552 159.552 319.236 159.552C318.326 159.552 317.234 159.972 316.73 160.924C316.352 159.944 315.526 159.552 314.588 159.552C313.538 159.552 312.74 160.112 312.404 160.798V159.678H311.242V167ZM323.844 167H325.006V162.52C325.006 161.204 325.986 160.56 326.938 160.56C327.946 160.56 328.492 161.092 328.492 162.38V167H329.654V162.52C329.654 161.204 330.634 160.56 331.586 160.56C332.594 160.56 333.14 161.092 333.14 162.38V167H334.302V162.464C334.302 160.336 333.154 159.552 331.838 159.552C330.928 159.552 329.836 159.972 329.332 160.924C328.954 159.944 328.128 159.552 327.19 159.552C326.14 159.552 325.342 160.112 325.006 160.798V159.678H323.844V167ZM339.498 166.16C338.014 166.16 337.104 165.068 337.104 163.402V163.29C337.104 161.61 338.028 160.518 339.498 160.518C340.954 160.518 341.892 161.61 341.892 163.304V163.402C341.892 165.054 340.968 166.16 339.498 166.16ZM339.484 167.126C341.57 167.126 343.096 165.6 343.096 163.388V163.276C343.096 161.078 341.57 159.552 339.498 159.552C337.426 159.552 335.9 161.092 335.9 163.29V163.402C335.9 165.544 337.398 167.126 339.484 167.126ZM344.755 167H345.917V162.562C345.917 161.246 346.883 160.56 347.961 160.56C349.137 160.56 349.683 161.134 349.683 162.422V167H350.845V162.506C350.845 160.378 349.781 159.552 348.269 159.552C347.065 159.552 346.253 160.154 345.917 160.84V159.678H344.755V167ZM355.25 167.126C357.028 167.126 357.938 166.23 357.938 164.9C357.938 163.346 356.874 163.01 355.362 162.73C354.018 162.492 353.654 162.226 353.654 161.568C353.654 160.938 354.2 160.518 355.04 160.518C355.964 160.518 356.412 160.868 356.58 161.666H357.7C357.504 160.084 356.37 159.552 355.054 159.552C353.906 159.552 352.576 160.252 352.576 161.61C352.576 162.884 353.22 163.416 355.124 163.766C356.258 163.976 356.832 164.228 356.832 164.998C356.832 165.782 356.342 166.16 355.236 166.16C354.06 166.16 353.598 165.614 353.514 164.746H352.38C352.45 166.244 353.5 167.126 355.25 167.126Z" fill="#322E2E"></path><rect x="282.5" y="142.5" width="225" height="40" rx="5.5" stroke="black" stroke-opacity="0.1"></rect><path opacity="0.5" d="M34.436 213.838V210.562H39.112V209.414H34.436V206.348H39.616V205.2H33.106V215H39.686V213.838H34.436ZM49.4548 207.804C48.3628 207.804 47.5368 208.336 47.0468 209.316C46.6688 208.336 45.8568 207.804 44.7508 207.804C43.7008 207.804 42.9308 208.308 42.5108 209.274V207.972H41.2508V215H42.5108V211.906C42.5108 209.904 43.3368 208.868 44.5128 208.868C45.4788 208.868 45.9968 209.568 45.9968 210.66V215H47.2568V211.906C47.2568 209.904 48.0828 208.868 49.2448 208.868C50.2108 208.868 50.7428 209.568 50.7428 210.66V215H52.0028V210.548C52.0028 208.84 51.0368 207.804 49.4548 207.804ZM56.4613 207.804C54.8793 207.804 53.7453 208.77 53.4793 210.184L54.5013 210.492C54.7813 209.47 55.3693 208.924 56.4053 208.924C57.4273 208.924 58.0853 209.568 58.1273 210.646L56.2093 211.01C54.4733 211.332 53.7313 212.018 53.7313 213.138C53.7313 214.356 54.6413 215.14 55.9433 215.14C56.9793 215.14 57.7493 214.65 58.1973 213.768V215H59.3733V210.632C59.3733 208.938 58.2393 207.804 56.4613 207.804ZM56.1813 214.202C55.4953 214.202 54.9913 213.824 54.9913 213.152C54.9913 212.466 55.5093 212.116 56.6573 211.892L58.1273 211.626V211.836C58.1273 213.222 57.3153 214.202 56.1813 214.202ZM61.1424 206.53H62.4864V205.144H61.1424V206.53ZM61.1844 215H62.4444V207.972H61.1844V215ZM64.3983 215H65.6583V205.2H64.3983V215Z" fill="black"></path><rect x="32" y="227" width="476" height="41" rx="6" fill="white"></rect><path d="M49.176 254.548H50.338V250.796C50.758 251.524 51.612 252.126 52.816 252.126C54.832 252.126 56.148 250.586 56.148 248.346V248.234C56.148 245.952 54.734 244.552 52.816 244.552C51.752 244.552 50.758 245.196 50.338 245.91V244.678H49.176V254.548ZM52.704 251.16C51.276 251.16 50.296 250.278 50.296 248.402V248.29C50.296 246.414 51.332 245.518 52.69 245.518C53.922 245.518 54.944 246.442 54.944 248.29V248.402C54.944 250.18 54.16 251.16 52.704 251.16ZM60.8093 252.126C62.4613 252.126 63.6793 251.356 63.9313 249.886H62.7693C62.6153 250.74 61.9573 251.16 60.8233 251.16C59.3253 251.16 58.5273 250.236 58.4713 248.57H63.9873V248.192C63.9873 245.574 62.3913 244.552 60.6973 244.552C58.6813 244.552 57.2673 246.092 57.2673 248.304V248.416C57.2673 250.67 58.7373 252.126 60.8093 252.126ZM58.5133 247.632C58.7093 246.33 59.5073 245.518 60.6973 245.518C61.9013 245.518 62.6853 246.12 62.7973 247.632H58.5133ZM67.8564 252.098C68.3324 252.098 68.6124 252.028 68.8504 251.944V250.964C68.5984 251.062 68.3184 251.118 67.9544 251.118C67.3664 251.118 67.0444 250.768 67.0444 250.054V245.658H68.7524V244.678H67.0444V243.012H65.8824V244.678H64.8324V245.658H65.8824V250.166C65.8824 251.314 66.5264 252.098 67.8564 252.098ZM73.4629 252.126C75.1149 252.126 76.3329 251.356 76.5849 249.886H75.4229C75.2689 250.74 74.6109 251.16 73.4769 251.16C71.9789 251.16 71.1809 250.236 71.1249 248.57H76.6409V248.192C76.6409 245.574 75.0449 244.552 73.3509 244.552C71.3349 244.552 69.9209 246.092 69.9209 248.304V248.416C69.9209 250.67 71.3909 252.126 73.4629 252.126ZM71.1669 247.632C71.3629 246.33 72.1609 245.518 73.3509 245.518C74.5549 245.518 75.3389 246.12 75.4509 247.632H71.1669ZM78.284 252H79.446V247.982C79.446 246.176 80.384 245.714 81.854 245.644V244.552C80.538 244.594 79.908 245.168 79.446 245.994V244.678H78.284V252ZM85.6073 252.126C87.3853 252.126 88.2953 251.23 88.2953 249.9C88.2953 248.346 87.2313 248.01 85.7193 247.73C84.3753 247.492 84.0113 247.226 84.0113 246.568C84.0113 245.938 84.5573 245.518 85.3973 245.518C86.3213 245.518 86.7693 245.868 86.9373 246.666H88.0573C87.8613 245.084 86.7273 244.552 85.4113 244.552C84.2633 244.552 82.9333 245.252 82.9333 246.61C82.9333 247.884 83.5773 248.416 85.4813 248.766C86.6153 248.976 87.1893 249.228 87.1893 249.998C87.1893 250.782 86.6993 251.16 85.5933 251.16C84.4173 251.16 83.9553 250.614 83.8713 249.746H82.7373C82.8073 251.244 83.8573 252.126 85.6073 252.126ZM89.9538 252H91.1158V244.678H89.9538V252ZM90.5138 243.152C90.9338 243.152 91.2838 242.802 91.2838 242.382C91.2838 241.962 90.9338 241.612 90.5138 241.612C90.0938 241.612 89.7438 241.962 89.7438 242.382C89.7438 242.802 90.0938 243.152 90.5138 243.152ZM93.3542 252H94.5162V247.52C94.5162 246.204 95.4962 245.56 96.4482 245.56C97.4562 245.56 98.0022 246.092 98.0022 247.38V252H99.1642V247.52C99.1642 246.204 100.144 245.56 101.096 245.56C102.104 245.56 102.65 246.092 102.65 247.38V252H103.812V247.464C103.812 245.336 102.664 244.552 101.348 244.552C100.438 244.552 99.3462 244.972 98.8422 245.924C98.4642 244.944 97.6382 244.552 96.7002 244.552C95.6502 244.552 94.8522 245.112 94.5162 245.798V244.678H93.3542V252ZM105.956 252H107.118V247.52C107.118 246.204 108.098 245.56 109.05 245.56C110.058 245.56 110.604 246.092 110.604 247.38V252H111.766V247.52C111.766 246.204 112.746 245.56 113.698 245.56C114.706 245.56 115.252 246.092 115.252 247.38V252H116.414V247.464C116.414 245.336 115.266 244.552 113.95 244.552C113.04 244.552 111.948 244.972 111.444 245.924C111.066 244.944 110.24 244.552 109.302 244.552C108.252 244.552 107.454 245.112 107.118 245.798V244.678H105.956V252ZM121.611 251.16C120.127 251.16 119.217 250.068 119.217 248.402V248.29C119.217 246.61 120.141 245.518 121.611 245.518C123.067 245.518 124.005 246.61 124.005 248.304V248.402C124.005 250.054 123.081 251.16 121.611 251.16ZM121.597 252.126C123.683 252.126 125.209 250.6 125.209 248.388V248.276C125.209 246.078 123.683 244.552 121.611 244.552C119.539 244.552 118.013 246.092 118.013 248.29V248.402C118.013 250.544 119.511 252.126 121.597 252.126ZM126.868 252H128.03V247.562C128.03 246.246 128.996 245.56 130.074 245.56C131.25 245.56 131.796 246.134 131.796 247.422V252H132.958V247.506C132.958 245.378 131.894 244.552 130.382 244.552C129.178 244.552 128.366 245.154 128.03 245.84V244.678H126.868V252ZM137.363 252.126C139.141 252.126 140.051 251.23 140.051 249.9C140.051 248.346 138.987 248.01 137.475 247.73C136.131 247.492 135.767 247.226 135.767 246.568C135.767 245.938 136.313 245.518 137.153 245.518C138.077 245.518 138.525 245.868 138.693 246.666H139.813C139.617 245.084 138.483 244.552 137.167 244.552C136.019 244.552 134.689 245.252 134.689 246.61C134.689 247.884 135.333 248.416 137.237 248.766C138.371 248.976 138.945 249.228 138.945 249.998C138.945 250.782 138.455 251.16 137.349 251.16C136.173 251.16 135.711 250.614 135.627 249.746H134.493C134.563 251.244 135.613 252.126 137.363 252.126ZM146.932 254.058C148.948 254.058 150.6 253.218 151.314 252H150.236C149.368 252.742 148.458 253.134 146.932 253.134C143.81 253.134 142.214 250.88 142.214 248.332C142.214 245.364 144.286 243.292 147.114 243.292C149.998 243.292 151.678 245.014 151.678 247.52C151.678 249.424 150.866 250.222 150.068 250.222C149.536 250.222 149.298 249.858 149.396 249.116L149.816 245.588H148.654L148.556 246.428C148.36 245.952 147.856 245.476 146.862 245.476C145.336 245.476 144.104 246.848 144.104 248.724C144.104 250.236 145 251.16 146.358 251.16C147.226 251.16 148.038 250.586 148.444 249.858C148.556 250.586 148.92 251.062 150.054 251.062C151.174 251.062 152.686 250.124 152.686 247.492C152.686 244.608 150.46 242.368 147.114 242.368C143.88 242.368 141.136 244.93 141.136 248.36C141.136 251.342 143.194 254.058 146.932 254.058ZM146.61 250.264C145.854 250.264 145.294 249.69 145.294 248.71C145.294 247.24 146.064 246.4 146.946 246.4C147.856 246.4 148.402 246.918 148.402 247.982C148.402 249.466 147.478 250.264 146.61 250.264ZM157.39 252.126C159.154 252.126 160.428 250.95 160.582 249.368H159.504C159.378 250.558 158.44 251.16 157.404 251.16C155.99 251.16 155.01 250.208 155.01 248.416V248.304C155.01 246.582 156.032 245.518 157.362 245.518C158.37 245.518 159.21 245.952 159.392 247.114H160.54C160.316 245.252 158.888 244.552 157.362 244.552C155.402 244.552 153.806 246.064 153.806 248.304V248.416C153.806 250.684 155.346 252.126 157.39 252.126ZM165.248 251.16C163.764 251.16 162.854 250.068 162.854 248.402V248.29C162.854 246.61 163.778 245.518 165.248 245.518C166.704 245.518 167.642 246.61 167.642 248.304V248.402C167.642 250.054 166.718 251.16 165.248 251.16ZM165.234 252.126C167.32 252.126 168.846 250.6 168.846 248.388V248.276C168.846 246.078 167.32 244.552 165.248 244.552C163.176 244.552 161.65 246.092 161.65 248.29V248.402C161.65 250.544 163.148 252.126 165.234 252.126ZM170.506 252H171.668V247.52C171.668 246.204 172.648 245.56 173.6 245.56C174.608 245.56 175.154 246.092 175.154 247.38V252H176.316V247.52C176.316 246.204 177.296 245.56 178.248 245.56C179.256 245.56 179.802 246.092 179.802 247.38V252H180.964V247.464C180.964 245.336 179.816 244.552 178.5 244.552C177.59 244.552 176.498 244.972 175.994 245.924C175.616 244.944 174.79 244.552 173.852 244.552C172.802 244.552 172.004 245.112 171.668 245.798V244.678H170.506V252ZM183.108 254.548H184.27V250.796C184.69 251.524 185.544 252.126 186.748 252.126C188.764 252.126 190.08 250.586 190.08 248.346V248.234C190.08 245.952 188.666 244.552 186.748 244.552C185.684 244.552 184.69 245.196 184.27 245.91V244.678H183.108V254.548ZM186.636 251.16C185.208 251.16 184.228 250.278 184.228 248.402V248.29C184.228 246.414 185.264 245.518 186.622 245.518C187.854 245.518 188.876 246.442 188.876 248.29V248.402C188.876 250.18 188.092 251.16 186.636 251.16ZM193.579 252.126C194.657 252.126 195.315 251.762 195.861 251.076V252H197.023V247.17C197.023 245.126 195.749 244.552 194.349 244.552C192.935 244.552 191.605 245.168 191.451 246.834H192.613C192.725 245.938 193.285 245.518 194.293 245.518C195.413 245.518 195.861 246.008 195.861 247.17V247.702H194.811C192.935 247.702 191.143 248.276 191.143 249.97C191.143 251.468 192.221 252.126 193.579 252.126ZM193.691 251.202C192.669 251.202 192.305 250.726 192.305 249.97C192.305 248.892 193.383 248.528 194.853 248.528H195.861V249.438C195.861 250.572 194.923 251.202 193.691 251.202ZM199.166 252H200.328V247.562C200.328 246.246 201.294 245.56 202.372 245.56C203.548 245.56 204.094 246.134 204.094 247.422V252H205.256V247.506C205.256 245.378 204.192 244.552 202.68 244.552C201.476 244.552 200.664 245.154 200.328 245.84V244.678H199.166V252ZM207.846 254.548H209.022L213.068 244.678H211.878L209.848 249.928L207.608 244.678H206.362L209.232 251.244L207.846 254.548ZM214.272 252.07C214.762 252.07 215.168 251.678 215.168 251.174C215.168 250.67 214.762 250.278 214.272 250.278C213.782 250.278 213.376 250.67 213.376 251.174C213.376 251.678 213.782 252.07 214.272 252.07ZM219.967 252.126C221.731 252.126 223.005 250.95 223.159 249.368H222.081C221.955 250.558 221.017 251.16 219.981 251.16C218.567 251.16 217.587 250.208 217.587 248.416V248.304C217.587 246.582 218.609 245.518 219.939 245.518C220.947 245.518 221.787 245.952 221.969 247.114H223.117C222.893 245.252 221.465 244.552 219.939 244.552C217.979 244.552 216.383 246.064 216.383 248.304V248.416C216.383 250.684 217.923 252.126 219.967 252.126ZM227.826 251.16C226.342 251.16 225.432 250.068 225.432 248.402V248.29C225.432 246.61 226.356 245.518 227.826 245.518C229.282 245.518 230.22 246.61 230.22 248.304V248.402C230.22 250.054 229.296 251.16 227.826 251.16ZM227.812 252.126C229.898 252.126 231.424 250.6 231.424 248.388V248.276C231.424 246.078 229.898 244.552 227.826 244.552C225.754 244.552 224.228 246.092 224.228 248.29V248.402C224.228 250.544 225.726 252.126 227.812 252.126ZM233.083 252H234.245V247.52C234.245 246.204 235.225 245.56 236.177 245.56C237.185 245.56 237.731 246.092 237.731 247.38V252H238.893V247.52C238.893 246.204 239.873 245.56 240.825 245.56C241.833 245.56 242.379 246.092 242.379 247.38V252H243.541V247.464C243.541 245.336 242.393 244.552 241.077 244.552C240.167 244.552 239.075 244.972 238.571 245.924C238.193 244.944 237.367 244.552 236.429 244.552C235.379 244.552 234.581 245.112 234.245 245.798V244.678H233.083V252Z" fill="#322E2E"></path><rect x="32.5" y="227.5" width="475" height="40" rx="5.5" stroke="black" stroke-opacity="0.1"></rect><path d="M33.148 299H35.01V294.898H38.426V293.456H35.01V290.474H39.35V288.99H33.148V299ZM40.7336 299H42.4276V291.678H40.7336V299ZM41.5596 290.474C42.1196 290.474 42.5676 290.054 42.5676 289.508C42.5676 288.948 42.1196 288.528 41.5596 288.528C40.9996 288.528 40.5516 288.948 40.5516 289.508C40.5516 290.054 40.9996 290.474 41.5596 290.474ZM44.5344 299H46.2284V288.29H44.5344V299ZM48.3352 299H50.0292V288.29H48.3352V299ZM52.1359 299H53.8299V291.678H52.1359V299ZM52.9619 290.474C53.5219 290.474 53.9699 290.054 53.9699 289.508C53.9699 288.948 53.5219 288.528 52.9619 288.528C52.4019 288.528 51.9539 288.948 51.9539 289.508C51.9539 290.054 52.4019 290.474 52.9619 290.474ZM55.8947 299H57.5887V294.688C57.5887 293.526 58.3587 292.938 59.3107 292.938C60.3187 292.938 60.7667 293.442 60.7667 294.548V299H62.4607V294.394C62.4607 292.378 61.4247 291.524 59.9547 291.524C58.7507 291.524 57.9387 292.126 57.5887 292.84V291.678H55.8947V299ZM67.5343 301.688C69.8023 301.688 71.2443 300.61 71.2583 298.454V291.678H69.5643V292.798C69.1443 292.07 68.4163 291.524 67.2123 291.524C65.3223 291.524 63.9223 293.064 63.9223 295.122V295.22C63.9223 297.334 65.3363 298.706 67.1703 298.706C68.2483 298.706 69.1583 298.048 69.5643 297.348V298.426C69.5643 299.742 68.8363 300.4 67.5203 300.4C66.4143 300.4 65.8543 299.98 65.7143 299.252H64.0063C64.2023 300.652 65.2383 301.688 67.5343 301.688ZM67.5903 297.404C66.4983 297.404 65.6583 296.564 65.6583 295.206V295.094C65.6583 293.764 66.3863 292.854 67.6463 292.854C68.8643 292.854 69.6203 293.68 69.6203 295.066V295.164C69.6203 296.564 68.7663 297.404 67.5903 297.404ZM79.0996 299.126C79.6176 299.126 79.9816 299.042 80.2476 298.944V297.6C80.0096 297.698 79.7576 297.74 79.4216 297.74C78.8896 297.74 78.5816 297.446 78.5816 296.802V292.952H80.1916V291.678H78.5816V290.068H76.8876V291.678H75.9076V292.952H76.8876V296.956C76.8876 298.342 77.6436 299.126 79.0996 299.126ZM81.7756 299H83.4696V294.688C83.4696 293.526 84.2396 292.938 85.1916 292.938C86.1996 292.938 86.6476 293.442 86.6476 294.548V299H88.3416V294.394C88.3416 292.378 87.3056 291.524 85.8356 291.524C84.6316 291.524 83.8196 292.126 83.4696 292.84V288.29H81.7756V299ZM90.3352 299H92.0292V291.678H90.3352V299ZM91.1612 290.474C91.7212 290.474 92.1692 290.054 92.1692 289.508C92.1692 288.948 91.7212 288.528 91.1612 288.528C90.6012 288.528 90.1532 288.948 90.1532 289.508C90.1532 290.054 90.6012 290.474 91.1612 290.474ZM96.5999 299.14C98.4759 299.14 99.5259 298.286 99.5259 296.802C99.5259 295.248 98.5039 294.828 96.7819 294.562C95.6199 294.366 95.2699 294.156 95.2699 293.624C95.2699 293.106 95.7039 292.756 96.4319 292.756C97.2159 292.756 97.5939 293.064 97.7339 293.736H99.3019C99.1199 292.084 97.9299 291.524 96.4319 291.524C95.0599 291.524 93.6879 292.252 93.6879 293.722C93.6879 295.094 94.4019 295.64 96.3339 295.948C97.4119 296.13 97.9019 296.354 97.9019 296.956C97.9019 297.572 97.4959 297.894 96.5859 297.894C95.5919 297.894 95.2139 297.46 95.1299 296.718H93.5339C93.6039 298.272 94.7099 299.14 96.5999 299.14ZM104.642 299H106.336V292.952H108.002V291.678H106.336V290.628C106.336 289.998 106.616 289.55 107.302 289.55C107.61 289.55 107.876 289.606 108.072 289.676V288.36C107.764 288.262 107.512 288.22 107.106 288.22C105.538 288.22 104.642 289.088 104.642 290.698V291.678H103.648V292.952H104.642V299ZM112.423 297.824C111.135 297.824 110.393 296.886 110.393 295.388V295.276C110.393 293.764 111.163 292.854 112.423 292.854C113.683 292.854 114.439 293.778 114.439 295.29V295.388C114.439 296.886 113.683 297.824 112.423 297.824ZM112.409 299.14C114.565 299.14 116.175 297.656 116.175 295.374V295.262C116.175 293.022 114.565 291.524 112.423 291.524C110.267 291.524 108.657 293.036 108.657 295.304V295.416C108.657 297.642 110.253 299.14 112.409 299.14ZM117.705 299H119.399V295.192C119.399 293.638 120.295 293.162 121.779 293.148V291.566C120.547 291.58 119.861 292.126 119.399 293.05V291.678H117.705V299ZM123.27 299H124.964V294.618C124.964 293.498 125.734 292.938 126.574 292.938C127.4 292.938 127.876 293.4 127.876 294.478V299H129.57V294.618C129.57 293.498 130.34 292.938 131.18 292.938C132.02 292.938 132.482 293.4 132.482 294.478V299H134.176V294.366C134.176 292.35 133.084 291.524 131.74 291.524C130.83 291.524 129.822 291.93 129.262 292.84C128.898 291.93 128.142 291.524 127.19 291.524C126.112 291.524 125.314 292.112 124.964 292.798V291.678H123.27V299ZM139.499 299H141.193V291.678H139.499V299ZM140.325 290.474C140.885 290.474 141.333 290.054 141.333 289.508C141.333 288.948 140.885 288.528 140.325 288.528C139.765 288.528 139.317 288.948 139.317 289.508C139.317 290.054 139.765 290.474 140.325 290.474ZM143.258 299H144.952V294.688C144.952 293.526 145.722 292.938 146.674 292.938C147.682 292.938 148.13 293.442 148.13 294.548V299H149.824V294.394C149.824 292.378 148.788 291.524 147.318 291.524C146.114 291.524 145.302 292.126 144.952 292.84V291.678H143.258V299ZM159.2 299.14C161.09 299.14 162.448 297.712 162.448 295.36V295.248C162.448 292.882 161.034 291.524 159.2 291.524C158.122 291.524 157.212 292.154 156.806 292.854V288.29H155.112V299H156.806V297.824C157.198 298.566 158.038 299.14 159.2 299.14ZM158.78 297.796C157.548 297.796 156.75 297.026 156.75 295.388V295.276C156.75 293.652 157.59 292.854 158.766 292.854C159.872 292.854 160.712 293.652 160.712 295.276V295.388C160.712 296.956 160.026 297.796 158.78 297.796ZM167.191 299.14C169.067 299.14 170.313 298.3 170.551 296.76H168.913C168.787 297.474 168.255 297.88 167.233 297.88C165.973 297.88 165.273 297.096 165.217 295.71H170.579V295.22C170.579 292.602 168.941 291.524 167.121 291.524C165.035 291.524 163.481 293.036 163.481 295.304V295.416C163.481 297.726 165.035 299.14 167.191 299.14ZM165.245 294.576C165.413 293.442 166.099 292.756 167.121 292.756C168.171 292.756 168.815 293.316 168.899 294.576H165.245ZM172.092 299H173.786V294.688C173.786 293.526 174.556 292.938 175.508 292.938C176.516 292.938 176.964 293.442 176.964 294.548V299H178.658V294.394C178.658 292.378 177.622 291.524 176.152 291.524C174.948 291.524 174.136 292.126 173.786 292.84V288.29H172.092V299ZM182.528 299.14C183.648 299.14 184.292 298.734 184.768 298.104V299H186.434V294.198C186.434 292.196 185.146 291.524 183.508 291.524C181.87 291.524 180.512 292.238 180.372 293.946H182.01C182.094 293.218 182.528 292.798 183.41 292.798C184.404 292.798 184.74 293.288 184.74 294.268V294.646H183.83C181.73 294.646 180.078 295.262 180.078 296.97C180.078 298.496 181.184 299.14 182.528 299.14ZM182.934 297.922C182.094 297.922 181.758 297.516 181.758 296.9C181.758 296.004 182.584 295.71 183.872 295.71H184.74V296.438C184.74 297.376 183.97 297.922 182.934 297.922ZM188.417 299H190.111V288.29H188.417V299ZM192.47 299H194.164V292.952H195.83V291.678H194.164V290.628C194.164 289.998 194.444 289.55 195.13 289.55C195.438 289.55 195.704 289.606 195.9 289.676V288.36C195.592 288.262 195.34 288.22 194.934 288.22C193.366 288.22 192.47 289.088 192.47 290.698V291.678H191.476V292.952H192.47V299ZM203.86 297.824C202.572 297.824 201.83 296.886 201.83 295.388V295.276C201.83 293.764 202.6 292.854 203.86 292.854C205.12 292.854 205.876 293.778 205.876 295.29V295.388C205.876 296.886 205.12 297.824 203.86 297.824ZM203.846 299.14C206.002 299.14 207.612 297.656 207.612 295.374V295.262C207.612 293.022 206.002 291.524 203.86 291.524C201.704 291.524 200.094 293.036 200.094 295.304V295.416C200.094 297.642 201.69 299.14 203.846 299.14ZM209.437 299H211.131V292.952H212.797V291.678H211.131V290.628C211.131 289.998 211.411 289.55 212.097 289.55C212.405 289.55 212.671 289.606 212.867 289.676V288.36C212.559 288.262 212.307 288.22 211.901 288.22C210.333 288.22 209.437 289.088 209.437 290.698V291.678H208.443V292.952H209.437V299ZM215.074 299.098C215.704 299.098 216.194 298.622 216.194 298.006C216.194 297.39 215.704 296.9 215.074 296.9C214.458 296.9 213.968 297.39 213.968 298.006C213.968 298.622 214.458 299.098 215.074 299.098ZM215.074 295.01C215.704 295.01 216.194 294.52 216.194 293.904C216.194 293.288 215.704 292.812 215.074 292.812C214.458 292.812 213.968 293.288 213.968 293.904C213.968 294.52 214.458 295.01 215.074 295.01Z" fill="black"></path><rect x="32.5" y="317.5" width="225" height="47" rx="7.5" fill="white"></rect><path d="M62 343.5C64.7614 343.5 67 341.261 67 338.5C67 335.739 64.7614 333.5 62 333.5C59.2386 333.5 57 335.739 57 338.5C57 341.261 59.2386 343.5 62 343.5Z" stroke="black" stroke-width="1.25" stroke-miterlimit="10"></path><path d="M54.4219 347.875C55.1898 346.545 56.2944 345.44 57.6247 344.672C58.9549 343.904 60.4639 343.5 62 343.5C63.5361 343.5 65.0451 343.904 66.3753 344.672C67.7056 345.44 68.8102 346.545 69.5781 347.875" stroke="black" stroke-width="1.25" stroke-linecap="round" stroke-linejoin="round"></path><path d="M85.52 346H86.912V334.56H85.52V346ZM89.6215 346H90.9495V340.928C90.9495 339.424 92.0535 338.64 93.2855 338.64C94.6295 338.64 95.2535 339.296 95.2535 340.768V346H96.5815V340.864C96.5815 338.432 95.3655 337.488 93.6375 337.488C92.2615 337.488 91.3335 338.176 90.9495 338.96V337.632H89.6215V346ZM102.176 346.144C103.392 346.144 104.56 345.376 105.04 344.56V346H106.368V333.632H105.04V338.976C104.56 338.16 103.696 337.488 102.304 337.488C100 337.488 98.4 339.296 98.4 341.856V341.984C98.4 344.592 99.984 346.144 102.176 346.144ZM102.32 345.04C100.912 345.04 99.776 344.032 99.776 341.92V341.792C99.776 339.76 100.768 338.592 102.432 338.592C104.064 338.592 105.088 339.6 105.088 341.744V341.872C105.088 344.016 103.872 345.04 102.32 345.04ZM108.927 346H110.255V337.632H108.927V346ZM109.567 335.888C110.047 335.888 110.447 335.488 110.447 335.008C110.447 334.528 110.047 334.128 109.567 334.128C109.087 334.128 108.687 334.528 108.687 335.008C108.687 335.488 109.087 335.888 109.567 335.888ZM114.909 346H116.605L119.613 337.632H118.237L115.789 344.656L113.309 337.632H111.869L114.909 346ZM121.232 346H122.56V337.632H121.232V346ZM121.872 335.888C122.352 335.888 122.752 335.488 122.752 335.008C122.752 334.528 122.352 334.128 121.872 334.128C121.392 334.128 120.992 334.528 120.992 335.008C120.992 335.488 121.392 335.888 121.872 335.888ZM128.27 346.144C129.486 346.144 130.654 345.376 131.134 344.56V346H132.462V333.632H131.134V338.976C130.654 338.16 129.79 337.488 128.398 337.488C126.094 337.488 124.494 339.296 124.494 341.856V341.984C124.494 344.592 126.078 346.144 128.27 346.144ZM128.414 345.04C127.006 345.04 125.87 344.032 125.87 341.92V341.792C125.87 339.76 126.862 338.592 128.526 338.592C130.158 338.592 131.182 339.6 131.182 341.744V341.872C131.182 344.016 129.966 345.04 128.414 345.04ZM137.822 346.144C139.166 346.144 140.094 345.456 140.478 344.672V346H141.806V337.632H140.478V342.704C140.478 344.208 139.358 344.992 138.174 344.992C136.862 344.992 136.238 344.336 136.238 342.864V337.632H134.91V342.928C134.91 345.232 136.158 346.144 137.822 346.144ZM146.426 346.144C147.658 346.144 148.41 345.728 149.034 344.944V346H150.362V340.48C150.362 338.144 148.906 337.488 147.306 337.488C145.69 337.488 144.17 338.192 143.994 340.096H145.322C145.45 339.072 146.09 338.592 147.242 338.592C148.522 338.592 149.034 339.152 149.034 340.48V341.088H147.834C145.69 341.088 143.642 341.744 143.642 343.68C143.642 345.392 144.874 346.144 146.426 346.144ZM146.554 345.088C145.386 345.088 144.97 344.544 144.97 343.68C144.97 342.448 146.202 342.032 147.882 342.032H149.034V343.072C149.034 344.368 147.962 345.088 146.554 345.088ZM152.842 346H154.186V333.632H152.842V346Z" fill="black"></path><rect x="218" y="331" width="20" height="20" rx="10" fill="black"></rect><rect x="223" y="336" width="10" height="10" rx="5" fill="white"></rect><rect x="218.417" y="331.417" width="19.1667" height="19.1667" rx="9.58333" stroke="black" stroke-opacity="0.1" stroke-width="0.833333"></rect><rect x="32.5" y="317.5" width="225" height="47" rx="7.5" stroke="black"></rect><rect x="282" y="317" width="226" height="48" rx="8" fill="white"></rect><path d="M303.25 347.875H320.75" stroke="black" stroke-width="1.25" stroke-linecap="round" stroke-linejoin="round"></path><path d="M313.25 347.875V334.125C313.25 333.959 313.184 333.8 313.067 333.683C312.95 333.566 312.791 333.5 312.625 333.5H305.125C304.959 333.5 304.8 333.566 304.683 333.683C304.566 333.8 304.5 333.959 304.5 334.125V347.875" stroke="black" stroke-width="1.25" stroke-linecap="round" stroke-linejoin="round"></path><path d="M319.5 347.875V339.125C319.5 338.959 319.434 338.8 319.317 338.683C319.2 338.566 319.041 338.5 318.875 338.5H313.25" stroke="black" stroke-width="1.25" stroke-linecap="round" stroke-linejoin="round"></path><path d="M307 336.625H309.5" stroke="black" stroke-width="1.25" stroke-linecap="round" stroke-linejoin="round"></path><path d="M308.25 341.625H310.75" stroke="black" stroke-width="1.25" stroke-linecap="round" stroke-linejoin="round"></path><path d="M307 344.75H309.5" stroke="black" stroke-width="1.25" stroke-linecap="round" stroke-linejoin="round"></path><path d="M315.75 344.75H317" stroke="black" stroke-width="1.25" stroke-linecap="round" stroke-linejoin="round"></path><path d="M315.75 341.625H317" stroke="black" stroke-width="1.25" stroke-linecap="round" stroke-linejoin="round"></path><path d="M340.544 344.992C338.16 344.992 336.32 343.104 336.32 340.336V340.208C336.32 337.488 337.856 335.536 340.512 335.536C343.152 335.536 344.656 337.616 344.656 340.176V340.304C344.656 343.072 343.088 344.992 340.544 344.992ZM340.544 346.144C343.872 346.144 346.096 343.552 346.096 340.32V340.192C346.096 336.976 343.872 334.416 340.512 334.416C337.152 334.416 334.88 336.976 334.88 340.224V340.352C334.88 343.552 337.168 346.144 340.544 346.144ZM348.153 346H349.481V341.408C349.481 339.344 350.553 338.816 352.233 338.736V337.488C350.729 337.536 350.009 338.192 349.481 339.136V337.632H348.153V346ZM357.118 349.056C359.454 349.056 361.102 347.872 361.118 345.44V337.632H359.79V338.976C359.31 338.16 358.446 337.488 357.054 337.488C354.75 337.488 353.15 339.376 353.15 341.648V341.76C353.15 344.064 354.766 345.728 356.958 345.728C358.174 345.728 359.31 344.96 359.79 344.144V345.36C359.79 347.152 358.75 347.936 357.102 347.936C355.678 347.936 354.878 347.44 354.686 346.48H353.326C353.55 347.888 354.638 349.056 357.118 349.056ZM357.102 344.624C355.694 344.624 354.526 343.536 354.526 341.712V341.584C354.526 339.824 355.518 338.592 357.182 338.592C358.814 338.592 359.838 339.68 359.838 341.552V341.664C359.838 343.536 358.654 344.624 357.102 344.624ZM365.741 346.144C366.973 346.144 367.725 345.728 368.349 344.944V346H369.677V340.48C369.677 338.144 368.221 337.488 366.621 337.488C365.005 337.488 363.485 338.192 363.309 340.096H364.637C364.765 339.072 365.405 338.592 366.557 338.592C367.837 338.592 368.349 339.152 368.349 340.48V341.088H367.149C365.005 341.088 362.957 341.744 362.957 343.68C362.957 345.392 364.189 346.144 365.741 346.144ZM365.869 345.088C364.701 345.088 364.285 344.544 364.285 343.68C364.285 342.448 365.517 342.032 367.197 342.032H368.349V343.072C368.349 344.368 367.277 345.088 365.869 345.088ZM372.126 346H373.454V340.928C373.454 339.424 374.558 338.64 375.79 338.64C377.134 338.64 377.758 339.296 377.758 340.768V346H379.086V340.864C379.086 338.432 377.87 337.488 376.142 337.488C374.766 337.488 373.838 338.176 373.454 338.96V337.632H372.126V346ZM381.56 346H382.888V337.632H381.56V346ZM382.2 335.888C382.68 335.888 383.08 335.488 383.08 335.008C383.08 334.528 382.68 334.128 382.2 334.128C381.72 334.128 381.32 334.528 381.32 335.008C381.32 335.488 381.72 335.888 382.2 335.888ZM384.439 346H391.367V344.832H386.599L391.431 337.872V337.632H384.919V338.752H389.383L384.439 345.808V346ZM395.195 346.144C396.427 346.144 397.179 345.728 397.803 344.944V346H399.131V340.48C399.131 338.144 397.675 337.488 396.075 337.488C394.459 337.488 392.939 338.192 392.763 340.096H394.091C394.219 339.072 394.859 338.592 396.011 338.592C397.291 338.592 397.803 339.152 397.803 340.48V341.088H396.603C394.459 341.088 392.411 341.744 392.411 343.68C392.411 345.392 393.643 346.144 395.195 346.144ZM395.323 345.088C394.155 345.088 393.739 344.544 393.739 343.68C393.739 342.448 394.971 342.032 396.651 342.032H397.803V343.072C397.803 344.368 396.731 345.088 395.323 345.088ZM404.124 346.112C404.668 346.112 404.988 346.032 405.26 345.936V344.816C404.972 344.928 404.652 344.992 404.236 344.992C403.564 344.992 403.196 344.592 403.196 343.776V338.752H405.148V337.632H403.196V335.728H401.868V337.632H400.668V338.752H401.868V343.904C401.868 345.216 402.604 346.112 404.124 346.112ZM407.139 346H408.467V337.632H407.139V346ZM407.779 335.888C408.259 335.888 408.659 335.488 408.659 335.008C408.659 334.528 408.259 334.128 407.779 334.128C407.299 334.128 406.899 334.528 406.899 335.008C406.899 335.488 407.299 335.888 407.779 335.888ZM414.513 345.04C412.817 345.04 411.777 343.792 411.777 341.888V341.76C411.777 339.84 412.833 338.592 414.513 338.592C416.177 338.592 417.249 339.84 417.249 341.776V341.888C417.249 343.776 416.193 345.04 414.513 345.04ZM414.497 346.144C416.881 346.144 418.625 344.4 418.625 341.872V341.744C418.625 339.232 416.881 337.488 414.513 337.488C412.145 337.488 410.401 339.248 410.401 341.76V341.888C410.401 344.336 412.113 346.144 414.497 346.144ZM420.521 346H421.849V340.928C421.849 339.424 422.953 338.64 424.185 338.64C425.529 338.64 426.153 339.296 426.153 340.768V346H427.481V340.864C427.481 338.432 426.265 337.488 424.537 337.488C423.161 337.488 422.233 338.176 421.849 338.96V337.632H420.521V346Z" fill="black"></path><rect x="468" y="331" width="20" height="20" rx="10" fill="white"></rect><rect x="468.417" y="331.417" width="19.1667" height="19.1667" rx="9.58333" stroke="black" stroke-opacity="0.1" stroke-width="0.833333"></rect><rect x="282.5" y="317.5" width="225" height="47" rx="7.5" stroke="black" stroke-opacity="0.1"></rect><defs><linearGradient id="paint0_linear_1125_17950" x1="50.7622" y1="58.2634" x2="53.7281" y2="78.5831" gradientUnits="userSpaceOnUse"><stop stop-color="#D6F1A2"></stop><stop offset="1" stop-color="#9DE183"></stop></linearGradient><clipPath id="clip0_1125_17950"><rect width="476" height="2" fill="white" transform="translate(32 58)"></rect></clipPath></defs></svg> 