<?xml version="1.0" encoding="UTF-8"?> <svg xmlns="http://www.w3.org/2000/svg" width="250" height="56" viewBox="0 0 250 56" fill="none"><rect width="250" height="56" rx="8" fill="white"></rect><path d="M66.864 24H68.22L64.908 15.6H63.552L60.228 24H61.572L62.292 22.116H66.144L66.864 24ZM62.7 21.06L64.224 17.052L65.748 21.06H62.7ZM72.1483 24.12C73.4563 24.12 74.4163 23.388 74.8243 22.296L73.8523 21.936C73.5043 22.68 72.9883 23.076 72.1603 23.076C71.1403 23.076 70.3843 22.212 70.3843 20.964C70.3843 19.716 71.1403 18.852 72.1483 18.852C72.9403 18.852 73.4443 19.26 73.7083 20.016L74.7643 19.704C74.4163 18.54 73.5163 17.82 72.1603 17.82C70.4203 17.82 69.1603 19.14 69.1603 21.048C69.1603 22.872 70.3483 24.12 72.1483 24.12ZM79.1548 17.844C78.5068 17.844 77.9668 18.156 77.6308 18.948V17.964H76.4068V24H77.6308V21.372C77.6308 19.632 78.1348 18.96 79.0108 18.96C79.2268 18.96 79.4068 19.008 79.5508 19.08L79.9708 18.072C79.7548 17.94 79.4788 17.844 79.1548 17.844ZM83.6507 24.12C85.4027 24.12 86.7107 22.788 86.7107 20.952C86.7107 19.128 85.4027 17.82 83.6627 17.82C81.9107 17.82 80.6147 19.152 80.6147 20.976C80.6147 22.812 81.9107 24.12 83.6507 24.12ZM83.6747 23.076C82.6067 23.076 81.8387 22.224 81.8387 20.964C81.8387 19.716 82.5827 18.852 83.6507 18.852C84.7187 18.852 85.4867 19.716 85.4867 20.976C85.4867 22.224 84.7307 23.076 83.6747 23.076ZM95.0386 24.12C96.8506 24.12 98.1826 23.112 98.6986 21.48L97.6306 21.108C97.2226 22.308 96.3346 22.992 95.0626 22.992C93.3466 22.992 92.1706 21.672 92.1706 19.812C92.1706 17.904 93.3706 16.572 94.9906 16.572C96.2026 16.572 97.0666 17.208 97.4626 18.372L98.5666 17.988C98.0386 16.38 96.7426 15.444 94.9906 15.444C92.6506 15.444 90.8986 17.256 90.8986 19.8C90.8986 22.344 92.5666 24.12 95.0386 24.12ZM103.036 17.844C102.388 17.844 101.848 18.156 101.512 18.948V17.964H100.288V24H101.512V21.372C101.512 19.632 102.016 18.96 102.892 18.96C103.108 18.96 103.288 19.008 103.432 19.08L103.852 18.072C103.636 17.94 103.36 17.844 103.036 17.844ZM107.448 17.82C105.732 17.82 104.496 19.128 104.496 21C104.496 22.908 105.84 24.12 107.52 24.12C108.684 24.12 109.572 23.532 110.064 22.668L109.26 22.128C108.9 22.728 108.3 23.112 107.544 23.112C106.572 23.112 105.744 22.476 105.684 21.276H110.148C110.376 19.404 109.308 17.82 107.448 17.82ZM107.424 18.78C108.324 18.78 108.936 19.416 109.02 20.352H105.72C105.816 19.404 106.524 18.78 107.424 18.78ZM114.429 17.82C112.713 17.82 111.477 19.128 111.477 21C111.477 22.908 112.821 24.12 114.501 24.12C115.665 24.12 116.553 23.532 117.045 22.668L116.241 22.128C115.881 22.728 115.281 23.112 114.525 23.112C113.553 23.112 112.725 22.476 112.665 21.276H117.129C117.357 19.404 116.289 17.82 114.429 17.82ZM114.405 18.78C115.305 18.78 115.917 19.416 116.001 20.352H112.701C112.797 19.404 113.505 18.78 114.405 18.78ZM122.934 24H124.35L122.01 20.22L124.146 17.964H122.634L120.042 20.736V15.6H118.818V24H120.042V22.284L121.182 21.084L122.934 24ZM134.095 15.6V19.152H129.883V15.6H128.599V24H129.883V20.28H134.095V24H135.367V15.6H134.095ZM141.436 17.964L139.816 22.524L138.064 17.964H136.792L139.204 23.952L138.196 26.4H139.432L142.684 17.964H141.436ZM148.123 15.6V18.804C147.715 18.18 147.055 17.82 146.179 17.82C144.475 17.82 143.359 19.116 143.359 20.964C143.359 22.824 144.475 24.12 146.179 24.12C147.067 24.12 147.715 23.76 148.123 23.136V24H149.347V15.6H148.123ZM146.359 23.076C145.291 23.076 144.583 22.212 144.583 20.964C144.583 19.716 145.291 18.852 146.359 18.852C147.427 18.852 148.123 19.716 148.123 20.964C148.123 22.212 147.427 23.076 146.359 23.076ZM154.104 17.844C153.456 17.844 152.916 18.156 152.58 18.948V17.964H151.356V24H152.58V21.372C152.58 19.632 153.084 18.96 153.96 18.96C154.176 18.96 154.356 19.008 154.5 19.08L154.92 18.072C154.704 17.94 154.428 17.844 154.104 17.844ZM158.6 24.12C160.352 24.12 161.66 22.788 161.66 20.952C161.66 19.128 160.352 17.82 158.612 17.82C156.86 17.82 155.564 19.152 155.564 20.976C155.564 22.812 156.86 24.12 158.6 24.12ZM158.624 23.076C157.556 23.076 156.788 22.224 156.788 20.964C156.788 19.716 157.532 18.852 158.6 18.852C159.668 18.852 160.436 19.716 160.436 20.976C160.436 22.224 159.68 23.076 158.624 23.076Z" fill="#222020"></path><path d="M181.721 17.772H179.285V15.3H178.157V17.772H175.721V18.816H178.157V21.3H179.285V18.816H181.721V17.772ZM189.708 20.076C189.708 18.276 188.28 17.964 186.96 17.712V15.06C187.644 15.216 188.112 15.684 188.34 16.368L189.48 16.044C189.132 14.892 188.268 14.112 186.96 13.968V12.924H186.084V13.968C184.584 14.124 183.564 15.072 183.564 16.428C183.564 18.132 184.836 18.504 186.084 18.744V21.552C185.172 21.42 184.572 20.856 184.344 19.884L183.204 20.208C183.48 21.624 184.476 22.5 186.084 22.608V23.664H186.96V22.596C188.616 22.428 189.708 21.504 189.708 20.076ZM184.752 16.308C184.752 15.648 185.256 15.132 186.084 15.024V17.532C185.328 17.352 184.752 17.064 184.752 16.308ZM186.96 21.552V18.924C187.812 19.116 188.496 19.392 188.496 20.244C188.496 20.94 187.896 21.432 186.96 21.552ZM195.515 18.108C196.319 17.784 196.811 17.136 196.811 16.248C196.811 14.904 195.731 13.944 194.099 13.944C192.467 13.944 191.375 14.904 191.375 16.248C191.375 17.136 191.867 17.784 192.683 18.108C191.699 18.468 191.099 19.224 191.099 20.208C191.099 21.612 192.299 22.62 194.099 22.62C195.899 22.62 197.087 21.612 197.087 20.208C197.087 19.224 196.487 18.468 195.515 18.108ZM194.099 15.048C194.987 15.048 195.575 15.564 195.575 16.356C195.575 17.124 194.987 17.604 194.099 17.604C193.199 17.604 192.623 17.124 192.623 16.356C192.623 15.564 193.199 15.048 194.099 15.048ZM194.099 21.528C193.067 21.528 192.371 20.964 192.371 20.1C192.371 19.248 193.067 18.648 194.099 18.648C195.131 18.648 195.827 19.248 195.827 20.1C195.827 20.964 195.131 21.528 194.099 21.528ZM201.983 17.064C201.023 17.064 200.267 17.484 199.835 18.18C199.847 16.164 200.627 15.048 201.863 15.048C202.655 15.048 203.171 15.552 203.471 16.476L204.515 16.14C204.119 14.7 203.231 13.944 201.839 13.944C199.871 13.944 198.611 15.612 198.611 18.348C198.611 21.12 199.835 22.62 201.803 22.62C203.543 22.62 204.731 21.456 204.731 19.788C204.731 18.192 203.591 17.064 201.983 17.064ZM201.791 21.528C200.807 21.528 200.123 20.808 200.123 19.8C200.123 18.78 200.807 18.072 201.767 18.072C202.739 18.072 203.447 18.78 203.447 19.8C203.447 20.832 202.787 21.528 201.791 21.528ZM209.453 22.62C211.541 22.62 212.693 21.072 212.693 18.288C212.693 15.504 211.541 13.944 209.453 13.944C207.365 13.944 206.213 15.504 206.213 18.288C206.213 21.072 207.365 22.62 209.453 22.62ZM209.453 21.492C208.193 21.492 207.485 20.352 207.485 18.288C207.485 16.224 208.193 15.072 209.453 15.072C210.713 15.072 211.421 16.224 211.421 18.288C211.421 20.352 210.713 21.492 209.453 21.492ZM214.389 22.5H215.925V21H214.389V22.5ZM220.884 22.62C222.984 22.62 224.16 21.072 224.16 18.288C224.16 15.492 222.984 13.944 220.884 13.944C218.772 13.944 217.596 15.492 217.596 18.288C217.596 21.072 218.772 22.62 220.884 22.62ZM220.884 21.348C219.696 21.348 219.036 20.256 219.036 18.288C219.036 16.32 219.696 15.216 220.884 15.216C222.06 15.216 222.72 16.32 222.72 18.288C222.72 20.256 222.06 21.348 220.884 21.348ZM229.084 22.62C231.184 22.62 232.36 21.072 232.36 18.288C232.36 15.492 231.184 13.944 229.084 13.944C226.972 13.944 225.796 15.492 225.796 18.288C225.796 21.072 226.972 22.62 229.084 22.62ZM229.084 21.348C227.896 21.348 227.236 20.256 227.236 18.288C227.236 16.32 227.896 15.216 229.084 15.216C230.26 15.216 230.92 16.32 230.92 18.288C230.92 20.256 230.26 21.348 229.084 21.348Z" fill="#00B011"></path><path d="M63.93 40.6C65.94 40.6 67.39 39.09 67.39 37C67.39 34.89 65.94 33.38 63.93 33.38C61.91 33.38 60.46 34.89 60.46 37C60.46 39.09 61.91 40.6 63.93 40.6ZM63.93 39.77C62.44 39.77 61.41 38.61 61.41 37C61.41 35.37 62.44 34.21 63.93 34.21C65.41 34.21 66.45 35.37 66.45 37C66.45 38.61 65.41 39.77 63.93 39.77ZM71.1316 40.6C72.2016 40.6 73.0016 40 73.3416 39.08L72.6216 38.81C72.3316 39.48 71.8616 39.84 71.1416 39.84C70.2316 39.84 69.5616 39.08 69.5616 37.98C69.5616 36.87 70.2316 36.12 71.1316 36.12C71.8316 36.12 72.2916 36.49 72.5116 37.17L73.2916 36.93C73.0016 35.96 72.2516 35.36 71.1416 35.36C69.7116 35.36 68.6616 36.46 68.6616 38.03C68.6616 39.57 69.6616 40.6 71.1316 40.6ZM77.0608 39.58C76.9108 39.74 76.7308 39.85 76.4908 39.85C76.1308 39.85 75.9208 39.59 75.9208 39.11V36.24H77.2608V35.48H75.9208V34L75.0208 34.38V35.48H74.2208V36.24H75.0208V39.21C75.0208 40.1 75.5008 40.6 76.3508 40.6C76.9008 40.6 77.3108 40.39 77.5508 40.05L77.0608 39.58ZM82.2577 39.67L83.4677 38.81C85.0277 37.71 85.6077 36.67 85.6077 35.6C85.6077 34.25 84.6977 33.38 83.2977 33.38C81.8677 33.38 80.9377 34.25 80.9377 35.59C80.9377 35.97 81.0077 36.32 81.1277 36.62L81.9677 36.34C81.8877 36.12 81.8377 35.87 81.8377 35.61C81.8377 34.76 82.3977 34.21 83.2577 34.21C84.1077 34.21 84.6577 34.77 84.6577 35.65C84.6577 36.51 84.1877 37.37 82.8077 38.36L80.9277 39.72V40.5H85.6677V39.67H82.2577ZM90.4501 36.82C91.1801 36.58 91.5901 36.04 91.5901 35.26C91.5901 34.12 90.7401 33.38 89.4301 33.38C88.1401 33.38 87.2701 34.1 87.1501 35.28L88.0001 35.42C88.1401 34.66 88.6201 34.18 89.3801 34.18C90.1501 34.18 90.6501 34.63 90.6501 35.34C90.6501 36.07 90.1201 36.46 89.1601 36.46H88.7901V37.26H89.2201C90.2801 37.26 90.9001 37.71 90.9001 38.54C90.9001 39.3 90.3201 39.79 89.4301 39.79C88.5301 39.79 88.0001 39.35 87.8201 38.59L86.9501 38.74C87.1401 39.92 88.0301 40.6 89.4101 40.6C90.8801 40.6 91.8401 39.81 91.8401 38.6C91.8401 37.69 91.3401 37.08 90.4501 36.82ZM93.3134 39.43V40.5H93.9334V40.87C93.9334 41.12 93.7934 41.29 93.5734 41.29C93.4234 41.29 93.2834 41.26 93.1734 41.19L92.9734 41.52C93.1334 41.63 93.3334 41.68 93.5634 41.68C94.0734 41.68 94.3934 41.34 94.3934 40.8V39.43H93.3134ZM101.108 40.6C102.828 40.6 103.778 39.31 103.778 37C103.778 34.67 102.828 33.38 101.108 33.38C99.388 33.38 98.428 34.67 98.428 37C98.428 39.31 99.388 40.6 101.108 40.6ZM101.108 39.77C99.998 39.77 99.378 38.78 99.378 37C99.378 35.2 99.998 34.21 101.108 34.21C102.208 34.21 102.838 35.2 102.838 37C102.838 38.78 102.208 39.77 101.108 39.77ZM104.827 33.5V35.11H105.777V34.32H108.547C107.047 36.1 106.327 37.78 106.327 40.01V40.5H107.267V40C107.267 37.57 107.947 36.17 109.567 34.24V33.5H104.827ZM110.89 36.55H111.97V35.48H110.89V36.55ZM110.89 40.5H111.97V39.43H110.89V40.5ZM116.244 40.6C117.964 40.6 118.914 39.31 118.914 37C118.914 34.67 117.964 33.38 116.244 33.38C114.524 33.38 113.564 34.67 113.564 37C113.564 39.31 114.524 40.6 116.244 40.6ZM116.244 39.77C115.134 39.77 114.514 38.78 114.514 37C114.514 35.2 115.134 34.21 116.244 34.21C117.344 34.21 117.974 35.2 117.974 37C117.974 38.78 117.344 39.77 116.244 39.77ZM123.118 40.6C124.838 40.6 125.788 39.31 125.788 37C125.788 34.67 124.838 33.38 123.118 33.38C121.398 33.38 120.438 34.67 120.438 37C120.438 39.31 121.398 40.6 123.118 40.6ZM123.118 39.77C122.008 39.77 121.388 38.78 121.388 37C121.388 35.2 122.008 34.21 123.118 34.21C124.218 34.21 124.848 35.2 124.848 37C124.848 38.78 124.218 39.77 123.118 39.77ZM130.233 33.5H127.543V40.5H128.493V37.77H130.193C131.703 37.77 132.583 36.94 132.583 35.61C132.583 34.31 131.713 33.5 130.233 33.5ZM130.233 36.95H128.493V34.32H130.163C131.123 34.32 131.643 34.82 131.643 35.64C131.643 36.46 131.143 36.95 130.233 36.95ZM139.895 33.5L137.675 39.51L135.465 33.5H134.085V40.5H135.005V34.63L137.175 40.5H138.165L140.355 34.58V40.5H141.265V33.5H139.895Z" fill="#897E7A"></path><rect x="8" y="8" width="39.9998" height="40" rx="4" fill="#013830"></rect><path fill-rule="evenodd" clip-rule="evenodd" d="M25.6533 22.3408C26.7728 21.8773 28.0046 21.7563 29.1929 21.9931C30.3811 22.2298 31.4725 22.8136 32.3289 23.6707L32.3299 23.6717L33.7013 25.0391H31.7656C31.3514 25.0391 31.0156 25.3749 31.0156 25.7891C31.0156 26.2033 31.3514 26.5391 31.7656 26.5391H35.5156C35.6224 26.5391 35.7239 26.5168 35.8159 26.4766C35.8997 26.44 35.9783 26.3873 36.0468 26.3186C36.1646 26.2004 36.2349 26.0527 36.2576 25.8994C36.2634 25.8597 36.2661 25.8197 36.2656 25.7797V22.0391C36.2656 21.6249 35.9298 21.2891 35.5156 21.2891C35.1014 21.2891 34.7656 21.6249 34.7656 22.0391V23.9821L33.39 22.6105L33.3896 22.6101C32.3235 21.5433 30.965 20.8167 29.4859 20.522C28.0067 20.2273 26.4732 20.3779 25.0796 20.9548C23.6859 21.5318 22.4947 22.5091 21.6566 23.7631C20.8184 25.0172 20.3711 26.4917 20.3711 28C20.3711 29.5084 20.8184 30.9828 21.6566 32.2369C22.4947 33.4909 23.6859 34.4682 25.0796 35.0452C26.4732 35.6221 28.0067 35.7728 29.4859 35.478C30.9652 35.1833 32.3239 34.4565 33.39 33.3895C33.6828 33.0965 33.6826 32.6216 33.3895 32.3288C33.0965 32.0361 32.6217 32.0363 32.3289 32.3293C31.4725 33.1864 30.3811 33.7702 29.1929 34.0069C28.0046 34.2437 26.7728 34.1227 25.6533 33.6592C24.5338 33.1958 23.5769 32.4108 22.9037 31.4034C22.2304 30.396 21.8711 29.2116 21.8711 28C21.8711 26.7884 22.2304 25.604 22.9037 24.5966C23.5769 23.5893 24.5338 22.8042 25.6533 22.3408Z" fill="#D6F1A2"></path></svg> 