<?xml version="1.0" encoding="UTF-8"?> <svg xmlns="http://www.w3.org/2000/svg" id="Layer_1" viewBox="0 0 934.48 147.33"><defs><style>.cls-1{fill:#010101;stroke-width:0px;}</style></defs><g id="Layer_2"><g id="Layer_1-2"><path class="cls-1" d="m103.69,113.78l-30.94-49.54c-.21-.32-.63-.42-.96-.21-.09.05-.16.13-.21.21l-30.94,49.54c-.14.22-.07.5.15.64.07.05.16.07.24.07h62.26c.25,0,.46-.21.46-.46,0-.09-.02-.17-.07-.24Z"></path><circle class="cls-1" cx="20.57" cy="40.75" r="20.42"></circle><circle class="cls-1" cx="110.86" cy="12.89" r="12.89"></circle><path class="cls-1" d="m1.55,83.31l-1.36-2.99c-.49-1.08,0-2.35,1.07-2.84.03-.01.06-.03.1-.04L140.07,22.31c1.06-.42,2.26.07,2.73,1.11l1.36,2.99c.5,1.06.05,2.32-1.01,2.82-.05.02-.09.04-.14.06L4.33,84.42c-1.08.44-2.31-.05-2.78-1.11Z"></path><path class="cls-1" d="m228.29,34.07c-9.76-.26-19.2,3.44-26.18,10.27v-7.83h-16.82v108.71h16.82v-38.71c6.71,6.65,15.65,10.1,26.18,10.1,22.83,0,39.42-17.31,39.42-41.13s-16.59-41.39-39.42-41.39Zm22.31,41.42c0,15.23-9.84,25.46-24.52,25.46s-24.52-10.47-24.52-25.46,10.28-25.75,24.52-25.75c14.68,0,24.52,10.34,24.52,25.75Z"></path><path class="cls-1" d="m358.38,36.5h-16.82v7.79c-7-6.78-16.43-10.46-26.18-10.23-22.85,0-39.42,17.42-39.42,41.42s16.57,41.13,39.42,41.13c11.41,0,20.91-4.07,27.72-11.8l2.44,9.65h15.23l-2.39-18.39v-59.58Zm-16.38,38.94c0,14.99-10.1,25.46-24.52,25.46s-24.52-10.23-24.52-25.46,9.82-25.75,24.52-25.75c14.26.04,24.52,10.88,24.52,25.79v-.04Z"></path><polygon class="cls-1" points="430.89 36.5 408.8 91.13 385.76 36.5 367.03 36.5 399.7 111.66 385.65 145.21 403.76 145.21 449.33 36.5 430.89 36.5"></polygon><path class="cls-1" d="m634.13,34.07c-24,0-41.42,17.31-41.42,41.28s17.39,41.28,41.42,41.28,41.7-17.31,41.7-41.28-17.54-41.28-41.7-41.28Zm24.52,41.28c0,15.23-9.84,25.47-24.52,25.47s-24.32-10.24-24.32-25.47,9.76-25.46,24.32-25.46,24.46,10.23,24.46,25.46h.06Z"></path><path class="cls-1" d="m932.07,96.09V5.22h-16.82v39.07c-7-6.78-16.43-10.46-26.18-10.23-22.83,0-39.42,17.42-39.42,41.42s16.59,41.13,39.42,41.13c11.41,0,20.91-4.07,27.72-11.8l2.44,9.65h15.25l-2.41-18.39Zm-16.38-20.6c0,14.99-10.1,25.46-24.52,25.46s-24.52-10.23-24.52-25.46,9.84-25.75,24.52-25.75c14.24,0,24.52,10.83,24.52,25.75Z"></path><path class="cls-1" d="m809.39,34.21c-10.72,0-18.68,3.56-24.25,10.96l-2.19-8.65h-15.55l2.39,18.39v59.58h16.85v-41.83c0-14.42,7.21-22.75,19.75-22.75,10.98,0,16.31,6.17,16.31,18.88v45.68h16.82v-47.7c0-20.39-11.26-32.57-30.13-32.57Z"></path><path class="cls-1" d="m753.64,36.5h-16.82v42.42c0,14.42-6.94,22.6-19.04,22.6-10.49,0-15.59-5.77-15.59-17.45v-47.6h-16.82v49.44c0,18.94,11.32,30.71,29.55,30.71,10.2,0,18.09-3.55,23.44-10.47l2.16,8.54h15.53l-2.39-18.39-.03-59.8Z"></path><path class="cls-1" d="m589.91,35.68c-1.87-.44-3.78-.64-5.7-.61-6.74-.04-13.28,2.28-18.49,6.56-3.58,3.17-4.25,5.37-4.25,5.37l-.81-3.23h0l-1.85-7.3h-15.53l2.39,18.39v59.61h16.83v-37.85c0-16.41,6.81-24.71,20.29-24.71,2.12,0,4.22.28,6.27.81l2.28.58v-17.25l-1.44-.38Z"></path><path class="cls-1" d="m516.6,36.5l-.85,3.39h0l-1.33,5.34s-.65-.65-3.26-3.04c-6.46-5.35-14.6-8.23-22.99-8.13-22.5,0-38.84,16.7-38.84,39.71s16.34,39.56,38.84,39.56c9.18.14,18.05-3.3,24.75-9.58v6.32c0,13.67-9.04,22.17-23.6,22.17-12.69,0-20.63-5.55-24.26-17l-.75-2.34-14.68,9.91.53,1.37c6.03,15.38,19.21,23.16,39.16,23.16,24.52,0,40.38-14.42,40.38-36.56v-55.88l2.51-18.39h-15.62Zm-26.21,61.17c-14.29,0-23.88-9.61-23.88-23.9s9.46-24.03,23.88-24.03,23.08,9.65,23.08,24.03-9.38,23.9-23.08,23.9Z"></path></g></g></svg> 