<?xml version="1.0" encoding="UTF-8"?> <svg xmlns="http://www.w3.org/2000/svg" width="242" height="96" viewBox="0 0 242 96" fill="none"><g clip-path="url(#clip0_1362_26174)"><rect width="242" height="96" rx="8" fill="white"></rect><path d="M21.11 20.2H17.05V30H18.716V26.346H21.012C23.14 26.346 24.442 25.114 24.442 23.21C24.442 21.376 23.182 20.2 21.11 20.2ZM21.054 24.848H18.716V21.684H21.012C22.132 21.684 22.762 22.3 22.762 23.266C22.762 24.246 22.146 24.848 21.054 24.848ZM28.486 22.762C26.862 22.762 25.7 23.756 25.434 25.184L26.708 25.562C26.988 24.652 27.492 24.162 28.416 24.162C29.284 24.162 29.858 24.736 29.9 25.66L28.038 25.982C26.442 26.262 25.672 26.934 25.672 28.068C25.672 29.314 26.596 30.14 27.926 30.14C28.878 30.14 29.606 29.706 30.026 28.922V30H31.496V25.632C31.496 23.924 30.362 22.762 28.486 22.762ZM28.29 29.006C27.702 29.006 27.282 28.67 27.282 28.11C27.282 27.508 27.744 27.214 28.556 27.06L29.9 26.794V27.032C29.9 28.152 29.228 29.006 28.29 29.006ZM37.5948 22.958L35.8028 28.012L33.8848 22.958H32.2188L35.0188 29.874L33.8008 32.8H35.4248L39.2328 22.958H37.5948ZM48.6603 22.762C47.6103 22.762 46.7982 23.252 46.3223 24.134C45.9163 23.238 45.1323 22.762 44.0683 22.762C43.0463 22.762 42.3323 23.238 41.9263 24.12V22.958H40.3163V30H41.9263V26.752C41.9263 24.946 42.6963 24.134 43.6623 24.134C44.5163 24.134 44.9783 24.764 44.9783 25.702V30H46.5883V26.752C46.5883 24.946 47.3583 24.134 48.3243 24.134C49.1783 24.134 49.6403 24.764 49.6403 25.702V30H51.2503V25.534C51.2503 23.812 50.2703 22.762 48.6603 22.762ZM56.0704 22.762C54.0544 22.762 52.5984 24.302 52.5984 26.5C52.5984 28.726 54.1804 30.14 56.1684 30.14C57.5124 30.14 58.5624 29.482 59.1364 28.488L58.1144 27.774C57.6944 28.404 57.0224 28.824 56.1964 28.824C55.1324 28.824 54.2224 28.124 54.1524 26.878H59.2624C59.5844 24.694 58.2824 22.762 56.0704 22.762ZM56.0424 24.022C57.0084 24.022 57.6804 24.708 57.7784 25.73H54.2084C54.3064 24.694 55.0624 24.022 56.0424 24.022ZM64.606 22.762C63.626 22.762 62.842 23.196 62.352 24.05V22.958H60.742V30H62.352V26.556C62.352 24.904 63.206 24.134 64.186 24.134C65.068 24.134 65.6 24.75 65.6 25.744V30H67.21V25.534C67.21 23.826 66.16 22.762 64.606 22.762ZM72.3892 28.488C72.1932 28.67 71.9552 28.796 71.6472 28.796C71.1992 28.796 70.9472 28.474 70.9472 27.9V24.33H72.7952V22.958H70.9472V20.69L69.3372 21.39V22.958H68.2172V24.33H69.3372V28.068C69.3372 29.398 70.0512 30.14 71.3392 30.14C72.2072 30.14 72.8232 29.832 73.2292 29.37L72.3892 28.488ZM81.7823 22.958L79.9343 28.18L78.0863 22.958H76.4063L79.1223 30H80.7043L83.4203 22.958H81.7823ZM87.3269 30.14C89.3989 30.14 90.9389 28.558 90.9389 26.43C90.9389 24.302 89.3989 22.762 87.3549 22.762C85.2829 22.762 83.7429 24.344 83.7429 26.472C83.7429 28.6 85.2829 30.14 87.3269 30.14ZM87.3549 28.768C86.1929 28.768 85.3529 27.83 85.3529 26.444C85.3529 25.072 86.1649 24.134 87.3269 24.134C88.4889 24.134 89.3289 25.072 89.3289 26.458C89.3289 27.83 88.5169 28.768 87.3549 28.768ZM92.4208 30H94.0308V20.2H92.4208V30ZM100.54 22.958V26.164C100.54 27.928 99.7004 28.768 98.6924 28.768C97.8244 28.768 97.3204 28.152 97.3204 27.2V22.958H95.7104V27.396C95.7104 29.09 96.7464 30.14 98.2444 30.14C99.2664 30.14 100.05 29.664 100.54 28.782V30H102.15V22.958H100.54ZM112.33 22.762C111.28 22.762 110.468 23.252 109.992 24.134C109.586 23.238 108.802 22.762 107.738 22.762C106.716 22.762 106.002 23.238 105.596 24.12V22.958H103.986V30H105.596V26.752C105.596 24.946 106.366 24.134 107.332 24.134C108.186 24.134 108.648 24.764 108.648 25.702V30H110.258V26.752C110.258 24.946 111.028 24.134 111.994 24.134C112.848 24.134 113.31 24.764 113.31 25.702V30H114.92V25.534C114.92 23.812 113.94 22.762 112.33 22.762ZM119.74 22.762C117.724 22.762 116.268 24.302 116.268 26.5C116.268 28.726 117.85 30.14 119.838 30.14C121.182 30.14 122.232 29.482 122.806 28.488L121.784 27.774C121.364 28.404 120.692 28.824 119.866 28.824C118.802 28.824 117.892 28.124 117.822 26.878H122.932C123.254 24.694 121.952 22.762 119.74 22.762ZM119.712 24.022C120.678 24.022 121.35 24.708 121.448 25.73H117.878C117.976 24.694 118.732 24.022 119.712 24.022Z" fill="#00473C"></path><path d="M34.496 65.792C34.496 61.024 30.72 60.224 27.168 59.584V51.488C29.248 51.872 30.816 53.248 31.488 55.296L33.856 54.592C32.928 51.584 30.56 49.6 27.168 49.28V46.528H25.056V49.312C21.088 49.696 18.464 52.128 18.464 55.552C18.464 59.968 21.728 60.928 25.056 61.568V70.112C22.336 69.792 20.544 68.096 19.968 65.376L17.568 66.048C18.272 69.696 20.896 72 25.056 72.288V75.072H27.168V72.256C31.616 71.904 34.496 69.472 34.496 65.792ZM20.896 55.328C20.896 53.344 22.496 51.776 25.056 51.456V59.168C22.72 58.624 20.896 57.792 20.896 55.328ZM27.168 70.112V61.984C29.792 62.528 32 63.296 32 66.048C32 68.224 30.112 69.824 27.168 70.112ZM46.2385 57.088C44.2225 57.088 42.4305 57.824 41.1825 59.104L42.2385 51.872H52.4145V49.6H40.1905L38.3665 62.176L40.6705 62.72C41.3425 60.768 43.1665 59.264 45.7265 59.264C48.8305 59.264 50.9105 61.472 50.9105 64.704C50.9105 67.904 48.8625 70.048 45.7905 70.048C43.2305 70.048 41.5345 68.736 40.6065 66.56L38.3665 67.552C39.4545 70.4 42.1105 72.32 45.6945 72.32C50.3345 72.32 53.5345 69.184 53.5345 64.64C53.5345 60.192 50.4945 57.088 46.2385 57.088ZM65.836 72.32C71.276 72.32 74.284 68.192 74.284 60.8C74.284 53.376 71.276 49.248 65.836 49.248C60.364 49.248 57.356 53.376 57.356 60.8C57.356 68.192 60.364 72.32 65.836 72.32ZM65.836 70.048C62.092 70.048 59.98 66.752 59.98 60.8C59.98 54.816 62.092 51.52 65.836 51.52C69.548 51.52 71.66 54.816 71.66 60.8C71.66 66.752 69.548 70.048 65.836 70.048ZM78.269 68.832V72H80.093V73.184C80.093 73.952 79.677 74.464 79.005 74.464C78.557 74.464 78.141 74.4 77.821 74.176L77.213 75.168C77.693 75.488 78.301 75.648 79.005 75.648C80.477 75.648 81.469 74.624 81.469 72.992V68.832H78.269ZM88.7465 69.728L93.1305 66.592C98.0585 63.072 99.9145 59.712 99.9145 56.32C99.9145 52 97.0345 49.248 92.5865 49.248C88.0745 49.248 85.1305 52 85.1305 56.256C85.1305 57.44 85.3545 58.528 85.7065 59.456L88.0425 58.688C87.7865 57.984 87.6265 57.152 87.6265 56.288C87.6265 53.408 89.5465 51.52 92.4905 51.52C95.4025 51.52 97.2585 53.44 97.2585 56.448C97.2585 59.232 95.8185 61.984 91.4345 65.152L85.0665 69.824V72H100.107V69.728H88.7465ZM119.254 64.832H116.278V49.6H113.59L102.646 64.832V67.072H113.686V72H116.278V67.072H119.254V64.832ZM113.718 53.28V64.832H105.43L113.718 53.28ZM130.461 72.32C135.901 72.32 138.909 68.192 138.909 60.8C138.909 53.376 135.901 49.248 130.461 49.248C124.989 49.248 121.981 53.376 121.981 60.8C121.981 68.192 124.989 72.32 130.461 72.32ZM130.461 70.048C126.717 70.048 124.605 66.752 124.605 60.8C124.605 54.816 126.717 51.52 130.461 51.52C134.173 51.52 136.285 54.816 136.285 60.8C136.285 66.752 134.173 70.048 130.461 70.048ZM149.551 72.16C152.287 72.16 153.999 70.416 153.999 67.552V60.8H152.287V67.488C152.287 69.456 151.247 70.656 149.583 70.656C147.903 70.656 146.847 69.456 146.847 67.488V60.8H145.151V67.552C145.151 70.416 146.831 72.16 149.551 72.16ZM159.941 72.16C162.549 72.16 164.325 70.88 164.325 68.768C164.325 64.224 157.749 66.656 157.749 63.744C157.749 62.768 158.597 62.048 159.973 62.048C161.237 62.048 162.117 62.736 162.485 63.824L164.021 63.392C163.509 61.696 162.149 60.592 160.069 60.592C157.749 60.592 156.133 61.936 156.133 63.904C156.133 68.448 162.661 65.984 162.661 68.992C162.661 70.016 161.605 70.704 160.053 70.704C158.533 70.704 157.541 69.952 157.141 68.512L155.653 68.96C156.101 70.944 157.621 72.16 159.941 72.16ZM170.251 60.8H166.107V72H170.251C173.579 72 175.691 69.872 175.691 66.4C175.691 62.928 173.595 60.8 170.251 60.8ZM170.203 70.496H167.819V62.304H170.203C172.491 62.304 173.979 63.904 173.979 66.4C173.979 68.912 172.491 70.496 170.203 70.496Z" fill="#00473C"></path><path d="M191 72.125V63.875" stroke="#00B011" stroke-width="0.75" stroke-linecap="round" stroke-linejoin="round"></path><path d="M187.625 67.25L191 63.875L194.375 67.25" stroke="#00B011" stroke-width="0.75" stroke-linecap="round" stroke-linejoin="round"></path><path d="M203.548 63.9C203.171 64.94 202.43 65.473 201.221 65.577V67.046C202.118 66.981 202.781 66.721 203.262 66.227V73H204.822V63.9H203.548ZM210.164 73.13C212.439 73.13 213.713 71.453 213.713 68.437C213.713 65.408 212.439 63.731 210.164 63.731C207.876 63.731 206.602 65.408 206.602 68.437C206.602 71.453 207.876 73.13 210.164 73.13ZM210.164 71.752C208.877 71.752 208.162 70.569 208.162 68.437C208.162 66.305 208.877 65.109 210.164 65.109C211.438 65.109 212.153 66.305 212.153 68.437C212.153 70.569 211.438 71.752 210.164 71.752ZM216.915 68.697C218.111 68.697 218.904 67.761 218.904 66.24C218.904 64.706 218.111 63.77 216.915 63.77C215.719 63.77 214.926 64.706 214.926 66.24C214.926 67.774 215.719 68.697 216.915 68.697ZM217.006 72.987H218.254L222.674 63.9H221.439L217.006 72.987ZM216.915 67.774C216.33 67.774 216.018 67.228 216.018 66.24C216.018 65.239 216.33 64.693 216.915 64.693C217.487 64.693 217.812 65.239 217.812 66.24C217.812 67.228 217.487 67.774 216.915 67.774ZM222.804 73.156C224 73.156 224.793 72.22 224.793 70.699C224.793 69.165 224 68.229 222.804 68.229C221.595 68.229 220.815 69.165 220.815 70.699C220.815 72.233 221.595 73.156 222.804 73.156ZM222.804 72.233C222.219 72.233 221.907 71.687 221.907 70.699C221.907 69.698 222.219 69.152 222.804 69.152C223.376 69.152 223.701 69.698 223.701 70.699C223.701 71.687 223.376 72.233 222.804 72.233Z" fill="#00B011"></path></g><rect x="1" y="1" width="240" height="94" rx="7" stroke="url(#paint0_linear_1362_26174)" stroke-width="2"></rect><defs><linearGradient id="paint0_linear_1362_26174" x1="229" y1="96" x2="17.5" y2="1.05096e-06" gradientUnits="userSpaceOnUse"><stop stop-color="#9DE183"></stop><stop offset="0.494792" stop-color="#D6F1A2"></stop><stop offset="1" stop-color="white"></stop></linearGradient><clipPath id="clip0_1362_26174"><rect width="242" height="96" rx="8" fill="white"></rect></clipPath></defs></svg> 