<?xml version="1.0" encoding="UTF-8"?> <svg xmlns="http://www.w3.org/2000/svg" width="232" height="134" viewBox="0 0 232 134" fill="none"><rect y="0.0332031" width="232" height="133" rx="8" fill="white"></rect><path d="M31.12 28.0332H25.54V42.0332H27.68V36.6932H31.02C34.04 36.6932 35.86 34.9732 35.86 32.2932C35.86 29.6732 34.08 28.0332 31.12 28.0332ZM31.08 34.8132H27.68V29.9132H30.98C32.76 29.9132 33.72 30.8332 33.72 32.3532C33.72 33.8732 32.78 34.8132 31.08 34.8132ZM41.6214 31.7332C39.3414 31.7332 37.6814 33.1132 37.3014 35.1532L38.9414 35.6332C39.3414 34.2732 40.1214 33.5132 41.5214 33.5132C42.8814 33.5132 43.7614 34.3932 43.8214 35.8332L41.1214 36.3132C38.7414 36.7532 37.6614 37.7132 37.6614 39.3332C37.6614 41.0932 38.9614 42.2332 40.8614 42.2332C42.2814 42.2332 43.3414 41.5732 43.9614 40.3932V42.0332H45.8414V35.7932C45.8414 33.3532 44.2214 31.7332 41.6214 31.7332ZM41.2814 40.7532C40.3614 40.7532 39.7014 40.2532 39.7014 39.3732C39.7014 38.4332 40.4014 37.9732 41.8214 37.7132L43.8214 37.3332V37.6532C43.8214 39.4532 42.7614 40.7532 41.2814 40.7532ZM54.6363 31.9732L51.9362 39.5732L49.0163 31.9732H46.8963L50.9163 41.9532L49.2363 46.0332H51.2963L56.7163 31.9732H54.6363ZM70.1092 31.7332C68.5692 31.7332 67.3892 32.4732 66.7092 33.7932C66.1492 32.4532 65.0092 31.7332 63.4492 31.7332C61.9692 31.7332 60.9092 32.4332 60.3292 33.7532V31.9732H58.2892V42.0332H60.3292V37.5132C60.3292 34.7932 61.4492 33.4532 62.9892 33.4532C64.3092 33.4532 65.0092 34.4132 65.0092 35.8732V42.0332H67.0492V37.5132C67.0492 34.7932 68.1692 33.4532 69.7092 33.4532C71.0092 33.4532 71.7292 34.4132 71.7292 35.8732V42.0332H73.7692V35.6532C73.7692 33.2132 72.3692 31.7332 70.1092 31.7332ZM80.6966 31.7332C77.8366 31.7332 75.7766 33.9132 75.7766 37.0332C75.7766 40.2132 78.0166 42.2332 80.8166 42.2332C82.7566 42.2332 84.2366 41.2532 85.0566 39.8132L83.7166 38.9132C83.1166 39.9132 82.1166 40.5532 80.8566 40.5532C79.2366 40.5532 77.8566 39.4932 77.7566 37.4932H85.1966C85.5766 34.3732 83.7966 31.7332 80.6966 31.7332ZM80.6566 33.3332C82.1566 33.3332 83.1766 34.3932 83.3166 35.9532H77.8166C77.9766 34.3732 79.1566 33.3332 80.6566 33.3332ZM92.6917 31.7332C91.2517 31.7332 90.0917 32.3732 89.3917 33.6532V31.9732H87.3517V42.0332H89.3917V37.1932C89.3917 34.6732 90.6517 33.4532 92.1717 33.4532C93.5317 33.4532 94.3517 34.4132 94.3517 35.9332V42.0332H96.3917V35.6732C96.3917 33.2332 94.9117 31.7332 92.6917 31.7332ZM103.654 40.0332C103.374 40.3332 103.014 40.5332 102.554 40.5332C101.874 40.5332 101.494 40.0532 101.494 39.1532V33.7132H104.134V31.9732H101.494V28.8932L99.4538 29.7732V31.9732H97.8538V33.7132H99.4538V39.3732C99.4538 41.2132 100.434 42.2332 102.194 42.2332C103.374 42.2332 104.214 41.7932 104.734 41.1332L103.654 40.0332ZM109.539 42.2332C111.979 42.2332 113.659 41.0132 113.659 39.1132C113.659 34.8932 107.819 37.0332 107.819 34.5732C107.819 33.7932 108.539 33.2732 109.639 33.2732C110.739 33.2732 111.459 33.8732 111.779 34.7932L113.359 34.2532C112.939 32.7132 111.639 31.7332 109.799 31.7332C107.519 31.7332 105.939 32.8732 105.939 34.7532C105.939 39.0332 111.759 36.9332 111.759 39.3132C111.759 40.1332 110.959 40.6532 109.679 40.6532C108.319 40.6532 107.419 39.9332 107.059 38.7732L105.519 39.2932C105.939 41.1732 107.439 42.2332 109.539 42.2332Z" fill="#322E2E"></path><path d="M31.436 90.0332H32.905L29.317 80.9332H27.848L24.247 90.0332H25.703L26.483 87.9922H30.656L31.436 90.0332ZM26.925 86.8482L28.576 82.5062L30.227 86.8482H26.925ZM34.4533 90.0332H35.7793V80.9332H34.4533V90.0332ZM37.9918 90.0332H39.3178V80.9332H37.9918V90.0332Z" fill="#A09D9F"></path><path d="M64.926 90.1632C67.045 90.1632 68.488 89.1232 68.488 87.4072C68.488 83.7152 63.145 85.6912 63.145 83.3252C63.145 82.5322 63.834 81.9472 64.952 81.9472C65.979 81.9472 66.694 82.5062 66.993 83.3902L68.241 83.0392C67.825 81.6612 66.72 80.7642 65.03 80.7642C63.145 80.7642 61.832 81.8562 61.832 83.4552C61.832 87.1472 67.136 85.1452 67.136 87.5892C67.136 88.4212 66.278 88.9802 65.017 88.9802C63.782 88.9802 62.976 88.3692 62.651 87.1992L61.442 87.5632C61.806 89.1752 63.041 90.1632 64.926 90.1632ZM74.5506 83.4942V86.4192C74.5506 88.1482 73.7446 89.0322 72.7046 89.0322C71.8336 89.0322 71.3266 88.4212 71.3266 87.4722V83.4942H70.0006V87.6282C70.0006 89.1882 70.9626 90.1632 72.3666 90.1632C73.3416 90.1632 74.0956 89.6952 74.5506 88.8502V90.0332H75.8766V83.4942H74.5506ZM80.8983 90.1632C82.3153 90.1632 83.3553 89.3702 83.7973 88.1872L82.7443 87.7972C82.3673 88.6032 81.8083 89.0322 80.9113 89.0322C79.8063 89.0322 78.9873 88.0962 78.9873 86.7442C78.9873 85.3922 79.8063 84.4562 80.8983 84.4562C81.7563 84.4562 82.3023 84.8982 82.5883 85.7172L83.7323 85.3792C83.3553 84.1182 82.3803 83.3382 80.9113 83.3382C79.0263 83.3382 77.6613 84.7682 77.6613 86.8352C77.6613 88.8112 78.9483 90.1632 80.8983 90.1632ZM88.3977 90.1632C89.8147 90.1632 90.8547 89.3702 91.2967 88.1872L90.2437 87.7972C89.8667 88.6032 89.3077 89.0322 88.4107 89.0322C87.3057 89.0322 86.4867 88.0962 86.4867 86.7442C86.4867 85.3922 87.3057 84.4562 88.3977 84.4562C89.2557 84.4562 89.8017 84.8982 90.0877 85.7172L91.2317 85.3792C90.8547 84.1182 89.8797 83.3382 88.4107 83.3382C86.5257 83.3382 85.1607 84.7682 85.1607 86.8352C85.1607 88.8112 86.4477 90.1632 88.3977 90.1632ZM95.8581 83.3382C93.9991 83.3382 92.6601 84.7552 92.6601 86.7832C92.6601 88.8502 94.1161 90.1632 95.9361 90.1632C97.1971 90.1632 98.1591 89.5262 98.6921 88.5902L97.8211 88.0052C97.4311 88.6552 96.7811 89.0712 95.9621 89.0712C94.9091 89.0712 94.0121 88.3822 93.9471 87.0822H98.7831C99.0301 85.0542 97.8731 83.3382 95.8581 83.3382ZM95.8321 84.3782C96.8071 84.3782 97.4701 85.0672 97.5611 86.0812H93.9861C94.0901 85.0542 94.8571 84.3782 95.8321 84.3782ZM103.421 83.3382C101.562 83.3382 100.223 84.7552 100.223 86.7832C100.223 88.8502 101.679 90.1632 103.499 90.1632C104.76 90.1632 105.722 89.5262 106.255 88.5902L105.384 88.0052C104.994 88.6552 104.344 89.0712 103.525 89.0712C102.472 89.0712 101.575 88.3822 101.51 87.0822H106.346C106.593 85.0542 105.436 83.3382 103.421 83.3382ZM103.395 84.3782C104.37 84.3782 105.033 85.0672 105.124 86.0812H101.549C101.653 85.0542 102.42 84.3782 103.395 84.3782ZM112.947 80.9332V84.4042C112.505 83.7282 111.79 83.3382 110.841 83.3382C108.995 83.3382 107.786 84.7422 107.786 86.7442C107.786 88.7592 108.995 90.1632 110.841 90.1632C111.803 90.1632 112.505 89.7732 112.947 89.0972V90.0332H114.273V80.9332H112.947ZM111.036 89.0322C109.879 89.0322 109.112 88.0962 109.112 86.7442C109.112 85.3922 109.879 84.4562 111.036 84.4562C112.193 84.4562 112.947 85.3922 112.947 86.7442C112.947 88.0962 112.193 89.0322 111.036 89.0322ZM119.296 83.3382C117.437 83.3382 116.098 84.7552 116.098 86.7832C116.098 88.8502 117.554 90.1632 119.374 90.1632C120.635 90.1632 121.597 89.5262 122.13 88.5902L121.259 88.0052C120.869 88.6552 120.219 89.0712 119.4 89.0712C118.347 89.0712 117.45 88.3822 117.385 87.0822H122.221C122.468 85.0542 121.311 83.3382 119.296 83.3382ZM119.27 84.3782C120.245 84.3782 120.908 85.0672 120.999 86.0812H117.424C117.528 85.0542 118.295 84.3782 119.27 84.3782ZM128.822 80.9332V84.4042C128.38 83.7282 127.665 83.3382 126.716 83.3382C124.87 83.3382 123.661 84.7422 123.661 86.7442C123.661 88.7592 124.87 90.1632 126.716 90.1632C127.678 90.1632 128.38 89.7732 128.822 89.0972V90.0332H130.148V80.9332H128.822ZM126.911 89.0322C125.754 89.0322 124.987 88.0962 124.987 86.7442C124.987 85.3922 125.754 84.4562 126.911 84.4562C128.068 84.4562 128.822 85.3922 128.822 86.7442C128.822 88.0962 128.068 89.0322 126.911 89.0322Z" fill="#1F1E1D"></path><path d="M132 107.033H61V111.033H132V107.033Z" fill="#009D10" mask="url(#path-6-inside-2_1142_17456)"></path><path d="M159.358 87.6282C159.163 86.7312 158.734 86.1852 157.993 85.8992C159.072 85.5352 159.709 84.6772 159.709 83.5202C159.709 81.9472 158.539 80.9332 156.732 80.9332H153.001V90.0332H154.392V86.3282H156.03C157.187 86.3282 157.785 86.7962 158.032 87.9402L158.487 90.0332H159.878L159.358 87.6282ZM154.392 85.1322V82.1552H156.706C157.681 82.1552 158.318 82.7662 158.318 83.6502C158.318 84.5342 157.681 85.1322 156.693 85.1322H154.392ZM164.576 83.3382C162.717 83.3382 161.378 84.7552 161.378 86.7832C161.378 88.8502 162.834 90.1632 164.654 90.1632C165.915 90.1632 166.877 89.5262 167.41 88.5902L166.539 88.0052C166.149 88.6552 165.499 89.0712 164.68 89.0712C163.627 89.0712 162.73 88.3822 162.665 87.0822H167.501C167.748 85.0542 166.591 83.3382 164.576 83.3382ZM164.55 84.3782C165.525 84.3782 166.188 85.0672 166.279 86.0812H162.704C162.808 85.0542 163.575 84.3782 164.55 84.3782ZM170.995 82.7272C170.995 82.2202 171.281 81.9082 171.71 81.9082C171.97 81.9082 172.165 82.0382 172.321 82.2332L173.192 81.6872C172.906 81.1282 172.36 80.8032 171.671 80.8032C170.488 80.8032 169.669 81.6092 169.669 82.7792V83.4942H168.655V84.6252H169.669V90.0332H170.995V84.6252H172.568V83.4942H170.995V82.7272ZM178.531 83.4942V86.4192C178.531 88.1482 177.725 89.0322 176.685 89.0322C175.814 89.0322 175.307 88.4212 175.307 87.4722V83.4942H173.981V87.6282C173.981 89.1882 174.943 90.1632 176.347 90.1632C177.322 90.1632 178.076 89.6952 178.531 88.8502V90.0332H179.857V83.4942H178.531ZM185.464 83.3382C184.528 83.3382 183.774 83.7542 183.319 84.5862V83.4942H181.993V90.0332H183.319V86.8872C183.319 85.2492 184.138 84.4562 185.126 84.4562C186.01 84.4562 186.543 85.0802 186.543 86.0682V90.0332H187.869V85.8992C187.869 84.3132 186.907 83.3382 185.464 83.3382ZM194.721 80.9332V84.4042C194.279 83.7282 193.564 83.3382 192.615 83.3382C190.769 83.3382 189.56 84.7422 189.56 86.7442C189.56 88.7592 190.769 90.1632 192.615 90.1632C193.577 90.1632 194.279 89.7732 194.721 89.0972V90.0332H196.047V80.9332H194.721ZM192.81 89.0322C191.653 89.0322 190.886 88.0962 190.886 86.7442C190.886 85.3922 191.653 84.4562 192.81 84.4562C193.967 84.4562 194.721 85.3922 194.721 86.7442C194.721 88.0962 193.967 89.0322 192.81 89.0322ZM201.07 83.3382C199.211 83.3382 197.872 84.7552 197.872 86.7832C197.872 88.8502 199.328 90.1632 201.148 90.1632C202.409 90.1632 203.371 89.5262 203.904 88.5902L203.033 88.0052C202.643 88.6552 201.993 89.0712 201.174 89.0712C200.121 89.0712 199.224 88.3822 199.159 87.0822H203.995C204.242 85.0542 203.085 83.3382 201.07 83.3382ZM201.044 84.3782C202.019 84.3782 202.682 85.0672 202.773 86.0812H199.198C199.302 85.0542 200.069 84.3782 201.044 84.3782ZM210.596 80.9332V84.4042C210.154 83.7282 209.439 83.3382 208.49 83.3382C206.644 83.3382 205.435 84.7422 205.435 86.7442C205.435 88.7592 206.644 90.1632 208.49 90.1632C209.452 90.1632 210.154 89.7732 210.596 89.0972V90.0332H211.922V80.9332H210.596ZM208.685 89.0322C207.528 89.0322 206.761 88.0962 206.761 86.7442C206.761 85.3922 207.528 84.4562 208.685 84.4562C209.842 84.4562 210.596 85.3922 210.596 86.7442C210.596 88.0962 209.842 89.0322 208.685 89.0322Z" fill="#A09D9F"></path><path d="M213 108.033H24V110.033H213V108.033Z" fill="black" fill-opacity="0.1" mask="url(#path-3-inside-1_1142_17456)"></path></svg> 