<?xml version="1.0" encoding="UTF-8"?> <svg xmlns="http://www.w3.org/2000/svg" width="908" height="48" viewBox="0 0 908 48" fill="none"><path d="M0 4C0 1.79086 1.79086 0 4 0H1068C1070.21 0 1072 1.79086 1072 4V44C1072 46.2091 1070.21 48 1068 48H4.00003C1.79089 48 0 46.2091 0 44V4Z" fill="white"></path><path d="M24.872 19.2H21.106V29H22.436V25.178H24.816C26.93 25.178 28.162 24.016 28.162 22.154C28.162 20.334 26.944 19.2 24.872 19.2ZM24.872 24.03H22.436V20.348H24.774C26.118 20.348 26.846 21.048 26.846 22.196C26.846 23.344 26.146 24.03 24.872 24.03ZM33.0236 21.846C32.2536 21.846 31.6236 22.224 31.2316 23.162V21.972H29.9716V29H31.2316V25.99C31.2316 23.806 31.8476 22.994 32.8836 22.994C33.1356 22.994 33.3456 23.05 33.5136 23.134L33.9476 22.084C33.7096 21.944 33.3876 21.846 33.0236 21.846ZM38.2444 29.14C40.2744 29.14 41.7724 27.6 41.7724 25.458C41.7724 23.316 40.2744 21.804 38.2584 21.804C36.2284 21.804 34.7304 23.344 34.7304 25.486C34.7304 27.628 36.2284 29.14 38.2444 29.14ZM38.2584 28.076C36.9424 28.076 35.9904 27.012 35.9904 25.472C35.9904 23.932 36.9284 22.868 38.2444 22.868C39.5604 22.868 40.5124 23.932 40.5124 25.472C40.5124 27.012 39.5744 28.076 38.2584 28.076ZM48.9819 19.2V23.05C48.4919 22.252 47.6939 21.804 46.6299 21.804C44.6419 21.804 43.3399 23.316 43.3399 25.472C43.3399 27.642 44.6419 29.14 46.6299 29.14C47.6939 29.14 48.4919 28.678 48.9819 27.894V29H50.2419V19.2H48.9819ZM46.7979 28.076C45.4819 28.076 44.5999 27.012 44.5999 25.472C44.5999 23.932 45.4819 22.868 46.7979 22.868C48.1279 22.868 48.9819 23.932 48.9819 25.472C48.9819 27.012 48.1279 28.076 46.7979 28.076ZM57.3464 21.972V25.052C57.3464 27.026 56.4644 28.076 55.2464 28.076C54.2524 28.076 53.6644 27.376 53.6644 26.284V21.972H52.4044V26.41C52.4044 28.104 53.4264 29.14 54.9524 29.14C56.0304 29.14 56.8564 28.622 57.3464 27.656V29H58.6064V21.972H57.3464ZM64.0168 29.14C65.5148 29.14 66.6348 28.3 67.1108 27.012L66.1028 26.634C65.6968 27.572 65.0388 28.076 64.0308 28.076C62.7568 28.076 61.8188 27.012 61.8188 25.472C61.8188 23.918 62.7568 22.868 64.0168 22.868C64.9968 22.868 65.6408 23.386 65.9488 24.338L67.0408 24.002C66.6348 22.644 65.5848 21.804 64.0308 21.804C62.0288 21.804 60.5588 23.344 60.5588 25.542C60.5588 27.698 61.9588 29.14 64.0168 29.14ZM72.1777 27.712C71.9677 27.936 71.7157 28.09 71.3797 28.09C70.8757 28.09 70.5817 27.726 70.5817 27.054V23.036H72.4577V21.972H70.5817V19.9L69.3217 20.432V21.972H68.2017V23.036H69.3217V27.194C69.3217 28.44 69.9937 29.14 71.1837 29.14C71.9537 29.14 72.5277 28.846 72.8637 28.37L72.1777 27.712ZM74.2719 20.53H75.6159V19.144H74.2719V20.53ZM74.3139 29H75.5739V21.972H74.3139V29ZM81.0418 29.14C83.0718 29.14 84.5698 27.6 84.5698 25.458C84.5698 23.316 83.0718 21.804 81.0558 21.804C79.0258 21.804 77.5278 23.344 77.5278 25.486C77.5278 27.628 79.0258 29.14 81.0418 29.14ZM81.0558 28.076C79.7398 28.076 78.7878 27.012 78.7878 25.472C78.7878 23.932 79.7258 22.868 81.0418 22.868C82.3578 22.868 83.3098 23.932 83.3098 25.472C83.3098 27.012 82.3718 28.076 81.0558 28.076ZM90.1412 21.804C89.0912 21.804 88.2792 22.294 87.7752 23.232V21.972H86.5152V29H87.7752V25.668C87.7752 23.806 88.6992 22.868 89.8472 22.868C90.8552 22.868 91.4712 23.568 91.4712 24.716V29H92.7312V24.562C92.7312 22.854 91.6952 21.804 90.1412 21.804ZM99.82 27.838L101.514 26.634C103.698 25.094 104.51 23.638 104.51 22.14C104.51 20.25 103.236 19.032 101.276 19.032C99.274 19.032 97.972 20.25 97.972 22.126C97.972 22.658 98.07 23.148 98.238 23.568L99.414 23.176C99.302 22.868 99.232 22.518 99.232 22.154C99.232 20.964 100.016 20.194 101.22 20.194C102.41 20.194 103.18 20.978 103.18 22.21C103.18 23.414 102.522 24.618 100.59 26.004L97.958 27.908V29H104.594V27.838H99.82Z" fill="#1F1E1D"></path><path d="M162.66 19.2C162.254 20.334 161.47 20.936 160.252 21.034V22.28C161.232 22.196 161.96 21.874 162.45 21.286V29H163.766V19.2H162.66ZM167.985 27.838L169.679 26.634C171.863 25.094 172.675 23.638 172.675 22.14C172.675 20.25 171.401 19.032 169.441 19.032C167.439 19.032 166.137 20.25 166.137 22.126C166.137 22.658 166.235 23.148 166.403 23.568L167.579 23.176C167.467 22.868 167.397 22.518 167.397 22.154C167.397 20.964 168.181 20.194 169.385 20.194C170.575 20.194 171.345 20.978 171.345 22.21C171.345 23.414 170.687 24.618 168.755 26.004L166.123 27.908V29H172.759V27.838H167.985ZM179.315 23.848C180.337 23.512 180.911 22.756 180.911 21.664C180.911 20.068 179.721 19.032 177.887 19.032C176.081 19.032 174.863 20.04 174.695 21.692L175.885 21.888C176.081 20.824 176.753 20.152 177.817 20.152C178.895 20.152 179.595 20.782 179.595 21.776C179.595 22.798 178.853 23.344 177.509 23.344H176.991V24.464H177.593C179.077 24.464 179.945 25.094 179.945 26.256C179.945 27.32 179.133 28.006 177.887 28.006C176.627 28.006 175.885 27.39 175.633 26.326L174.415 26.536C174.681 28.188 175.927 29.14 177.859 29.14C179.917 29.14 181.261 28.034 181.261 26.34C181.261 25.066 180.561 24.212 179.315 23.848ZM189.987 25.752H188.713V19.2H187.369L182.651 25.766V26.886H187.425V29H188.713V26.886H189.987V25.752ZM187.453 21.006V25.752H184.065L187.453 21.006ZM194.372 21.804C192.79 21.804 191.656 22.77 191.39 24.184L192.412 24.492C192.692 23.47 193.28 22.924 194.316 22.924C195.338 22.924 195.996 23.568 196.038 24.646L194.12 25.01C192.384 25.332 191.642 26.018 191.642 27.138C191.642 28.356 192.552 29.14 193.854 29.14C194.89 29.14 195.66 28.65 196.108 27.768V29H197.284V24.632C197.284 22.938 196.15 21.804 194.372 21.804ZM194.092 28.202C193.406 28.202 192.902 27.824 192.902 27.152C192.902 26.466 193.42 26.116 194.568 25.892L196.038 25.626V25.836C196.038 27.222 195.226 28.202 194.092 28.202ZM203.239 21.804C202.147 21.804 201.321 22.28 200.817 23.12V19.2H199.557V29H200.817V27.824C201.321 28.664 202.147 29.14 203.239 29.14C205.143 29.14 206.431 27.642 206.431 25.472C206.431 23.316 205.143 21.804 203.239 21.804ZM203.001 28.076C201.685 28.076 200.817 27.012 200.817 25.472C200.817 23.932 201.685 22.868 203.001 22.868C204.303 22.868 205.171 23.932 205.171 25.472C205.171 27.012 204.303 28.076 203.001 28.076ZM211.45 29.14C212.948 29.14 214.068 28.3 214.544 27.012L213.536 26.634C213.13 27.572 212.472 28.076 211.464 28.076C210.19 28.076 209.252 27.012 209.252 25.472C209.252 23.918 210.19 22.868 211.45 22.868C212.43 22.868 213.074 23.386 213.382 24.338L214.474 24.002C214.068 22.644 213.018 21.804 211.464 21.804C209.462 21.804 207.992 23.344 207.992 25.542C207.992 27.698 209.392 29.14 211.45 29.14ZM221.683 19.2V23.05C221.193 22.252 220.395 21.804 219.331 21.804C217.343 21.804 216.041 23.316 216.041 25.472C216.041 27.642 217.343 29.14 219.331 29.14C220.395 29.14 221.193 28.678 221.683 27.894V29H222.943V19.2H221.683ZM219.499 28.076C218.183 28.076 217.301 27.012 217.301 25.472C217.301 23.932 218.183 22.868 219.499 22.868C220.829 22.868 221.683 23.932 221.683 25.472C221.683 27.012 220.829 28.076 219.499 28.076ZM228.368 21.804C226.38 21.804 224.938 23.316 224.938 25.5C224.938 27.726 226.506 29.14 228.452 29.14C229.81 29.14 230.846 28.426 231.406 27.404L230.552 26.872C230.132 27.614 229.404 28.104 228.48 28.104C227.29 28.104 226.254 27.306 226.17 25.766H231.49C231.7 23.568 230.51 21.804 228.368 21.804ZM228.34 22.812C229.474 22.812 230.216 23.624 230.314 24.786H226.212C226.338 23.61 227.206 22.812 228.34 22.812ZM235.127 21.034C235.127 20.46 235.435 20.11 235.911 20.11C236.205 20.11 236.429 20.25 236.583 20.474L237.437 19.956C237.129 19.382 236.583 19.06 235.897 19.06C234.679 19.06 233.867 19.872 233.867 21.09V21.972H232.747V23.036H233.867V29H235.127V23.036H236.821V21.972H235.127V21.034ZM243.767 21.972V22.98C243.249 22.238 242.437 21.804 241.429 21.804C239.511 21.804 238.069 23.302 238.069 25.374C238.069 27.418 239.497 28.902 241.401 28.902C242.437 28.902 243.249 28.468 243.767 27.74V28.314C243.767 29.924 242.899 30.862 241.443 30.862C240.183 30.862 239.357 30.26 238.951 29.154L237.943 29.532C238.405 31.044 239.665 31.94 241.401 31.94C243.627 31.94 245.027 30.47 245.027 28.146V21.972H243.767ZM241.555 27.838C240.253 27.838 239.343 26.802 239.343 25.36C239.343 23.904 240.253 22.868 241.555 22.868C242.843 22.868 243.767 23.904 243.767 25.36C243.767 26.802 242.843 27.838 241.555 27.838ZM251.053 21.804C250.003 21.804 249.177 22.294 248.673 23.246V19.2H247.413V29H248.673V25.668C248.673 23.82 249.597 22.868 250.745 22.868C251.753 22.868 252.369 23.568 252.369 24.716V29H253.629V24.562C253.629 22.91 252.635 21.804 251.053 21.804ZM255.815 20.53H257.159V19.144H255.815V20.53ZM255.857 29H257.117V21.972H255.857V29ZM259.505 20.53H260.849V19.144H259.505V20.53ZM258.833 31.94C260.023 31.94 260.807 31.086 260.807 29.77V21.972H259.547V29.882C259.547 30.498 259.239 30.89 258.763 30.89C258.483 30.89 258.245 30.778 258.035 30.568L257.363 31.296C257.699 31.688 258.203 31.94 258.833 31.94ZM266.721 29.14C269.129 29.14 270.459 27.334 270.459 24.1C270.459 20.838 269.129 19.032 266.721 19.032C264.313 19.032 262.969 20.838 262.969 24.1C262.969 27.334 264.313 29.14 266.721 29.14ZM266.721 27.978C265.167 27.978 264.299 26.592 264.299 24.1C264.299 21.58 265.167 20.194 266.721 20.194C268.261 20.194 269.143 21.58 269.143 24.1C269.143 26.592 268.261 27.978 266.721 27.978ZM274.329 19.2C273.923 20.334 273.139 20.936 271.921 21.034V22.28C272.901 22.196 273.629 21.874 274.119 21.286V29H275.435V19.2H274.329ZM279.654 27.838L281.348 26.634C283.532 25.094 284.344 23.638 284.344 22.14C284.344 20.25 283.07 19.032 281.11 19.032C279.108 19.032 277.806 20.25 277.806 22.126C277.806 22.658 277.904 23.148 278.072 23.568L279.248 23.176C279.136 22.868 279.066 22.518 279.066 22.154C279.066 20.964 279.85 20.194 281.054 20.194C282.244 20.194 283.014 20.978 283.014 22.21C283.014 23.414 282.356 24.618 280.424 26.004L277.792 27.908V29H284.428V27.838H279.654ZM290.984 23.848C292.006 23.512 292.58 22.756 292.58 21.664C292.58 20.068 291.39 19.032 289.556 19.032C287.75 19.032 286.532 20.04 286.364 21.692L287.554 21.888C287.75 20.824 288.422 20.152 289.486 20.152C290.564 20.152 291.264 20.782 291.264 21.776C291.264 22.798 290.522 23.344 289.178 23.344H288.66V24.464H289.262C290.746 24.464 291.614 25.094 291.614 26.256C291.614 27.32 290.802 28.006 289.556 28.006C288.296 28.006 287.554 27.39 287.302 26.326L286.084 26.536C286.35 28.188 287.596 29.14 289.528 29.14C291.586 29.14 292.93 28.034 292.93 26.34C292.93 25.066 292.23 24.212 290.984 23.848ZM301.656 25.752H300.382V19.2H299.038L294.32 25.766V26.886H299.094V29H300.382V26.886H301.656V25.752ZM299.122 21.006V25.752H295.734L299.122 21.006ZM306.965 22.462C306.111 22.462 305.355 22.77 304.823 23.302L305.243 20.348H309.639V19.2H304.207L303.437 24.702L304.599 24.982C304.879 24.184 305.621 23.54 306.685 23.54C307.959 23.54 308.827 24.45 308.827 25.78C308.827 27.11 307.973 27.978 306.713 27.978C305.649 27.978 304.949 27.432 304.557 26.536L303.423 26.998C303.885 28.286 305.061 29.14 306.657 29.14C308.729 29.14 310.143 27.782 310.143 25.766C310.143 23.806 308.827 22.462 306.965 22.462ZM316.028 22.644C314.866 22.644 313.928 23.176 313.438 24.1V24.086C313.424 21.566 314.404 20.166 315.916 20.166C316.896 20.166 317.54 20.782 317.904 21.902L318.982 21.566C318.52 19.886 317.484 19.032 315.902 19.032C313.634 19.032 312.164 20.95 312.164 24.142C312.164 27.376 313.592 29.14 315.874 29.14C317.89 29.14 319.234 27.768 319.234 25.85C319.234 23.988 317.904 22.644 316.028 22.644ZM315.86 28.006C314.642 28.006 313.774 27.124 313.774 25.85C313.774 24.59 314.642 23.708 315.832 23.708C317.036 23.708 317.918 24.59 317.918 25.85C317.918 27.138 317.106 28.006 315.86 28.006ZM320.628 19.2V21.454H321.958V20.348H325.836C323.736 22.84 322.728 25.192 322.728 28.314V29H324.044V28.3C324.044 24.898 324.996 22.938 327.264 20.236V19.2H320.628ZM333.764 23.89C334.716 23.512 335.29 22.742 335.29 21.706C335.29 20.152 334.044 19.032 332.154 19.032C330.278 19.032 329.018 20.152 329.018 21.706C329.018 22.742 329.592 23.512 330.544 23.89C329.396 24.296 328.696 25.178 328.696 26.34C328.696 27.964 330.082 29.14 332.154 29.14C334.24 29.14 335.612 27.964 335.612 26.34C335.612 25.178 334.912 24.296 333.764 23.89ZM332.168 20.166C333.274 20.166 334.002 20.81 334.002 21.804C334.002 22.77 333.274 23.358 332.168 23.358C331.034 23.358 330.306 22.77 330.306 21.804C330.306 20.81 331.034 20.166 332.168 20.166ZM332.154 28.006C330.866 28.006 330.012 27.306 330.012 26.256C330.012 25.192 330.866 24.45 332.154 24.45C333.442 24.45 334.296 25.192 334.296 26.256C334.296 27.306 333.442 28.006 332.154 28.006ZM340.583 19.032C338.609 19.032 337.209 20.404 337.209 22.308C337.209 24.198 338.539 25.528 340.415 25.528C341.577 25.528 342.501 25.01 343.005 24.086C343.019 26.606 342.053 28.006 340.541 28.006C339.547 28.006 338.903 27.376 338.539 26.242L337.475 26.606C337.923 28.286 338.973 29.14 340.555 29.14C342.823 29.14 344.279 27.222 344.279 24.002C344.279 20.838 342.893 19.032 340.583 19.032ZM340.625 24.464C339.421 24.464 338.525 23.582 338.525 22.322C338.525 21.034 339.365 20.166 340.597 20.166C341.815 20.166 342.669 21.048 342.669 22.322C342.669 23.582 341.801 24.464 340.625 24.464ZM346.498 20.53H347.842V19.144H346.498V20.53ZM345.826 31.94C347.016 31.94 347.8 31.086 347.8 29.77V21.972H346.54V29.882C346.54 30.498 346.232 30.89 345.756 30.89C345.476 30.89 345.238 30.778 345.028 30.568L344.356 31.296C344.692 31.688 345.196 31.94 345.826 31.94ZM358.334 21.804C357.242 21.804 356.416 22.336 355.926 23.316C355.548 22.336 354.736 21.804 353.63 21.804C352.58 21.804 351.81 22.308 351.39 23.274V21.972H350.13V29H351.39V25.906C351.39 23.904 352.216 22.868 353.392 22.868C354.358 22.868 354.876 23.568 354.876 24.66V29H356.136V25.906C356.136 23.904 356.962 22.868 358.124 22.868C359.09 22.868 359.622 23.568 359.622 24.66V29H360.882V24.548C360.882 22.84 359.916 21.804 358.334 21.804ZM366.796 21.804C365.746 21.804 364.92 22.294 364.416 23.246V19.2H363.156V29H364.416V25.668C364.416 23.82 365.34 22.868 366.488 22.868C367.496 22.868 368.112 23.568 368.112 24.716V29H369.372V24.562C369.372 22.91 368.378 21.804 366.796 21.804ZM375.989 21.972L373.945 27.642L371.887 21.972H370.557L373.259 29H374.589L377.291 21.972H375.989ZM383.561 23.89C384.513 23.512 385.087 22.742 385.087 21.706C385.087 20.152 383.841 19.032 381.951 19.032C380.075 19.032 378.815 20.152 378.815 21.706C378.815 22.742 379.389 23.512 380.341 23.89C379.193 24.296 378.493 25.178 378.493 26.34C378.493 27.964 379.879 29.14 381.951 29.14C384.037 29.14 385.409 27.964 385.409 26.34C385.409 25.178 384.709 24.296 383.561 23.89ZM381.965 20.166C383.071 20.166 383.799 20.81 383.799 21.804C383.799 22.77 383.071 23.358 381.965 23.358C380.831 23.358 380.103 22.77 380.103 21.804C380.103 20.81 380.831 20.166 381.965 20.166ZM381.951 28.006C380.663 28.006 379.809 27.306 379.809 26.256C379.809 25.192 380.663 24.45 381.951 24.45C383.239 24.45 384.093 25.192 384.093 26.256C384.093 27.306 383.239 28.006 381.951 28.006ZM391.85 23.848C392.872 23.512 393.446 22.756 393.446 21.664C393.446 20.068 392.256 19.032 390.422 19.032C388.616 19.032 387.398 20.04 387.23 21.692L388.42 21.888C388.616 20.824 389.288 20.152 390.352 20.152C391.43 20.152 392.13 20.782 392.13 21.776C392.13 22.798 391.388 23.344 390.044 23.344H389.526V24.464H390.128C391.612 24.464 392.48 25.094 392.48 26.256C392.48 27.32 391.668 28.006 390.422 28.006C389.162 28.006 388.42 27.39 388.168 26.326L386.95 26.536C387.216 28.188 388.462 29.14 390.394 29.14C392.452 29.14 393.796 28.034 393.796 26.34C393.796 25.066 393.096 24.212 391.85 23.848ZM399.401 21.804C398.351 21.804 397.539 22.294 397.035 23.232V21.972H395.775V29H397.035V25.668C397.035 23.806 397.959 22.868 399.107 22.868C400.115 22.868 400.731 23.568 400.731 24.716V29H401.991V24.562C401.991 22.854 400.955 21.804 399.401 21.804ZM410.674 20.348V19.2H404.374V29H405.704V24.94H410.1V23.778H405.704V20.348H410.674ZM416.895 24.016V25.108H420.073L420.087 25.36C420.003 26.956 418.869 27.978 417.189 27.978C415.145 27.978 413.619 26.41 413.619 24.114C413.619 21.804 415.061 20.194 417.035 20.194C418.491 20.194 419.527 20.978 420.045 22.21L421.165 21.762C420.507 20.124 419.051 19.032 417.049 19.032C414.305 19.032 412.289 21.132 412.289 24.128C412.289 27.152 414.445 29.14 417.007 29.14C418.491 29.14 419.513 28.594 420.115 27.614V29H421.221V24.016H416.895ZM430.18 19.2V23.414H425.056V19.2H423.726V29H425.056V24.562H430.18V29H431.496V19.2H430.18ZM437.038 21.846C436.268 21.846 435.638 22.224 435.246 23.162V21.972H433.986V29H435.246V25.99C435.246 23.806 435.862 22.994 436.898 22.994C437.15 22.994 437.36 23.05 437.528 23.134L437.962 22.084C437.724 21.944 437.402 21.846 437.038 21.846ZM444.209 21.972L442.221 27.516L440.093 21.972H438.777L441.591 29.014L440.457 31.8H441.731L445.511 21.972H444.209ZM451.78 23.89C452.732 23.512 453.306 22.742 453.306 21.706C453.306 20.152 452.06 19.032 450.17 19.032C448.294 19.032 447.034 20.152 447.034 21.706C447.034 22.742 447.608 23.512 448.56 23.89C447.412 24.296 446.712 25.178 446.712 26.34C446.712 27.964 448.098 29.14 450.17 29.14C452.256 29.14 453.628 27.964 453.628 26.34C453.628 25.178 452.928 24.296 451.78 23.89ZM450.184 20.166C451.29 20.166 452.018 20.81 452.018 21.804C452.018 22.77 451.29 23.358 450.184 23.358C449.05 23.358 448.322 22.77 448.322 21.804C448.322 20.81 449.05 20.166 450.184 20.166ZM450.17 28.006C448.882 28.006 448.028 27.306 448.028 26.256C448.028 25.192 448.882 24.45 450.17 24.45C451.458 24.45 452.312 25.192 452.312 26.256C452.312 27.306 451.458 28.006 450.17 28.006ZM458.599 19.032C456.625 19.032 455.225 20.404 455.225 22.308C455.225 24.198 456.555 25.528 458.431 25.528C459.593 25.528 460.517 25.01 461.021 24.086C461.035 26.606 460.069 28.006 458.557 28.006C457.563 28.006 456.919 27.376 456.555 26.242L455.491 26.606C455.939 28.286 456.989 29.14 458.571 29.14C460.839 29.14 462.295 27.222 462.295 24.002C462.295 20.838 460.909 19.032 458.599 19.032ZM458.641 24.464C457.437 24.464 456.541 23.582 456.541 22.322C456.541 21.034 457.381 20.166 458.613 20.166C459.831 20.166 460.685 21.048 460.685 22.322C460.685 23.582 459.817 24.464 458.641 24.464ZM468.043 29.14C470.451 29.14 471.781 27.334 471.781 24.1C471.781 20.838 470.451 19.032 468.043 19.032C465.635 19.032 464.291 20.838 464.291 24.1C464.291 27.334 465.635 29.14 468.043 29.14ZM468.043 27.978C466.489 27.978 465.621 26.592 465.621 24.1C465.621 21.58 466.489 20.194 468.043 20.194C469.583 20.194 470.465 21.58 470.465 24.1C470.465 26.592 469.583 27.978 468.043 27.978ZM478.409 23.848C479.431 23.512 480.005 22.756 480.005 21.664C480.005 20.068 478.815 19.032 476.981 19.032C475.175 19.032 473.957 20.04 473.789 21.692L474.979 21.888C475.175 20.824 475.847 20.152 476.911 20.152C477.989 20.152 478.689 20.782 478.689 21.776C478.689 22.798 477.947 23.344 476.603 23.344H476.085V24.464H476.687C478.171 24.464 479.039 25.094 479.039 26.256C479.039 27.32 478.227 28.006 476.981 28.006C475.721 28.006 474.979 27.39 474.727 26.326L473.509 26.536C473.775 28.188 475.021 29.14 476.953 29.14C479.011 29.14 480.355 28.034 480.355 26.34C480.355 25.066 479.655 24.212 478.409 23.848ZM488.144 29L485.624 25.43L488.004 21.972H486.632L484.938 24.464L483.174 21.972H481.76L484.14 25.346L481.62 29H482.992L484.84 26.326L486.73 29H488.144Z" fill="#1F1E1D"></path><path d="M620.106 29H621.506L617.6 19.2H616.186L612.266 29H613.666L614.548 26.704H619.224L620.106 29ZM614.982 25.598L616.886 20.656L618.79 25.598H614.982ZM626.801 21.804C625.723 21.804 624.911 22.28 624.407 23.106V21.972H623.147V31.8H624.407V27.866C624.911 28.678 625.723 29.14 626.801 29.14C628.719 29.14 630.021 27.656 630.021 25.458C630.021 23.302 628.705 21.804 626.801 21.804ZM626.591 28.076C625.275 28.076 624.407 27.012 624.407 25.472C624.407 23.932 625.275 22.868 626.591 22.868C627.907 22.868 628.775 23.932 628.775 25.472C628.775 27.012 627.907 28.076 626.591 28.076ZM635.014 21.846C634.244 21.846 633.614 22.224 633.222 23.162V21.972H631.962V29H633.222V25.99C633.222 23.806 633.838 22.994 634.874 22.994C635.126 22.994 635.336 23.05 635.504 23.134L635.938 22.084C635.7 21.944 635.378 21.846 635.014 21.846ZM642.382 27.838L644.076 26.634C646.26 25.094 647.072 23.638 647.072 22.14C647.072 20.25 645.798 19.032 643.838 19.032C641.836 19.032 640.534 20.25 640.534 22.126C640.534 22.658 640.632 23.148 640.8 23.568L641.976 23.176C641.864 22.868 641.794 22.518 641.794 22.154C641.794 20.964 642.578 20.194 643.782 20.194C644.972 20.194 645.742 20.978 645.742 22.21C645.742 23.414 645.084 24.618 643.152 26.004L640.52 27.908V29H647.156V27.838H642.382ZM648.685 19.2V21.454H650.015V20.348H653.893C651.793 22.84 650.785 25.192 650.785 28.314V29H652.101V28.3C652.101 24.898 653.053 22.938 655.321 20.236V19.2H648.685ZM655.98 27.502V29H656.848V29.518C656.848 29.868 656.652 30.106 656.344 30.106C656.134 30.106 655.938 30.064 655.784 29.966L655.504 30.428C655.728 30.582 656.008 30.652 656.33 30.652C657.044 30.652 657.492 30.176 657.492 29.42V27.502H655.98ZM666.613 29.14C669.021 29.14 670.351 27.334 670.351 24.1C670.351 20.838 669.021 19.032 666.613 19.032C664.205 19.032 662.861 20.838 662.861 24.1C662.861 27.334 664.205 29.14 666.613 29.14ZM666.613 27.978C665.059 27.978 664.191 26.592 664.191 24.1C664.191 21.58 665.059 20.194 666.613 20.194C668.153 20.194 669.035 21.58 669.035 24.1C669.035 26.592 668.153 27.978 666.613 27.978ZM671.68 19.2V21.454H673.01V20.348H676.888C674.788 22.84 673.78 25.192 673.78 28.314V29H675.096V28.3C675.096 24.898 676.048 22.938 678.316 20.236V19.2H671.68ZM680.027 23.47H681.539V21.972H680.027V23.47ZM680.027 29H681.539V27.502H680.027V29ZM685.507 19.2C685.101 20.334 684.317 20.936 683.099 21.034V22.28C684.079 22.196 684.807 21.874 685.297 21.286V29H686.613V19.2H685.507ZM693.716 23.848C694.738 23.512 695.312 22.756 695.312 21.664C695.312 20.068 694.122 19.032 692.288 19.032C690.482 19.032 689.264 20.04 689.096 21.692L690.286 21.888C690.482 20.824 691.154 20.152 692.218 20.152C693.296 20.152 693.996 20.782 693.996 21.776C693.996 22.798 693.254 23.344 691.91 23.344H691.392V24.464H691.994C693.478 24.464 694.346 25.094 694.346 26.256C694.346 27.32 693.534 28.006 692.288 28.006C691.028 28.006 690.286 27.39 690.034 26.326L688.816 26.536C689.082 28.188 690.328 29.14 692.26 29.14C694.318 29.14 695.662 28.034 695.662 26.34C695.662 25.066 694.962 24.212 693.716 23.848Z" fill="#1F1E1D"></path><rect x="772" y="10.5" width="44" height="27" rx="13.5" fill="#E1DCD4"></rect><circle cx="785.5" cy="24" r="11.5" fill="white"></circle><path d="M829.106 29H830.436V19.2H829.106V29ZM836.539 21.804C835.489 21.804 834.677 22.294 834.173 23.232V21.972H832.913V29H834.173V25.668C834.173 23.806 835.097 22.868 836.245 22.868C837.253 22.868 837.869 23.568 837.869 24.716V29H839.129V24.562C839.129 22.854 838.093 21.804 836.539 21.804ZM844.004 21.804C842.422 21.804 841.288 22.77 841.022 24.184L842.044 24.492C842.324 23.47 842.912 22.924 843.948 22.924C844.97 22.924 845.628 23.568 845.67 24.646L843.752 25.01C842.016 25.332 841.274 26.018 841.274 27.138C841.274 28.356 842.184 29.14 843.486 29.14C844.522 29.14 845.292 28.65 845.74 27.768V29H846.916V24.632C846.916 22.938 845.782 21.804 844.004 21.804ZM843.724 28.202C843.038 28.202 842.534 27.824 842.534 27.152C842.534 26.466 843.052 26.116 844.2 25.892L845.67 25.626V25.836C845.67 27.222 844.858 28.202 843.724 28.202ZM852.228 29.14C853.726 29.14 854.846 28.3 855.322 27.012L854.314 26.634C853.908 27.572 853.25 28.076 852.242 28.076C850.968 28.076 850.03 27.012 850.03 25.472C850.03 23.918 850.968 22.868 852.228 22.868C853.208 22.868 853.852 23.386 854.16 24.338L855.252 24.002C854.846 22.644 853.796 21.804 852.242 21.804C850.24 21.804 848.77 23.344 848.77 25.542C848.77 27.698 850.17 29.14 852.228 29.14ZM860.388 27.712C860.178 27.936 859.926 28.09 859.59 28.09C859.086 28.09 858.792 27.726 858.792 27.054V23.036H860.668V21.972H858.792V19.9L857.532 20.432V21.972H856.412V23.036H857.532V27.194C857.532 28.44 858.204 29.14 859.394 29.14C860.164 29.14 860.738 28.846 861.074 28.37L860.388 27.712ZM862.483 20.53H863.827V19.144H862.483V20.53ZM862.525 29H863.785V21.972H862.525V29ZM870.779 21.972L868.735 27.642L866.677 21.972H865.347L868.049 29H869.379L872.081 21.972H870.779ZM876.342 21.804C874.354 21.804 872.912 23.316 872.912 25.5C872.912 27.726 874.48 29.14 876.426 29.14C877.784 29.14 878.82 28.426 879.38 27.404L878.526 26.872C878.106 27.614 877.378 28.104 876.454 28.104C875.264 28.104 874.228 27.306 874.144 25.766H879.464C879.674 23.568 878.484 21.804 876.342 21.804ZM876.314 22.812C877.448 22.812 878.19 23.624 878.288 24.786H874.186C874.312 23.61 875.18 22.812 876.314 22.812Z" fill="#1F1E1D"></path></svg> 