<?xml version="1.0" encoding="UTF-8"?> <svg xmlns="http://www.w3.org/2000/svg" id="Layer_1" viewBox="0 0 924.07 164.17"><defs><style>.cls-1{fill-rule:evenodd;stroke-width:0px;}</style></defs><path class="cls-1" d="m524.74,46.53h13.47l25.21,37.4h.22l25.41-37.4h13.15v76.3h-9.05V56.15h-.22l-26.7,37.59h-5.5l-26.71-37.59h-.21v66.69h-9.05V46.53Z"></path><path class="cls-1" d="m644.37,98.58c-10.67,0-17.58,2.91-17.58,9.71,0,6.36,4.75,8.72,11.11,8.72,9.69,0,14.65-7,14.87-15.19v-3.24h-8.41Zm-24.36-19.72c5.17-5.27,12.71-7.75,20.04-7.75,14.88,0,21.12,7.12,21.12,21.34v21.66c0,2.91.33,6.14.75,8.72h-8.08c-.54-2.25-.54-5.38-.54-7.54h-.21c-3.34,5.17-8.94,8.84-16.6,8.84-10.24,0-18.75-5.17-18.75-14.98,0-16.7,19.41-17.68,31.79-17.68h3.24v-1.5c0-7.33-4.64-11.11-12.5-11.11-5.39,0-10.99,1.84-14.98,5.5l-5.28-5.5Z"></path><path class="cls-1" d="m713.56,85.01c-3.55-4.31-7.66-6.14-12.71-6.14-11.33,0-17.04,8.41-17.04,18.75s6.79,18.76,17.04,18.76c5.49,0,9.69-1.94,12.81-6.25l6.25,5.93c-4.85,5.61-11.74,8.09-19.06,8.09-15.64,0-26.09-10.99-26.09-26.52s10.57-26.5,26.09-26.5c7.43,0,14.32,2.48,19.39,7.97l-6.68,5.92Z"></path><path class="cls-1" d="m731.44,41.36h8.41v38.05h.21c2.26-3.99,8.3-8.3,16.16-8.3,13.26,0,19.18,8.4,19.18,20.58v31.15h-8.41v-30.28c0-8.4-3.67-13.69-11.53-13.69-10.89,0-15.62,7.88-15.62,19.41v24.57h-8.41V41.36Z"></path><path class="cls-1" d="m793.2,72.4h8.4v50.43h-8.4v-50.43Zm4.21-25.87c3.44,0,6.14,2.8,6.14,6.14,0,3.55-2.59,6.14-6.14,6.14s-6.16-2.6-6.16-6.14c0-3.34,2.71-6.14,6.16-6.14Z"></path><path class="cls-1" d="m819.38,84.36c0-4.63-.43-8.62-.43-11.96h7.97c0,2.69.22,5.49.22,8.29h.21c2.27-4.96,8.52-9.59,16.82-9.59,13.26,0,19.19,8.4,19.19,20.58v31.15h-8.41v-30.28c0-8.4-3.67-13.69-11.54-13.69-10.89,0-15.62,7.88-15.62,19.41v24.57h-8.42v-38.47Z"></path><path class="cls-1" d="m915.01,93.09c-.32-8.51-5.93-14.23-15.2-14.23s-15.41,5.72-16.49,14.23h31.69Zm7.22,20.59c-5.92,7.65-13.05,10.45-22.42,10.45-15.84,0-25.54-11.86-25.54-26.52,0-15.62,10.99-26.5,25.87-26.5s23.93,9.69,23.93,26.4v2.7h-40.75c.65,8.73,7.34,16.17,16.49,16.17,7.22,0,12.07-2.59,16.06-7.65l6.36,4.96Z"></path><path class="cls-1" d="m243.46,114.43c16.82,0,29.52-13.47,29.52-30.72s-12.38-30.71-29.52-30.71-29.54,13.69-29.54,30.71,12.72,30.72,29.54,30.72Zm44.3,8.42h-44.3c-22.31,0-39.24-17.03-39.24-39.14s16.92-39.12,39.24-39.12,39.23,17.03,39.23,39.12c0,12.93-7.11,26.31-18.54,31.15v.22h23.61v7.76Z"></path><path class="cls-1" d="m342.07,110.88c0,4.63.44,8.62.44,11.96h-7.97c0-2.7-.22-5.5-.22-8.31h-.21c-2.27,4.96-8.52,9.59-16.82,9.59-13.26,0-19.18-8.4-19.18-20.59v-31.15h8.42v30.29c0,8.41,3.66,13.69,11.52,13.69,10.9,0,15.63-7.87,15.63-19.4v-24.57h8.4v38.49Z"></path><path class="cls-1" d="m382.4,116.37c10.88,0,17.9-8.19,17.9-18.76s-7.01-18.75-17.9-18.75-17.89,8.19-17.89,18.75,7.01,18.76,17.89,18.76Zm0-45.27c15.53,0,26.94,10.79,26.94,26.51s-11.42,26.52-26.94,26.52-26.94-10.78-26.94-26.52,11.43-26.51,26.94-26.51Z"></path><path class="cls-1" d="m451.79,79.51h-14.88v25.22c0,6.46.11,11.64,7.55,11.64,2.48,0,5.18-.54,7.44-1.72l.33,7.65c-2.92,1.3-6.68,1.83-9.82,1.83-11.96,0-13.91-6.47-13.91-16.92v-27.7h-10.98v-7.12h10.98v-14.32h8.41v14.32h14.88v7.12Z"></path><path class="cls-1" d="m501.04,93.09c-.32-8.52-5.93-14.22-15.19-14.22s-15.41,5.71-16.49,14.22h31.68Zm7.23,20.59c-5.93,7.64-13.05,10.45-22.42,10.45-15.84,0-25.55-11.85-25.55-26.52,0-15.62,10.99-26.51,25.87-26.51s23.93,9.7,23.93,26.41v2.7h-40.74c.65,8.72,7.33,16.16,16.49,16.16,7.22,0,12.07-2.58,16.05-7.65l6.37,4.96Z"></path><path class="cls-1" d="m124.55,50.53c0-4.75-3.65-6.11-7.26-3.02l-28.59,24.61c-3.61,3.08-9.69,3.08-13.3,0l-28.44-24.61c-3.61-3.09-6.75-1.73-6.75,3.02v65.46c0,4.75,4.09,8.44,8.84,8.44h65.47c4.75,0,10.04-3.69,10.04-8.44V50.53Zm41.25,108.91c2.22,2.22,1.26,4.73-1.79,4.73h-81.25C37.05,164.17,0,128.04,0,82.34S37.05,0,82.76,0s82.76,37.3,82.76,83c0,22.77-19.25,51.33-19.25,51.33-2.66,3.93-1.76,9.07,2.01,11.97l17.52,13.13Z"></path></svg> 