<?xml version="1.0" encoding="UTF-8"?> <svg xmlns="http://www.w3.org/2000/svg" id="Layer_1" viewBox="0 0 907.78 173.84"><defs><style>.cls-1{fill:#242424;stroke-width:0px;}</style></defs><path class="cls-1" d="m582.87,128.11c-12.97-.61-25.84-2.63-38.38-6.03l8.66-23.78c9.12,3.28,19.88,7.8,29.91,7.8,15.63,0,25.01-1.69,25.01-12.99,0-23.51-63.59-15.41-63.59-58.88,0-24.64,26.33-34.24,48.74-34.24,11.54.26,22.99,2.07,34.05,5.38l-8.53,23.97c-6.97-3.01-13.93-7.32-25.58-7.32-17.89,0-19.58,8.63-19.58,12.21,0,19.77,63.59,11.3,63.59,58.5-.13,30.47-26.09,35.37-54.31,35.37Z"></path><path class="cls-1" d="m225.22,124.35l-35.37-48.71h-1.69v48.71h-28.59V2.64h49.28c19.39,0,42.34,6.03,42.34,36.5,0,15.63-6.78,30.85-27.84,35.56l37.06,49.65h-35.18Zm-15.3-99.71h-21.52v29h21.52c7.53,0,12.24-6.03,12.24-14.5s-3.34-14.5-12.24-14.5Z"></path><path class="cls-1" d="m302.47,127.17c-32.28,0-44.76-21.52-44.76-46.26s12.78-45.35,44.76-45.35,44.6,20.31,44.6,45.35c.03,24.64-12.61,46.26-44.6,46.26Zm0-72.03c-11.27,0-18.42,4.68-18.42,25.77,0,18.83,6.78,26.71,18.42,26.71,9.98,0,18.26-5.84,18.26-26.71s-6.4-25.63-18.26-25.63v-.13Z"></path><path class="cls-1" d="m413.8,124.35c-.19,0-3.39-8.26-3.39-7.88-4.87,3.74-12.78,10.52-21.52,10.52-24.07,0-34.62-9.23-34.62-25.2,0-17.48,11.11-32.28,47.8-32.28h6.59v-2.69c0-4.14,0-11.11-9.79-11.11-11.26.21-22.34,2.77-32.55,7.53l-8.85-21.06c13.95-4.24,28.46-6.34,43.04-6.21,19.74,0,34.05,8.66,34.05,27.46v34.59c0,6.78,2.69,17.13,3.77,26.33h-24.53Zm-4.84-36.5h-4.14c-16.95,0-23.72,4.33-23.72,12.8,0,6.21,7.53,6.59,13.18,6.59s11.49-5.84,14.69-9.41v-9.98Z"></path><path class="cls-1" d="m508.23,124.35l-3.77-7.88c-3.97,6.68-11.23,10.69-18.99,10.52-29.59,0-39.7-21.52-39.7-46.08s10.76-45.16,35.75-45.16c9.98,0,17.13,6.21,22.38,13.18V.75h25.79v97.26c.12,8.83.93,17.63,2.45,26.33h-23.91Zm-3.95-51.35c-5.38-9.04-9.95-17.51-16.92-17.51-8.07,0-15.22,3.39-15.22,25.79s7.13,25.96,17.86,25.96c6.59,0,11.11-5.65,14.28-13.45v-20.79Z"></path><path class="cls-1" d="m690.03,138.09c-5.65,15.04-15.63,28.97-35.93,35.75l-8.85-20.9c10.36-2.69,14.69-7.13,16.57-12.21l7.5-19.96-32.55-82.39h27.46l17.7,53.42,18.83-53.42h27.09l-37.82,99.71Z"></path><path class="cls-1" d="m793.59,124.35v-55.87c0-6.03,0-13.45-10.52-13.45-7.72,0-12.8,8.82-17.13,17.11v52.21h-25.77V56.62c-.25-6.14-1.07-12.25-2.45-18.24h23.88l3.77,10.54c3.77-3.58,11.11-13.45,22.38-13.45,26.36,0,31.6,14.87,31.6,34.62v54.25h-25.77Z"></path><path class="cls-1" d="m875.14,126.98c-29.16,0-44.78-18.61-44.78-44.95,0-27.84,15.25-46.29,45.35-46.29,10.14.74,20.13,2.83,29.72,6.21l-8.85,21.06c-6.4-3.2-14.69-7.53-21.06-7.53-11.86,0-18.83,4.52-18.83,26.55,0,20.12,8.85,25.2,18.64,25.2,5.81,0,14.85-3.77,22.19-7.53l8.85,21.06c-6.59,3.2-24.66,6.21-31.23,6.21Z"></path><path class="cls-1" d="m56.89,42.12c.76.77,1.8,1.21,2.88,1.21,1.07,0,2.1-.44,2.85-1.21L95.06,9.84c1.7-1.47,1.88-4.03.41-5.73-1.47-1.7-4.03-1.88-5.73-.41-.15.13-.28.26-.41.41l-29.59,29.59L30.16,4.12c-1.7-1.47-4.26-1.28-5.73.41-1.32,1.53-1.32,3.79,0,5.32l32.47,32.28Z"></path><path class="cls-1" d="m62.62,85.05c-1.57-1.58-4.12-1.59-5.71-.02,0,0-.02.02-.02.02l-32.28,32.44c-1.47,1.7-1.28,4.26.41,5.73,1.53,1.32,3.79,1.32,5.32,0l29.59-29.59,29.59,29.59c1.62,1.55,4.19,1.49,5.74-.13,1.5-1.57,1.5-4.06-.01-5.62l-32.63-32.41Z"></path><path class="cls-1" d="m89.82,63.59l29.59-29.59c1.77-1.37,2.1-3.92.72-5.7s-3.92-2.1-5.7-.72c-.3.23-.56.5-.78.8l-32.41,32.28c-1.58,1.57-1.59,4.12-.02,5.71,0,0,.02.02.02.02l32.28,32.44c.77.75,1.8,1.16,2.88,1.16,1.07,0,2.1-.42,2.85-1.18,1.58-1.57,1.59-4.12.02-5.71,0,0-.02-.02-.02-.02l-29.43-29.48Z"></path><path class="cls-1" d="m38.31,60.65L5.87,28.38c-1.37-1.78-3.92-2.11-5.7-.74-1.78,1.37-2.11,3.92-.74,5.7.2.26.43.49.68.69l29.59,29.59L.11,93.2c-1.57,1.62-1.54,4.21.08,5.78.75.73,1.75,1.14,2.8,1.16,1.07,0,2.1-.44,2.85-1.21l32.47-32.47c1.58-1.57,1.59-4.12.02-5.71,0,0-.02-.02-.02-.02v-.08Z"></path></svg> 