<?xml version="1.0" encoding="UTF-8"?> <svg xmlns="http://www.w3.org/2000/svg" id="Layer_1" viewBox="0 0 754.97 138.45"><defs><style>.cls-1{stroke-width:0px;}</style></defs><path class="cls-1" d="m179.4,49.36h14.29v13.99c1.94-4.66,4.74-8.47,8.31-11.27s8.15-4.12,13.59-3.89v15h-.85c-3.11,0-5.98.54-8.54,1.55-2.56,1.01-4.81,2.57-6.68,4.59-1.86,2.02-3.34,4.59-4.35,7.7-1.01,3.11-1.55,6.69-1.55,10.73v23.55h-14.29v-61.96h.08Z"></path><path class="cls-1" d="m251.39,112.72c-4.66,0-9.01-.86-13.05-2.49-4.04-1.63-7.53-3.96-10.41-6.84-2.95-2.88-5.2-6.3-6.83-10.18-1.63-3.89-2.48-8.08-2.48-12.44v-.23c0-4.43.85-8.63,2.48-12.52,1.71-3.89,3.96-7.31,6.91-10.26,2.95-2.95,6.37-5.29,10.41-7,4.04-1.71,8.39-2.57,13.2-2.57s9.16.86,13.2,2.49c4.04,1.71,7.53,3.96,10.41,6.92,2.95,2.95,5.2,6.37,6.83,10.18,1.63,3.89,2.48,8.01,2.48,12.52v.23c0,4.35-.85,8.55-2.48,12.44-1.71,3.89-3.96,7.31-6.91,10.26-2.95,2.95-6.44,5.29-10.48,7-4.12,1.63-8.54,2.49-13.28,2.49Zm.23-12.36c2.87,0,5.44-.54,7.77-1.55,2.33-1.09,4.27-2.49,5.9-4.28,1.63-1.79,2.87-3.89,3.73-6.3.85-2.41,1.32-4.9,1.32-7.54v-.23c0-2.72-.47-5.29-1.4-7.77-.93-2.49-2.25-4.51-3.88-6.37-1.71-1.79-3.65-3.26-5.98-4.28-2.25-1.09-4.81-1.55-7.61-1.55s-5.36.54-7.61,1.55c-2.33,1.09-4.27,2.49-5.9,4.2-1.63,1.79-2.87,3.89-3.73,6.3-.85,2.41-1.24,4.98-1.24,7.62v.23c0,2.72.47,5.29,1.4,7.7.93,2.41,2.25,4.51,3.88,6.37,1.71,1.87,3.65,3.26,5.98,4.35,2.33,1.09,4.66,1.55,7.38,1.55Z"></path><path class="cls-1" d="m314.28,112.48c-4.43,0-8.93-.78-13.51-2.33-4.58-1.55-8.77-3.89-12.73-7l6.29-9.64c3.34,2.49,6.76,4.43,10.25,5.67,3.49,1.32,6.83,1.94,10.02,1.94s5.44-.62,7.07-1.79c1.71-1.24,2.49-2.8,2.49-4.9v-.23c0-1.17-.39-2.18-1.09-3.03-.78-.86-1.79-1.63-3.03-2.25-1.32-.62-2.8-1.24-4.43-1.79-1.71-.54-3.42-1.09-5.2-1.63-2.25-.62-4.58-1.4-6.83-2.25-2.33-.86-4.35-1.94-6.21-3.34-1.86-1.4-3.34-3.03-4.5-5.05-1.16-2.02-1.79-4.51-1.79-7.46v-.23c0-2.88.54-5.52,1.71-7.85,1.16-2.33,2.72-4.35,4.66-5.99,1.94-1.63,4.35-2.88,7.07-3.73,2.72-.86,5.59-1.32,8.62-1.32,3.88,0,7.84.62,11.8,1.87,3.96,1.24,7.61,3.03,10.87,5.21l-5.59,10.11c-2.95-1.79-5.98-3.27-9.01-4.28-3.03-1.09-5.82-1.55-8.46-1.55s-4.89.62-6.37,1.79c-1.55,1.17-2.25,2.64-2.25,4.43v.23c0,1.09.39,2.02,1.16,2.88.78.86,1.79,1.55,3.11,2.25,1.32.7,2.8,1.32,4.43,1.87,1.71.62,3.42,1.17,5.2,1.71,2.25.7,4.5,1.55,6.83,2.49,2.25.93,4.35,2.1,6.13,3.42,1.86,1.4,3.34,3.03,4.5,4.98,1.16,1.94,1.79,4.35,1.79,7.15v.23c0,3.26-.62,6.14-1.79,8.55s-2.8,4.43-4.89,6.06c-2.1,1.63-4.5,2.8-7.3,3.65-2.8.7-5.82,1.17-9.01,1.17Z"></path><path class="cls-1" d="m374.15,112.72c-4.42,0-8.62-.78-12.5-2.33-3.88-1.55-7.22-3.73-10.09-6.53-2.87-2.8-5.13-6.22-6.76-10.18-1.63-3.96-2.48-8.32-2.48-13.06v-.23c0-4.43.78-8.63,2.25-12.52,1.47-3.89,3.57-7.31,6.29-10.26,2.72-2.95,5.9-5.21,9.55-6.92,3.65-1.71,7.77-2.49,12.19-2.49,4.89,0,9.24.93,12.97,2.72,3.73,1.79,6.83,4.2,9.24,7.31,2.49,3.03,4.35,6.61,5.59,10.65,1.24,4.04,1.86,8.24,1.86,12.75,0,.62,0,1.24-.08,1.94-.08.7-.08,1.32-.16,2.02h-45.43c.78,5.05,2.8,8.94,6.06,11.66,3.26,2.72,7.14,4.04,11.8,4.04,3.49,0,6.6-.62,9.16-1.87,2.56-1.24,5.12-3.11,7.61-5.52l8.23,7.15c-2.95,3.5-6.52,6.3-10.64,8.47-4.04,2.1-9.01,3.19-14.68,3.19Zm14.05-36.77c-.23-2.25-.77-4.43-1.55-6.37-.77-1.94-1.86-3.73-3.18-5.13-1.32-1.48-2.87-2.57-4.74-3.5-1.86-.86-3.96-1.32-6.29-1.32-4.35,0-8,1.48-10.87,4.51-2.87,3.03-4.58,6.92-5.2,11.82h31.84Z"></path><path class="cls-1" d="m417.71,49.36h14.29v13.99c1.94-4.66,4.74-8.47,8.31-11.27,3.57-2.8,8.15-4.12,13.59-3.89v15h-.85c-3.11,0-5.98.54-8.54,1.55-2.56,1.01-4.82,2.57-6.68,4.59-1.86,2.02-3.34,4.59-4.35,7.7-1.01,3.11-1.55,6.69-1.55,10.73v23.55h-14.29v-61.96h.08Z"></path><path class="cls-1" d="m489.7,112.72c-4.66,0-9.01-.86-13.04-2.49-4.04-1.63-7.53-3.96-10.41-6.84-2.95-2.88-5.2-6.3-6.83-10.18-1.63-3.89-2.49-8.08-2.49-12.44v-.23c0-4.43.85-8.63,2.49-12.52,1.71-3.89,3.96-7.31,6.91-10.26,2.95-2.95,6.36-5.29,10.4-7,4.04-1.71,8.39-2.57,13.2-2.57s9.16.86,13.2,2.49c4.04,1.71,7.53,3.96,10.41,6.92,2.95,2.95,5.2,6.37,6.83,10.18,1.63,3.89,2.48,8.01,2.48,12.52v.23c0,4.35-.85,8.55-2.48,12.44-1.71,3.89-3.96,7.31-6.91,10.26-2.95,2.95-6.44,5.29-10.48,7-4.12,1.63-8.54,2.49-13.28,2.49Zm.24-12.36c2.87,0,5.43-.54,7.76-1.55,2.33-1.09,4.27-2.49,5.9-4.28,1.63-1.79,2.87-3.89,3.73-6.3.85-2.41,1.32-4.9,1.32-7.54v-.23c0-2.72-.46-5.29-1.4-7.77-.93-2.41-2.25-4.51-3.88-6.37-1.71-1.79-3.65-3.26-5.98-4.28-2.25-1.09-4.82-1.55-7.61-1.55s-5.36.54-7.61,1.55c-2.33,1.09-4.27,2.49-5.9,4.2-1.63,1.79-2.87,3.89-3.73,6.3-.85,2.41-1.24,4.98-1.24,7.62v.23c0,2.72.47,5.29,1.4,7.7.93,2.41,2.25,4.51,3.88,6.37,1.71,1.87,3.65,3.26,5.98,4.35,2.18,1.09,4.66,1.55,7.38,1.55Z"></path><path class="cls-1" d="m560.13,112.72c-4.58,0-8.85-.86-12.81-2.49-3.88-1.71-7.3-3.96-10.17-6.84-2.87-2.88-5.13-6.3-6.76-10.18-1.63-3.89-2.41-8.08-2.41-12.44v-.23c0-4.35.77-8.55,2.41-12.52,1.63-3.96,3.88-7.39,6.76-10.34,2.87-2.95,6.29-5.29,10.25-7,3.96-1.71,8.23-2.57,12.81-2.57,5.82,0,10.71,1.01,14.6,2.95,3.88,1.94,7.22,4.51,10.17,7.77l-8.77,9.48c-2.18-2.25-4.5-4.12-6.99-5.6-2.49-1.48-5.51-2.18-9.09-2.18-2.56,0-4.97.54-7.14,1.55-2.17,1.09-4.04,2.49-5.59,4.2-1.55,1.79-2.8,3.89-3.73,6.3-.93,2.41-1.32,4.98-1.32,7.62v.23c0,2.72.46,5.29,1.32,7.77.93,2.41,2.18,4.51,3.81,6.3,1.63,1.79,3.57,3.26,5.83,4.28,2.25,1.01,4.74,1.55,7.53,1.55,3.34,0,6.29-.7,8.85-2.18,2.56-1.48,4.97-3.27,7.22-5.6l8.54,8.47c-3.03,3.42-6.52,6.22-10.41,8.4-3.96,2.18-8.93,3.26-14.91,3.26Z"></path><path class="cls-1" d="m592.43,25.65h14.29v51.15l25.62-27.44h17.24l-24.62,25.19,25.39,36.69h-16.38l-18.64-26.74-8.7,9.02v17.72h-14.29V25.65h.08Z"></path><path class="cls-1" d="m683.13,112.72c-4.42,0-8.62-.78-12.5-2.33-3.88-1.55-7.22-3.73-10.09-6.53-2.87-2.8-5.13-6.22-6.76-10.18-1.63-3.96-2.48-8.32-2.48-13.06v-.23c0-4.43.77-8.63,2.25-12.52,1.47-3.89,3.57-7.31,6.29-10.26,2.72-2.95,5.9-5.21,9.55-6.92,3.65-1.71,7.77-2.49,12.19-2.49,4.89,0,9.24.93,12.97,2.72,3.73,1.79,6.83,4.2,9.24,7.31,2.49,3.03,4.35,6.61,5.59,10.65,1.24,4.04,1.86,8.24,1.86,12.75,0,.62,0,1.24-.08,1.94-.08.7-.08,1.32-.16,2.02h-45.5c.77,5.05,2.8,8.94,6.06,11.66,3.26,2.72,7.14,4.04,11.8,4.04,3.49,0,6.52-.62,9.16-1.87,2.56-1.24,5.13-3.11,7.61-5.52l8.31,7.38c-2.95,3.5-6.52,6.3-10.64,8.47-4.04,1.87-8.93,2.95-14.68,2.95Zm14.05-36.77c-.23-2.25-.77-4.43-1.55-6.37-.77-2.02-1.86-3.73-3.18-5.13-1.32-1.48-2.87-2.57-4.74-3.5-1.86-.86-3.96-1.32-6.29-1.32-4.35,0-8,1.48-10.87,4.51-2.87,3.03-4.58,6.92-5.2,11.82h31.84Z"></path><path class="cls-1" d="m740.51,112.33c-2.56,0-4.97-.31-7.14-.93-2.18-.62-4.12-1.63-5.75-3.03-1.63-1.4-2.87-3.27-3.73-5.6-.85-2.33-1.32-5.21-1.32-8.63v-32.57h-7.85v-12.2h7.85v-17.02h14.29v17.02h16.69v12.2h-16.62v30.39c0,2.72.7,4.74,2.02,5.91,1.32,1.24,3.18,1.79,5.59,1.79,3.03,0,5.98-.7,8.78-2.1v11.58c-1.78,1.01-3.73,1.79-5.75,2.33-2.02.62-4.35.86-7.07.86Z"></path><path class="cls-1" d="m84.33,98.96l19.43-19.43c.39-.39.7-.62,1.09-1.01,1.01-1.01,1.94-2.1,3.03-3.11,14.38-14.38,21.53-33.66,24.95-47.26,3.73-14.69,4.04-25.81,4.04-26.27l.08-1.87-1.79.08c-.47,0-11.58.31-26.27,4.04-13.6,3.42-32.8,10.57-47.26,24.95-1.17,1.17-2.25,2.25-3.34,3.42-.31.23-.54.47-.78.7l-2.18,2.18-7.15,7.15-10.03,10.03L-1.41,60.79l33.04,10.18-8.78,8.78,13.84,4.2c1.09,3.96,3.11,7.38,6.06,10.34,2.95,2.95,6.53,4.98,10.49,6.06l4.35,13.99,8.47-8.47,10.11,32.57,8.16-39.49Zm-46.49-31.79l-.93-.31-.93-.31-5.44-1.63,12.75-12.75,2.49-2.49,3.03-3.03.47-.47.62,1.87.08.16.16.54,4.12,12.98.54,1.63.54,1.63,2.64,8.32-1.63-.47-1.87-.54-1.94-.78-5.21-1.55-1.94-.62-1.4-.47-.54-.16-2.18-.62-1.09-.31-1.63-.47-.7-.16Zm-.16,13.6l-1.71-.54-6.76-2.02,6.45-6.45.47-.47.93-.93.86.23,1.63.47.39.08,4.74,1.4,3.5,11.19-8.63-2.64-1.87-.31Zm7.38,11.12c-1.94-1.94-3.5-4.2-4.51-6.76l8.71,2.64,2.72,8.71c-2.57-1.09-4.9-2.57-6.92-4.59Zm21.3,8.94l-1.01,1.01-6.14,6.14-2.18-6.92-.54-1.71-.54-1.79-2.72-8.63-.62-1.94-.62-1.94-3.5-11.19,5.13,1.55,1.87.54,1.87.54,1.79.54,6.45,20.06.08.39.54,1.63.47,1.32-.31.39Zm35.06-23.71l-10.81,10.81-3.42,3.42-2.18,2.18-12.83,12.83-1.63-5.05-.47-1.4-.16-.39-.39-1.17-.23-.62-.31-1.01-.31-1.09-5.6-17.33-.62-1.94-3.73-11.66-.16-.47-.54-1.63-.54-1.63-5.21-16.32-.39-1.17,1.48-1.48,1.4-1.4,1.4-1.4,3.03-3.03c1.17-1.17,2.25-2.25,3.26-3.19.39-.39.7-.7,1.09-1.09.7-.7,1.32-1.32,1.94-1.94h-.08c.39-.39.86-.78,1.24-1.17,5.75-5.44,8.16-6.92,15.08-10.73.39-.23.86-.47,1.32-.62,9.33-5.05,18.89-8.16,26.59-10.11,2.25-.54,4.35-1.01,6.37-1.48,2.95,1.87,5.75,4.12,8.32,6.69,2.57,2.57,4.82,5.36,6.68,8.32-.39,2.02-.86,4.12-1.4,6.3-3.19,12.67-9.72,30.39-22.47,44.08,0,.08-.08.08-.08.08l-.08.08-.93.93-.93.93-1.32,1.32-1.55,1.63c-.31.39-.62.62-.86.93Z"></path><path class="cls-1" d="m106.56,30.4c-4.98-4.98-13.06-4.98-18.03,0-1.87,1.87-3.11,4.28-3.58,6.92-.08.7-.16,1.32-.16,2.02,0,.78.08,1.55.16,2.33.47,2.57,1.71,4.9,3.5,6.76,1.87,1.87,4.2,3.11,6.76,3.5.78.16,1.55.23,2.33.16.7,0,1.32-.08,2.02-.16,2.64-.47,4.98-1.63,6.92-3.58,2.41-2.41,3.73-5.6,3.73-9.02.08-3.34-1.24-6.53-3.65-8.94Zm-8.63,18.73c-.78,0-1.48,0-2.25-.16-1.17-.23-2.25-.62-3.26-1.24-1.32-.78-2.41-1.94-3.26-3.26-.62-1.01-1.01-2.1-1.24-3.26-.16-.7-.16-1.48-.16-2.25.08-2.41,1.09-4.74,2.8-6.45,3.81-3.81,9.95-3.81,13.76,0,3.81,3.81,3.81,9.95,0,13.76-1.63,1.71-3.89,2.72-6.37,2.88Z"></path></svg> 