<?xml version="1.0" encoding="UTF-8"?> <svg xmlns="http://www.w3.org/2000/svg" width="948" height="48" viewBox="0 0 948 48" fill="none"><path d="M0 4C0 1.79086 1.79086 0 4 0H1068C1070.21 0 1072 1.79086 1072 4V44C1072 46.2091 1070.21 48 1068 48H4.00003C1.79089 48 0 46.2091 0 44V4Z" fill="white"></path><path d="M24.214 29.14C26.482 29.14 28.008 28.034 28.008 26.228C28.008 22.238 22.17 24.464 22.17 21.748C22.17 20.838 22.982 20.152 24.242 20.152C25.376 20.152 26.202 20.782 26.552 21.776L27.728 21.426C27.294 19.97 26.09 19.032 24.326 19.032C22.296 19.032 20.924 20.18 20.924 21.86C20.924 25.836 26.72 23.596 26.72 26.382C26.72 27.362 25.754 28.02 24.298 28.02C22.926 28.02 22.002 27.306 21.666 26.032L20.518 26.382C20.896 28.076 22.226 29.14 24.214 29.14ZM32.5493 21.804C30.9673 21.804 29.8333 22.77 29.5673 24.184L30.5893 24.492C30.8693 23.47 31.4573 22.924 32.4933 22.924C33.5153 22.924 34.1733 23.568 34.2153 24.646L32.2973 25.01C30.5613 25.332 29.8193 26.018 29.8193 27.138C29.8193 28.356 30.7293 29.14 32.0313 29.14C33.0673 29.14 33.8373 28.65 34.2853 27.768V29H35.4613V24.632C35.4613 22.938 34.3273 21.804 32.5493 21.804ZM32.2693 28.202C31.5833 28.202 31.0793 27.824 31.0793 27.152C31.0793 26.466 31.5973 26.116 32.7453 25.892L34.2153 25.626V25.836C34.2153 27.222 33.4033 28.202 32.2693 28.202ZM41.3184 21.804C40.2684 21.804 39.4564 22.294 38.9524 23.232V21.972H37.6924V29H38.9524V25.668C38.9524 23.806 39.8764 22.868 41.0244 22.868C42.0324 22.868 42.6484 23.568 42.6484 24.716V29H43.9084V24.562C43.9084 22.854 42.8724 21.804 41.3184 21.804ZM51.4018 19.2V23.05C50.9118 22.252 50.1138 21.804 49.0498 21.804C47.0618 21.804 45.7598 23.316 45.7598 25.472C45.7598 27.642 47.0618 29.14 49.0498 29.14C50.1138 29.14 50.9118 28.678 51.4018 27.894V29H52.6618V19.2H51.4018ZM49.2178 28.076C47.9018 28.076 47.0198 27.012 47.0198 25.472C47.0198 23.932 47.9018 22.868 49.2178 22.868C50.5478 22.868 51.4018 23.932 51.4018 25.472C51.4018 27.012 50.5478 28.076 49.2178 28.076ZM58.7583 21.804C57.6663 21.804 56.8403 22.28 56.3363 23.12V19.2H55.0763V29H56.3363V27.824C56.8403 28.664 57.6663 29.14 58.7583 29.14C60.6623 29.14 61.9503 27.642 61.9503 25.472C61.9503 23.316 60.6623 21.804 58.7583 21.804ZM58.5203 28.076C57.2043 28.076 56.3363 27.012 56.3363 25.472C56.3363 23.932 57.2043 22.868 58.5203 22.868C59.8223 22.868 60.6903 23.932 60.6903 25.472C60.6903 27.012 59.8223 28.076 58.5203 28.076ZM67.0259 29.14C69.0559 29.14 70.5539 27.6 70.5539 25.458C70.5539 23.316 69.0559 21.804 67.0399 21.804C65.0099 21.804 63.5119 23.344 63.5119 25.486C63.5119 27.628 65.0099 29.14 67.0259 29.14ZM67.0399 28.076C65.7239 28.076 64.7719 27.012 64.7719 25.472C64.7719 23.932 65.7099 22.868 67.0259 22.868C68.3419 22.868 69.2939 23.932 69.2939 25.472C69.2939 27.012 68.3559 28.076 67.0399 28.076ZM77.9675 29L75.4475 25.43L77.8275 21.972H76.4555L74.7615 24.464L72.9975 21.972H71.5835L73.9635 25.346L71.4435 29H72.8155L74.6635 26.326L76.5535 29H77.9675Z" fill="#1F1E1D"></path><path d="M162.66 19.2C162.254 20.334 161.47 20.936 160.252 21.034V22.28C161.232 22.196 161.96 21.874 162.45 21.286V29H163.766V19.2H162.66ZM167.985 27.838L169.679 26.634C171.863 25.094 172.675 23.638 172.675 22.14C172.675 20.25 171.401 19.032 169.441 19.032C167.439 19.032 166.137 20.25 166.137 22.126C166.137 22.658 166.235 23.148 166.403 23.568L167.579 23.176C167.467 22.868 167.397 22.518 167.397 22.154C167.397 20.964 168.181 20.194 169.385 20.194C170.575 20.194 171.345 20.978 171.345 22.21C171.345 23.414 170.687 24.618 168.755 26.004L166.123 27.908V29H172.759V27.838H167.985ZM179.315 23.848C180.337 23.512 180.911 22.756 180.911 21.664C180.911 20.068 179.721 19.032 177.887 19.032C176.081 19.032 174.863 20.04 174.695 21.692L175.885 21.888C176.081 20.824 176.753 20.152 177.817 20.152C178.895 20.152 179.595 20.782 179.595 21.776C179.595 22.798 178.853 23.344 177.509 23.344H176.991V24.464H177.593C179.077 24.464 179.945 25.094 179.945 26.256C179.945 27.32 179.133 28.006 177.887 28.006C176.627 28.006 175.885 27.39 175.633 26.326L174.415 26.536C174.681 28.188 175.927 29.14 177.859 29.14C179.917 29.14 181.261 28.034 181.261 26.34C181.261 25.066 180.561 24.212 179.315 23.848ZM189.987 25.752H188.713V19.2H187.369L182.651 25.766V26.886H187.425V29H188.713V26.886H189.987V25.752ZM187.453 21.006V25.752H184.065L187.453 21.006ZM194.372 21.804C192.79 21.804 191.656 22.77 191.39 24.184L192.412 24.492C192.692 23.47 193.28 22.924 194.316 22.924C195.338 22.924 195.996 23.568 196.038 24.646L194.12 25.01C192.384 25.332 191.642 26.018 191.642 27.138C191.642 28.356 192.552 29.14 193.854 29.14C194.89 29.14 195.66 28.65 196.108 27.768V29H197.284V24.632C197.284 22.938 196.15 21.804 194.372 21.804ZM194.092 28.202C193.406 28.202 192.902 27.824 192.902 27.152C192.902 26.466 193.42 26.116 194.568 25.892L196.038 25.626V25.836C196.038 27.222 195.226 28.202 194.092 28.202ZM203.239 21.804C202.147 21.804 201.321 22.28 200.817 23.12V19.2H199.557V29H200.817V27.824C201.321 28.664 202.147 29.14 203.239 29.14C205.143 29.14 206.431 27.642 206.431 25.472C206.431 23.316 205.143 21.804 203.239 21.804ZM203.001 28.076C201.685 28.076 200.817 27.012 200.817 25.472C200.817 23.932 201.685 22.868 203.001 22.868C204.303 22.868 205.171 23.932 205.171 25.472C205.171 27.012 204.303 28.076 203.001 28.076ZM211.45 29.14C212.948 29.14 214.068 28.3 214.544 27.012L213.536 26.634C213.13 27.572 212.472 28.076 211.464 28.076C210.19 28.076 209.252 27.012 209.252 25.472C209.252 23.918 210.19 22.868 211.45 22.868C212.43 22.868 213.074 23.386 213.382 24.338L214.474 24.002C214.068 22.644 213.018 21.804 211.464 21.804C209.462 21.804 207.992 23.344 207.992 25.542C207.992 27.698 209.392 29.14 211.45 29.14ZM221.683 19.2V23.05C221.193 22.252 220.395 21.804 219.331 21.804C217.343 21.804 216.041 23.316 216.041 25.472C216.041 27.642 217.343 29.14 219.331 29.14C220.395 29.14 221.193 28.678 221.683 27.894V29H222.943V19.2H221.683ZM219.499 28.076C218.183 28.076 217.301 27.012 217.301 25.472C217.301 23.932 218.183 22.868 219.499 22.868C220.829 22.868 221.683 23.932 221.683 25.472C221.683 27.012 220.829 28.076 219.499 28.076ZM228.368 21.804C226.38 21.804 224.938 23.316 224.938 25.5C224.938 27.726 226.506 29.14 228.452 29.14C229.81 29.14 230.846 28.426 231.406 27.404L230.552 26.872C230.132 27.614 229.404 28.104 228.48 28.104C227.29 28.104 226.254 27.306 226.17 25.766H231.49C231.7 23.568 230.51 21.804 228.368 21.804ZM228.34 22.812C229.474 22.812 230.216 23.624 230.314 24.786H226.212C226.338 23.61 227.206 22.812 228.34 22.812ZM235.127 21.034C235.127 20.46 235.435 20.11 235.911 20.11C236.205 20.11 236.429 20.25 236.583 20.474L237.437 19.956C237.129 19.382 236.583 19.06 235.897 19.06C234.679 19.06 233.867 19.872 233.867 21.09V21.972H232.747V23.036H233.867V29H235.127V23.036H236.821V21.972H235.127V21.034ZM243.767 21.972V22.98C243.249 22.238 242.437 21.804 241.429 21.804C239.511 21.804 238.069 23.302 238.069 25.374C238.069 27.418 239.497 28.902 241.401 28.902C242.437 28.902 243.249 28.468 243.767 27.74V28.314C243.767 29.924 242.899 30.862 241.443 30.862C240.183 30.862 239.357 30.26 238.951 29.154L237.943 29.532C238.405 31.044 239.665 31.94 241.401 31.94C243.627 31.94 245.027 30.47 245.027 28.146V21.972H243.767ZM241.555 27.838C240.253 27.838 239.343 26.802 239.343 25.36C239.343 23.904 240.253 22.868 241.555 22.868C242.843 22.868 243.767 23.904 243.767 25.36C243.767 26.802 242.843 27.838 241.555 27.838ZM251.053 21.804C250.003 21.804 249.177 22.294 248.673 23.246V19.2H247.413V29H248.673V25.668C248.673 23.82 249.597 22.868 250.745 22.868C251.753 22.868 252.369 23.568 252.369 24.716V29H253.629V24.562C253.629 22.91 252.635 21.804 251.053 21.804ZM255.815 20.53H257.159V19.144H255.815V20.53ZM255.857 29H257.117V21.972H255.857V29ZM259.505 20.53H260.849V19.144H259.505V20.53ZM258.833 31.94C260.023 31.94 260.807 31.086 260.807 29.77V21.972H259.547V29.882C259.547 30.498 259.239 30.89 258.763 30.89C258.483 30.89 258.245 30.778 258.035 30.568L257.363 31.296C257.699 31.688 258.203 31.94 258.833 31.94ZM266.721 29.14C269.129 29.14 270.459 27.334 270.459 24.1C270.459 20.838 269.129 19.032 266.721 19.032C264.313 19.032 262.969 20.838 262.969 24.1C262.969 27.334 264.313 29.14 266.721 29.14ZM266.721 27.978C265.167 27.978 264.299 26.592 264.299 24.1C264.299 21.58 265.167 20.194 266.721 20.194C268.261 20.194 269.143 21.58 269.143 24.1C269.143 26.592 268.261 27.978 266.721 27.978ZM274.329 19.2C273.923 20.334 273.139 20.936 271.921 21.034V22.28C272.901 22.196 273.629 21.874 274.119 21.286V29H275.435V19.2H274.329ZM279.654 27.838L281.348 26.634C283.532 25.094 284.344 23.638 284.344 22.14C284.344 20.25 283.07 19.032 281.11 19.032C279.108 19.032 277.806 20.25 277.806 22.126C277.806 22.658 277.904 23.148 278.072 23.568L279.248 23.176C279.136 22.868 279.066 22.518 279.066 22.154C279.066 20.964 279.85 20.194 281.054 20.194C282.244 20.194 283.014 20.978 283.014 22.21C283.014 23.414 282.356 24.618 280.424 26.004L277.792 27.908V29H284.428V27.838H279.654ZM290.984 23.848C292.006 23.512 292.58 22.756 292.58 21.664C292.58 20.068 291.39 19.032 289.556 19.032C287.75 19.032 286.532 20.04 286.364 21.692L287.554 21.888C287.75 20.824 288.422 20.152 289.486 20.152C290.564 20.152 291.264 20.782 291.264 21.776C291.264 22.798 290.522 23.344 289.178 23.344H288.66V24.464H289.262C290.746 24.464 291.614 25.094 291.614 26.256C291.614 27.32 290.802 28.006 289.556 28.006C288.296 28.006 287.554 27.39 287.302 26.326L286.084 26.536C286.35 28.188 287.596 29.14 289.528 29.14C291.586 29.14 292.93 28.034 292.93 26.34C292.93 25.066 292.23 24.212 290.984 23.848ZM301.656 25.752H300.382V19.2H299.038L294.32 25.766V26.886H299.094V29H300.382V26.886H301.656V25.752ZM299.122 21.006V25.752H295.734L299.122 21.006ZM306.965 22.462C306.111 22.462 305.355 22.77 304.823 23.302L305.243 20.348H309.639V19.2H304.207L303.437 24.702L304.599 24.982C304.879 24.184 305.621 23.54 306.685 23.54C307.959 23.54 308.827 24.45 308.827 25.78C308.827 27.11 307.973 27.978 306.713 27.978C305.649 27.978 304.949 27.432 304.557 26.536L303.423 26.998C303.885 28.286 305.061 29.14 306.657 29.14C308.729 29.14 310.143 27.782 310.143 25.766C310.143 23.806 308.827 22.462 306.965 22.462ZM316.028 22.644C314.866 22.644 313.928 23.176 313.438 24.1V24.086C313.424 21.566 314.404 20.166 315.916 20.166C316.896 20.166 317.54 20.782 317.904 21.902L318.982 21.566C318.52 19.886 317.484 19.032 315.902 19.032C313.634 19.032 312.164 20.95 312.164 24.142C312.164 27.376 313.592 29.14 315.874 29.14C317.89 29.14 319.234 27.768 319.234 25.85C319.234 23.988 317.904 22.644 316.028 22.644ZM315.86 28.006C314.642 28.006 313.774 27.124 313.774 25.85C313.774 24.59 314.642 23.708 315.832 23.708C317.036 23.708 317.918 24.59 317.918 25.85C317.918 27.138 317.106 28.006 315.86 28.006ZM320.628 19.2V21.454H321.958V20.348H325.836C323.736 22.84 322.728 25.192 322.728 28.314V29H324.044V28.3C324.044 24.898 324.996 22.938 327.264 20.236V19.2H320.628ZM333.764 23.89C334.716 23.512 335.29 22.742 335.29 21.706C335.29 20.152 334.044 19.032 332.154 19.032C330.278 19.032 329.018 20.152 329.018 21.706C329.018 22.742 329.592 23.512 330.544 23.89C329.396 24.296 328.696 25.178 328.696 26.34C328.696 27.964 330.082 29.14 332.154 29.14C334.24 29.14 335.612 27.964 335.612 26.34C335.612 25.178 334.912 24.296 333.764 23.89ZM332.168 20.166C333.274 20.166 334.002 20.81 334.002 21.804C334.002 22.77 333.274 23.358 332.168 23.358C331.034 23.358 330.306 22.77 330.306 21.804C330.306 20.81 331.034 20.166 332.168 20.166ZM332.154 28.006C330.866 28.006 330.012 27.306 330.012 26.256C330.012 25.192 330.866 24.45 332.154 24.45C333.442 24.45 334.296 25.192 334.296 26.256C334.296 27.306 333.442 28.006 332.154 28.006ZM340.583 19.032C338.609 19.032 337.209 20.404 337.209 22.308C337.209 24.198 338.539 25.528 340.415 25.528C341.577 25.528 342.501 25.01 343.005 24.086C343.019 26.606 342.053 28.006 340.541 28.006C339.547 28.006 338.903 27.376 338.539 26.242L337.475 26.606C337.923 28.286 338.973 29.14 340.555 29.14C342.823 29.14 344.279 27.222 344.279 24.002C344.279 20.838 342.893 19.032 340.583 19.032ZM340.625 24.464C339.421 24.464 338.525 23.582 338.525 22.322C338.525 21.034 339.365 20.166 340.597 20.166C341.815 20.166 342.669 21.048 342.669 22.322C342.669 23.582 341.801 24.464 340.625 24.464ZM346.498 20.53H347.842V19.144H346.498V20.53ZM345.826 31.94C347.016 31.94 347.8 31.086 347.8 29.77V21.972H346.54V29.882C346.54 30.498 346.232 30.89 345.756 30.89C345.476 30.89 345.238 30.778 345.028 30.568L344.356 31.296C344.692 31.688 345.196 31.94 345.826 31.94ZM358.334 21.804C357.242 21.804 356.416 22.336 355.926 23.316C355.548 22.336 354.736 21.804 353.63 21.804C352.58 21.804 351.81 22.308 351.39 23.274V21.972H350.13V29H351.39V25.906C351.39 23.904 352.216 22.868 353.392 22.868C354.358 22.868 354.876 23.568 354.876 24.66V29H356.136V25.906C356.136 23.904 356.962 22.868 358.124 22.868C359.09 22.868 359.622 23.568 359.622 24.66V29H360.882V24.548C360.882 22.84 359.916 21.804 358.334 21.804ZM366.796 21.804C365.746 21.804 364.92 22.294 364.416 23.246V19.2H363.156V29H364.416V25.668C364.416 23.82 365.34 22.868 366.488 22.868C367.496 22.868 368.112 23.568 368.112 24.716V29H369.372V24.562C369.372 22.91 368.378 21.804 366.796 21.804ZM375.989 21.972L373.945 27.642L371.887 21.972H370.557L373.259 29H374.589L377.291 21.972H375.989ZM383.561 23.89C384.513 23.512 385.087 22.742 385.087 21.706C385.087 20.152 383.841 19.032 381.951 19.032C380.075 19.032 378.815 20.152 378.815 21.706C378.815 22.742 379.389 23.512 380.341 23.89C379.193 24.296 378.493 25.178 378.493 26.34C378.493 27.964 379.879 29.14 381.951 29.14C384.037 29.14 385.409 27.964 385.409 26.34C385.409 25.178 384.709 24.296 383.561 23.89ZM381.965 20.166C383.071 20.166 383.799 20.81 383.799 21.804C383.799 22.77 383.071 23.358 381.965 23.358C380.831 23.358 380.103 22.77 380.103 21.804C380.103 20.81 380.831 20.166 381.965 20.166ZM381.951 28.006C380.663 28.006 379.809 27.306 379.809 26.256C379.809 25.192 380.663 24.45 381.951 24.45C383.239 24.45 384.093 25.192 384.093 26.256C384.093 27.306 383.239 28.006 381.951 28.006ZM391.85 23.848C392.872 23.512 393.446 22.756 393.446 21.664C393.446 20.068 392.256 19.032 390.422 19.032C388.616 19.032 387.398 20.04 387.23 21.692L388.42 21.888C388.616 20.824 389.288 20.152 390.352 20.152C391.43 20.152 392.13 20.782 392.13 21.776C392.13 22.798 391.388 23.344 390.044 23.344H389.526V24.464H390.128C391.612 24.464 392.48 25.094 392.48 26.256C392.48 27.32 391.668 28.006 390.422 28.006C389.162 28.006 388.42 27.39 388.168 26.326L386.95 26.536C387.216 28.188 388.462 29.14 390.394 29.14C392.452 29.14 393.796 28.034 393.796 26.34C393.796 25.066 393.096 24.212 391.85 23.848ZM399.401 21.804C398.351 21.804 397.539 22.294 397.035 23.232V21.972H395.775V29H397.035V25.668C397.035 23.806 397.959 22.868 399.107 22.868C400.115 22.868 400.731 23.568 400.731 24.716V29H401.991V24.562C401.991 22.854 400.955 21.804 399.401 21.804ZM410.674 20.348V19.2H404.374V29H405.704V24.94H410.1V23.778H405.704V20.348H410.674ZM416.895 24.016V25.108H420.073L420.087 25.36C420.003 26.956 418.869 27.978 417.189 27.978C415.145 27.978 413.619 26.41 413.619 24.114C413.619 21.804 415.061 20.194 417.035 20.194C418.491 20.194 419.527 20.978 420.045 22.21L421.165 21.762C420.507 20.124 419.051 19.032 417.049 19.032C414.305 19.032 412.289 21.132 412.289 24.128C412.289 27.152 414.445 29.14 417.007 29.14C418.491 29.14 419.513 28.594 420.115 27.614V29H421.221V24.016H416.895ZM430.18 19.2V23.414H425.056V19.2H423.726V29H425.056V24.562H430.18V29H431.496V19.2H430.18ZM437.038 21.846C436.268 21.846 435.638 22.224 435.246 23.162V21.972H433.986V29H435.246V25.99C435.246 23.806 435.862 22.994 436.898 22.994C437.15 22.994 437.36 23.05 437.528 23.134L437.962 22.084C437.724 21.944 437.402 21.846 437.038 21.846ZM444.209 21.972L442.221 27.516L440.093 21.972H438.777L441.591 29.014L440.457 31.8H441.731L445.511 21.972H444.209ZM451.78 23.89C452.732 23.512 453.306 22.742 453.306 21.706C453.306 20.152 452.06 19.032 450.17 19.032C448.294 19.032 447.034 20.152 447.034 21.706C447.034 22.742 447.608 23.512 448.56 23.89C447.412 24.296 446.712 25.178 446.712 26.34C446.712 27.964 448.098 29.14 450.17 29.14C452.256 29.14 453.628 27.964 453.628 26.34C453.628 25.178 452.928 24.296 451.78 23.89ZM450.184 20.166C451.29 20.166 452.018 20.81 452.018 21.804C452.018 22.77 451.29 23.358 450.184 23.358C449.05 23.358 448.322 22.77 448.322 21.804C448.322 20.81 449.05 20.166 450.184 20.166ZM450.17 28.006C448.882 28.006 448.028 27.306 448.028 26.256C448.028 25.192 448.882 24.45 450.17 24.45C451.458 24.45 452.312 25.192 452.312 26.256C452.312 27.306 451.458 28.006 450.17 28.006ZM458.599 19.032C456.625 19.032 455.225 20.404 455.225 22.308C455.225 24.198 456.555 25.528 458.431 25.528C459.593 25.528 460.517 25.01 461.021 24.086C461.035 26.606 460.069 28.006 458.557 28.006C457.563 28.006 456.919 27.376 456.555 26.242L455.491 26.606C455.939 28.286 456.989 29.14 458.571 29.14C460.839 29.14 462.295 27.222 462.295 24.002C462.295 20.838 460.909 19.032 458.599 19.032ZM458.641 24.464C457.437 24.464 456.541 23.582 456.541 22.322C456.541 21.034 457.381 20.166 458.613 20.166C459.831 20.166 460.685 21.048 460.685 22.322C460.685 23.582 459.817 24.464 458.641 24.464ZM468.043 29.14C470.451 29.14 471.781 27.334 471.781 24.1C471.781 20.838 470.451 19.032 468.043 19.032C465.635 19.032 464.291 20.838 464.291 24.1C464.291 27.334 465.635 29.14 468.043 29.14ZM468.043 27.978C466.489 27.978 465.621 26.592 465.621 24.1C465.621 21.58 466.489 20.194 468.043 20.194C469.583 20.194 470.465 21.58 470.465 24.1C470.465 26.592 469.583 27.978 468.043 27.978ZM478.409 23.848C479.431 23.512 480.005 22.756 480.005 21.664C480.005 20.068 478.815 19.032 476.981 19.032C475.175 19.032 473.957 20.04 473.789 21.692L474.979 21.888C475.175 20.824 475.847 20.152 476.911 20.152C477.989 20.152 478.689 20.782 478.689 21.776C478.689 22.798 477.947 23.344 476.603 23.344H476.085V24.464H476.687C478.171 24.464 479.039 25.094 479.039 26.256C479.039 27.32 478.227 28.006 476.981 28.006C475.721 28.006 474.979 27.39 474.727 26.326L473.509 26.536C473.775 28.188 475.021 29.14 476.953 29.14C479.011 29.14 480.355 28.034 480.355 26.34C480.355 25.066 479.655 24.212 478.409 23.848ZM488.144 29L485.624 25.43L488.004 21.972H486.632L484.938 24.464L483.174 21.972H481.76L484.14 25.346L481.62 29H482.992L484.84 26.326L486.73 29H488.144Z" fill="#1F1E1D"></path><rect x="505" y="10" width="77" height="28" rx="4" fill="#FAF9F6"></rect><path d="M517 18.5L517 26.5C517 26.6326 517.053 26.7598 517.146 26.8536C517.24 26.9473 517.367 27 517.5 27L520 27L520 29.5C520 29.6326 520.053 29.7598 520.146 29.8536C520.24 29.9473 520.367 30 520.5 30L528.5 30C528.633 30 528.76 29.9473 528.854 29.8536C528.947 29.7598 529 29.6326 529 29.5L529 21.5C529 21.3674 528.947 21.2402 528.854 21.1464C528.76 21.0527 528.633 21 528.5 21L526 21L526 18.5C526 18.3674 525.947 18.2402 525.854 18.1464C525.76 18.0527 525.633 18 525.5 18L517.5 18C517.367 18 517.24 18.0527 517.146 18.1464C517.053 18.2402 517 18.3674 517 18.5ZM525 19L525 21L520.5 21C520.367 21 520.24 21.0527 520.146 21.1464C520.053 21.2402 520 21.3674 520 21.5L520 26L518 26L518 19L525 19Z" fill="#322E2E"></path><path d="M545.68 28.62C547.492 28.62 548.824 27.612 549.34 25.98L548.272 25.608C547.864 26.808 546.976 27.492 545.704 27.492C543.988 27.492 542.812 26.172 542.812 24.312C542.812 22.404 544.012 21.072 545.632 21.072C546.844 21.072 547.708 21.708 548.104 22.872L549.208 22.488C548.68 20.88 547.384 19.944 545.632 19.944C543.292 19.944 541.54 21.756 541.54 24.3C541.54 26.844 543.208 28.62 545.68 28.62ZM553.642 28.62C555.394 28.62 556.702 27.288 556.702 25.452C556.702 23.628 555.394 22.32 553.654 22.32C551.902 22.32 550.606 23.652 550.606 25.476C550.606 27.312 551.902 28.62 553.642 28.62ZM553.666 27.576C552.598 27.576 551.83 26.724 551.83 25.464C551.83 24.216 552.574 23.352 553.642 23.352C554.71 23.352 555.478 24.216 555.478 25.476C555.478 26.724 554.722 27.576 553.666 27.576ZM561.549 22.32C560.649 22.32 559.977 22.692 559.557 23.352V22.464H558.333V30.9H559.557V27.588C559.977 28.248 560.649 28.62 561.549 28.62C563.181 28.62 564.309 27.348 564.309 25.452C564.309 23.592 563.169 22.32 561.549 22.32ZM561.321 27.576C560.265 27.576 559.557 26.712 559.557 25.464C559.557 24.216 560.265 23.352 561.321 23.352C562.389 23.352 563.097 24.216 563.097 25.464C563.097 26.712 562.389 27.576 561.321 27.576ZM569.638 22.464L568.018 27.024L566.266 22.464H564.994L567.406 28.452L566.398 30.9H567.634L570.886 22.464H569.638Z" fill="#1F1E1D"></path><path d="M621.24 19.2L618.132 27.614L615.038 19.2H613.106V29H614.394V20.782L617.432 29H618.818L621.884 20.712V29H623.158V19.2H621.24ZM628.295 21.804C626.713 21.804 625.579 22.77 625.313 24.184L626.335 24.492C626.615 23.47 627.203 22.924 628.239 22.924C629.261 22.924 629.919 23.568 629.961 24.646L628.043 25.01C626.307 25.332 625.565 26.018 625.565 27.138C625.565 28.356 626.475 29.14 627.777 29.14C628.813 29.14 629.583 28.65 630.031 27.768V29H631.207V24.632C631.207 22.938 630.073 21.804 628.295 21.804ZM628.015 28.202C627.329 28.202 626.825 27.824 626.825 27.152C626.825 26.466 627.343 26.116 628.491 25.892L629.961 25.626V25.836C629.961 27.222 629.149 28.202 628.015 28.202ZM637.827 21.972L635.839 27.516L633.711 21.972H632.395L635.209 29.014L634.075 31.8H635.349L639.129 21.972H637.827ZM645.666 19.2C645.26 20.334 644.476 20.936 643.258 21.034V22.28C644.238 22.196 644.966 21.874 645.456 21.286V29H646.772V19.2H645.666ZM648.849 19.2V21.454H650.179V20.348H654.057C651.957 22.84 650.949 25.192 650.949 28.314V29H652.265V28.3C652.265 24.898 653.217 22.938 655.485 20.236V19.2H648.849ZM656.145 27.502V29H657.013V29.518C657.013 29.868 656.817 30.106 656.509 30.106C656.299 30.106 656.103 30.064 655.949 29.966L655.669 30.428C655.893 30.582 656.173 30.652 656.495 30.652C657.209 30.652 657.657 30.176 657.657 29.42V27.502H656.145ZM664.901 19.2C664.495 20.334 663.711 20.936 662.493 21.034V22.28C663.473 22.196 664.201 21.874 664.691 21.286V29H666.007V19.2H664.901ZM672.228 29.14C674.636 29.14 675.966 27.334 675.966 24.1C675.966 20.838 674.636 19.032 672.228 19.032C669.82 19.032 668.476 20.838 668.476 24.1C668.476 27.334 669.82 29.14 672.228 29.14ZM672.228 27.978C670.674 27.978 669.806 26.592 669.806 24.1C669.806 21.58 670.674 20.194 672.228 20.194C673.768 20.194 674.65 21.58 674.65 24.1C674.65 26.592 673.768 27.978 672.228 27.978ZM678.059 23.47H679.571V21.972H678.059V23.47ZM678.059 29H679.571V27.502H678.059V29ZM683.412 27.838L685.106 26.634C687.29 25.094 688.102 23.638 688.102 22.14C688.102 20.25 686.828 19.032 684.868 19.032C682.866 19.032 681.564 20.25 681.564 22.126C681.564 22.658 681.662 23.148 681.83 23.568L683.006 23.176C682.894 22.868 682.824 22.518 682.824 22.154C682.824 20.964 683.608 20.194 684.812 20.194C686.002 20.194 686.772 20.978 686.772 22.21C686.772 23.414 686.114 24.618 684.182 26.004L681.55 27.908V29H688.186V27.838H683.412ZM691.983 19.2C691.577 20.334 690.793 20.936 689.575 21.034V22.28C690.555 22.196 691.283 21.874 691.773 21.286V29H693.089V19.2H691.983Z" fill="#1F1E1D"></path><rect x="772" y="10.5" width="44" height="27" rx="13.5" fill="#009D10"></rect><circle cx="802.5" cy="24" r="11.5" fill="white"></circle><path d="M836.106 29H837.506L833.6 19.2H832.186L828.266 29H829.666L830.548 26.704H835.224L836.106 29ZM830.982 25.598L832.886 20.656L834.79 25.598H830.982ZM842.118 29.14C843.616 29.14 844.736 28.3 845.212 27.012L844.204 26.634C843.798 27.572 843.14 28.076 842.132 28.076C840.858 28.076 839.92 27.012 839.92 25.472C839.92 23.918 840.858 22.868 842.118 22.868C843.098 22.868 843.742 23.386 844.05 24.338L845.142 24.002C844.736 22.644 843.686 21.804 842.132 21.804C840.13 21.804 838.66 23.344 838.66 25.542C838.66 27.698 840.06 29.14 842.118 29.14ZM850.279 27.712C850.069 27.936 849.817 28.09 849.481 28.09C848.977 28.09 848.683 27.726 848.683 27.054V23.036H850.559V21.972H848.683V19.9L847.423 20.432V21.972H846.303V23.036H847.423V27.194C847.423 28.44 848.095 29.14 849.285 29.14C850.055 29.14 850.629 28.846 850.965 28.37L850.279 27.712ZM852.373 20.53H853.717V19.144H852.373V20.53ZM852.415 29H853.675V21.972H852.415V29ZM860.669 21.972L858.625 27.642L856.567 21.972H855.237L857.939 29H859.269L861.971 21.972H860.669ZM866.233 21.804C864.245 21.804 862.803 23.316 862.803 25.5C862.803 27.726 864.371 29.14 866.317 29.14C867.675 29.14 868.711 28.426 869.271 27.404L868.417 26.872C867.997 27.614 867.269 28.104 866.345 28.104C865.155 28.104 864.119 27.306 864.035 25.766H869.355C869.565 23.568 868.375 21.804 866.233 21.804ZM866.205 22.812C867.339 22.812 868.081 23.624 868.179 24.786H864.077C864.203 23.61 865.071 22.812 866.205 22.812Z" fill="#1F1E1D"></path></svg> 