<?xml version="1.0" encoding="UTF-8"?> <svg xmlns="http://www.w3.org/2000/svg" id="Layer_1" viewBox="0 0 720.05 309.86"><defs><style>.cls-1{stroke-width:0px;}</style></defs><path class="cls-1" d="m51.41,111.19h-14.22v17h-7.88v12.19h7.88v32.46c0,13.57,7.41,18.15,17.88,18.15,4.47.15,8.89-.91,12.81-3.07v-11.6c-2.74,1.42-5.77,2.14-8.85,2.12-3.71.51-7.14-2.08-7.65-5.79-.09-.64-.09-1.3.01-1.94v-30.34h16.7v-12.19h-16.67v-17Zm56.07,15.7c-17.71,0-30.34,14.52-30.34,32.23v.24c-.66,17.05,12.62,31.41,29.67,32.08.79.03,1.58.03,2.38,0,9.82.31,19.21-3.98,25.41-11.6l-8.35-7.38c-4.31,4.74-10.42,7.42-16.82,7.38-9.21.38-17.1-6.52-17.94-15.7h45.68c0-1.39.24-2.69.24-3.98,0-17.79-10-33.26-29.78-33.26h-.15Zm-15.99,27.89c1.3-9.62,7.41-16.29,16.11-16.29,9.41,0,14.76,7.14,15.76,16.29h-31.87Zm89.65,24.35c-10.95,0-18.59-8.85-18.59-19.89v-.24c0-10.8,7.53-19.68,17.88-19.68,6.26.04,12.17,2.88,16.11,7.73l8.85-9.5c-6.23-7.15-15.38-11.07-24.85-10.65-17.65-.15-32.08,14.04-32.23,31.69,0,.26,0,.51,0,.77h0c.15,17.93,14.81,32.34,32.74,32.18,9.6-.08,18.67-4.41,24.78-11.82l-8.59-8.44c-4,4.8-9.87,7.65-16.11,7.85Zm71.36-52.23c-7.93-.06-15.29,4.09-19.36,10.89v-33.26h-14.25v85.58h14.25v-34.97c0-9.62,5.9-15.35,13.99-15.35s13.28,5.49,13.28,15.11v35.15h14.25v-39.37c-.03-14.4-8.14-23.79-22.16-23.79Zm109.98,26.56c-7.29-2.33-13.99-4.22-13.99-8.68v-.18c0-3.66,3.16-6.23,8.68-6.23,6.26.41,12.3,2.45,17.53,5.9l5.67-10.09c-6.8-4.44-14.72-6.87-22.84-7.02-12.34,0-22.1,7.14-22.1,18.86v.24c0,11.8,10.24,15.58,19.42,18.15,7.29,2.24,13.87,3.87,13.87,8.68v.24c0,4.1-3.54,6.67-9.65,6.67-7.42-.31-14.54-2.98-20.33-7.61l-6.34,9.62c7.53,5.87,16.78,9.11,26.32,9.24,12.95,0,23.05-6.43,23.05-19.45v-.24c0-11.15-10.21-15.14-19.27-18.09Zm80.53,26.23v29.07h14.4v-80.56h-14.25v9.59c-4.85-6.87-12.75-10.94-21.16-10.89-14.76,0-28.8,11.6-28.8,32.11v.35c0,20.48,14.22,32.08,28.8,32.08,8.56-.02,16.5-4.45,21.01-11.72v-.03Zm-17.71-.71c-9.65,0-17.88-7.85-17.88-19.77v-.24c0-12.31,8.12-19.8,17.88-19.8s17.97,7.85,17.97,19.8v.38c-.03,11.8-8.5,19.65-18,19.65l.03-.03Zm90.54-15.91c0,9.59-5.75,15.35-13.99,15.35s-13.31-5.52-13.31-15.11v-35.12h-14.22v39.34c0,14.43,8.12,23.79,22.1,23.79,7.95.08,15.34-4.07,19.42-10.89v9.62h14.22v-61.97h-14.22v35Zm84.19,26.94v-36.56c0-16.5-8.85-26.12-27.3-26.12-8.16-.12-16.24,1.65-23.61,5.16l3.9,11.36c5.56-2.53,11.6-3.85,17.71-3.87,9.86,0,15.29,4.69,15.29,13.22v1.18c-5.54-1.81-11.35-2.67-17.17-2.57-14.46,0-25.17,6.55-25.17,20.24v.24c0,12.42,10.36,19.09,22.1,19.09,7.71.28,15.12-2.98,20.13-8.85v7.5l14.14-.03Zm-30.22-9.38c-6.7,0-12.01-3.28-12.01-9.15v-.21c0-5.9,5.31-9.62,14.22-9.62,4.86-.03,9.68.8,14.25,2.45v3.51c-.03,7.76-7.08,13.04-16.5,13.04l.03-.03Zm83.37-38.66v-15.08c-10.95-.47-18.12,5.9-21.99,15.11v-13.81h-14.22v61.97h14.22v-23.61c0-16.41,8.85-24.49,21.16-24.49l.83-.09Zm66.87,18.18c0-17.71-10-33.26-29.75-33.26-17.71,0-30.34,14.52-30.34,32.23v.24c-.66,17.05,12.63,31.41,29.68,32.07.73.03,1.46.03,2.19,0,9.81.31,19.19-3.98,25.38-11.6l-8.35-7.38c-4.29,4.73-10.4,7.42-16.79,7.38-9.19.35-17.04-6.54-17.88-15.7h45.62c.24-1.39.24-2.69.24-3.98Zm-45.98-5.37c1.3-9.62,7.41-16.29,16.11-16.29,9.41,0,14.76,7.14,15.76,16.29h-31.87Zm-281.38,108.13h23.4v-6.17h-16.32v-12.42h11.01v-6.26h-11.01v-8.85h16.32v-6.17h-23.37l-.03,39.87Zm252.72,0h23.37v-6.17h-16.35v-12.42h11.04v-6.26h-11.04v-8.85h16.35v-6.17h-23.37v39.87Zm-289.35-9.12l-12.04-30.63h-7.79l16.64,40.13h6.17l16.64-40.13h-7.61l-12.01,30.63Zm109.57-2.95l-21.42-27.56h-6.52v39.63h6.91v-28.36l22.07,28.36h5.9v-39.87h-6.93v27.8Zm24.23-21.31h12.69v33.38h7.08v-33.38h12.69v-6.49h-32.46v6.49Zm76.73,16.47c0,7.32-3.84,11.1-10.06,11.1s-10.12-3.98-10.12-11.39v-22.66h-7.02v22.96c0,11.54,6.64,17.53,17.03,17.53s17.2-5.9,17.2-17.88v-22.6h-7.02v22.96Zm60.47-10.27h0c.07-3.19-1.12-6.27-3.31-8.59-3.19-2.79-7.34-4.22-11.57-3.98h-17.71v39.75h7.02v-13.9h8.85l9.83,13.9h8.29l-11.1-15.02c5.71-1.19,9.74-6.32,9.53-12.16h.15Zm-25.67,7.08v-13.4h10.24c5.19,0,8.29,2.33,8.29,6.61h0c0,4.04-3.22,6.67-8.23,6.67l-10.3.12Zm102.43-2.95c-7.67-1.8-9.5-3.19-9.5-6.26h0c0-2.63,2.42-4.72,6.52-4.72,3.97.14,7.79,1.58,10.86,4.1l3.78-5.31c-4.1-3.32-9.24-5.08-14.52-4.99-7.94,0-13.66,4.72-13.66,11.54h0c0,7.35,4.81,9.86,13.31,11.8,7.44,1.68,9.03,3.22,9.03,6.08h0c0,2.95-2.74,5.02-7.08,5.02-4.72-.06-9.24-1.92-12.63-5.19l-4.22,5.02c4.53,4.19,10.47,6.51,16.64,6.52,8.41,0,14.31-4.46,14.31-11.8h0c-.12-6.73-4.54-9.68-12.98-11.89l.15.09ZM0,309.86h311.1V0H0v309.86ZM12.95,12.9h285.1v284.06H12.95V12.9Z"></path></svg> 