<?xml version="1.0" encoding="UTF-8"?> <svg xmlns="http://www.w3.org/2000/svg" id="Layer_1" viewBox="0 0 421.69 421.69"><defs><style>.cls-1{stroke-width:0px;}</style></defs><polygon class="cls-1" points="147.94 415.59 6.1 415.59 6.1 6.1 415.59 6.1 415.59 142.17 421.69 142.17 421.69 0 0 0 0 421.69 147.94 421.69 147.94 415.59"></polygon><polygon class="cls-1" points="394.4 227.43 417.88 227.43 417.88 222.74 394.4 222.74 394.4 207.36 420.75 207.36 420.75 202.54 388.71 202.54 388.71 248.37 421.69 248.37 421.69 243.55 394.4 243.55 394.4 227.43"></polygon><polygon class="cls-1" points="333.53 202.54 327.84 202.54 327.84 248.37 333.53 248.37 333.53 227.5 361.42 227.5 361.42 248.37 367.11 248.37 367.11 202.54 361.42 202.54 361.42 222.68 333.53 222.68 333.53 202.54"></polygon><polygon class="cls-1" points="291.32 248.37 296.94 248.37 296.94 207.36 313 207.36 313 202.54 275.26 202.54 275.26 207.36 291.32 207.36 291.32 248.37"></polygon><rect class="cls-1" x="142.36" y="288.93" width="5.69" height="45.83"></rect><polygon class="cls-1" points="125.38 293.75 125.38 288.93 93.34 288.93 93.34 334.76 99.03 334.76 99.03 315.83 122.51 315.83 122.51 311.08 99.03 311.08 99.03 293.75 125.38 293.75"></polygon><polygon class="cls-1" points="282.03 313.82 305.51 313.82 305.51 309.13 282.03 309.13 282.03 293.75 308.38 293.75 308.38 288.93 276.34 288.93 276.34 334.76 309.32 334.76 309.32 329.94 282.03 329.94 282.03 313.82"></polygon><polygon class="cls-1" points="169.65 288.93 169.65 334.76 175.34 334.76 175.34 298.92 204.18 334.76 208.92 334.76 208.92 288.93 203.23 288.93 203.23 324.77 174.39 288.93 169.65 288.93"></polygon><polygon class="cls-1" points="239.82 334.76 245.44 334.76 245.44 293.75 261.5 293.75 261.5 288.93 223.76 288.93 223.76 293.75 239.82 293.75 239.82 334.76"></polygon><path class="cls-1" d="m365.11,295.17c-4.13-4.43-10.03-6.77-17.1-6.77-14.09,0-24.32,9.86-24.32,23.45s10.2,23.45,24.25,23.45c6.97,0,13.05-2.42,17.17-6.84l-3.64-3.53c-3.57,3.59-8.01,5.41-13.19,5.41-10.77,0-18.9-7.95-18.9-18.5s8.12-18.5,18.9-18.5c5.22,0,9.66,1.8,13.19,5.35l3.64-3.53Z"></path><polygon class="cls-1" points="388.11 288.93 382.42 288.93 382.42 334.76 388.11 334.76 388.11 313.89 416 313.89 416 334.76 421.69 334.76 421.69 288.93 416 288.93 416 309.07 388.11 309.07 388.11 288.93"></polygon><path class="cls-1" d="m262.63,401.18v-25.86h-5.69v26.12c0,13.05,6.86,20.24,19.3,20.24s19.3-7.19,19.3-20.24v-26.12h-5.49v25.86c0,10.32-4.62,15.55-13.75,15.55s-13.68-5.23-13.68-15.55Z"></path><polygon class="cls-1" points="316.8 375.33 316.8 421.16 322.49 421.16 322.49 385.31 351.33 421.16 356.07 421.16 356.07 375.33 350.38 375.33 350.38 411.17 321.55 375.33 316.8 375.33"></polygon><polygon class="cls-1" points="237.48 397.47 214 397.47 214 380.15 240.36 380.15 240.36 375.33 208.31 375.33 208.31 421.16 214 421.16 214 402.22 237.48 402.22 237.48 397.47"></polygon><path class="cls-1" d="m396.91,375.33h-19.24v45.83h19.24c14.83,0,24.79-9.21,24.79-22.91s-9.96-22.91-24.79-22.91Zm-.4,41.01h-13.14v-36.19h13.14c11.66,0,19.5,7.27,19.5,18.09s-7.84,18.09-19.5,18.09Z"></path></svg> 