<?xml version="1.0" encoding="UTF-8"?> <svg xmlns="http://www.w3.org/2000/svg" width="56" height="56" viewBox="0 0 56 56" fill="none"><rect width="56" height="56" rx="12" fill="white"></rect><path fill-rule="evenodd" clip-rule="evenodd" d="M36.5011 22.642C35.8889 22.413 34.9295 22.1669 33.7308 22.1669C30.6765 22.1669 28.5243 23.7003 28.5063 25.8964C28.4896 27.5215 30.0422 28.4263 31.2152 28.968C32.4179 29.521 32.8229 29.8746 32.8166 30.3691C32.8089 31.1268 31.8563 31.4728 30.9677 31.4728C29.7302 31.4728 29.0733 31.3023 28.058 30.8802L27.6593 30.7003L27.2254 33.2307C27.9482 33.5456 29.2824 33.8196 30.6689 33.8336C33.9186 33.8336 36.0284 32.3182 36.0519 29.9723C36.0632 28.6864 35.2401 27.7078 33.4572 26.902C32.3759 26.3787 31.7145 26.0291 31.7217 25.5C31.7217 25.0312 32.2811 24.5277 33.4911 24.5277C34.5033 24.5119 35.2347 24.7319 35.8049 24.9614L36.0826 25.091L36.5011 22.642ZM22.1999 33.6654L24.1327 22.3637H27.2235L25.2898 33.6654H22.1999ZM42.0398 22.3751H44.4286L46.9302 33.6687H44.0615C44.0615 33.6687 43.7784 32.3711 43.6859 31.9756C43.4477 31.9756 42.4559 31.9744 41.5206 31.9732L41.5115 31.9732L41.5099 31.9732C40.678 31.9721 39.8934 31.9711 39.7268 31.9711C39.6068 32.2767 39.0763 33.6687 39.0763 33.6687H35.8297L40.4203 23.3123C40.7463 22.5757 41.2994 22.3751 42.0398 22.3751ZM40.6162 29.6595C40.8722 29.0084 41.8483 26.4996 41.8483 26.4996C41.8392 26.5143 41.8993 26.3588 41.9814 26.1463C42.0675 25.9235 42.1778 25.6381 42.2578 25.4211L42.4663 26.3957C42.4663 26.3957 43.0587 29.093 43.1828 29.6595H40.6162ZM16.5823 30.0787L19.6081 22.3719H22.8822L18.0162 33.6516L14.7452 33.6561L11.9785 23.7712C13.9406 24.7502 15.6965 26.7065 16.2595 28.5125L16.5823 30.0787Z" fill="#1A1F71"></path><path fill-rule="evenodd" clip-rule="evenodd" d="M13.7745 22.3645H8.78928L8.75 22.5993C12.6282 23.5357 15.1944 25.7961 16.2595 28.5128L15.1755 23.3183C14.9886 22.6025 14.4454 22.3892 13.7745 22.3645Z" fill="#F9A51A"></path></svg> 