<?xml version="1.0" encoding="UTF-8"?> <svg xmlns="http://www.w3.org/2000/svg" width="223" height="74" viewBox="0 0 223 74" fill="none"><rect x="0.251953" y="0.5" width="222" height="73" rx="8" fill="white"></rect><path d="M19.532 16.4L16.685 24.161L13.76 16.4H12.434L15.983 25.5H17.361L20.832 16.4H19.532ZM22.234 17.635H23.482V16.348H22.234V17.635ZM22.273 25.5H23.443V18.974H22.273V25.5ZM29.9373 18.974L28.0393 24.239L26.1283 18.974H24.8933L27.4023 25.5H28.6373L31.1463 18.974H29.9373ZM32.5482 17.635H33.7962V16.348H32.5482V17.635ZM32.5872 25.5H33.7572V18.974H32.5872V25.5ZM38.3795 18.818C36.9105 18.818 35.8575 19.715 35.6105 21.028L36.5595 21.314C36.8195 20.365 37.3655 19.858 38.3275 19.858C39.2765 19.858 39.8875 20.456 39.9265 21.457L38.1455 21.795C36.5335 22.094 35.8445 22.731 35.8445 23.771C35.8445 24.902 36.6895 25.63 37.8985 25.63C38.8605 25.63 39.5755 25.175 39.9915 24.356V25.5H41.0835V21.444C41.0835 19.871 40.0305 18.818 38.3795 18.818ZM38.1195 24.759C37.4825 24.759 37.0145 24.408 37.0145 23.784C37.0145 23.147 37.4955 22.822 38.5615 22.614L39.9265 22.367V22.562C39.9265 23.849 39.1725 24.759 38.1195 24.759ZM46.5223 18.818C45.5473 18.818 44.7933 19.273 44.3253 20.144V18.974H43.1553V25.5H44.3253V22.406C44.3253 20.677 45.1833 19.806 46.2493 19.806C47.1853 19.806 47.7573 20.456 47.7573 21.522V25.5H48.9273V21.379C48.9273 19.793 47.9653 18.818 46.5223 18.818ZM59.4488 20.755C60.2678 20.391 60.7488 19.676 60.7488 18.753C60.7488 17.349 59.6178 16.4 57.9278 16.4H54.1838V25.5H58.1098C59.8648 25.5 60.9958 24.486 60.9958 22.978C60.9958 21.899 60.4238 21.106 59.4488 20.755ZM59.5268 18.883C59.5268 19.728 58.8898 20.313 57.9018 20.313H55.4188V17.453H57.9018C58.8898 17.453 59.5268 18.025 59.5268 18.883ZM58.0318 24.447H55.4188V21.34H58.0058C59.0978 21.34 59.7738 21.951 59.7738 22.887C59.7738 23.823 59.1108 24.447 58.0318 24.447ZM65.6691 18.857C64.9541 18.857 64.3691 19.208 64.0051 20.079V18.974H62.8351V25.5H64.0051V22.705C64.0051 20.677 64.5771 19.923 65.5391 19.923C65.7731 19.923 65.9681 19.975 66.1241 20.053L66.5271 19.078C66.3061 18.948 66.0071 18.857 65.6691 18.857ZM70.1381 18.818C68.6691 18.818 67.6161 19.715 67.3691 21.028L68.3181 21.314C68.5781 20.365 69.1241 19.858 70.0861 19.858C71.0351 19.858 71.6461 20.456 71.6851 21.457L69.9041 21.795C68.2921 22.094 67.6031 22.731 67.6031 23.771C67.6031 24.902 68.4481 25.63 69.6571 25.63C70.6191 25.63 71.3341 25.175 71.7501 24.356V25.5H72.8421V21.444C72.8421 19.871 71.7891 18.818 70.1381 18.818ZM69.8781 24.759C69.2411 24.759 68.7731 24.408 68.7731 23.784C68.7731 23.147 69.2541 22.822 70.3201 22.614L71.6851 22.367V22.562C71.6851 23.849 70.9311 24.759 69.8781 24.759ZM77.0459 25.63C78.6189 25.63 79.6719 24.85 79.6719 23.641C79.6719 20.898 75.8109 22.354 75.8109 20.638C75.8109 20.079 76.3179 19.715 77.1109 19.715C77.8519 19.715 78.3329 20.118 78.5539 20.742L79.4769 20.43C79.2039 19.442 78.3589 18.818 77.1889 18.818C75.7329 18.818 74.7319 19.559 74.7319 20.742C74.7319 23.524 78.5799 22.081 78.5799 23.758C78.5799 24.33 78.0209 24.707 77.1239 24.707C76.2009 24.707 75.5899 24.226 75.3429 23.433L74.4459 23.745C74.7189 24.954 75.6939 25.63 77.0459 25.63ZM89.0933 18.974L87.7023 24.174L86.1163 18.974H84.8943L83.3473 24.161L81.9043 18.974H80.6953L82.6323 25.5H83.9193L85.4793 20.326L87.0783 25.5H88.3653L90.2893 18.974H89.0933ZM94.5113 18.818C92.6653 18.818 91.3263 20.222 91.3263 22.25C91.3263 24.317 92.7823 25.63 94.5893 25.63C95.8503 25.63 96.8123 24.967 97.3323 24.018L96.5393 23.524C96.1493 24.213 95.4733 24.668 94.6153 24.668C93.5103 24.668 92.5483 23.927 92.4703 22.497H97.4103C97.6053 20.456 96.5003 18.818 94.5113 18.818ZM94.4853 19.754C95.5383 19.754 96.2273 20.508 96.3183 21.587H92.5093C92.6263 20.495 93.4323 19.754 94.4853 19.754ZM99.2791 25.5H100.449V16.4H99.2791V25.5ZM102.703 25.5H103.873V16.4H102.703V25.5Z" fill="#1F1E1D"></path><path d="M155.925 22.874C155.925 20.924 154.378 20.586 152.948 20.313V17.44C153.689 17.609 154.196 18.116 154.443 18.857L155.678 18.506C155.301 17.258 154.365 16.413 152.948 16.257V15.126H151.999V16.257C150.374 16.426 149.269 17.453 149.269 18.922C149.269 20.768 150.647 21.171 151.999 21.431V24.473C151.011 24.33 150.361 23.719 150.114 22.666L148.879 23.017C149.178 24.551 150.257 25.5 151.999 25.617V26.761H152.948V25.604C154.742 25.422 155.925 24.421 155.925 22.874ZM150.556 18.792C150.556 18.077 151.102 17.518 151.999 17.401V20.118C151.18 19.923 150.556 19.611 150.556 18.792ZM152.948 24.473V21.626C153.871 21.834 154.612 22.133 154.612 23.056C154.612 23.81 153.962 24.343 152.948 24.473ZM161.254 19.611C160.214 19.611 159.395 20.066 158.927 20.82C158.94 18.636 159.785 17.427 161.124 17.427C161.982 17.427 162.541 17.973 162.866 18.974L163.997 18.61C163.568 17.05 162.606 16.231 161.098 16.231C158.966 16.231 157.601 18.038 157.601 21.002C157.601 24.005 158.927 25.63 161.059 25.63C162.944 25.63 164.231 24.369 164.231 22.562C164.231 20.833 162.996 19.611 161.254 19.611ZM161.046 24.447C159.98 24.447 159.239 23.667 159.239 22.575C159.239 21.47 159.98 20.703 161.02 20.703C162.073 20.703 162.84 21.47 162.84 22.575C162.84 23.693 162.125 24.447 161.046 24.447ZM165.902 24.005V25.5H166.786V25.968C166.786 26.319 166.591 26.54 166.279 26.54C166.084 26.54 165.902 26.514 165.746 26.41L165.473 26.865C165.694 27.021 165.967 27.099 166.279 27.099C166.981 27.099 167.436 26.618 167.436 25.877V24.005H165.902ZM172.964 19.611C171.924 19.611 171.105 20.066 170.637 20.82C170.65 18.636 171.495 17.427 172.834 17.427C173.692 17.427 174.251 17.973 174.576 18.974L175.707 18.61C175.278 17.05 174.316 16.231 172.808 16.231C170.676 16.231 169.311 18.038 169.311 21.002C169.311 24.005 170.637 25.63 172.769 25.63C174.654 25.63 175.941 24.369 175.941 22.562C175.941 20.833 174.706 19.611 172.964 19.611ZM172.756 24.447C171.69 24.447 170.949 23.667 170.949 22.575C170.949 21.47 171.69 20.703 172.73 20.703C173.783 20.703 174.55 21.47 174.55 22.575C174.55 23.693 173.835 24.447 172.756 24.447ZM180.524 16.231C178.678 16.231 177.352 17.492 177.352 19.299C177.352 21.054 178.574 22.263 180.316 22.263C181.356 22.263 182.175 21.821 182.643 21.054C182.63 23.225 181.785 24.447 180.459 24.447C179.588 24.447 179.029 23.888 178.704 22.874L177.586 23.264C178.015 24.824 178.977 25.63 180.485 25.63C182.604 25.63 183.982 23.823 183.982 20.833C183.982 17.895 182.695 16.231 180.524 16.231ZM180.55 21.158C179.497 21.158 178.73 20.391 178.73 19.286C178.73 18.168 179.458 17.427 180.537 17.427C181.59 17.427 182.344 18.194 182.344 19.286C182.344 20.391 181.59 21.158 180.55 21.158ZM189.293 25.63C191.555 25.63 192.803 23.953 192.803 20.937C192.803 17.921 191.555 16.231 189.293 16.231C187.031 16.231 185.783 17.921 185.783 20.937C185.783 23.953 187.031 25.63 189.293 25.63ZM189.293 24.408C187.928 24.408 187.161 23.173 187.161 20.937C187.161 18.701 187.928 17.453 189.293 17.453C190.658 17.453 191.425 18.701 191.425 20.937C191.425 23.173 190.658 24.408 189.293 24.408ZM194.529 25.5H195.937V24.125H194.529V25.5ZM200.156 25.6C201.906 25.6 202.886 24.31 202.886 21.99C202.886 19.66 201.906 18.37 200.156 18.37C198.396 18.37 197.416 19.66 197.416 21.99C197.416 24.31 198.396 25.6 200.156 25.6ZM200.156 24.54C199.166 24.54 198.616 23.63 198.616 21.99C198.616 20.35 199.166 19.43 200.156 19.43C201.136 19.43 201.686 20.35 201.686 21.99C201.686 23.63 201.136 24.54 200.156 24.54ZM206.989 25.6C208.739 25.6 209.719 24.31 209.719 21.99C209.719 19.66 208.739 18.37 206.989 18.37C205.229 18.37 204.249 19.66 204.249 21.99C204.249 24.31 205.229 25.6 206.989 25.6ZM206.989 24.54C205.999 24.54 205.449 23.63 205.449 21.99C205.449 20.35 205.999 19.43 206.989 19.43C207.969 19.43 208.519 20.35 208.519 21.99C208.519 23.63 207.969 24.54 206.989 24.54Z" fill="#00473C"></path><rect x="12.252" y="37.5" width="42.4615" height="24" rx="1.84615" fill="#ECEBE3" fill-opacity="0.5"></rect><path fill-rule="evenodd" clip-rule="evenodd" d="M37.056 54.5768C40.1805 54.5768 42.7135 52.0972 42.7135 49.0384C42.7135 45.9796 40.1805 43.5 37.056 43.5C33.9314 43.5 31.3984 45.9796 31.3984 49.0384C31.3984 52.0972 33.9314 54.5768 37.056 54.5768Z" fill="#F79E1B"></path><path fill-rule="evenodd" clip-rule="evenodd" d="M29.9095 54.5768C33.0341 54.5768 35.567 52.0972 35.567 49.0384C35.567 45.9796 33.0341 43.5 29.9095 43.5C26.7849 43.5 24.252 45.9796 24.252 49.0384C24.252 52.0972 26.7849 54.5768 29.9095 54.5768Z" fill="#EB001B"></path><path fill-rule="evenodd" clip-rule="evenodd" d="M33.4826 44.7444C32.2107 45.76 31.3984 47.3064 31.3984 49.0385C31.3984 50.7706 32.2107 52.317 33.4826 53.3326C34.7546 52.317 35.5668 50.7706 35.5668 49.0385C35.5668 47.3064 34.7546 45.76 33.4826 44.7444Z" fill="#FF5F00"></path><path d="M60.4823 49.348L61.4173 48.083L62.3413 49.348L63.0233 48.842L62.0993 47.577L63.5953 47.093L63.3313 46.279L61.8463 46.763V45.223H60.9883V46.774L59.5033 46.29L59.2393 47.104L60.7133 47.577L59.8003 48.853L60.4823 49.348ZM66.1538 49.348L67.0888 48.083L68.0128 49.348L68.6948 48.842L67.7708 47.577L69.2668 47.093L69.0028 46.279L67.5178 46.763V45.223H66.6598V46.774L65.1748 46.29L64.9108 47.104L66.3848 47.577L65.4718 48.853L66.1538 49.348ZM71.8252 49.348L72.7602 48.083L73.6842 49.348L74.3662 48.842L73.4422 47.577L74.9382 47.093L74.6742 46.279L73.1892 46.763V45.223H72.3312V46.774L70.8462 46.29L70.5822 47.104L72.0562 47.577L71.1432 48.853L71.8252 49.348ZM77.4967 49.348L78.4317 48.083L79.3557 49.348L80.0377 48.842L79.1137 47.577L80.6097 47.093L80.3457 46.279L78.8607 46.763V45.223H78.0027V46.774L76.5177 46.29L76.2537 47.104L77.7277 47.577L76.8147 48.853L77.4967 49.348ZM84.4782 45.3V47.071H85.5232V46.202H88.5702C86.9202 48.16 86.1282 50.008 86.1282 52.461V53H87.1622V52.45C87.1622 49.777 87.9102 48.237 89.6922 46.114V45.3H84.4782ZM94.007 47.863C93.336 47.863 92.742 48.105 92.324 48.523L92.654 46.202H96.108V45.3H91.84L91.235 49.623L92.148 49.843C92.368 49.216 92.951 48.71 93.787 48.71C94.788 48.71 95.47 49.425 95.47 50.47C95.47 51.515 94.799 52.197 93.809 52.197C92.973 52.197 92.423 51.768 92.115 51.064L91.224 51.427C91.587 52.439 92.511 53.11 93.765 53.11C95.393 53.11 96.504 52.043 96.504 50.459C96.504 48.919 95.47 47.863 94.007 47.863ZM102.041 48.985C102.789 48.688 103.24 48.083 103.24 47.269C103.24 46.048 102.261 45.168 100.776 45.168C99.3024 45.168 98.3124 46.048 98.3124 47.269C98.3124 48.083 98.7634 48.688 99.5114 48.985C98.6094 49.304 98.0594 49.997 98.0594 50.91C98.0594 52.186 99.1484 53.11 100.776 53.11C102.415 53.11 103.493 52.186 103.493 50.91C103.493 49.997 102.943 49.304 102.041 48.985ZM100.787 46.059C101.656 46.059 102.228 46.565 102.228 47.346C102.228 48.105 101.656 48.567 100.787 48.567C99.8964 48.567 99.3244 48.105 99.3244 47.346C99.3244 46.565 99.8964 46.059 100.787 46.059ZM100.776 52.219C99.7644 52.219 99.0934 51.669 99.0934 50.844C99.0934 50.008 99.7644 49.425 100.776 49.425C101.788 49.425 102.459 50.008 102.459 50.844C102.459 51.669 101.788 52.219 100.776 52.219ZM106.398 52.087L107.729 51.141C109.445 49.931 110.083 48.787 110.083 47.61C110.083 46.125 109.082 45.168 107.542 45.168C105.969 45.168 104.946 46.125 104.946 47.599C104.946 48.017 105.023 48.402 105.155 48.732L106.079 48.424C105.991 48.182 105.936 47.907 105.936 47.621C105.936 46.686 106.552 46.081 107.498 46.081C108.433 46.081 109.038 46.697 109.038 47.665C109.038 48.611 108.521 49.557 107.003 50.646L104.935 52.142V53H110.149V52.087H106.398Z" fill="#897E7A"></path><rect x="134.252" y="37.5" width="76" height="24" rx="4" fill="#E9F7EF"></rect><path d="M145.574 53.11C147.367 53.11 148.588 52.23 148.588 50.778C148.588 47.654 144.067 49.326 144.067 47.324C144.067 46.653 144.65 46.158 145.596 46.158C146.465 46.158 147.07 46.631 147.323 47.379L148.379 47.082C148.027 45.916 147.092 45.157 145.662 45.157C144.067 45.157 142.956 46.081 142.956 47.434C142.956 50.558 147.444 48.864 147.444 50.932C147.444 51.636 146.718 52.109 145.651 52.109C144.606 52.109 143.924 51.592 143.649 50.602L142.626 50.91C142.934 52.274 143.979 53.11 145.574 53.11ZM153.718 47.467V49.942C153.718 51.405 153.036 52.153 152.156 52.153C151.419 52.153 150.99 51.636 150.99 50.833V47.467H149.868V50.965C149.868 52.285 150.682 53.11 151.87 53.11C152.695 53.11 153.333 52.714 153.718 51.999V53H154.84V47.467H153.718ZM159.089 53.11C160.288 53.11 161.168 52.439 161.542 51.438L160.651 51.108C160.332 51.79 159.859 52.153 159.1 52.153C158.165 52.153 157.472 51.361 157.472 50.217C157.472 49.073 158.165 48.281 159.089 48.281C159.815 48.281 160.277 48.655 160.519 49.348L161.487 49.062C161.168 47.995 160.343 47.335 159.1 47.335C157.505 47.335 156.35 48.545 156.35 50.294C156.35 51.966 157.439 53.11 159.089 53.11ZM165.435 53.11C166.634 53.11 167.514 52.439 167.888 51.438L166.997 51.108C166.678 51.79 166.205 52.153 165.446 52.153C164.511 52.153 163.818 51.361 163.818 50.217C163.818 49.073 164.511 48.281 165.435 48.281C166.161 48.281 166.623 48.655 166.865 49.348L167.833 49.062C167.514 47.995 166.689 47.335 165.446 47.335C163.851 47.335 162.696 48.545 162.696 50.294C162.696 51.966 163.785 53.11 165.435 53.11ZM171.747 47.335C170.174 47.335 169.041 48.534 169.041 50.25C169.041 51.999 170.273 53.11 171.813 53.11C172.88 53.11 173.694 52.571 174.145 51.779L173.408 51.284C173.078 51.834 172.528 52.186 171.835 52.186C170.944 52.186 170.185 51.603 170.13 50.503H174.222C174.431 48.787 173.452 47.335 171.747 47.335ZM171.725 48.215C172.55 48.215 173.111 48.798 173.188 49.656H170.163C170.251 48.787 170.9 48.215 171.725 48.215ZM178.147 47.335C176.574 47.335 175.441 48.534 175.441 50.25C175.441 51.999 176.673 53.11 178.213 53.11C179.28 53.11 180.094 52.571 180.545 51.779L179.808 51.284C179.478 51.834 178.928 52.186 178.235 52.186C177.344 52.186 176.585 51.603 176.53 50.503H180.622C180.831 48.787 179.852 47.335 178.147 47.335ZM178.125 48.215C178.95 48.215 179.511 48.798 179.588 49.656H176.563C176.651 48.787 177.3 48.215 178.125 48.215ZM186.207 45.3V48.237C185.833 47.665 185.228 47.335 184.425 47.335C182.863 47.335 181.84 48.523 181.84 50.217C181.84 51.922 182.863 53.11 184.425 53.11C185.239 53.11 185.833 52.78 186.207 52.208V53H187.329V45.3H186.207ZM184.59 52.153C183.611 52.153 182.962 51.361 182.962 50.217C182.962 49.073 183.611 48.281 184.59 48.281C185.569 48.281 186.207 49.073 186.207 50.217C186.207 51.361 185.569 52.153 184.59 52.153ZM191.579 47.335C190.006 47.335 188.873 48.534 188.873 50.25C188.873 51.999 190.105 53.11 191.645 53.11C192.712 53.11 193.526 52.571 193.977 51.779L193.24 51.284C192.91 51.834 192.36 52.186 191.667 52.186C190.776 52.186 190.017 51.603 189.962 50.503H194.054C194.263 48.787 193.284 47.335 191.579 47.335ZM191.557 48.215C192.382 48.215 192.943 48.798 193.02 49.656H189.995C190.083 48.787 190.732 48.215 191.557 48.215ZM199.639 45.3V48.237C199.265 47.665 198.66 47.335 197.857 47.335C196.295 47.335 195.272 48.523 195.272 50.217C195.272 51.922 196.295 53.11 197.857 53.11C198.671 53.11 199.265 52.78 199.639 52.208V53H200.761V45.3H199.639ZM198.022 52.153C197.043 52.153 196.394 51.361 196.394 50.217C196.394 49.073 197.043 48.281 198.022 48.281C199.001 48.281 199.639 49.073 199.639 50.217C199.639 51.361 199.001 52.153 198.022 52.153Z" fill="#239754"></path></svg> 